<svg width="20" height="20" viewBox="0 0 20 20" fill="none" xmlns="http://www.w3.org/2000/svg">
<g id="Icons">
<path id="Exclude" fill-rule="evenodd" clip-rule="evenodd" d="M16.1844 2.84531L17.4344 5.34531C17.4775 5.43226 17.4999 5.52797 17.5 5.625V16.25C17.5 16.5815 17.3683 16.8995 17.1339 17.1339C16.8995 17.3683 16.5815 17.5 16.25 17.5H3.75C3.41848 17.5 3.10054 17.3683 2.86612 17.1339C2.6317 16.8995 2.5 16.5815 2.5 16.25V5.625C2.50009 5.52797 2.52254 5.43226 2.56563 5.34531L3.81562 2.84531C3.86759 2.74148 3.94744 2.65417 4.04625 2.59317C4.14505 2.53218 4.25889 2.49992 4.375 2.5H15.625C15.7411 2.49992 15.855 2.53218 15.9538 2.59317C16.0526 2.65417 16.1324 2.74148 16.1844 2.84531ZM4.76094 3.75L4.13594 5H15.8641L15.2391 3.75H4.76094ZM12.7392 10.7893C12.8151 10.7578 12.884 10.7117 12.942 10.6536C13.0002 10.5956 13.0463 10.5266 13.0777 10.4508C13.1092 10.3749 13.1253 10.2936 13.1253 10.2114C13.1253 10.1293 13.1092 10.048 13.0777 9.97209C13.0463 9.89622 13.0002 9.82729 12.942 9.76924L10.442 7.26924C10.384 7.21113 10.3151 7.16503 10.2392 7.13358C10.1633 7.10213 10.082 7.08594 9.99986 7.08594C9.91772 7.08594 9.8364 7.10213 9.76052 7.13358C9.68465 7.16503 9.61572 7.21113 9.55767 7.26924L7.05767 9.76924C6.9404 9.88652 6.87451 10.0456 6.87451 10.2114C6.87451 10.3773 6.9404 10.5363 7.05767 10.6536C7.17495 10.7709 7.33401 10.8368 7.49986 10.8368C7.66571 10.8368 7.82477 10.7709 7.94205 10.6536L9.37486 9.22002V13.9614C9.37486 14.1272 9.44071 14.2862 9.55792 14.4034C9.67513 14.5206 9.8341 14.5864 9.99986 14.5864C10.1656 14.5864 10.3246 14.5206 10.4418 14.4034C10.559 14.2862 10.6249 14.1272 10.6249 13.9614V9.22002L12.0577 10.6536C12.1157 10.7117 12.1846 10.7578 12.2605 10.7893C12.3364 10.8207 12.4177 10.8369 12.4999 10.8369C12.582 10.8369 12.6633 10.8207 12.7392 10.7893Z" fill="#28519E"/>
</g>
</svg>
