<svg width="21" height="21" viewBox="0 0 21 21" fill="none" xmlns="http://www.w3.org/2000/svg">
<path fill-rule="evenodd" clip-rule="evenodd" d="M4.03587 17.3614L2.75383 14.8777C2.70964 14.7913 2.68595 14.6959 2.68462 14.5989L2.54801 3.97476C2.54375 3.64326 2.67134 3.32365 2.90273 3.08624C3.13412 2.84882 3.45034 2.71305 3.78183 2.70879L16.2808 2.54807C16.6123 2.54381 16.9319 2.67141 17.1693 2.9028C17.4067 3.13418 17.5425 3.4504 17.5468 3.7819L17.6834 14.406C17.6845 14.503 17.6633 14.599 17.6214 14.6865L16.4036 17.2024C16.353 17.3069 16.2742 17.3952 16.1762 17.4575C16.0782 17.5197 15.9648 17.5535 15.8487 17.5549L4.59964 17.6995C4.48354 17.7011 4.36929 17.6703 4.26971 17.6106C4.17014 17.5509 4.08916 17.4646 4.03587 17.3614ZM15.4467 16.3099L16.0556 15.052L4.32845 15.2028L4.96947 16.4447L15.4467 16.3099ZM7.37863 9.37382C7.30316 9.40624 7.23483 9.45322 7.17754 9.51207C7.12018 9.57086 7.07497 9.64038 7.04449 9.71665C7.01402 9.79292 6.99888 9.87445 6.99994 9.95658C7.00099 10.0387 7.01822 10.1198 7.05065 10.1953C7.08308 10.2708 7.13006 10.3391 7.18891 10.3964L9.72085 12.864C9.77963 12.9214 9.84915 12.9666 9.92542 12.9971C10.0017 13.0275 10.0832 13.0427 10.1654 13.0416C10.2475 13.0406 10.3286 13.0233 10.4041 12.9909C10.4795 12.9585 10.5479 12.9115 10.6051 12.8527L13.0728 10.3207C13.1886 10.2019 13.2524 10.0421 13.2503 9.87621C13.2481 9.71038 13.1802 9.55218 13.0614 9.43642C12.9427 9.32066 12.7828 9.25682 12.6169 9.25896C12.4511 9.26109 12.2929 9.32901 12.1771 9.44779L10.7629 10.8997L10.7019 6.15867C10.6998 5.99292 10.6319 5.83481 10.5132 5.71912C10.3945 5.60343 10.2347 5.53963 10.0689 5.54176C9.90317 5.54389 9.74506 5.61178 9.62937 5.73048C9.51367 5.84919 9.44987 6.009 9.45201 6.17474L9.51297 10.9158L8.06184 9.5007C8.00305 9.44334 7.93353 9.39814 7.85726 9.36766C7.78099 9.33719 7.69946 9.32204 7.61733 9.3231C7.53521 9.32416 7.45409 9.34139 7.37863 9.37382Z" fill="#ffffff"/>
</svg>
