<svg width="20" height="20" viewBox="0 0 20 20" fill="none" xmlns="http://www.w3.org/2000/svg">
<g id="Assign recieved">
<path id="Vector" d="M14.1668 15.0006H17.5001V13.334H14.1668V11.6673L11.6668 14.1673L14.1668 16.6673V15.0006ZM9.16676 3.33398C7.33342 3.33398 5.83342 4.83398 5.83342 6.66732C5.83342 8.50065 7.33342 10.0007 9.16676 10.0007C11.0001 10.0007 12.5001 8.50065 12.5001 6.66732C12.5001 4.83398 11.0001 3.33398 9.16676 3.33398ZM9.16676 11.6673C5.50009 11.6673 2.50009 13.1673 2.50009 15.0006V16.6673H10.4168C10.1668 16.0006 10.0001 15.334 10.0001 14.584C10.0001 13.584 10.2501 12.6673 10.7501 11.7507C10.2501 11.7507 9.75009 11.6673 9.16676 11.6673Z" fill="white"/>
</g>
</svg>
