<svg width="17" height="16" viewBox="0 0 17 16" fill="none" xmlns="http://www.w3.org/2000/svg">
<path d="M6.19231 2.46134H10.0692V1.38442C10.0692 1.03442 10.3385 0.738265 10.7154 0.738265C11.0654 0.738265 11.3615 1.03442 11.3615 1.38442V2.46134H12.4385C13.3808 2.46134 14.1615 3.24211 14.1615 4.18442V12.7998C14.1615 13.769 13.3808 14.5229 12.4385 14.5229H3.82308C2.85385 14.5229 2.10001 13.769 2.10001 12.7998V4.18442C2.10001 3.24211 2.85385 2.46134 3.82308 2.46134H4.90001V1.38442C4.90001 1.03442 5.16924 0.738265 5.54616 0.738265C5.89616 0.738265 6.19231 1.03442 6.19231 1.38442V2.46134ZM3.39231 12.7998C3.39231 13.0421 3.58078 13.2306 3.82308 13.2306H12.4385C12.6539 13.2306 12.8692 13.0421 12.8692 12.7998V5.9075H3.39231V12.7998Z" fill="#343435"/>
</svg>
