<svg xmlns="http://www.w3.org/2000/svg" width="20" height="20" viewBox="0 0 20 20" fill="none">
  <path d="M3.08672 11.8367L9.33672 5.5867C9.42382 5.4993 9.52731 5.42996 9.64127 5.38264C9.75522 5.33532 9.8774 5.31096 10.0008 5.31096C10.1242 5.31096 10.2463 5.33532 10.3603 5.38264C10.4743 5.42996 10.5778 5.4993 10.6648 5.5867L16.9148 11.8367C17.091 12.0128 17.1899 12.2517 17.1899 12.5008C17.1899 12.7498 17.091 12.9887 16.9148 13.1648C16.7387 13.3409 16.4999 13.4399 16.2508 13.4399C16.0017 13.4399 15.7628 13.3409 15.5867 13.1648L10 7.57811L4.41329 13.1656C4.23717 13.3417 3.99829 13.4407 3.74922 13.4407C3.50015 13.4407 3.26128 13.3417 3.08516 13.1656C2.90904 12.9895 2.81009 12.7506 2.81009 12.5015C2.81009 12.2525 2.90904 12.0136 3.08516 11.8375L3.08672 11.8367Z" fill="#28519E"/>
</svg>