<svg width="21" height="20" viewBox="0 0 21 20" fill="none" xmlns="http://www.w3.org/2000/svg">
<g id="Comment">
<path id="Vector" d="M17.375 3.125H3.625C3.29348 3.125 2.97554 3.2567 2.74112 3.49112C2.5067 3.72554 2.375 4.04348 2.375 4.375V14.375C2.375 14.7065 2.5067 15.0245 2.74112 15.2589C2.97554 15.4933 3.29348 15.625 3.625 15.625L8.27344 15.6297L9.42812 17.518C9.53891 17.7028 9.6956 17.8558 9.88297 17.9622C10.0703 18.0686 10.282 18.1248 10.4975 18.1253C10.713 18.1257 10.9249 18.0705 11.1128 17.9649C11.3006 17.8593 11.4579 17.707 11.5695 17.5227L12.7289 15.625H17.375C17.7065 15.625 18.0245 15.4933 18.2589 15.2589C18.4933 15.0245 18.625 14.7065 18.625 14.375V4.375C18.625 4.04348 18.4933 3.72554 18.2589 3.49112C18.0245 3.2567 17.7065 3.125 17.375 3.125ZM13 11.25H8C7.83424 11.25 7.67527 11.1842 7.55806 11.0669C7.44085 10.9497 7.375 10.7908 7.375 10.625C7.375 10.4592 7.44085 10.3003 7.55806 10.1831C7.67527 10.0658 7.83424 10 8 10H13C13.1658 10 13.3247 10.0658 13.4419 10.1831C13.5592 10.3003 13.625 10.4592 13.625 10.625C13.625 10.7908 13.5592 10.9497 13.4419 11.0669C13.3247 11.1842 13.1658 11.25 13 11.25ZM13 8.75H8C7.83424 8.75 7.67527 8.68415 7.55806 8.56694C7.44085 8.44973 7.375 8.29076 7.375 8.125C7.375 7.95924 7.44085 7.80027 7.55806 7.68306C7.67527 7.56585 7.83424 7.5 8 7.5H13C13.1658 7.5 13.3247 7.56585 13.4419 7.68306C13.5592 7.80027 13.625 7.95924 13.625 8.125C13.625 8.29076 13.5592 8.44973 13.4419 8.56694C13.3247 8.68415 13.1658 8.75 13 8.75Z" fill="#28519E"/>
</g>
</svg>
