<svg width="20" height="20" viewBox="0 0 20 20" fill="none" xmlns="http://www.w3.org/2000/svg">
<g id="Assign recieved">
<path id="Vector" d="M14.1668 14.9997H17.5001V13.333H14.1668V11.6663L11.6668 14.1663L14.1668 16.6663V14.9997ZM9.16676 3.33301C7.33342 3.33301 5.83342 4.83301 5.83342 6.66634C5.83342 8.49967 7.33342 9.99967 9.16676 9.99967C11.0001 9.99967 12.5001 8.49967 12.5001 6.66634C12.5001 4.83301 11.0001 3.33301 9.16676 3.33301ZM9.16676 11.6663C5.50009 11.6663 2.50009 13.1663 2.50009 14.9997V16.6663H10.4168C10.1668 15.9997 10.0001 15.333 10.0001 14.583C10.0001 13.583 10.2501 12.6663 10.7501 11.7497C10.2501 11.7497 9.75009 11.6663 9.16676 11.6663Z" fill="white"/>
</g>
</svg>
