<svg xmlns="http://www.w3.org/2000/svg" width="16" height="16" viewBox="0 0 16 16" fill="none">
  <g clip-path="url(#clip0_586_16570)">
    <path d="M9.99999 9.33332C8.21999 9.33332 4.66666 10.22 4.66666 12V13.3333H15.3333V12C15.3333 10.22 11.78 9.33332 9.99999 9.33332ZM3.99999 6.66666V4.66666H2.66666V6.66666H0.666656V7.99999H2.66666V9.99999H3.99999V7.99999H5.99999V6.66666M9.99999 7.99999C10.7072 7.99999 11.3855 7.71904 11.8856 7.21894C12.3857 6.71884 12.6667 6.04057 12.6667 5.33332C12.6667 4.62608 12.3857 3.9478 11.8856 3.4477C11.3855 2.94761 10.7072 2.66666 9.99999 2.66666C9.29275 2.66666 8.61447 2.94761 8.11437 3.4477C7.61427 3.9478 7.33332 4.62608 7.33332 5.33332C7.33332 6.04057 7.61427 6.71884 8.11437 7.21894C8.61447 7.71904 9.29275 7.99999 9.99999 7.99999Z" fill="#28519E"/>
  </g>
  <defs>
    <clipPath id="clip0_586_16570">
      <rect width="16" height="16" fill="white"/>
    </clipPath>
  </defs>
</svg>