<svg xmlns="http://www.w3.org/2000/svg" width="24" height="24" viewBox="0 0 24 24" fill="none">
  <path d="M18.769 17.6696L15.6947 14.594C16.6165 13.3928 17.0468 11.886 16.8985 10.3791C16.7501 8.8723 16.0341 7.47832 14.8958 6.47997C13.7574 5.48163 12.2819 4.95367 10.7686 5.00319C9.2553 5.05272 7.8175 5.67603 6.74685 6.74667C5.67621 7.81731 5.0529 9.25512 5.00338 10.7684C4.95385 12.2817 5.48181 13.7572 6.48016 14.8956C7.4785 16.0339 8.87248 16.7499 10.3793 16.8983C11.8861 17.0467 13.393 16.6163 14.5942 15.6945L17.6711 18.7721C17.7434 18.8443 17.8291 18.9017 17.9236 18.9408C18.018 18.9799 18.1192 19 18.2214 19C18.3235 19 18.4247 18.9799 18.5192 18.9408C18.6136 18.9017 18.6994 18.8443 18.7716 18.7721C18.8439 18.6998 18.9012 18.614 18.9403 18.5196C18.9794 18.4252 18.9995 18.324 18.9995 18.2218C18.9995 18.1196 18.9794 18.0184 18.9403 17.924C18.9012 17.8296 18.8439 17.7438 18.7716 17.6716L18.769 17.6696ZM6.56691 10.9688C6.56691 10.0981 6.82509 9.24705 7.30879 8.52313C7.7925 7.79922 8.48 7.235 9.28437 6.90181C10.0887 6.56863 10.9739 6.48146 11.8278 6.65131C12.6817 6.82117 13.4661 7.24042 14.0817 7.85606C14.6973 8.4717 15.1166 9.25607 15.2864 10.11C15.4563 10.9639 15.3691 11.849 15.0359 12.6534C14.7028 13.4577 14.1385 14.1453 13.4146 14.629C12.6907 15.1127 11.8396 15.3708 10.969 15.3708C9.80184 15.3696 8.68285 14.9055 7.85757 14.0802C7.03228 13.2549 6.56811 12.1359 6.56691 10.9688Z" fill="#343435"/>
</svg>