<svg width="143" height="142" viewBox="0 0 143 142" fill="none" xmlns="http://www.w3.org/2000/svg">
<g id="314-ai 1">
<path id="Vector" d="M98.125 110.278L99.2184 110.406L99.0196 110.576L98.8066 110.548L96.2222 110.193L85.8562 108.801L41.9498 102.908L19.812 99.9402L21.7148 99.003L56.8314 81.5938L110.436 85.513L99.0196 95.1122C95.3986 98.4492 95.143 107.282 97.6138 109.866C97.77 110.022 97.9404 110.164 98.125 110.278Z" fill="#4F7BDD"/>
<path id="Vector_2" d="M98.8916 109.958C94.6884 107.473 96.2788 99.0244 99.0194 96.0708L111.487 85.577L112.907 84.3984L125.446 85.3072C125.886 85.3498 126.17 85.719 126.17 86.0882C126.17 86.3864 126.028 86.6846 125.801 86.8692C125.801 86.8692 100.894 109.007 98.8916 109.958Z" fill="url(#paint0_linear_77_933)"/>
<path id="Vector_3" d="M54.4602 67.3249L19.8122 84.4927C16.2764 86.7505 17.242 98.9767 19.8122 99.9423L99.0198 110.578C95.1574 110.252 94.8308 98.9767 99.0198 95.1143L125.659 72.7067C126.27 72.1955 125.943 71.1873 125.148 71.1305L59.487 66.3309C57.7546 66.2031 56.008 66.5439 54.4602 67.3249Z" fill="url(#paint1_linear_77_933)"/>
<path id="Vector_4" style="mix-blend-mode:multiply" opacity="0.4" d="M96.009 104.783L17.7812 95.4531C18.1504 97.7535 18.8747 99.5995 19.8119 99.9403L99.0194 110.576C97.2018 110.42 96.1652 107.864 96.009 104.783Z" fill="url(#paint2_linear_77_933)"/>
<path id="Vector_5" style="mix-blend-mode:screen" opacity="0.4" d="M21.5585 83.625L19.8119 84.4912C18.7469 85.1728 18.0937 86.7632 17.7671 88.6802L97.1877 97.825C97.6563 96.7458 98.2669 95.8086 99.0195 95.1128L101.817 92.7698L21.5585 83.625Z" fill="url(#paint3_linear_77_933)"/>
<path id="Vector_6" d="M126.17 87.2743C126.17 87.5725 126.085 87.8281 125.886 87.9701L99.5023 110.165L99.0195 110.576C95.1145 110.207 94.8589 98.9467 99.0195 95.1127L110.436 85.5135L111.842 84.3207L125.133 73.1595L125.659 72.7193C125.734 72.653 125.796 72.582 125.843 72.5063C125.914 72.4069 125.943 72.2933 125.971 72.1797V73.1595C125.928 73.3441 125.843 73.5287 125.659 73.6849L112.907 84.4059L111.487 85.5845L99.0195 96.0783C96.3073 99.0319 96.1227 107.68 98.6645 109.469C99.3319 109.611 125.204 87.2885 125.176 87.2743C125.914 86.6637 126.17 86.5359 126.17 86.0957V87.2743Z" fill="url(#paint4_linear_77_933)"/>
<path id="Vector_7" style="mix-blend-mode:screen" opacity="0.3" d="M126.17 87.2743C126.17 87.5725 126.085 87.8281 125.886 87.9701L99.5023 110.165L99.0195 110.576C95.1145 110.207 94.8589 98.9467 99.0195 95.1127L110.436 85.5135L111.842 84.3207L125.133 73.1595L125.659 72.7193C125.734 72.653 125.796 72.582 125.843 72.5063C125.914 72.4069 125.943 72.2933 125.971 72.1797V73.1595C125.928 73.3441 125.843 73.5287 125.659 73.6849L112.907 84.4059L111.487 85.5845L99.0195 96.0783C96.3073 99.0319 96.1227 107.68 98.6645 109.469C99.3319 109.611 125.204 87.2885 125.176 87.2743C125.914 86.6637 126.17 86.5359 126.17 86.0957V87.2743Z" fill="url(#paint5_linear_77_933)"/>
<path id="Vector_8" style="mix-blend-mode:screen" opacity="0.3" d="M126.17 86.1099V87.2743C126.17 87.5725 126.085 87.8281 125.886 87.9701L99.5028 110.165L99.02 110.576C98.1822 110.491 97.5716 109.937 97.1314 109.227C96.6202 108.39 96.2794 107.239 96.109 105.919C96.0096 105.081 95.967 104.186 96.0096 103.263C96.1374 100.168 97.103 96.8735 99.02 95.1127L110.437 85.5135L111.843 84.3207L125.006 73.2589L125.134 73.1595L125.659 72.7193C125.735 72.653 125.796 72.582 125.844 72.5063C125.915 72.4069 125.943 72.2933 125.972 72.1797V73.1595C125.929 73.3441 125.844 73.5287 125.659 73.6849L124.85 74.3665L112.908 84.4059L111.488 85.5845L99.02 96.0783C96.6202 98.6911 96.1942 105.777 97.8982 108.603C98.1254 108.972 98.381 109.256 98.665 109.469C99.3324 109.611 125.205 87.2885 125.176 87.2743C125.929 86.6637 126.17 86.5359 126.17 86.1099Z" fill="url(#paint6_linear_77_933)"/>
<path id="Vector_9" style="mix-blend-mode:screen" opacity="0.3" d="M126.17 86.1099V87.2743C126.17 87.5725 126.085 87.8281 125.886 87.9701L99.5028 110.165L99.02 110.576C98.1822 110.491 97.5716 109.937 97.1314 109.227C96.6202 108.39 96.2794 107.239 96.109 105.919C96.0096 105.081 95.967 104.186 96.0096 103.263C96.0191 103.017 96.0333 102.766 96.0522 102.511C96.3078 99.6425 97.2592 96.7315 99.02 95.1127L110.437 85.5135L111.843 84.3207L125.006 73.2589L125.134 73.1595L125.659 72.7193C125.735 72.653 125.796 72.582 125.844 72.5063C125.915 72.4069 125.943 72.2933 125.972 72.1797V73.1595C125.929 73.3441 125.844 73.5287 125.659 73.6849L124.85 74.3665L112.908 84.4059L111.488 85.5845L99.02 96.0783C98.9916 96.1067 98.9679 96.1351 98.949 96.1635C98.9301 96.1824 98.9064 96.2061 98.878 96.2345C98.8591 96.2629 98.8402 96.2866 98.8212 96.3055C96.5918 99.0887 96.2368 105.848 97.8982 108.603C98.097 108.929 98.3526 109.242 98.665 109.469C99.3324 109.611 125.205 87.2885 125.176 87.2743C125.929 86.6637 126.17 86.5359 126.17 86.1099Z" fill="url(#paint7_linear_77_933)"/>
<path id="Vector_10" d="M125.233 86.2526L98.2385 109.072C98.1155 108.93 98.0019 108.774 97.8977 108.603C96.2363 105.849 96.6055 99.0894 98.8207 96.3062C98.8397 96.2873 98.8586 96.2636 98.8775 96.2352C98.9059 96.2068 98.9296 96.1831 98.9485 96.1642C98.9675 96.1358 98.9911 96.1074 99.0195 96.079L111.487 85.5852L112.907 84.4066L124.849 74.3672C124.281 78.6414 124.281 82.66 125.233 86.2526Z" fill="url(#paint8_linear_77_933)"/>
<path id="Vector_11" style="mix-blend-mode:multiply" opacity="0.9" d="M103.535 98.3311C101.49 106.056 83.1723 107.902 62.6391 102.449C42.1059 96.9963 27.1249 86.3037 29.1697 78.5931C31.2287 70.8541 49.5325 69.0081 70.0657 74.4609C90.6131 79.9137 105.594 90.5921 103.535 98.3311Z" fill="url(#paint9_radial_77_933)"/>
<path id="Vector_12" style="mix-blend-mode:multiply" opacity="0.9" d="M98.9061 92.9271C96.8613 100.666 78.5575 102.512 58.0101 97.0593C37.4769 91.6065 22.4959 80.9139 24.5549 73.1891C26.5997 65.4643 44.9177 63.6183 65.4509 69.0711C85.9841 74.5239 100.965 85.2023 98.9061 92.9271Z" fill="url(#paint10_radial_77_933)"/>
<path id="Vector_13" style="mix-blend-mode:multiply" opacity="0.9" d="M123.614 83.4368C121.896 93.675 100.894 98.7018 76.6971 94.6406C52.5003 90.5794 34.2817 78.978 35.9999 68.754C37.7181 58.5016 58.7199 53.489 82.9167 57.5502C107.113 61.5972 125.332 73.1986 123.614 83.4368Z" fill="url(#paint11_radial_77_933)"/>
<path id="Vector_14" style="mix-blend-mode:multiply" opacity="0.9" d="M123.202 86.2062C121.228 97.9212 100.028 104.127 75.831 100.065C51.6342 96.0184 33.6144 83.2242 35.574 71.5092C37.5478 59.7942 58.7484 53.5888 82.9452 57.6358C107.142 61.697 125.162 74.4912 123.202 86.2062Z" fill="url(#paint12_radial_77_933)"/>
<path id="Vector_15" style="mix-blend-mode:multiply" opacity="0.9" d="M124.423 76.3224C124.026 78.6938 120.589 80.0996 116.741 79.4464C112.893 78.8074 110.096 76.3508 110.493 73.9794C110.891 71.608 114.327 70.2022 118.175 70.8554C122.024 71.4944 124.821 73.951 124.423 76.3224Z" fill="url(#paint13_radial_77_933)"/>
<path id="Vector_16" style="mix-blend-mode:multiply" opacity="0.9" d="M123.316 77.6055C122.918 79.9769 119.468 81.3827 115.62 80.7437C111.771 80.0905 108.974 77.6481 109.372 75.2767C109.769 72.9053 113.22 71.4995 117.068 72.1385C120.916 72.7917 123.714 75.2341 123.316 77.6055Z" fill="url(#paint14_radial_77_933)"/>
<path id="Vector_17" d="M84.7202 97.3529L84.351 97.1257C81.7524 93.2633 81.582 86.3479 83.9392 81.4347C84.493 80.2703 85.4018 79.3189 86.5236 78.6799L100.34 70.9693L101.306 70.4297L122.435 75.6979C122.648 75.7547 122.748 75.9393 122.748 76.1239C122.748 76.2659 122.734 76.5925 122.592 76.6777L84.7202 97.3529Z" fill="url(#paint15_linear_77_933)"/>
<path id="Vector_18" d="M118.545 60.9922C117.366 66.9988 117.451 72.6078 118.545 77.8902L84.1521 96.8046C81.6955 92.8144 81.6671 85.9274 83.9959 81.1562C84.5213 80.0628 85.3733 79.1682 86.4383 78.586L100.34 70.9748L101.306 70.4352L118.545 60.9922Z" fill="url(#paint16_linear_77_933)"/>
<path id="Vector_19" style="mix-blend-mode:multiply" d="M88.5684 84.7504C88.5684 84.7504 96.7902 80.3768 98.5936 79.4254C100.383 78.4882 103.123 77.125 103.123 77.125C103.123 77.125 96.9606 80.7176 95.2424 81.5696C93.5384 82.4358 88.5684 84.7504 88.5684 84.7504Z" fill="url(#paint17_linear_77_933)"/>
<path id="Vector_20" d="M59.7992 41.8203L23.8732 60.4507C21.0474 63.8303 20.877 76.1701 23.8732 79.4929L84.6776 97.9955C80.517 94.3319 80.8578 84.3919 84.6776 78.9533L122.535 58.2071C122.861 58.0225 122.805 57.5255 122.435 57.4261L59.7992 41.8203Z" fill="#A7EA86"/>
<path id="Vector_21" d="M122.748 57.8359V58.4465L120.859 58.6879L121.655 57.8359H122.748Z" fill="#A7EA86"/>
<path id="Vector_22" d="M122.748 57.8359V58.4465C122.748 58.5885 122.677 58.7305 122.535 58.8157L101.306 70.4313L100.34 70.9709L86.4387 78.5821C85.3737 79.1643 84.5216 80.0589 83.9962 81.1523C81.6674 85.9377 81.6959 92.8389 84.1667 96.8291C84.2803 97.0137 84.4648 97.1557 84.6778 97.2267L121.498 77.0485L122.507 76.4947L122.535 76.4805C122.677 76.3953 122.748 76.2675 122.748 76.1255V76.8781C122.748 76.8876 122.748 76.8971 122.748 76.9065C122.748 77.0343 122.677 77.1763 122.535 77.2473L84.9192 97.8657L84.6778 97.9935C84.3276 97.6811 84.0057 97.3261 83.7122 96.9285C80.5882 92.6685 81.1846 83.9355 84.6778 78.9513L99.5878 70.7863L100.553 70.2467L121.882 58.5601L122.535 58.2051C122.573 58.1862 122.601 58.1625 122.62 58.1341C122.705 58.0631 122.748 57.9495 122.748 57.8359Z" fill="url(#paint18_linear_77_933)"/>
<path id="Vector_23" style="mix-blend-mode:screen" opacity="0.3" d="M122.748 57.8359V58.4465C122.748 58.5885 122.677 58.7305 122.535 58.8157L101.306 70.4313L100.34 70.9709L86.4387 78.5821C85.3737 79.1643 84.5216 80.0589 83.9962 81.1523C81.6674 85.9377 81.6959 92.8389 84.1667 96.8291C84.2803 97.0137 84.4648 97.1557 84.6778 97.2267L121.498 77.0485L122.507 76.4947L122.535 76.4805C122.677 76.3953 122.748 76.2675 122.748 76.1255V76.8781C122.748 76.8876 122.748 76.8971 122.748 76.9065C122.748 77.0343 122.677 77.1763 122.535 77.2473L84.9192 97.8657L84.6778 97.9935C84.3276 97.6811 84.0057 97.3261 83.7122 96.9285C80.5882 92.6685 81.1846 83.9355 84.6778 78.9513L99.5878 70.7863L100.553 70.2467L121.882 58.5601L122.535 58.2051C122.573 58.1862 122.601 58.1625 122.62 58.1341C122.705 58.0631 122.748 57.9495 122.748 57.8359Z" fill="url(#paint19_linear_77_933)"/>
<path id="Vector_24" d="M122.748 57.8379C122.748 57.9657 122.705 58.0651 122.62 58.1361C122.601 58.1645 122.573 58.1882 122.535 58.2071L121.881 58.5621L100.553 70.2487L99.5875 70.7883L84.6775 78.9533C81.1843 83.9375 80.5879 92.6705 83.7119 96.9305C84.0054 97.3281 84.3272 97.6831 84.6775 97.9955L23.8731 79.4929C22.4389 77.9167 21.7431 74.2673 21.6863 70.5327V70.5043C21.6437 66.4147 22.3963 62.2115 23.8731 60.4507L59.7991 41.8203L122.435 57.4261C122.634 57.4829 122.748 57.6533 122.748 57.8379Z" fill="url(#paint20_linear_77_933)"/>
<path id="Vector_25" style="mix-blend-mode:screen" opacity="0.3" d="M27.8353 58.4062L23.8735 60.4511C22.9647 61.5587 22.3257 63.5893 21.9849 65.9607L82.6757 83.0575C83.1727 81.5523 83.8401 80.1465 84.6779 78.9537L88.8669 76.6675L27.8353 58.4062Z" fill="url(#paint21_linear_77_933)"/>
<path id="Vector_26" style="mix-blend-mode:multiply" opacity="0.3" d="M23.8733 79.4917L84.6777 97.9943C84.3274 97.6819 84.0056 97.3269 83.7121 96.9293C82.5619 95.3673 81.9229 93.1947 81.7383 90.8375L21.8711 73.4141C22.1551 76.0411 22.8225 78.3273 23.8733 79.4917Z" fill="url(#paint22_linear_77_933)"/>
<g id="Group" style="mix-blend-mode:multiply" opacity="0.8">
<g id="Clip path group">
<mask id="mask0_77_933" style="mask-type:luminance" maskUnits="userSpaceOnUse" x="92" y="79" width="10" height="10">
<g id="cp1">
<path id="Vector_27" d="M101.452 83.6926C101.396 81.8835 100.377 80.3456 98.9389 79.6172C98.919 79.7166 98.8622 79.8046 98.76 79.8515C98.1182 80.1483 97.5019 80.4933 96.8884 80.8441C97.0177 81.0457 96.9808 81.3482 96.6811 81.4036C96.3219 81.4689 95.9527 81.5214 95.582 81.5768C95.3681 81.6923 95.1518 81.804 94.9331 81.9119C94.2586 82.2428 93.55 82.5452 92.8187 82.7171C92.7278 83.1161 92.6852 83.535 92.698 83.9666C92.779 86.5383 94.8039 88.5646 97.2207 88.4894C99.639 88.4155 101.533 86.2671 101.452 83.6926Z" fill="white"/>
</g>
</mask>
<g mask="url(#mask0_77_933)">
<g id="Group_2">
<path id="Vector_28" d="M92.686 79.625H101.533V88.571H92.686V79.625Z" fill="white"/>
<path id="Vector_29" d="M101.618 83.9986C101.618 86.4126 99.6585 88.3722 97.2445 88.3722C94.8305 88.3722 92.8709 86.4126 92.8709 83.9986C92.8709 81.5846 94.8305 79.625 97.2445 79.625C99.6585 79.625 101.618 81.5846 101.618 83.9986Z" fill="white"/>
<path id="Vector_30" d="M101.575 83.9936C101.575 86.3934 99.6439 88.3388 97.2441 88.3388C94.8443 88.3388 92.8989 86.3934 92.8989 83.9936C92.8989 81.5938 94.8443 79.6484 97.2441 79.6484C99.6439 79.6484 101.575 81.5938 101.575 83.9936Z" fill="white"/>
<path id="Vector_31" d="M101.547 83.9979C101.547 86.3693 99.6154 88.3005 97.244 88.3005C94.8584 88.3005 92.9414 86.3693 92.9414 83.9979C92.9414 81.6265 94.8584 79.6953 97.244 79.6953C99.6154 79.6953 101.547 81.6265 101.547 83.9979Z" fill="white"/>
<path id="Vector_32" d="M101.504 84.0008C101.504 86.358 99.6016 88.275 97.2444 88.275C94.8872 88.275 92.9702 86.358 92.9702 84.0008C92.9702 81.6436 94.8872 79.7266 97.2444 79.7266C99.6016 79.7266 101.504 81.6436 101.504 84.0008Z" fill="white"/>
<path id="Vector_33" d="M101.476 84.005C101.476 86.348 99.5731 88.2366 97.2443 88.2366C94.9013 88.2366 93.0127 86.348 93.0127 84.005C93.0127 81.662 94.9013 79.7734 97.2443 79.7734C99.5731 79.7734 101.476 81.662 101.476 84.005Z" fill="#FEFEFE"/>
<path id="Vector_34" d="M101.434 83.9998C101.434 86.3144 99.5592 88.1888 97.2446 88.1888C94.93 88.1888 93.0414 86.3144 93.0414 83.9998C93.0414 81.6852 94.93 79.7966 97.2446 79.7966C99.5592 79.7966 101.434 81.6852 101.434 83.9998Z" fill="#FEFEFE"/>
<path id="Vector_35" d="M101.405 83.9965C101.405 86.2969 99.545 88.1571 97.2446 88.1571C94.9442 88.1571 93.084 86.2969 93.084 83.9965C93.084 81.6961 94.9442 79.8359 97.2446 79.8359C99.545 79.8359 101.405 81.6961 101.405 83.9965Z" fill="#FEFEFE"/>
<path id="Vector_36" d="M101.362 83.9994C101.362 86.2714 99.516 88.1174 97.244 88.1174C94.9578 88.1174 93.1118 86.2714 93.1118 83.9994C93.1118 81.7274 94.9578 79.8672 97.244 79.8672C99.516 79.8672 101.362 81.7274 101.362 83.9994Z" fill="#FEFDFD"/>
<path id="Vector_37" d="M101.334 83.9958C101.334 86.2536 99.5022 88.0854 97.2444 88.0854C94.9866 88.0854 93.1548 86.2536 93.1548 83.9958C93.1548 81.738 94.9866 79.9062 97.2444 79.9062C99.5022 79.9062 101.334 81.738 101.334 83.9958Z" fill="#FDFDFD"/>
<path id="Vector_38" d="M101.291 83.9923C101.291 86.2359 99.4737 88.0393 97.2443 88.0393C95.0007 88.0393 93.1831 86.2359 93.1831 83.9923C93.1831 81.7487 95.0007 79.9453 97.2443 79.9453C99.4737 79.9453 101.291 81.7487 101.291 83.9923Z" fill="#FDFDFD"/>
<path id="Vector_39" d="M101.263 84.003C101.263 86.2182 99.4599 88.0216 97.2447 88.0216C95.0295 88.0216 93.2261 86.2182 93.2261 84.003C93.2261 81.7878 95.0295 79.9844 97.2447 79.9844C99.4599 79.9844 101.263 81.7878 101.263 84.003Z" fill="#FDFCFC"/>
<path id="Vector_40" d="M101.221 83.9994C101.221 86.2004 99.4456 87.9754 97.2446 87.9754C95.0436 87.9754 93.2686 86.2004 93.2686 83.9994C93.2686 81.7984 95.0436 80.0234 97.2446 80.0234C99.4456 80.0234 101.221 81.7984 101.221 83.9994Z" fill="#FCFCFC"/>
<path id="Vector_41" d="M101.192 84.0023C101.192 86.1749 99.4171 87.9499 97.2445 87.9499C95.0577 87.9499 93.2969 86.1749 93.2969 84.0023C93.2969 81.8297 95.0577 80.0547 97.2445 80.0547C99.4171 80.0547 101.192 81.8297 101.192 84.0023Z" fill="#FCFBFB"/>
<path id="Vector_42" d="M101.149 83.9988C101.149 86.1572 99.4028 87.9038 97.2444 87.9038C95.086 87.9038 93.3394 86.1572 93.3394 83.9988C93.3394 81.8404 95.086 80.0938 97.2444 80.0938C99.4028 80.0938 101.149 81.8404 101.149 83.9988Z" fill="#FBFBFB"/>
<path id="Vector_43" d="M101.121 84.0016C101.121 86.1458 99.3743 87.8782 97.2443 87.8782C95.1001 87.8782 93.3677 86.1458 93.3677 84.0016C93.3677 81.8574 95.1001 80.125 97.2443 80.125C99.3743 80.125 101.121 81.8574 101.121 84.0016Z" fill="#FBFAFB"/>
<path id="Vector_44" d="M101.078 83.9981C101.078 86.1139 99.36 87.8321 97.2442 87.8321C95.1284 87.8321 93.4102 86.1139 93.4102 83.9981C93.4102 81.8823 95.1284 80.1641 97.2442 80.1641C99.36 80.1641 101.078 81.8823 101.078 83.9981Z" fill="#FBFAFA"/>
<path id="Vector_45" d="M101.036 84.0009C101.036 86.1025 99.3462 87.8065 97.2446 87.8065C95.143 87.8065 93.439 86.1025 93.439 84.0009C93.439 81.8993 95.143 80.1953 97.2446 80.1953C99.3462 80.1953 101.036 81.8993 101.036 84.0009Z" fill="#FAF9F9"/>
<path id="Vector_46" d="M101.007 83.9974C101.007 86.0706 99.3176 87.7604 97.2444 87.7604C95.157 87.7604 93.4814 86.0706 93.4814 83.9974C93.4814 81.9242 95.157 80.2344 97.2444 80.2344C99.3176 80.2344 101.007 81.9242 101.007 83.9974Z" fill="#FAF9F9"/>
<path id="Vector_47" d="M100.965 83.9924C100.965 86.0514 99.3034 87.727 97.2444 87.727C95.1854 87.727 93.5098 86.0514 93.5098 83.9924C93.5098 81.9334 95.1854 80.2578 97.2444 80.2578C99.3034 80.2578 100.965 81.9334 100.965 83.9924Z" fill="#F9F8F8"/>
<path id="Vector_48" d="M100.936 83.9967C100.936 86.0415 99.2748 87.6887 97.2442 87.6887C95.1994 87.6887 93.5522 86.0415 93.5522 83.9967C93.5522 81.9519 95.1994 80.3047 97.2442 80.3047C99.2748 80.3047 100.936 81.9519 100.936 83.9967Z" fill="#F9F7F8"/>
<path id="Vector_49" d="M100.894 83.9995C100.894 86.0159 99.2606 87.6631 97.2442 87.6631C95.2278 87.6631 93.5806 86.0159 93.5806 83.9995C93.5806 81.9831 95.2278 80.3359 97.2442 80.3359C99.2606 80.3359 100.894 81.9831 100.894 83.9995Z" fill="#F8F7F7"/>
<path id="Vector_50" d="M100.866 83.996C100.866 85.9982 99.2467 87.617 97.2445 87.617C95.2423 87.617 93.6235 85.9982 93.6235 83.996C93.6235 81.9938 95.2423 80.375 97.2445 80.375C99.2467 80.375 100.866 81.9938 100.866 83.996Z" fill="#F8F6F7"/>
<path id="Vector_51" d="M100.823 83.9988C100.823 85.9726 99.2183 87.5773 97.2445 87.5773C95.2565 87.5773 93.6519 85.9726 93.6519 83.9988C93.6519 82.025 95.2565 80.4062 97.2445 80.4062C99.2183 80.4062 100.823 82.025 100.823 83.9988Z" fill="#F7F5F6"/>
<path id="Vector_52" d="M100.794 84.0031C100.794 85.9627 99.2039 87.5531 97.2443 87.5531C95.2847 87.5531 93.6943 85.9627 93.6943 84.0031C93.6943 82.0435 95.2847 80.4531 97.2443 80.4531C99.2039 80.4531 100.794 82.0435 100.794 84.0031Z" fill="#F7F5F5"/>
<path id="Vector_53" d="M100.752 83.9996C100.752 85.945 99.1755 87.507 97.2443 87.507C95.2989 87.507 93.7227 85.945 93.7227 83.9996C93.7227 82.0542 95.2989 80.4922 97.2443 80.4922C99.1755 80.4922 100.752 82.0542 100.752 83.9996Z" fill="#F6F4F5"/>
<path id="Vector_54" d="M100.723 84.0024C100.723 85.9194 99.1611 87.4814 97.2441 87.4814C95.3271 87.4814 93.7651 85.9194 93.7651 84.0024C93.7651 82.0854 95.3271 80.5234 97.2441 80.5234C99.1611 80.5234 100.723 82.0854 100.723 84.0024Z" fill="#F6F3F4"/>
<path id="Vector_55" d="M100.681 83.9991C100.681 85.9019 99.1472 87.4355 97.2444 87.4355C95.3416 87.4355 93.7938 85.9019 93.7938 83.9991C93.7938 82.0963 95.3416 80.5627 97.2444 80.5627C99.1472 80.5627 100.681 82.0963 100.681 83.9991Z" fill="#F5F3F4"/>
<path id="Vector_56" d="M100.652 83.9939C100.652 85.8683 99.1188 87.4019 97.2444 87.4019C95.3558 87.4019 93.8364 85.8683 93.8364 83.9939C93.8364 82.1053 95.3558 80.5859 97.2444 80.5859C99.1188 80.5859 100.652 82.1195 100.652 83.9939Z" fill="#F4F2F3"/>
<path id="Vector_57" d="M100.61 83.9982C100.61 85.8584 99.105 87.3636 97.2448 87.3636C95.3846 87.3636 93.8794 85.8584 93.8794 83.9982C93.8794 82.138 95.3846 80.6328 97.2448 80.6328C99.105 80.6328 100.61 82.138 100.61 83.9982Z" fill="#F4F1F2"/>
<path id="Vector_58" d="M100.581 84.0011C100.581 85.8471 99.076 87.3381 97.2442 87.3381C95.3982 87.3381 93.9072 85.8471 93.9072 84.0011C93.9072 82.1551 95.3982 80.6641 97.2442 80.6641C99.076 80.6641 100.581 82.1551 100.581 84.0011Z" fill="#F3F0F1"/>
<path id="Vector_59" d="M100.539 84.0053C100.539 85.8229 99.0617 87.2997 97.2441 87.2997C95.4265 87.2997 93.9497 85.8229 93.9497 84.0053C93.9497 82.1877 95.4265 80.7109 97.2441 80.7109C99.0617 80.7109 100.539 82.1877 100.539 84.0053Z" fill="#F2F0F1"/>
<path id="Vector_60" d="M100.51 84.0004C100.51 85.8038 99.0476 87.2664 97.2442 87.2664C95.4408 87.2664 93.9782 85.8038 93.9782 84.0004C93.9782 82.197 95.4408 80.7344 97.2442 80.7344C99.0476 80.7344 100.51 82.197 100.51 84.0004Z" fill="#F2EFF0"/>
<path id="Vector_61" d="M100.468 83.9968C100.468 85.7718 99.0194 87.2202 97.2444 87.2202C95.4552 87.2202 94.021 85.7718 94.021 83.9968C94.021 82.2076 95.4552 80.7734 97.2444 80.7734C99.0194 80.7734 100.468 82.2076 100.468 83.9968Z" fill="#F1EEEF"/>
<path id="Vector_62" d="M100.426 83.9997C100.426 85.7605 99.0056 87.1947 97.2448 87.1947C95.484 87.1947 94.0498 85.7605 94.0498 83.9997C94.0498 82.2389 95.484 80.8047 97.2448 80.8047C99.0056 80.8047 100.426 82.2389 100.426 83.9997Z" fill="#F1EDEF"/>
<path id="Vector_63" d="M100.397 83.9962C100.397 85.7428 98.9771 87.1486 97.2447 87.1486C95.4981 87.1486 94.0923 85.7428 94.0923 83.9962C94.0923 82.2496 95.4981 80.8438 97.2447 80.8438C98.9771 80.8438 100.397 82.2496 100.397 83.9962Z" fill="#F0ECEE"/>
<path id="Vector_64" d="M100.354 83.999C100.354 85.7172 98.9623 87.123 97.2441 87.123C95.5259 87.123 94.1201 85.7172 94.1201 83.999C94.1201 82.2808 95.5259 80.875 97.2441 80.875C98.9623 80.875 100.354 82.2808 100.354 83.999Z" fill="#EFECED"/>
<path id="Vector_65" d="M100.325 84.0033C100.325 85.7073 98.948 87.0847 97.244 87.0847C95.54 87.0847 94.1626 85.7073 94.1626 84.0033C94.1626 82.2993 95.54 80.9219 97.244 80.9219C98.948 80.9219 100.325 82.2993 100.325 84.0033Z" fill="#EFEBEC"/>
<path id="Vector_66" d="M100.283 83.9983C100.283 85.6739 98.92 87.0371 97.2444 87.0371C95.5546 87.0371 94.1914 85.6739 94.1914 83.9983C94.1914 82.3085 95.5546 80.9453 97.2444 80.9453C98.92 80.9453 100.283 82.3085 100.283 83.9983Z" fill="#EEEAEB"/>
<path id="Vector_67" d="M100.255 84.0026C100.255 85.664 98.9057 87.013 97.2443 87.013C95.5829 87.013 94.2339 85.664 94.2339 84.0026C94.2339 82.3412 95.5829 80.9922 97.2443 80.9922C98.9057 80.9922 100.255 82.3412 100.255 84.0026Z" fill="#EDE9EB"/>
<path id="Vector_68" d="M100.212 83.9976C100.212 85.6448 98.8777 86.9654 97.2447 86.9654C95.5975 86.9654 94.2627 85.6448 94.2627 83.9976C94.2627 82.3504 95.5975 81.0156 97.2447 81.0156C98.8777 81.0156 100.212 82.3504 100.212 83.9976Z" fill="#ECE8EA"/>
<path id="Vector_69" d="M100.184 83.9941C100.184 85.6129 98.8634 86.9335 97.2446 86.9335C95.6258 86.9335 94.3052 85.6129 94.3052 83.9941C94.3052 82.3753 95.6258 81.0547 97.2446 81.0547C98.8634 81.0547 100.184 82.3753 100.184 83.9941Z" fill="#ECE7E9"/>
<path id="Vector_70" d="M100.141 83.9984C100.141 85.603 98.8486 86.8952 97.244 86.8952C95.6394 86.8952 94.333 85.603 94.333 83.9984C94.333 82.3938 95.6394 81.1016 97.244 81.1016C98.8486 81.1016 100.141 82.3938 100.141 83.9984Z" fill="#EBE6E8"/>
<path id="Vector_71" d="M100.113 84.0012C100.113 85.5774 98.8206 86.8696 97.2444 86.8696C95.654 86.8696 94.376 85.5774 94.376 84.0012C94.376 82.4108 95.654 81.1328 97.2444 81.1328C98.8206 81.1328 100.113 82.4108 100.113 84.0012Z" fill="#EAE5E7"/>
<path id="Vector_72" d="M100.071 83.9977C100.071 85.5597 98.8068 86.8235 97.2448 86.8235C95.6828 86.8235 94.4048 85.5597 94.4048 83.9977C94.4048 82.4357 95.6828 81.1719 97.2448 81.1719C98.8068 81.1719 100.071 82.4357 100.071 83.9977Z" fill="#E9E5E6"/>
<path id="Vector_73" d="M100.042 84.0005C100.042 85.5483 98.7923 86.7979 97.2445 86.7979C95.6967 86.7979 94.4471 85.5483 94.4471 84.0005C94.4471 82.4527 95.6967 81.2031 97.2445 81.2031C98.7923 81.2031 100.042 82.4527 100.042 84.0005Z" fill="#E9E4E6"/>
<path id="Vector_74" d="M99.9993 83.997C99.9993 85.5164 98.7639 86.7518 97.2445 86.7518C95.7251 86.7518 94.4897 85.5164 94.4897 83.997C94.4897 82.4776 95.7251 81.2422 97.2445 81.2422C98.7639 81.2422 99.9993 82.4776 99.9993 83.997Z" fill="#E8E3E5"/>
<path id="Vector_75" d="M99.9709 83.9998C99.9709 85.505 98.7497 86.7262 97.2445 86.7262C95.7393 86.7262 94.5181 85.505 94.5181 83.9998C94.5181 82.4946 95.7393 81.2734 97.2445 81.2734C98.7497 81.2734 99.9709 82.4946 99.9709 83.9998Z" fill="#E7E2E4"/>
<path id="Vector_76" d="M99.9281 83.9963C99.9281 85.4731 98.7211 86.6801 97.2443 86.6801C95.7533 86.6801 94.5605 85.4731 94.5605 83.9963C94.5605 82.5053 95.7533 81.3125 97.2443 81.3125C98.7211 81.3125 99.9281 82.5053 99.9281 83.9963Z" fill="#E6E1E3"/>
<path id="Vector_77" d="M99.8855 83.9992C99.8855 85.4618 98.7069 86.6546 97.2443 86.6546C95.7817 86.6546 94.5889 85.4618 94.5889 83.9992C94.5889 82.5366 95.7817 81.3438 97.2443 81.3438C98.7069 81.3438 99.8855 82.5366 99.8855 83.9992Z" fill="#E6E0E2"/>
<path id="Vector_78" d="M99.8569 84.0034C99.8569 85.4518 98.6925 86.6162 97.2441 86.6162C95.7957 86.6162 94.6313 85.4518 94.6313 84.0034C94.6313 82.555 95.7957 81.3906 97.2441 81.3906C98.6925 81.3906 99.8569 82.555 99.8569 84.0034Z" fill="#E5DFE1"/>
<path id="Vector_79" d="M99.8148 83.9985C99.8148 85.4185 98.6646 86.5829 97.2446 86.5829C95.8246 86.5829 94.6602 85.4185 94.6602 83.9985C94.6602 82.5785 95.8246 81.4141 97.2446 81.4141C98.6646 81.4141 99.8148 82.5785 99.8148 83.9985Z" fill="#E4DEE0"/>
<path id="Vector_80" d="M99.7861 84.0025C99.7861 85.4083 98.6501 86.5443 97.2443 86.5443C95.8385 86.5443 94.7025 85.4083 94.7025 84.0025C94.7025 82.5967 95.8385 81.4607 97.2443 81.4607C98.6501 81.4607 99.7861 82.5967 99.7861 84.0025Z" fill="#E3DDDF"/>
<path id="Vector_81" d="M99.7436 83.9978C99.7436 85.3752 98.6218 86.5112 97.2444 86.5112C95.8528 86.5112 94.731 85.3752 94.731 83.9978C94.731 82.6062 95.8528 81.4844 97.2444 81.4844C98.6218 81.4844 99.7436 82.6062 99.7436 83.9978Z" fill="#E2DCDE"/>
<path id="Vector_82" d="M99.715 83.9942C99.715 85.3574 98.6074 86.465 97.2442 86.465C95.881 86.465 94.7734 85.3574 94.7734 83.9942C94.7734 82.631 95.881 81.5234 97.2442 81.5234C98.6074 81.5234 99.715 82.631 99.715 83.9942Z" fill="#E1DBDD"/>
<path id="Vector_83" d="M99.6729 83.9971C99.6729 85.3461 98.5936 86.4253 97.2446 86.4253C95.8956 86.4253 94.8022 85.3461 94.8022 83.9971C94.8022 82.6481 95.8956 81.5547 97.2446 81.5547C98.5936 81.5547 99.6729 82.6481 99.6729 83.9971Z" fill="#E1DADC"/>
<path id="Vector_84" d="M99.6443 84.0014C99.6443 85.322 98.5651 86.4012 97.2445 86.4012C95.9097 86.4012 94.8447 85.322 94.8447 84.0014C94.8447 82.6808 95.9097 81.6016 97.2445 81.6016C98.5651 81.6016 99.6443 82.6808 99.6443 84.0014Z" fill="#E0D9DB"/>
<path id="Vector_85" d="M99.6017 83.9964C99.6017 85.3028 98.5508 86.3536 97.2444 86.3536C95.938 86.3536 94.873 85.3028 94.873 83.9964C94.873 82.69 95.938 81.625 97.2444 81.625C98.5508 81.625 99.6017 82.69 99.6017 83.9964Z" fill="#DFD7DA"/>
<path id="Vector_86" d="M99.5731 84.0009C99.5731 85.2789 98.5223 86.3297 97.2443 86.3297C95.9521 86.3297 94.9155 85.2789 94.9155 84.0009C94.9155 82.7087 95.9521 81.6721 97.2443 81.6721C98.5223 81.6721 99.5731 82.7087 99.5731 84.0009Z" fill="#DED6D9"/>
<path id="Vector_87" d="M99.5305 83.9971C99.5305 85.2609 98.508 86.2833 97.2442 86.2833C95.9804 86.2833 94.9438 85.2609 94.9438 83.9971C94.9438 82.7333 95.9804 81.7109 97.2442 81.7109C98.508 81.7109 99.5305 82.7333 99.5305 83.9971Z" fill="#DDD5D8"/>
<path id="Vector_88" d="M99.5019 83.9922C99.5019 85.2418 98.4937 86.25 97.2441 86.25C95.9945 86.25 94.9863 85.2418 94.9863 83.9922C94.9863 82.7426 95.9945 81.7344 97.2441 81.7344C98.4937 81.7344 99.5019 82.7426 99.5019 83.9922Z" fill="#DCD4D7"/>
<path id="Vector_89" d="M99.4597 83.9964C99.4597 85.2176 98.4657 86.2116 97.2445 86.2116C96.0091 86.2116 95.0151 85.2176 95.0151 83.9964C95.0151 82.7752 96.0091 81.7812 97.2445 81.7812C98.4657 81.7812 99.4597 82.7752 99.4597 83.9964Z" fill="#DBD3D6"/>
<path id="Vector_90" d="M99.4312 84.0071C99.4312 85.2141 98.4514 86.1939 97.2444 86.1939C96.0374 86.1939 95.0576 85.2141 95.0576 84.0071C95.0576 82.8001 96.0374 81.8203 97.2444 81.8203C98.4514 81.8203 99.4312 82.8001 99.4312 84.0071Z" fill="#DAD2D5"/>
<path id="Vector_91" d="M99.389 83.9958C99.389 85.1886 98.4234 86.14 97.2448 86.14C96.052 86.14 95.1006 85.1886 95.1006 83.9958C95.1006 82.803 96.052 81.8516 97.2448 81.8516C98.4234 81.8516 99.389 82.803 99.389 83.9958Z" fill="#D9D1D4"/>
<path id="Vector_92" d="M99.36 83.9986C99.36 85.163 98.4086 86.1144 97.2442 86.1144C96.0798 86.1144 95.1284 85.163 95.1284 83.9986C95.1284 82.8342 96.0798 81.8828 97.2442 81.8828C98.4086 81.8828 99.36 82.8342 99.36 83.9986Z" fill="#D9D0D3"/>
<path id="Vector_93" d="M99.3174 84.0029C99.3174 85.1531 98.3944 86.0761 97.2442 86.0761C96.094 86.0761 95.171 85.1531 95.171 84.0029C95.171 82.8527 96.094 81.9297 97.2442 81.9297C98.3944 81.9297 99.3174 82.8527 99.3174 84.0029Z" fill="#D8CFD2"/>
<path id="Vector_94" d="M99.2746 83.9979C99.2746 85.1197 98.3658 86.0427 97.244 86.0427C96.108 86.0427 95.1992 85.1197 95.1992 83.9979C95.1992 82.8761 96.108 81.9531 97.244 81.9531C98.3658 81.9531 99.2746 82.8761 99.2746 83.9979Z" fill="#D7CDD1"/>
<path id="Vector_95" d="M99.2466 84.0022C99.2466 85.1098 98.352 86.0044 97.2444 86.0044C96.1368 86.0044 95.2422 85.1098 95.2422 84.0022C95.2422 82.8946 96.1368 82 97.2444 82C98.352 82 99.2466 82.8946 99.2466 84.0022Z" fill="#D6CCD0"/>
<path id="Vector_96" d="M99.2039 83.9972C99.2039 85.0906 98.3235 85.971 97.2443 85.971C96.1509 85.971 95.2705 85.0906 95.2705 83.9972C95.2705 82.9038 96.1509 82.0234 97.2443 82.0234C98.3235 82.0234 99.2039 82.9038 99.2039 83.9972Z" fill="#D5CBCF"/>
<path id="Vector_97" d="M99.1759 84.0015C99.1759 85.0665 98.3097 85.9327 97.2447 85.9327C96.1797 85.9327 95.3135 85.0665 95.3135 84.0015C95.3135 82.9365 96.1797 82.0703 97.2447 82.0703C98.3097 82.0703 99.1759 82.9365 99.1759 84.0015Z" fill="#D4CACE"/>
<path id="Vector_98" d="M99.1327 83.9966C99.1327 85.0474 98.2949 85.8994 97.2441 85.8994C96.1933 85.8994 95.3413 85.0474 95.3413 83.9966C95.3413 82.9458 96.1933 82.0938 97.2441 82.0938C98.2949 82.0938 99.1327 82.9458 99.1327 83.9966Z" fill="#D3C9CD"/>
<path id="Vector_99" d="M99.1042 84.0008C99.1042 85.0232 98.2664 85.861 97.244 85.861C96.2074 85.861 95.3838 85.0232 95.3838 84.0008C95.3838 82.9784 96.2074 82.1406 97.244 82.1406C98.2664 82.1406 99.1042 82.9784 99.1042 84.0008Z" fill="#D2C8CB"/>
<path id="Vector_100" d="M99.062 83.9959C99.062 85.0041 98.2526 85.8135 97.2444 85.8135C96.2362 85.8135 95.4126 85.0041 95.4126 83.9959C95.4126 82.9877 96.2362 82.1641 97.2444 82.1641C98.2526 82.1641 99.062 82.9877 99.062 83.9959Z" fill="#D1C6CA"/>
<path id="Vector_101" d="M99.034 83.9923C99.034 84.9863 98.2246 85.7815 97.2448 85.7815C96.2508 85.7815 95.4556 84.9863 95.4556 83.9923C95.4556 82.9983 96.2508 82.2031 97.2448 82.2031C98.2246 82.2031 99.034 82.9983 99.034 83.9923Z" fill="#D0C5C9"/>
<path id="Vector_102" d="M98.9913 83.9966C98.9913 84.9622 98.2103 85.7432 97.2447 85.7432C96.2791 85.7432 95.4839 84.9622 95.4839 83.9966C95.4839 83.031 96.2791 82.25 97.2447 82.25C98.2103 82.25 98.9913 83.031 98.9913 83.9966Z" fill="#CFC4C8"/>
<path id="Vector_103" d="M98.9628 83.9994C98.9628 84.9508 98.196 85.7176 97.2446 85.7176C96.2932 85.7176 95.5264 84.9508 95.5264 83.9994C95.5264 83.048 96.2932 82.2812 97.2446 82.2812C98.196 82.2812 98.9628 83.048 98.9628 83.9994Z" fill="#CEC3C7"/>
<path id="Vector_104" d="M98.9196 84.0037C98.9196 84.9267 98.167 85.6793 97.244 85.6793C96.3068 85.6793 95.5542 84.9267 95.5542 84.0037C95.5542 83.0807 96.3068 82.3281 97.244 82.3281C98.167 82.3281 98.9196 83.0807 98.9196 84.0037Z" fill="#CDC1C6"/>
<path id="Vector_105" d="M98.8916 83.9988C98.8916 84.9076 98.1532 85.646 97.2444 85.646C96.3356 85.646 95.5972 84.9076 95.5972 83.9988C95.5972 83.09 96.3356 82.3516 97.2444 82.3516C98.1532 82.3516 98.8916 83.09 98.8916 83.9988Z" fill="#CCC0C5"/>
<path id="Vector_106" d="M98.8488 84.003C98.8488 84.8976 98.1246 85.6076 97.2442 85.6076C96.3496 85.6076 95.6254 84.8976 95.6254 84.003C95.6254 83.1084 96.3496 82.3984 97.2442 82.3984C98.1246 82.3984 98.8488 83.1084 98.8488 84.003Z" fill="#CBBFC3"/>
<path id="Vector_107" d="M98.8209 83.9981C98.8209 84.8643 98.1109 85.5743 97.2447 85.5743C96.3785 85.5743 95.6685 84.8643 95.6685 83.9981C95.6685 83.1319 96.3785 82.4219 97.2447 82.4219C98.1109 82.4219 98.8209 83.1319 98.8209 83.9981Z" fill="#CABEC2"/>
<path id="Vector_108" d="M98.7781 83.9945C98.7781 84.8465 98.0965 85.5281 97.2445 85.5281C96.3925 85.5281 95.7109 84.8465 95.7109 83.9945C95.7109 83.1425 96.3925 82.4609 97.2445 82.4609C98.0965 82.4609 98.7781 83.1425 98.7781 83.9945Z" fill="#C9BCC1"/>
<path id="Vector_109" d="M98.7497 84.0052C98.7497 84.8288 98.0681 85.5104 97.2445 85.5104C96.4067 85.5104 95.7393 84.8288 95.7393 84.0052C95.7393 83.1816 96.4067 82.5 97.2445 82.5C98.0681 82.5 98.7497 83.1816 98.7497 84.0052Z" fill="#C8BBC0"/>
<path id="Vector_110" d="M98.7069 83.9938C98.7069 84.8032 98.0537 85.4564 97.2443 85.4564C96.4349 85.4564 95.7817 84.8032 95.7817 83.9938C95.7817 83.1844 96.4349 82.5312 97.2443 82.5312C98.0537 82.5312 98.7069 83.1844 98.7069 83.9938Z" fill="#C7BABF"/>
<path id="Vector_111" d="M98.6643 83.9967C98.6643 84.7919 98.0253 85.4309 97.2443 85.4309C96.4491 85.4309 95.8101 84.7919 95.8101 83.9967C95.8101 83.2015 96.4491 82.5625 97.2443 82.5625C98.0253 82.5625 98.6643 83.2015 98.6643 83.9967Z" fill="#C6B9BE"/>
<path id="Vector_112" d="M98.6362 84.001C98.6362 84.7678 98.0114 85.3926 97.2446 85.3926C96.4778 85.3926 95.853 84.7678 95.853 84.001C95.853 83.2342 96.4778 82.6094 97.2446 82.6094C98.0114 82.6094 98.6362 83.2342 98.6362 84.001Z" fill="#C5B7BC"/>
<path id="Vector_113" d="M98.5935 83.996C98.5935 84.7486 97.9971 85.3592 97.2445 85.3592C96.4919 85.3592 95.8813 84.7486 95.8813 83.996C95.8813 83.2434 96.4919 82.6328 97.2445 82.6328C97.9971 82.6328 98.5935 83.2434 98.5935 83.996Z" fill="#C4B6BB"/>
<path id="Vector_114" d="M98.565 84.0003C98.565 84.7245 97.9686 85.3209 97.2444 85.3209C96.506 85.3209 95.9238 84.7245 95.9238 84.0003C95.9238 83.2761 96.506 82.6797 97.2444 82.6797C97.9686 82.6797 98.565 83.2761 98.565 84.0003Z" fill="#C2B5BA"/>
<path id="Vector_115" d="M98.5223 84.0031C98.5223 84.7131 97.9543 85.2953 97.2443 85.2953C96.5343 85.2953 95.9521 84.7131 95.9521 84.0031C95.9521 83.2931 96.5343 82.7109 97.2443 82.7109C97.9543 82.7109 98.5223 83.2931 98.5223 84.0031Z" fill="#C1B3B9"/>
<path id="Vector_116" d="M98.4938 83.9996C98.4938 84.6954 97.9258 85.2492 97.2442 85.2492C96.5484 85.2492 95.9946 84.6954 95.9946 83.9996C95.9946 83.3038 96.5484 82.75 97.2442 82.75C97.9258 82.75 98.4938 83.3038 98.4938 83.9996Z" fill="#C0B2B7"/>
<path id="Vector_117" d="M98.4516 83.9946C98.4516 84.662 97.912 85.2016 97.2446 85.2016C96.5772 85.2016 96.0234 84.662 96.0234 83.9946C96.0234 83.3272 96.5772 82.7734 97.2446 82.7734C97.912 82.7734 98.4516 83.3272 98.4516 83.9946Z" fill="#BFB1B6"/>
<path id="Vector_118" d="M98.4231 83.9989C98.4231 84.6521 97.8977 85.1775 97.2445 85.1775C96.5913 85.1775 96.0659 84.6521 96.0659 83.9989C96.0659 83.3457 96.5913 82.8203 97.2445 82.8203C97.8977 82.8203 98.4231 83.3457 98.4231 83.9989Z" fill="#BEAFB5"/>
<path id="Vector_119" d="M98.3804 84.0032C98.3804 84.628 97.8692 85.1392 97.2444 85.1392C96.6054 85.1392 96.0942 84.628 96.0942 84.0032C96.0942 83.3784 96.6054 82.8672 97.2444 82.8672C97.8692 82.8672 98.3804 83.3784 98.3804 84.0032Z" fill="#BDAEB4"/>
<path id="Vector_120" d="M98.3519 83.9982C98.3519 84.6088 97.8549 85.1058 97.2443 85.1058C96.6337 85.1058 96.1367 84.6088 96.1367 83.9982C96.1367 83.3876 96.6337 82.8906 97.2443 82.8906C97.8549 82.8906 98.3519 83.3876 98.3519 83.9982Z" fill="#BCACB2"/>
<path id="Vector_121" d="M98.3092 83.9947C98.3092 84.5911 97.8264 85.0597 97.2442 85.0597C96.6478 85.0597 96.165 84.5911 96.165 83.9947C96.165 83.3983 96.6478 82.9297 97.2442 82.9297C97.8264 82.9297 98.3092 83.3983 98.3092 83.9947Z" fill="#BBABB1"/>
<path id="Vector_122" d="M98.2807 83.9975C98.2807 84.5655 97.8121 85.0341 97.2441 85.0341C96.6761 85.0341 96.2075 84.5655 96.2075 83.9975C96.2075 83.4295 96.6761 82.9609 97.2441 82.9609C97.8121 82.9609 98.2807 83.4295 98.2807 83.9975Z" fill="#BAAAB0"/>
<path id="Vector_123" d="M98.238 84.0018C98.238 84.5556 97.7978 84.9958 97.244 84.9958C96.6902 84.9958 96.25 84.5556 96.25 84.0018C96.25 83.448 96.6902 83.0078 97.244 83.0078C97.7978 83.0078 98.238 83.448 98.238 84.0018Z" fill="#B8A8AE"/>
<path id="Vector_124" d="M98.21 83.9968C98.21 84.5222 97.7698 84.9624 97.2444 84.9624C96.7048 84.9624 96.2788 84.5222 96.2788 83.9968C96.2788 83.4714 96.7048 83.0312 97.2444 83.0312C97.7698 83.0312 98.21 83.4714 98.21 83.9968Z" fill="#B7A7AD"/>
<path id="Vector_125" d="M98.1673 84.0011C98.1673 84.5123 97.7555 84.9241 97.2443 84.9241C96.7331 84.9241 96.3213 84.5123 96.3213 84.0011C96.3213 83.4899 96.7331 83.0781 97.2443 83.0781C97.7555 83.0781 98.1673 83.4899 98.1673 84.0011Z" fill="#B6A6AC"/>
<path id="Vector_126" d="M98.1388 83.9962C98.1388 84.4932 97.727 84.8908 97.2442 84.8908C96.7472 84.8908 96.3496 84.4932 96.3496 83.9962C96.3496 83.4992 96.7472 83.1016 97.2442 83.1016C97.727 83.1016 98.1388 83.4992 98.1388 83.9962Z" fill="#B5A4AB"/>
<path id="Vector_127" d="M98.0961 84.0004C98.0961 84.469 97.7127 84.8524 97.2441 84.8524C96.7755 84.8524 96.3921 84.469 96.3921 84.0004C96.3921 83.5318 96.7755 83.1484 97.2441 83.1484C97.7127 83.1484 98.0961 83.5318 98.0961 84.0004Z" fill="#B4A3A9"/>
<path id="Vector_128" d="M98.0539 84.0033C98.0539 84.4577 97.6989 84.8269 97.2445 84.8269C96.7901 84.8269 96.4209 84.4577 96.4209 84.0033C96.4209 83.5489 96.7901 83.1797 97.2445 83.1797C97.6989 83.1797 98.0539 83.5489 98.0539 84.0033Z" fill="#B3A1A8"/>
<path id="Vector_129" d="M98.0254 83.9998C98.0254 84.4258 97.6704 84.7808 97.2444 84.7808C96.8042 84.7808 96.4634 84.4258 96.4634 83.9998C96.4634 83.5738 96.8042 83.2188 97.2444 83.2188C97.6704 83.2188 98.0254 83.5738 98.0254 83.9998Z" fill="#B2A0A7"/>
<path id="Vector_130" d="M97.9827 83.9948C97.9827 84.4066 97.6561 84.7474 97.2443 84.7474C96.8325 84.7474 96.4917 84.4066 96.4917 83.9948C96.4917 83.583 96.8325 83.2422 97.2443 83.2422C97.6561 83.2422 97.9827 83.583 97.9827 83.9948Z" fill="#B09EA5"/>
<path id="Vector_131" d="M97.9547 83.9991C97.9547 84.3967 97.6281 84.7091 97.2447 84.7091C96.8471 84.7091 96.5347 84.3967 96.5347 83.9991C96.5347 83.6015 96.8471 83.2891 97.2447 83.2891C97.6281 83.2891 97.9547 83.6015 97.9547 83.9991Z" fill="#AF9DA4"/>
<path id="Vector_132" d="M97.9115 83.9941C97.9115 84.3633 97.6133 84.6615 97.2441 84.6615C96.8749 84.6615 96.5625 84.3633 96.5625 83.9941C96.5625 83.6249 96.8749 83.3125 97.2441 83.3125C97.6133 83.3125 97.9115 83.6249 97.9115 83.9941Z" fill="#AE9BA3"/>
<path id="Vector_133" d="M97.883 83.9984C97.883 84.3534 97.599 84.6374 97.244 84.6374C96.889 84.6374 96.605 84.3534 96.605 83.9984C96.605 83.6434 96.889 83.3594 97.244 83.3594C97.599 83.3594 97.883 83.6434 97.883 83.9984Z" fill="#AD9AA1"/>
<path id="Vector_134" d="M97.8408 84.0012C97.8408 84.3278 97.571 84.5976 97.2444 84.5976C96.9036 84.5976 96.6338 84.3278 96.6338 84.0012C96.6338 83.6746 96.9036 83.3906 97.2444 83.3906C97.571 83.3906 97.8408 83.6746 97.8408 84.0012Z" fill="#AC99A0"/>
<path id="Vector_135" d="M97.8128 84.0055C97.8128 84.3179 97.5572 84.5735 97.2448 84.5735C96.9324 84.5735 96.6768 84.3179 96.6768 84.0055C96.6768 83.6931 96.9324 83.4375 97.2448 83.4375C97.5572 83.4375 97.8128 83.6931 97.8128 84.0055Z" fill="#AA979E"/>
<path id="Vector_136" d="M97.7696 83.9942C97.7696 84.2924 97.5282 84.5196 97.2442 84.5196C96.946 84.5196 96.7046 84.2924 96.7046 83.9942C96.7046 83.696 96.946 83.4688 97.2442 83.4688C97.5282 83.4688 97.7696 83.696 97.7696 83.9942Z" fill="#A9969D"/>
<path id="Vector_137" d="M97.7416 83.997C97.7416 84.2668 97.5144 84.494 97.2446 84.494C96.9748 84.494 96.7476 84.2668 96.7476 83.997C96.7476 83.7272 96.9748 83.5 97.2446 83.5C97.5144 83.5 97.7416 83.7272 97.7416 83.997Z" fill="#A8949C"/>
<path id="Vector_138" d="M97.6984 84.0013C97.6984 84.2569 97.4996 84.4557 97.244 84.4557C96.9884 84.4557 96.7754 84.2569 96.7754 84.0013C96.7754 83.7457 96.9884 83.5469 97.244 83.5469C97.4996 83.5469 97.6984 83.7457 97.6984 84.0013Z" fill="#A7939A"/>
<path id="Vector_139" d="M97.6704 83.9963C97.6704 84.2235 97.4716 84.4223 97.2444 84.4223C97.003 84.4223 96.8184 84.2235 96.8184 83.9963C96.8184 83.7549 97.003 83.5703 97.2444 83.5703C97.4716 83.5703 97.6704 83.7549 97.6704 83.9963Z" fill="#A59199"/>
<path id="Vector_140" d="M97.6276 84.0006C97.6276 84.2136 97.4572 84.384 97.2442 84.384C97.0312 84.384 96.8608 84.2136 96.8608 84.0006C96.8608 83.7876 97.0312 83.6172 97.2442 83.6172C97.4572 83.6172 97.6276 83.7876 97.6276 84.0006Z" fill="#A49097"/>
<path id="Vector_141" d="M97.5996 83.9956C97.5996 84.1944 97.4292 84.3506 97.2446 84.3506C97.0458 84.3506 96.8896 84.1944 96.8896 83.9956C96.8896 83.7968 97.0458 83.6406 97.2446 83.6406C97.4292 83.6406 97.5996 83.7968 97.5996 83.9956Z" fill="#A38E96"/>
</g>
</g>
</g>
</g>
<path id="Vector_142" d="M92.3315 82.8157L98.6079 79.4219C98.6079 79.4219 101.036 80.1461 101.59 82.8157C102.158 85.4711 101.59 87.9561 101.59 87.9561L99.2611 85.7125L96.9181 90.0577C96.9181 90.0577 96.1513 85.0735 95.0863 84.1079C94.0213 83.1281 92.3315 82.8157 92.3315 82.8157Z" fill="url(#paint23_linear_77_933)"/>
<path id="Vector_143" style="mix-blend-mode:multiply" opacity="0.9" d="M120.859 50.0381C123.202 59.1119 106.574 71.2529 83.7122 77.1317C60.8502 83.0247 40.4164 80.4403 38.0876 71.3807C35.7446 62.3069 52.387 50.1801 75.2348 44.2871C98.0968 38.3941 118.531 40.9785 120.859 50.0381Z" fill="url(#paint24_radial_77_933)"/>
<path id="Vector_144" style="mix-blend-mode:multiply" opacity="0.9" d="M112.339 41.6183C115.946 47.6533 102.811 62.1373 83.0021 73.9659C63.1931 85.7945 44.2077 90.4805 40.6009 84.4455C36.9941 78.4105 50.1433 63.9265 69.9381 52.0979C89.7613 40.2693 108.733 35.5833 112.339 41.6183Z" fill="url(#paint25_radial_77_933)"/>
<path id="Vector_145" style="mix-blend-mode:multiply" opacity="0.9" d="M83.6408 54.5539C85.3732 67.0925 74.3966 78.9779 59.1174 81.0795C43.8382 83.1811 30.05 74.7179 28.3176 62.1935C26.5852 49.6549 37.5618 37.7695 52.841 35.6679C68.1202 33.5521 81.9084 42.0153 83.6408 54.5539Z" fill="url(#paint26_radial_77_933)"/>
<path id="Vector_146" d="M27.6645 60.4503L87.5175 45.0859L123.33 56.8293L55.0279 79.1659L27.4941 61.8135C26.9545 61.4727 27.0539 60.6065 27.6645 60.4503Z" fill="#22DD3B"/>
<path id="Vector_147" d="M26.9407 60.0777C26.9975 60.4043 26.9975 60.6457 28.0199 61.2563L53.3243 77.2455C53.4379 77.2881 55.0283 78.0975 55.1419 78.0549C57.9535 75.3853 55.5253 67.7883 52.6143 65.3743L39.8343 57.3229L38.3859 56.4141L27.4519 59.2257C27.0543 59.3251 26.8697 59.7085 26.9407 60.0777Z" fill="url(#paint27_linear_77_933)"/>
<path id="Vector_148" d="M27.7926 60.0631L55.4684 77.6143C55.5441 77.4629 55.6151 77.2972 55.6814 77.1173C56.6896 74.2489 55.2554 67.8589 52.8272 65.5727C52.7988 65.5443 52.7751 65.5207 52.7562 65.5017C52.7372 65.4828 52.7136 65.4639 52.6852 65.4449C52.6662 65.4165 52.6426 65.3929 52.6142 65.3739L38.6982 56.1297L27.4092 48.7031C28.6304 52.6791 28.0198 56.4989 27.7926 60.0631Z" fill="url(#paint28_linear_77_933)"/>
<path id="Vector_149" d="M27.1388 61.2021C27.1672 61.4719 27.295 61.6991 27.4938 61.8127L54.5306 78.8527L55.0276 79.1651C55.2974 79.0941 55.553 78.9521 55.766 78.7533C55.8938 78.6113 56.0216 78.4551 56.1352 78.2705C57.896 75.4447 56.2062 67.0667 52.4574 64.4681L26.9542 47.5985L26.4146 47.2577C26.3388 47.2103 26.2773 47.1535 26.23 47.0873C26.1448 47.0021 26.088 46.9027 26.0596 46.7891L26.2158 47.7263C26.2868 47.8967 26.4004 48.0671 26.5708 48.1807L52.6136 65.3769C55.4962 67.7625 57.1008 75.9701 55.1412 78.0575C54.5732 78.2989 27.9908 61.0601 28.005 61.0459L27.3518 60.6341L27.2808 60.5915C27.082 60.4637 26.9684 60.2791 26.94 60.0803L27.1388 61.2021Z" fill="url(#paint29_linear_77_933)"/>
<path id="Vector_150" style="mix-blend-mode:screen" opacity="0.3" d="M27.1388 61.2021C27.1672 61.4719 27.295 61.6991 27.4938 61.8127L54.5306 78.8527L55.0276 79.1651C55.2974 79.0941 55.553 78.9521 55.766 78.7533C55.8938 78.6113 56.0216 78.4551 56.1352 78.2705C57.896 75.4447 56.2062 67.0667 52.4574 64.4681L26.9542 47.5985L26.4146 47.2577C26.3388 47.2103 26.2773 47.1535 26.23 47.0873C26.1448 47.0021 26.088 46.9027 26.0596 46.7891L26.2158 47.7263C26.2868 47.8967 26.4004 48.0671 26.5708 48.1807L52.6136 65.3769C55.4962 67.7625 57.1008 75.9701 55.1412 78.0575C54.5732 78.2989 27.9908 61.0601 28.005 61.0459L27.3518 60.6341L27.2808 60.5915C27.082 60.4637 26.9684 60.2791 26.94 60.0803L27.1388 61.2021Z" fill="url(#paint30_linear_77_933)"/>
<path id="Vector_151" style="mix-blend-mode:screen" opacity="0.3" d="M26.94 60.0803L27.1388 61.2021C27.1672 61.4719 27.295 61.6991 27.4938 61.8127L54.5306 78.8527L55.0276 79.1651C55.3021 79.0893 55.5482 78.9521 55.766 78.7533C55.8938 78.6113 56.0216 78.4551 56.1352 78.2705C56.2582 78.0717 56.3671 77.8492 56.4618 77.6031C56.7742 76.7227 56.8878 75.5725 56.8168 74.2945C56.7742 73.4851 56.6606 72.6189 56.4618 71.7527C55.837 68.8275 54.4312 65.8455 52.4574 64.4681L27.082 47.6837L26.9542 47.5985L26.4146 47.2577C26.3388 47.2103 26.2773 47.1535 26.23 47.0873C26.1448 47.0021 26.088 46.9027 26.0596 46.7891L26.2158 47.7263C26.2868 47.8967 26.4004 48.0671 26.5708 48.1807L27.4228 48.7345L52.6136 65.3769C55.1696 67.4927 56.7174 74.1667 55.6808 77.1203C55.553 77.5037 55.3684 77.8161 55.1412 78.0575C54.5732 78.2989 27.9908 61.0601 28.005 61.0459L27.3518 60.6341L27.2808 60.5915C27.082 60.4637 26.9684 60.2791 26.94 60.0803Z" fill="url(#paint31_linear_77_933)"/>
<path id="Vector_152" style="mix-blend-mode:screen" opacity="0.3" d="M26.94 60.0803L27.1388 61.1879C27.1672 61.4719 27.295 61.6991 27.4938 61.8127L54.5306 78.8527L55.0276 79.1651C55.766 78.9663 56.2062 78.3273 56.4618 77.6031C56.7742 76.7227 56.8878 75.5583 56.8168 74.2945C56.7742 73.4851 56.6464 72.6189 56.4618 71.7527C56.4144 71.5065 56.3576 71.2651 56.2914 71.0285C55.6098 68.3447 54.2608 65.7177 52.4432 64.4539L27.082 47.6695L26.9542 47.5843L26.4146 47.2435C26.3388 47.2056 26.2726 47.1535 26.2158 47.0873C26.1448 47.0021 26.088 46.9027 26.0596 46.7891L26.2158 47.7121C26.2726 47.8967 26.3862 48.0529 26.5708 48.1665L27.4228 48.7345L52.6136 65.3769C52.6325 65.3958 52.6562 65.4147 52.6846 65.4337C52.7035 65.4526 52.7272 65.4763 52.7556 65.5047C52.7745 65.5236 52.7982 65.5425 52.8266 65.5615C55.2406 67.8619 56.689 74.2519 55.6808 77.1203C55.6145 77.3001 55.5435 77.4658 55.4678 77.6173C55.3731 77.7877 55.2642 77.9344 55.1412 78.0575C54.5732 78.2989 27.9766 61.0459 27.9908 61.0317L27.3376 60.6199L27.2666 60.5773C27.082 60.4637 26.9684 60.2791 26.94 60.0803Z" fill="#007867"/>
<path id="Vector_153" d="M87.2619 31.1215L120.76 42.1123C124.267 43.7169 125.446 55.5029 123.33 56.8235L55.0279 79.1601C58.3933 78.2655 56.8029 67.4877 52.4577 64.4631L26.4007 47.2526C25.7759 46.855 25.9037 45.8469 26.6137 45.6623L82.6327 30.9653C84.1521 30.5677 85.7425 30.6245 87.2619 31.1215Z" fill="#00A76F"/>
<path id="Vector_154" style="mix-blend-mode:multiply" opacity="0.4" d="M56.7181 73.2014L124.367 52.2422C124.424 54.4858 124.097 56.346 123.33 56.8288L55.0283 79.1654C56.6045 78.7394 57.0873 76.155 56.7181 73.2014Z" fill="url(#paint32_linear_77_933)"/>
<path id="Vector_155" style="mix-blend-mode:screen" opacity="0.4" d="M119.07 41.5625L120.76 42.1163C121.811 42.5991 122.663 44.0191 123.273 45.7799L54.5168 66.7533C53.9346 65.8019 53.2388 65.0067 52.4578 64.4671L49.5894 62.6495L119.07 41.5625Z" fill="url(#paint33_linear_77_933)"/>
</g>
<defs>
<linearGradient id="paint0_linear_77_933" x1="20238.2" y1="15279" x2="26514.8" y2="15279" gradientUnits="userSpaceOnUse">
<stop stop-color="#4F7BDD"/>
<stop offset="1" stop-color="#4267B8"/>
</linearGradient>
<linearGradient id="paint1_linear_77_933" x1="22165.6" y1="13388.9" x2="66639.1" y2="-22321.3" gradientUnits="userSpaceOnUse">
<stop stop-color="#4F7BDD"/>
<stop offset="1" stop-color="#4267B8"/>
</linearGradient>
<linearGradient id="paint2_linear_77_933" x1="246373" y1="28620.3" x2="248110" y2="15014.3" gradientUnits="userSpaceOnUse">
<stop offset="0.07"/>
<stop offset="1" stop-color="white"/>
</linearGradient>
<linearGradient id="paint3_linear_77_933" x1="-203067" y1="-19590.5" x2="-204617" y2="-5638.06" gradientUnits="userSpaceOnUse">
<stop offset="0.07"/>
<stop offset="0.52" stop-color="white"/>
<stop offset="1"/>
</linearGradient>
<linearGradient id="paint4_linear_77_933" x1="-2815.26" y1="133041" x2="14883.7" y2="143456" gradientUnits="userSpaceOnUse">
<stop offset="0.07" stop-color="#829EDD"/>
<stop offset="1" stop-color="#4F7BDD"/>
</linearGradient>
<linearGradient id="paint5_linear_77_933" x1="-2815.26" y1="133041" x2="14883.7" y2="143456" gradientUnits="userSpaceOnUse">
<stop offset="0.07" stop-color="#829EDD"/>
<stop offset="1" stop-color="#4F7BDD"/>
</linearGradient>
<linearGradient id="paint6_linear_77_933" x1="-2809.65" y1="133028" x2="14889.9" y2="143444" gradientUnits="userSpaceOnUse">
<stop offset="0.07" stop-color="#829EDD"/>
<stop offset="1" stop-color="#4F7BDD"/>
</linearGradient>
<linearGradient id="paint7_linear_77_933" x1="-2809.73" y1="133028" x2="14889.9" y2="143444" gradientUnits="userSpaceOnUse">
<stop offset="0.07" stop-color="#829EDD"/>
<stop offset="1" stop-color="#4F7BDD"/>
</linearGradient>
<linearGradient id="paint8_linear_77_933" x1="57264.7" y1="-85235.1" x2="51894.9" y2="-91581.2" gradientUnits="userSpaceOnUse">
<stop offset="0.25" stop-color="#F7E7D0"/>
<stop offset="1" stop-color="#DDA86A"/>
</linearGradient>
<radialGradient id="paint9_radial_77_933" cx="0" cy="0" r="1" gradientUnits="userSpaceOnUse" gradientTransform="translate(2565.37 20728.8) rotate(14.8635) scale(20231.5 9272.29)">
<stop offset="0.07" stop-color="#A38E96"/>
<stop offset="1" stop-color="white"/>
</radialGradient>
<radialGradient id="paint10_radial_77_933" cx="0" cy="0" r="1" gradientUnits="userSpaceOnUse" gradientTransform="translate(1727.39 18990.7) rotate(14.8636) scale(20228.3 9272.26)">
<stop offset="0.07" stop-color="#A38E96"/>
<stop offset="1" stop-color="white"/>
</radialGradient>
<radialGradient id="paint11_radial_77_933" cx="0" cy="0" r="1" gradientUnits="userSpaceOnUse" gradientTransform="translate(8087.3 19213.3) rotate(9.51822) scale(27457.3 12474.7)">
<stop offset="0.07" stop-color="#A38E96"/>
<stop offset="1" stop-color="white"/>
</radialGradient>
<radialGradient id="paint12_radial_77_933" cx="0" cy="0" r="1" gradientUnits="userSpaceOnUse" gradientTransform="translate(7931.76 19271.4) rotate(9.51819) scale(27482.3 14038.6)">
<stop offset="0.07" stop-color="#A38E96"/>
<stop offset="1" stop-color="white"/>
</radialGradient>
<radialGradient id="paint13_radial_77_933" cx="0" cy="0" r="1" gradientUnits="userSpaceOnUse" gradientTransform="translate(4926.05 4444.56) rotate(9.52069) scale(696.109 442.908)">
<stop offset="0.07" stop-color="#A38E96"/>
<stop offset="1" stop-color="white"/>
</radialGradient>
<radialGradient id="paint14_radial_77_933" cx="0" cy="0" r="1" gradientUnits="userSpaceOnUse" gradientTransform="translate(4859.39 4499.57) rotate(9.52069) scale(696.815 443.025)">
<stop offset="0.07" stop-color="#A38E96"/>
<stop offset="1" stop-color="white"/>
</radialGradient>
<linearGradient id="paint15_linear_77_933" x1="23386.4" y1="13419" x2="34918" y2="13419" gradientUnits="userSpaceOnUse">
<stop stop-color="#F8913E"/>
<stop offset="1" stop-color="#E67A22"/>
</linearGradient>
<linearGradient id="paint16_linear_77_933" x1="29663.7" y1="-38284.1" x2="25485.2" y2="-47231.1" gradientUnits="userSpaceOnUse">
<stop offset="0.25" stop-color="#F7E7D0"/>
<stop offset="1" stop-color="#C4955E"/>
</linearGradient>
<linearGradient id="paint17_linear_77_933" x1="133013" y1="-70595.1" x2="132467" y2="-71762.6" gradientUnits="userSpaceOnUse">
<stop offset="0.25" stop-color="#F7E7D0"/>
<stop offset="1" stop-color="#DDA86A"/>
</linearGradient>
<linearGradient id="paint18_linear_77_933" x1="24088.7" y1="20598.7" x2="36842.5" y2="21402.5" gradientUnits="userSpaceOnUse">
<stop stop-color="#F8913E"/>
<stop offset="1" stop-color="#E67A22"/>
</linearGradient>
<linearGradient id="paint19_linear_77_933" x1="24088.7" y1="20598.7" x2="36842.5" y2="21402.5" gradientUnits="userSpaceOnUse">
<stop stop-color="#F8913E"/>
<stop offset="1" stop-color="#E67A22"/>
</linearGradient>
<linearGradient id="paint20_linear_77_933" x1="17987.8" y1="3994.22" x2="49531.4" y2="-28990.4" gradientUnits="userSpaceOnUse">
<stop stop-color="#F8913E"/>
<stop offset="1" stop-color="#E67A22"/>
</linearGradient>
<linearGradient id="paint21_linear_77_933" x1="-115928" y1="-27443.7" x2="-120916" y2="-10177.6" gradientUnits="userSpaceOnUse">
<stop offset="0.07"/>
<stop offset="0.52" stop-color="white"/>
<stop offset="1"/>
</linearGradient>
<linearGradient id="paint22_linear_77_933" x1="172026" y1="48028.6" x2="176147" y2="34634.1" gradientUnits="userSpaceOnUse">
<stop offset="0.07"/>
<stop offset="1" stop-color="white"/>
</linearGradient>
<linearGradient id="paint23_linear_77_933" x1="2796.67" y1="-10542.4" x2="2424.52" y2="-11339.3" gradientUnits="userSpaceOnUse">
<stop offset="0.01" stop-color="#E90D00"/>
<stop offset="0.55" stop-color="#FF5952"/>
<stop offset="0.77" stop-color="#E90D00"/>
<stop offset="1" stop-color="#B30900"/>
</linearGradient>
<radialGradient id="paint24_radial_77_933" cx="0" cy="0" r="1" gradientUnits="userSpaceOnUse" gradientTransform="translate(14049.6 9233.21) rotate(-14.4546) scale(25026.2 11780.1)">
<stop offset="0.07" stop-color="#A38E96"/>
<stop offset="1" stop-color="white"/>
</radialGradient>
<radialGradient id="paint25_radial_77_933" cx="0" cy="0" r="1" gradientUnits="userSpaceOnUse" gradientTransform="translate(15921.2 3948.33) rotate(-30.8435) scale(21436.4 14136.6)">
<stop offset="0.07" stop-color="#A38E96"/>
<stop offset="1" stop-color="white"/>
</radialGradient>
<radialGradient id="paint26_radial_77_933" cx="0" cy="0" r="1" gradientUnits="userSpaceOnUse" gradientTransform="translate(6385.1 6195.42) rotate(-7.86011) scale(10940.7 9049.23)">
<stop offset="0.07" stop-color="#A38E96"/>
<stop offset="1" stop-color="white"/>
</radialGradient>
<linearGradient id="paint27_linear_77_933" x1="5509.4" y1="8658.53" x2="11621.9" y2="8658.53" gradientUnits="userSpaceOnUse">
<stop stop-color="#22DD3B"/>
<stop offset="0.0001" stop-color="#22DD3B"/>
<stop offset="1" stop-color="#1CB831"/>
</linearGradient>
<linearGradient id="paint28_linear_77_933" x1="34106.5" y1="7211.47" x2="37355.5" y2="-21.897" gradientUnits="userSpaceOnUse">
<stop offset="0.25" stop-color="#F7E7D0"/>
<stop offset="1" stop-color="#DDA86A"/>
</linearGradient>
<linearGradient id="paint29_linear_77_933" x1="-69269.1" y1="-44695.5" x2="-82325.2" y2="-31058.7" gradientUnits="userSpaceOnUse">
<stop offset="0.07" stop-color="#49DD5E"/>
<stop offset="1" stop-color="#22DD3B"/>
</linearGradient>
<linearGradient id="paint30_linear_77_933" x1="-69269.1" y1="-44695.5" x2="-82325.2" y2="-31058.7" gradientUnits="userSpaceOnUse">
<stop offset="0.07" stop-color="#49DD5E"/>
<stop offset="1" stop-color="#22DD3B"/>
</linearGradient>
<linearGradient id="paint31_linear_77_933" x1="-69263.5" y1="-44690" x2="-82321" y2="-31051.7" gradientUnits="userSpaceOnUse">
<stop offset="0.07" stop-color="#49DD5E"/>
<stop offset="1" stop-color="#22DD3B"/>
</linearGradient>
<linearGradient id="paint32_linear_77_933" x1="188753" y1="-74341.5" x2="183148" y2="-92275.6" gradientUnits="userSpaceOnUse">
<stop offset="0.07"/>
<stop offset="1" stop-color="white"/>
</linearGradient>
<linearGradient id="paint33_linear_77_933" x1="-65779.3" y1="26375.2" x2="-62515.3" y2="38571.1" gradientUnits="userSpaceOnUse">
<stop offset="0.07"/>
<stop offset="0.52" stop-color="white"/>
<stop offset="1"/>
</linearGradient>
</defs>
</svg>
