<svg width="60" height="61" viewBox="0 0 60 61" fill="none" xmlns="http://www.w3.org/2000/svg">
<g id="Icon/alert" clip-path="url(#clip0_366_4565)">
<path id="Vector" d="M32.9508 33.6318H27.0492V15.6318H32.9508M32.9508 45.6318H27.0492V39.6318H32.9508M30 0.631836C26.1249 0.631836 22.2878 1.40781 18.7077 2.91545C15.1276 4.42309 11.8747 6.63287 9.13457 9.41863C3.60071 15.0447 0.491821 22.6753 0.491821 30.6318C0.491821 38.5883 3.60071 46.2189 9.13457 51.845C11.8747 54.6308 15.1276 56.8406 18.7077 58.3482C22.2878 59.8559 26.1249 60.6318 30 60.6318C37.8261 60.6318 45.3316 57.4711 50.8655 51.845C56.3993 46.2189 59.5082 38.5883 59.5082 30.6318C59.5082 26.6922 58.745 22.7911 57.262 19.1513C55.7791 15.5116 53.6056 12.2044 50.8655 9.41863C48.1254 6.63287 44.8724 4.42309 41.2923 2.91545C37.7122 1.40781 33.8751 0.631836 30 0.631836Z" fill="#E03E2D"/>
</g>
<defs>
<clipPath id="clip0_366_4565">
<rect width="60" height="60" fill="white" transform="translate(0 0.631836)"/>
</clipPath>
</defs>
</svg>
