<svg width="98" height="18" viewBox="0 0 98 18" fill="none" xmlns="http://www.w3.org/2000/svg">
<path d="M16.2087 7.63177L16.1611 7.6733L12.99 10.4408L12.7642 10.6378L12.8316 10.9298L13.7815 15.0502L13.7818 15.0515C13.8097 15.1711 13.8017 15.2964 13.7589 15.4115C13.716 15.5267 13.6401 15.6267 13.5408 15.6989C13.4414 15.7712 13.3229 15.8126 13.2001 15.8179C13.0776 15.8232 12.9562 15.7923 12.8511 15.7292C12.8509 15.729 12.8507 15.7289 12.8505 15.7288L9.25807 13.5498L8.99849 13.3924L8.73906 13.5501L5.15475 15.7288C5.15451 15.7289 5.15428 15.7291 5.15405 15.7292C5.04896 15.7924 4.92762 15.8232 4.80513 15.8179C4.68236 15.8126 4.56388 15.7712 4.46451 15.6989L4.1704 16.1033L4.46451 15.6989C4.36514 15.6267 4.28927 15.5267 4.24641 15.4115C4.20354 15.2964 4.19557 15.1711 4.2235 15.0515L4.22381 15.0501L5.17233 10.934L5.23956 10.6423L5.0141 10.4452L1.84231 7.67352L1.84231 7.67351L1.83985 7.67138C1.74665 7.591 1.67926 7.48489 1.64612 7.36636C1.61299 7.24783 1.61559 7.12216 1.65359 7.0051C1.6916 6.88804 1.76332 6.78481 1.85976 6.70834C1.9562 6.63188 2.07307 6.5856 2.19571 6.57529L2.19699 6.57518L6.37777 6.21307L6.67888 6.18699L6.79574 5.90826L8.42769 2.01576L8.42802 2.01498C8.47525 1.90179 8.55491 1.80511 8.65697 1.7371C8.75904 1.6691 8.87894 1.63281 9.00158 1.63281C9.12423 1.63281 9.24413 1.6691 9.34619 1.7371C9.44825 1.80511 9.52791 1.90179 9.57514 2.01498L9.57568 2.01626L11.2126 5.90876L11.3296 6.18702L11.6303 6.21307L15.8097 6.57518L15.811 6.57529C15.9336 6.5856 16.0505 6.63188 16.1469 6.70834C16.2434 6.78481 16.3151 6.88804 16.3531 7.0051C16.3911 7.12216 16.3937 7.24783 16.3606 7.36636C16.3326 7.46633 16.2803 7.55746 16.2087 7.63177Z" fill="#FFB81C" stroke="#DC8633"/>
<path d="M36.2087 7.63177L36.1611 7.6733L32.99 10.4408L32.7642 10.6378L32.8316 10.9298L33.7815 15.0502L33.7818 15.0515C33.8097 15.1711 33.8017 15.2964 33.7589 15.4115C33.716 15.5267 33.6401 15.6267 33.5408 15.6989C33.4414 15.7712 33.3229 15.8126 33.2001 15.8179C33.0776 15.8232 32.9562 15.7923 32.8511 15.7292C32.8509 15.729 32.8507 15.7289 32.8505 15.7288L29.2581 13.5498L28.9985 13.3924L28.7391 13.5501L25.1547 15.7288C25.1545 15.7289 25.1543 15.7291 25.154 15.7292C25.049 15.7924 24.9276 15.8232 24.8051 15.8179C24.6824 15.8126 24.5639 15.7712 24.4645 15.6989L24.1704 16.1033L24.4645 15.6989C24.3651 15.6267 24.2893 15.5267 24.2464 15.4115C24.2035 15.2964 24.1956 15.1711 24.2235 15.0515L24.2238 15.0501L25.1723 10.934L25.2396 10.6423L25.0141 10.4452L21.8423 7.67352L21.8423 7.67351L21.8399 7.67138C21.7467 7.591 21.6793 7.48489 21.6461 7.36636C21.613 7.24783 21.6156 7.12216 21.6536 7.0051C21.6916 6.88804 21.7633 6.78481 21.8598 6.70834C21.9562 6.63188 22.0731 6.5856 22.1957 6.57529L22.197 6.57518L26.3778 6.21307L26.6789 6.18699L26.7957 5.90826L28.4277 2.01576L28.428 2.01498C28.4753 1.90179 28.5549 1.80511 28.657 1.7371C28.759 1.6691 28.8789 1.63281 29.0016 1.63281C29.1242 1.63281 29.2441 1.6691 29.3462 1.7371C29.4483 1.80511 29.5279 1.90179 29.5751 2.01498L29.5757 2.01626L31.2126 5.90876L31.3296 6.18702L31.6303 6.21307L35.8097 6.57518L35.811 6.57529C35.9336 6.5856 36.0505 6.63188 36.1469 6.70834C36.2434 6.78481 36.3151 6.88804 36.3531 7.0051C36.3911 7.12216 36.3937 7.24783 36.3606 7.36636C36.3326 7.46633 36.2803 7.55746 36.2087 7.63177Z" fill="#FFB81C" stroke="#DC8633"/>
<path d="M56.2087 7.63177L56.1611 7.6733L52.99 10.4408L52.7642 10.6378L52.8316 10.9298L53.7815 15.0502L53.7818 15.0515C53.8097 15.1711 53.8017 15.2964 53.7589 15.4115C53.716 15.5267 53.6401 15.6267 53.5408 15.6989C53.4414 15.7712 53.3229 15.8126 53.2001 15.8179C53.0776 15.8232 52.9562 15.7923 52.8511 15.7292C52.8509 15.729 52.8507 15.7289 52.8505 15.7288L49.2581 13.5498L48.9985 13.3924L48.7391 13.5501L45.1547 15.7288C45.1545 15.7289 45.1543 15.7291 45.154 15.7292C45.049 15.7924 44.9276 15.8232 44.8051 15.8179C44.6824 15.8126 44.5639 15.7712 44.4645 15.6989L44.1704 16.1033L44.4645 15.6989C44.3651 15.6267 44.2893 15.5267 44.2464 15.4115C44.2035 15.2964 44.1956 15.1711 44.2235 15.0515L44.2238 15.0501L45.1723 10.934L45.2396 10.6423L45.0141 10.4452L41.8423 7.67352L41.8423 7.67351L41.8399 7.67138C41.7467 7.591 41.6793 7.48489 41.6461 7.36636C41.613 7.24783 41.6156 7.12216 41.6536 7.0051C41.6916 6.88804 41.7633 6.78481 41.8598 6.70834C41.9562 6.63188 42.0731 6.5856 42.1957 6.57529L42.197 6.57518L46.3778 6.21307L46.6789 6.18699L46.7957 5.90826L48.4277 2.01576L48.428 2.01498C48.4753 1.90179 48.5549 1.80511 48.657 1.7371C48.759 1.6691 48.8789 1.63281 49.0016 1.63281C49.1242 1.63281 49.2441 1.6691 49.3462 1.7371C49.4483 1.80511 49.5279 1.90179 49.5751 2.01498L49.5757 2.01626L51.2126 5.90876L51.3296 6.18702L51.6303 6.21307L55.8097 6.57518L55.811 6.57529C55.9336 6.5856 56.0505 6.63188 56.1469 6.70834C56.2434 6.78481 56.3151 6.88804 56.3531 7.0051C56.3911 7.12216 56.3937 7.24783 56.3606 7.36636C56.3326 7.46633 56.2803 7.55746 56.2087 7.63177Z" fill="#FFB81C" stroke="#DC8633"/>
<path d="M76.2087 7.63177L76.1611 7.6733L72.99 10.4408L72.7642 10.6378L72.8316 10.9298L73.7815 15.0502L73.7818 15.0515C73.8097 15.1711 73.8017 15.2964 73.7589 15.4115C73.716 15.5267 73.6401 15.6267 73.5408 15.6989C73.4414 15.7712 73.3229 15.8126 73.2001 15.8179C73.0776 15.8232 72.9562 15.7923 72.8511 15.7292C72.8509 15.729 72.8507 15.7289 72.8505 15.7288L69.2581 13.5498L68.9985 13.3924L68.7391 13.5501L65.1547 15.7288C65.1545 15.7289 65.1543 15.7291 65.154 15.7292C65.049 15.7924 64.9276 15.8232 64.8051 15.8179C64.6824 15.8126 64.5639 15.7712 64.4645 15.6989L64.1704 16.1033L64.4645 15.6989C64.3651 15.6267 64.2893 15.5267 64.2464 15.4115C64.2035 15.2964 64.1956 15.1711 64.2235 15.0515L64.2238 15.0501L65.1723 10.934L65.2396 10.6423L65.0141 10.4452L61.8423 7.67352L61.8423 7.67351L61.8399 7.67138C61.7467 7.591 61.6793 7.48489 61.6461 7.36636C61.613 7.24783 61.6156 7.12216 61.6536 7.0051C61.6916 6.88804 61.7633 6.78481 61.8598 6.70834C61.9562 6.63188 62.0731 6.5856 62.1957 6.57529L62.197 6.57518L66.3778 6.21307L66.6789 6.18699L66.7957 5.90826L68.4277 2.01576L68.428 2.01498C68.4753 1.90179 68.5549 1.80511 68.657 1.7371C68.759 1.6691 68.8789 1.63281 69.0016 1.63281C69.1242 1.63281 69.2441 1.6691 69.3462 1.7371C69.4483 1.80511 69.5279 1.90179 69.5751 2.01498L69.5757 2.01626L71.2126 5.90876L71.3296 6.18702L71.6303 6.21307L75.8097 6.57518L75.811 6.57529C75.9336 6.5856 76.0505 6.63188 76.1469 6.70834C76.2434 6.78481 76.3151 6.88804 76.3531 7.0051C76.3911 7.12216 76.3937 7.24783 76.3606 7.36636C76.3326 7.46633 76.2803 7.55746 76.2087 7.63177Z" fill="#FFB81C" stroke="#DC8633"/>
<path d="M96.2087 7.63177L96.1611 7.6733L92.99 10.4408L92.7642 10.6378L92.8316 10.9298L93.7815 15.0502L93.7818 15.0515C93.8097 15.1711 93.8017 15.2964 93.7589 15.4115C93.716 15.5267 93.6401 15.6267 93.5408 15.6989C93.4414 15.7712 93.3229 15.8126 93.2001 15.8179C93.0776 15.8232 92.9562 15.7923 92.8511 15.7292C92.8509 15.729 92.8507 15.7289 92.8505 15.7288L89.2581 13.5498L88.9985 13.3924L88.7391 13.5501L85.1547 15.7288C85.1545 15.7289 85.1543 15.7291 85.154 15.7292C85.049 15.7924 84.9276 15.8232 84.8051 15.8179C84.6824 15.8126 84.5639 15.7712 84.4645 15.6989L84.1704 16.1033L84.4645 15.6989C84.3651 15.6267 84.2893 15.5267 84.2464 15.4115C84.2035 15.2964 84.1956 15.1711 84.2235 15.0515L84.2238 15.0501L85.1723 10.934L85.2396 10.6423L85.0141 10.4452L81.8423 7.67352L81.8423 7.67351L81.8399 7.67138C81.7467 7.591 81.6793 7.48489 81.6461 7.36636C81.613 7.24783 81.6156 7.12216 81.6536 7.0051C81.6916 6.88804 81.7633 6.78481 81.8598 6.70834C81.9562 6.63188 82.0731 6.5856 82.1957 6.57529L82.197 6.57518L86.3778 6.21307L86.6789 6.18699L86.7957 5.90826L88.4277 2.01576L88.428 2.01498C88.4753 1.90179 88.5549 1.80511 88.657 1.7371C88.759 1.6691 88.8789 1.63281 89.0016 1.63281C89.1242 1.63281 89.2441 1.6691 89.3462 1.7371C89.4483 1.80511 89.5279 1.90179 89.5751 2.01498L89.5757 2.01626L91.2126 5.90876L91.3296 6.18702L91.6303 6.21307L95.8097 6.57518L95.811 6.57529C95.9336 6.5856 96.0505 6.63188 96.1469 6.70834C96.2434 6.78481 96.3151 6.88804 96.3531 7.0051C96.3911 7.12216 96.3937 7.24783 96.3606 7.36636C96.3326 7.46633 96.2803 7.55746 96.2087 7.63177Z" fill="#FFB81C" stroke="#DC8633"/>
</svg>
