<svg width="98" height="18" viewBox="0 0 98 18" fill="none" xmlns="http://www.w3.org/2000/svg">
<path d="M16.2087 7.62883L16.1611 7.67037L12.99 10.4379L12.7643 10.6349L12.8316 10.9269L13.7815 15.0472L13.7818 15.0485C13.8097 15.1682 13.8018 15.2934 13.7589 15.4086C13.716 15.5238 13.6402 15.6237 13.5408 15.696C13.4414 15.7683 13.3229 15.8097 13.2002 15.815C13.0776 15.8203 12.9562 15.7894 12.8511 15.7262C12.8509 15.7261 12.8507 15.726 12.8506 15.7259L9.2581 13.5469L8.99852 13.3895L8.73909 13.5472L5.15478 15.7259C5.15456 15.726 5.15434 15.7261 5.15412 15.7263C5.04902 15.7894 4.92767 15.8203 4.80516 15.815C4.68239 15.8097 4.56391 15.7683 4.46454 15.696C4.36517 15.6237 4.2893 15.5238 4.24644 15.4086C4.20357 15.2934 4.1956 15.1682 4.22353 15.0485L4.22384 15.0472L5.17236 10.9311L5.23959 10.6393L5.01414 10.4423L1.84234 7.67059L1.84234 7.67058L1.83988 7.66846C1.74668 7.58807 1.67929 7.48196 1.64615 7.36343C1.61302 7.2449 1.61562 7.11923 1.65362 7.00217C1.69163 6.88511 1.76335 6.78188 1.85979 6.70541C1.95623 6.62895 2.0731 6.58267 2.19574 6.57236L2.19702 6.57225L6.3778 6.21014L6.67891 6.18406L6.79577 5.90533L8.42773 2.01283L8.42805 2.01205C8.47528 1.89886 8.55494 1.80218 8.657 1.73417C8.75907 1.66617 8.87897 1.62988 9.00161 1.62988C9.12426 1.62988 9.24416 1.66617 9.34622 1.73417C9.44828 1.80218 9.52794 1.89886 9.57517 2.01205L9.57571 2.01333L11.2126 5.90583L11.3296 6.18409L11.6303 6.21014L15.8097 6.57225L15.811 6.57236C15.9336 6.58267 16.0505 6.62895 16.147 6.70541C16.2434 6.78188 16.3151 6.88511 16.3531 7.00217C16.3911 7.11923 16.3937 7.2449 16.3606 7.36343C16.3326 7.4634 16.2803 7.55452 16.2087 7.62883Z" fill="#FFB81C" stroke="#DC8633"/>
<path d="M36.8216 6.84545C36.7535 6.63548 36.6251 6.4502 36.4524 6.31267C36.2798 6.17514 36.0705 6.09145 35.8506 6.07201L31.6747 5.71201L30.0379 1.81951C29.9526 1.61526 29.8089 1.4408 29.6247 1.31808C29.4405 1.19536 29.2242 1.12988 29.0029 1.12988C28.7815 1.12988 28.5652 1.19536 28.381 1.31808C28.1968 1.4408 28.0531 1.61526 27.9679 1.81951L26.3359 5.71201L22.1551 6.07412C21.9344 6.09267 21.724 6.17598 21.5504 6.31361C21.3768 6.45124 21.2477 6.63706 21.1793 6.84777C21.1109 7.05848 21.1062 7.28469 21.1659 7.49805C21.2255 7.7114 21.3468 7.9024 21.5146 8.04709L24.6864 10.8188L23.7357 14.9349C23.6855 15.1503 23.6998 15.3757 23.777 15.583C23.8541 15.7903 23.9907 15.9703 24.1696 16.1004C24.3484 16.2305 24.5617 16.305 24.7827 16.3145C25.0037 16.3241 25.2226 16.2683 25.412 16.1541L28.9979 13.9744L32.5916 16.1541C32.781 16.2683 32.9999 16.3241 33.2209 16.3145C33.4419 16.305 33.6552 16.2305 33.834 16.1004C34.0129 15.9703 34.1495 15.7903 34.2266 15.583C34.3038 15.3757 34.3181 15.1503 34.2679 14.9349L33.3179 10.8146L36.489 8.04709C36.6568 7.9019 36.7778 7.71036 36.837 7.49655C36.8962 7.28275 36.8908 7.05622 36.8216 6.84545ZM35.7514 7.19701L32.5804 9.96451C32.426 10.0988 32.3112 10.2725 32.2483 10.4672C32.1853 10.6618 32.1767 10.8699 32.2232 11.0691L33.1759 15.1922L29.585 13.0126C29.4099 12.9059 29.2087 12.8494 29.0036 12.8494C28.7984 12.8494 28.5973 12.9059 28.4221 13.0126L24.8361 15.1922L25.7825 11.0719C25.8291 10.8727 25.8204 10.6646 25.7574 10.47C25.6945 10.2754 25.5797 10.1016 25.4254 9.96732L22.2529 7.20123C22.2526 7.19913 22.2526 7.197 22.2529 7.1949L26.4322 6.83349C26.6363 6.81551 26.8315 6.74215 26.997 6.62134C27.1624 6.50053 27.2917 6.33684 27.3709 6.14795L29.0029 2.26037L30.6341 6.14795C30.7133 6.33684 30.8426 6.50053 31.008 6.62134C31.1735 6.74215 31.3687 6.81551 31.5728 6.83349L35.7529 7.1949C35.7529 7.1949 35.7529 7.19912 35.7529 7.19982L35.7514 7.19701Z" fill="#B2B2B3"/>
<path d="M56.8216 6.84545C56.7535 6.63548 56.6251 6.4502 56.4524 6.31267C56.2798 6.17514 56.0705 6.09145 55.8506 6.07201L51.6747 5.71201L50.0379 1.81951C49.9526 1.61526 49.8089 1.4408 49.6247 1.31808C49.4405 1.19536 49.2242 1.12988 49.0029 1.12988C48.7815 1.12988 48.5652 1.19536 48.381 1.31808C48.1968 1.4408 48.0531 1.61526 47.9679 1.81951L46.3359 5.71201L42.1551 6.07412C41.9344 6.09267 41.724 6.17598 41.5504 6.31361C41.3768 6.45124 41.2477 6.63706 41.1793 6.84777C41.1109 7.05848 41.1062 7.28469 41.1659 7.49805C41.2255 7.7114 41.3468 7.9024 41.5146 8.04709L44.6864 10.8188L43.7357 14.9349C43.6855 15.1503 43.6998 15.3757 43.777 15.583C43.8541 15.7903 43.9907 15.9703 44.1696 16.1004C44.3484 16.2305 44.5617 16.305 44.7827 16.3145C45.0037 16.3241 45.2226 16.2683 45.412 16.1541L48.9979 13.9744L52.5916 16.1541C52.781 16.2683 52.9999 16.3241 53.2209 16.3145C53.4419 16.305 53.6552 16.2305 53.834 16.1004C54.0129 15.9703 54.1495 15.7903 54.2266 15.583C54.3038 15.3757 54.3181 15.1503 54.2679 14.9349L53.3179 10.8146L56.489 8.04709C56.6568 7.9019 56.7778 7.71036 56.837 7.49655C56.8962 7.28275 56.8908 7.05622 56.8216 6.84545ZM55.7514 7.19701L52.5804 9.96451C52.426 10.0988 52.3112 10.2725 52.2483 10.4672C52.1853 10.6618 52.1767 10.8699 52.2232 11.0691L53.1759 15.1922L49.585 13.0126C49.4099 12.9059 49.2087 12.8494 49.0036 12.8494C48.7984 12.8494 48.5973 12.9059 48.4221 13.0126L44.8361 15.1922L45.7825 11.0719C45.8291 10.8727 45.8204 10.6646 45.7574 10.47C45.6945 10.2754 45.5797 10.1016 45.4254 9.96732L42.2529 7.20123C42.2526 7.19913 42.2526 7.197 42.2529 7.1949L46.4322 6.83349C46.6363 6.81551 46.8315 6.74215 46.997 6.62134C47.1624 6.50053 47.2917 6.33684 47.3709 6.14795L49.0029 2.26037L50.6341 6.14795C50.7133 6.33684 50.8426 6.50053 51.008 6.62134C51.1735 6.74215 51.3687 6.81551 51.5728 6.83349L55.7529 7.1949C55.7529 7.1949 55.7529 7.19912 55.7529 7.19982L55.7514 7.19701Z" fill="#B2B2B3"/>
<path d="M76.8216 6.84545C76.7535 6.63548 76.6251 6.4502 76.4524 6.31267C76.2798 6.17514 76.0705 6.09145 75.8506 6.07201L71.6747 5.71201L70.0379 1.81951C69.9526 1.61526 69.8089 1.4408 69.6247 1.31808C69.4405 1.19536 69.2242 1.12988 69.0029 1.12988C68.7815 1.12988 68.5652 1.19536 68.381 1.31808C68.1968 1.4408 68.0531 1.61526 67.9679 1.81951L66.3359 5.71201L62.1551 6.07412C61.9344 6.09267 61.724 6.17598 61.5504 6.31361C61.3768 6.45124 61.2477 6.63706 61.1793 6.84777C61.1109 7.05848 61.1062 7.28469 61.1659 7.49805C61.2255 7.7114 61.3468 7.9024 61.5146 8.04709L64.6864 10.8188L63.7357 14.9349C63.6855 15.1503 63.6998 15.3757 63.777 15.583C63.8541 15.7903 63.9907 15.9703 64.1696 16.1004C64.3484 16.2305 64.5617 16.305 64.7827 16.3145C65.0037 16.3241 65.2226 16.2683 65.412 16.1541L68.9979 13.9744L72.5916 16.1541C72.781 16.2683 72.9999 16.3241 73.2209 16.3145C73.4419 16.305 73.6552 16.2305 73.834 16.1004C74.0129 15.9703 74.1495 15.7903 74.2266 15.583C74.3038 15.3757 74.3181 15.1503 74.2679 14.9349L73.3179 10.8146L76.489 8.04709C76.6568 7.9019 76.7778 7.71036 76.837 7.49655C76.8962 7.28275 76.8908 7.05622 76.8216 6.84545ZM75.7514 7.19701L72.5804 9.96451C72.426 10.0988 72.3112 10.2725 72.2483 10.4672C72.1853 10.6618 72.1767 10.8699 72.2232 11.0691L73.1759 15.1922L69.585 13.0126C69.4099 12.9059 69.2087 12.8494 69.0036 12.8494C68.7984 12.8494 68.5973 12.9059 68.4221 13.0126L64.8361 15.1922L65.7825 11.0719C65.8291 10.8727 65.8204 10.6646 65.7574 10.47C65.6945 10.2754 65.5797 10.1016 65.4254 9.96732L62.2529 7.20123C62.2526 7.19913 62.2526 7.197 62.2529 7.1949L66.4322 6.83349C66.6363 6.81551 66.8315 6.74215 66.997 6.62134C67.1624 6.50053 67.2917 6.33684 67.3709 6.14795L69.0029 2.26037L70.6341 6.14795C70.7133 6.33684 70.8426 6.50053 71.008 6.62134C71.1735 6.74215 71.3687 6.81551 71.5728 6.83349L75.7529 7.1949C75.7529 7.1949 75.7529 7.19912 75.7529 7.19982L75.7514 7.19701Z" fill="#B2B2B3"/>
<path d="M96.8216 6.84545C96.7535 6.63548 96.6251 6.4502 96.4524 6.31267C96.2798 6.17514 96.0705 6.09145 95.8506 6.07201L91.6747 5.71201L90.0379 1.81951C89.9526 1.61526 89.8089 1.4408 89.6247 1.31808C89.4405 1.19536 89.2242 1.12988 89.0029 1.12988C88.7815 1.12988 88.5652 1.19536 88.381 1.31808C88.1968 1.4408 88.0531 1.61526 87.9679 1.81951L86.3359 5.71201L82.1551 6.07412C81.9344 6.09267 81.724 6.17598 81.5504 6.31361C81.3768 6.45124 81.2477 6.63706 81.1793 6.84777C81.1109 7.05848 81.1062 7.28469 81.1659 7.49805C81.2255 7.7114 81.3468 7.9024 81.5146 8.04709L84.6864 10.8188L83.7357 14.9349C83.6855 15.1503 83.6998 15.3757 83.777 15.583C83.8541 15.7903 83.9907 15.9703 84.1696 16.1004C84.3484 16.2305 84.5617 16.305 84.7827 16.3145C85.0037 16.3241 85.2226 16.2683 85.412 16.1541L88.9979 13.9744L92.5916 16.1541C92.781 16.2683 92.9999 16.3241 93.2209 16.3145C93.4419 16.305 93.6552 16.2305 93.834 16.1004C94.0129 15.9703 94.1495 15.7903 94.2266 15.583C94.3038 15.3757 94.3181 15.1503 94.2679 14.9349L93.3179 10.8146L96.489 8.04709C96.6568 7.9019 96.7778 7.71036 96.837 7.49655C96.8962 7.28275 96.8908 7.05622 96.8216 6.84545ZM95.7514 7.19701L92.5804 9.96451C92.426 10.0988 92.3112 10.2725 92.2483 10.4672C92.1853 10.6618 92.1767 10.8699 92.2232 11.0691L93.1759 15.1922L89.585 13.0126C89.4099 12.9059 89.2087 12.8494 89.0036 12.8494C88.7984 12.8494 88.5973 12.9059 88.4221 13.0126L84.8361 15.1922L85.7825 11.0719C85.8291 10.8727 85.8204 10.6646 85.7574 10.47C85.6945 10.2754 85.5797 10.1016 85.4254 9.96732L82.2529 7.20123C82.2526 7.19913 82.2526 7.197 82.2529 7.1949L86.4322 6.83349C86.6363 6.81551 86.8315 6.74215 86.997 6.62134C87.1624 6.50053 87.2917 6.33684 87.3709 6.14795L89.0029 2.26037L90.6341 6.14795C90.7133 6.33684 90.8426 6.50053 91.008 6.62134C91.1735 6.74215 91.3687 6.81551 91.5728 6.83349L95.7529 7.1949C95.7529 7.1949 95.7529 7.19912 95.7529 7.19982L95.7514 7.19701Z" fill="#B2B2B3"/>
</svg>
