<svg width="20" height="21" viewBox="0 0 20 21" fill="none" xmlns="http://www.w3.org/2000/svg">
<g id="Assign recieved">
<path id="Vector" d="M14.1667 15.4967H17.5V13.8301H14.1667V12.1634L11.6667 14.6634L14.1667 17.1634V15.4967ZM9.16667 3.83008C7.33333 3.83008 5.83333 5.33008 5.83333 7.16341C5.83333 8.99674 7.33333 10.4967 9.16667 10.4967C11 10.4967 12.5 8.99674 12.5 7.16341C12.5 5.33008 11 3.83008 9.16667 3.83008ZM9.16667 12.1634C5.5 12.1634 2.5 13.6634 2.5 15.4967V17.1634H10.4167C10.1667 16.4967 10 15.8301 10 15.0801C10 14.0801 10.25 13.1634 10.75 12.2467C10.25 12.2467 9.75 12.1634 9.16667 12.1634Z" fill="white"/>
</g>
</svg>
