<svg width="24" height="24" viewBox="0 0 24 24" fill="none" xmlns="http://www.w3.org/2000/svg">
<g id="Assign recieved">
<path id="Vector" d="M17 17.9922H21V15.9922H17V13.9922L14 16.9922L17 19.9922V17.9922ZM11 3.99219C8.8 3.99219 7 5.79219 7 7.99219C7 10.1922 8.8 11.9922 11 11.9922C13.2 11.9922 15 10.1922 15 7.99219C15 5.79219 13.2 3.99219 11 3.99219ZM11 13.9922C6.6 13.9922 3 15.7922 3 17.9922V19.9922H12.5C12.2 19.1922 12 18.3922 12 17.4922C12 16.2922 12.3 15.1922 12.9 14.0922C12.3 14.0922 11.7 13.9922 11 13.9922Z" fill="#6D6D6D"/>
</g>
</svg>
