<svg width="13" height="15" viewBox="0 0 13 15" fill="none" xmlns="http://www.w3.org/2000/svg">
<path d="M4.15625 2.0791H8.09375V0.985352C8.09375 0.629883 8.36719 0.329102 8.75 0.329102C9.10547 0.329102 9.40625 0.629883 9.40625 0.985352V2.0791H10.5C11.457 2.0791 12.25 2.87207 12.25 3.8291V12.5791C12.25 13.5635 11.457 14.3291 10.5 14.3291H1.75C0.765625 14.3291 0 13.5635 0 12.5791V3.8291C0 2.87207 0.765625 2.0791 1.75 2.0791H2.84375V0.985352C2.84375 0.629883 3.11719 0.329102 3.5 0.329102C3.85547 0.329102 4.15625 0.629883 4.15625 0.985352V2.0791ZM1.3125 12.5791C1.3125 12.8252 1.50391 13.0166 1.75 13.0166H10.5C10.7188 13.0166 10.9375 12.8252 10.9375 12.5791V5.5791H1.3125V12.5791Z" fill="black"/>
</svg>
