<svg width="24" height="25" viewBox="0 0 24 25" fill="none" xmlns="http://www.w3.org/2000/svg">
<g id="User">
<path id="Vector" d="M15 14.2109C12.33 14.2109 7 15.5409 7 18.2109V20.2109H23V18.2109C23 15.5409 17.67 14.2109 15 14.2109ZM6 10.2109V7.21094H4V10.2109H1V12.2109H4V15.2109H6V12.2109H9V10.2109M15 12.2109C16.0609 12.2109 17.0783 11.7895 17.8284 11.0394C18.5786 10.2892 19 9.2718 19 8.21094C19 7.15007 18.5786 6.13266 17.8284 5.38251C17.0783 4.63236 16.0609 4.21094 15 4.21094C13.9391 4.21094 12.9217 4.63236 12.1716 5.38251C11.4214 6.13266 11 7.15007 11 8.21094C11 9.2718 11.4214 10.2892 12.1716 11.0394C12.9217 11.7895 13.9391 12.2109 15 12.2109Z" fill="#6D6D6D"/>
</g>
</svg>
