<svg width="30" height="24" viewBox="0 0 30 24" fill="none" xmlns="http://www.w3.org/2000/svg">
<g id="Group">
<path id="Vector" fill-rule="evenodd" clip-rule="evenodd" d="M1.40523 3.75915H0.38201C-0.168954 3.75915 -0.5625 4.15269 -0.5625 4.70366V22.3345C-0.5625 22.9642 -0.168954 23.279 0.460719 23.279L12.1884 23.0429C7.70196 18.6352 2.50716 21.8623 1.40523 18.0842C1.24781 17.5333 1.40523 5.41204 1.40523 3.75915ZM26.356 0.925615V17.612C26.356 18.3203 26.0412 18.5565 25.4115 18.4778C21.7909 18.1629 18.5638 19.2649 15.5729 21.941V4.86107C17.0684 2.26367 19.7445 0.217233 25.5689 0.0598145C26.1199 0.0598145 26.356 0.374651 26.356 0.925615ZM27.9302 3.75915H28.8747C29.4257 3.75915 29.8979 4.15269 29.8979 4.70366V22.3345C29.8979 22.9642 29.5044 23.279 28.796 23.279L17.1471 23.0429C21.6335 18.6352 26.8283 21.8623 27.9302 18.0842C28.0876 17.5333 27.9302 5.41204 27.9302 3.75915ZM2.97941 0.925615V17.612C2.97941 18.3203 3.29425 18.5565 3.84521 18.4778C7.46584 18.1629 10.7716 19.2649 13.7626 21.941V4.86107C12.2671 2.26367 9.59098 0.217233 3.7665 0.0598145C3.21554 0.0598145 2.97941 0.374651 2.97941 0.925615Z" fill="#28519E"/>
</g>
</svg>
