<svg width="268" height="197" viewBox="0 0 268 197" fill="none" xmlns="http://www.w3.org/2000/svg">
<g clip-path="url(#clip0_331_3412)">
<path d="M198.938 196.037L201.626 196.351L201.137 196.77L200.614 196.7L194.262 195.828L168.785 192.407L60.8739 177.924L6.46484 170.63L11.1414 168.326L97.4491 125.539L229.197 135.171L201.137 158.764C192.238 166.965 191.609 188.673 197.682 195.025C198.066 195.409 198.485 195.758 198.938 196.037Z" fill="#4F7BDD"/>
<path d="M200.823 195.257C190.492 189.15 194.401 168.384 201.137 161.125L231.779 135.334L235.269 132.438L266.086 134.671C267.167 134.776 267.865 135.683 267.865 136.591C267.865 137.323 267.516 138.056 266.958 138.51C266.958 138.51 205.743 192.919 200.823 195.257Z" fill="url(#paint0_linear_331_3412)"/>
<path d="M91.6192 90.4606L6.46316 132.655C-2.22694 138.204 0.146262 168.253 6.46316 170.626L201.135 196.766C191.643 195.963 190.84 168.253 201.135 158.76L266.608 103.688C268.108 102.431 267.306 99.9533 265.351 99.8137L103.974 88.0176C99.716 87.7035 95.4233 88.5411 91.6192 90.4606Z" fill="url(#paint1_linear_331_3412)"/>
<path style="mix-blend-mode:multiply" opacity="0.4" d="M193.737 182.531L1.47266 159.602C2.38006 165.255 4.15996 169.792 6.46336 170.63L201.136 196.77C196.668 196.386 194.121 190.104 193.737 182.531Z" fill="url(#paint2_linear_331_3412)"/>
<path style="mix-blend-mode:screen" opacity="0.4" d="M10.7558 130.523L6.4631 132.652C3.8456 134.328 2.2402 138.236 1.4375 142.948L196.633 165.423C197.785 162.771 199.286 160.468 201.135 158.758L208.011 152.999L10.7558 130.523Z" fill="url(#paint3_linear_331_3412)"/>
<path d="M267.864 139.497C267.864 140.23 267.654 140.858 267.166 141.207L202.321 195.756L201.135 196.768C191.537 195.861 190.909 168.185 201.135 158.762L229.194 135.17L232.649 132.238L265.316 104.807L266.607 103.725C266.793 103.562 266.945 103.387 267.061 103.201C267.235 102.957 267.305 102.678 267.375 102.398V104.807C267.27 105.26 267.061 105.714 266.607 106.098L235.267 132.447L231.777 135.344L201.135 161.135C194.469 168.394 194.015 189.648 200.262 194.046C201.903 194.395 265.49 139.532 265.421 139.497C267.235 137.996 267.864 137.682 267.864 136.6V139.497Z" fill="url(#paint4_linear_331_3412)"/>
<path style="mix-blend-mode:screen" opacity="0.3" d="M267.864 139.497C267.864 140.23 267.654 140.858 267.166 141.207L202.321 195.756L201.135 196.768C191.537 195.861 190.909 168.185 201.135 158.762L229.194 135.17L232.649 132.238L265.316 104.807L266.607 103.725C266.793 103.562 266.945 103.387 267.061 103.201C267.235 102.957 267.305 102.678 267.375 102.398V104.807C267.27 105.26 267.061 105.714 266.607 106.098L235.267 132.447L231.777 135.344L201.135 161.135C194.469 168.394 194.015 189.648 200.262 194.046C201.903 194.395 265.49 139.532 265.421 139.497C267.235 137.996 267.864 137.682 267.864 136.6V139.497Z" fill="url(#paint5_linear_331_3412)"/>
<path style="mix-blend-mode:screen" opacity="0.3" d="M267.863 136.635V139.497C267.863 140.23 267.654 140.858 267.165 141.207L202.321 195.756L201.135 196.768C199.075 196.559 197.575 195.198 196.493 193.453C195.236 191.393 194.399 188.567 193.98 185.321C193.736 183.262 193.631 181.063 193.736 178.795C194.05 171.186 196.423 163.09 201.135 158.762L229.194 135.17L232.649 132.238L265.002 105.051L265.316 104.807L266.607 103.725C266.793 103.562 266.944 103.387 267.061 103.201C267.235 102.957 267.305 102.678 267.375 102.398V104.807C267.27 105.26 267.061 105.714 266.607 106.098L264.618 107.773L235.267 132.447L231.777 135.344L201.135 161.135C195.236 167.557 194.189 184.972 198.377 191.917C198.936 192.824 199.564 193.522 200.262 194.046C201.902 194.395 265.49 139.532 265.42 139.497C267.27 137.996 267.863 137.682 267.863 136.635Z" fill="url(#paint6_linear_331_3412)"/>
<path style="mix-blend-mode:screen" opacity="0.3" d="M267.863 136.635V139.497C267.863 140.23 267.654 140.858 267.165 141.207L202.321 195.756L201.135 196.768C199.075 196.559 197.575 195.198 196.493 193.453C195.236 191.393 194.399 188.567 193.98 185.321C193.736 183.262 193.631 181.063 193.736 178.795C193.759 178.19 193.794 177.573 193.84 176.945C194.469 169.895 196.807 162.741 201.135 158.762L229.194 135.17L232.649 132.238L265.002 105.051L265.316 104.807L266.607 103.725C266.793 103.562 266.944 103.387 267.061 103.201C267.235 102.957 267.305 102.678 267.375 102.398V104.807C267.27 105.26 267.061 105.714 266.607 106.098L264.618 107.773L235.267 132.447L231.777 135.344L201.135 161.135C201.065 161.205 201.007 161.275 200.96 161.345C200.914 161.391 200.855 161.449 200.786 161.519C200.739 161.589 200.692 161.647 200.646 161.694C195.167 168.534 194.294 185.146 198.377 191.917C198.866 192.72 199.494 193.487 200.262 194.046C201.902 194.395 265.49 139.532 265.42 139.497C267.27 137.996 267.863 137.682 267.863 136.635Z" fill="url(#paint7_linear_331_3412)"/>
<path d="M265.56 136.985L199.215 193.069C198.913 192.72 198.633 192.336 198.377 191.917C194.294 185.147 195.202 168.534 200.646 161.694C200.693 161.647 200.739 161.589 200.786 161.519C200.855 161.45 200.914 161.391 200.96 161.345C201.007 161.275 201.065 161.205 201.135 161.136L231.777 135.344L235.267 132.448L264.618 107.773C263.222 118.278 263.222 128.155 265.56 136.985Z" fill="url(#paint8_linear_331_3412)"/>
<path style="mix-blend-mode:multiply" opacity="0.9" d="M212.234 166.679C207.209 185.665 162.188 190.202 111.722 176.8C61.2568 163.398 24.4373 137.119 29.4629 118.168C34.5234 99.1475 79.5095 94.6105 129.975 108.012C180.475 121.414 217.295 147.659 212.234 166.679Z" fill="url(#paint9_radial_331_3412)"/>
<path style="mix-blend-mode:multiply" opacity="0.9" d="M200.858 153.388C195.832 172.409 150.846 176.946 100.346 163.544C49.8803 150.143 13.0608 123.863 18.1213 104.877C23.1469 85.8918 68.1679 81.3548 118.633 94.7564C169.099 108.158 205.918 134.403 200.858 153.388Z" fill="url(#paint10_radial_331_3412)"/>
<path style="mix-blend-mode:multiply" opacity="0.9" d="M261.581 130.072C257.359 155.234 205.741 167.589 146.272 157.608C86.8022 147.626 42.0255 119.113 46.2484 93.9849C50.4713 68.7871 102.088 56.4674 161.558 66.4488C221.028 76.3953 265.804 104.909 261.581 130.072Z" fill="url(#paint11_radial_331_3412)"/>
<path style="mix-blend-mode:multiply" opacity="0.9" d="M260.57 136.877C255.719 165.67 203.613 180.921 144.144 170.939C84.674 160.993 40.3859 129.548 45.2021 100.756C50.0532 71.9631 102.159 56.7118 161.629 66.6583C221.098 76.6397 265.386 108.085 260.57 136.877Z" fill="url(#paint12_radial_331_3412)"/>
<path style="mix-blend-mode:multiply" opacity="0.9" d="M263.572 112.588C262.594 118.416 254.149 121.871 244.691 120.266C235.233 118.695 228.358 112.658 229.335 106.829C230.312 101.001 238.758 97.5459 248.216 99.1513C257.674 100.722 264.549 106.759 263.572 112.588Z" fill="url(#paint13_radial_331_3412)"/>
<path style="mix-blend-mode:multiply" opacity="0.9" d="M260.849 115.729C259.871 121.558 251.391 125.013 241.933 123.442C232.475 121.837 225.6 115.834 226.577 110.006C227.554 104.178 236.035 100.722 245.493 102.293C254.951 103.898 261.826 109.901 260.849 115.729Z" fill="url(#paint14_radial_331_3412)"/>
<path d="M165.993 164.28L165.085 163.721C158.699 154.229 158.28 137.232 164.073 125.157C165.434 122.295 167.668 119.957 170.425 118.386L204.383 99.4356L206.756 98.1094L258.687 111.057C259.211 111.197 259.455 111.651 259.455 112.104C259.455 112.453 259.42 113.256 259.071 113.465L165.993 164.28Z" fill="url(#paint15_linear_331_3412)"/>
<path d="M249.124 74.8984C246.227 89.6611 246.437 103.447 249.124 116.429L164.596 162.916C158.559 153.109 158.489 136.183 164.212 124.456C165.504 121.769 167.598 119.57 170.215 118.14L204.382 99.4331L206.755 98.1069L249.124 74.8984Z" fill="url(#paint16_linear_331_3412)"/>
<path style="mix-blend-mode:multiply" d="M175.449 133.28C175.449 133.28 195.656 122.531 200.089 120.193C204.486 117.889 211.222 114.539 211.222 114.539C211.222 114.539 196.075 123.369 191.852 125.463C187.664 127.592 175.449 133.28 175.449 133.28Z" fill="url(#paint17_linear_331_3412)"/>
<path d="M104.742 27.7812L16.4451 73.5701C9.50005 81.8763 9.08125 112.204 16.4451 120.371L165.887 165.846C155.661 156.841 156.499 132.411 165.887 119.045L258.93 68.0558C259.733 67.6021 259.593 66.3806 258.686 66.1363L104.742 27.7812Z" fill="#A7EA86"/>
<path d="M259.454 67.1484V68.6491L254.812 69.2424L256.767 67.1484H259.454Z" fill="#A7EA86"/>
<path d="M259.452 67.1484V68.6491C259.452 68.9981 259.278 69.3471 258.929 69.5565L206.753 98.1047L204.38 99.4309L170.213 118.137C167.596 119.568 165.502 121.767 164.21 124.454C158.487 136.216 158.557 153.177 164.629 162.984C164.908 163.438 165.362 163.787 165.886 163.961L256.381 114.368L258.859 113.007L258.929 112.972C259.278 112.763 259.452 112.449 259.452 112.1V113.949C259.452 113.973 259.452 113.996 259.452 114.019C259.452 114.333 259.278 114.682 258.929 114.857L166.479 165.532L165.886 165.846C165.025 165.078 164.234 164.205 163.512 163.228C155.834 152.758 157.3 131.295 165.886 119.045L202.531 98.9772L204.904 97.651L257.324 68.9283L258.929 68.0558C259.022 68.0093 259.092 67.9511 259.138 67.8813C259.348 67.7068 259.452 67.4276 259.452 67.1484Z" fill="url(#paint18_linear_331_3412)"/>
<path style="mix-blend-mode:screen" opacity="0.3" d="M259.452 67.1484V68.6491C259.452 68.9981 259.278 69.3471 258.929 69.5565L206.753 98.1047L204.38 99.4309L170.213 118.137C167.596 119.568 165.502 121.767 164.21 124.454C158.487 136.216 158.557 153.177 164.629 162.984C164.908 163.438 165.362 163.787 165.886 163.961L256.381 114.368L258.859 113.007L258.929 112.972C259.278 112.763 259.452 112.449 259.452 112.1V113.949C259.452 113.973 259.452 113.996 259.452 114.019C259.452 114.333 259.278 114.682 258.929 114.857L166.479 165.532L165.886 165.846C165.025 165.078 164.234 164.205 163.512 163.228C155.834 152.758 157.3 131.295 165.886 119.045L202.531 98.9772L204.904 97.651L257.324 68.9283L258.929 68.0558C259.022 68.0093 259.092 67.9511 259.138 67.8813C259.348 67.7068 259.452 67.4276 259.452 67.1484Z" fill="url(#paint19_linear_331_3412)"/>
<path d="M259.454 67.1484C259.454 67.4625 259.349 67.7068 259.14 67.8813C259.093 67.9511 259.023 68.0093 258.93 68.0558L257.325 68.9283L204.905 97.6511L202.532 98.9772L165.887 119.045C157.302 131.295 155.836 152.758 163.514 163.228C164.235 164.205 165.026 165.078 165.887 165.846L16.4452 120.371C12.9203 116.497 11.2102 107.528 11.0706 98.3491V98.2793C10.9659 88.2281 12.8156 77.8977 16.4452 73.5701L104.742 27.7812L258.686 66.1363C259.175 66.2759 259.454 66.6947 259.454 67.1484Z" fill="url(#paint20_linear_331_3412)"/>
<path style="mix-blend-mode:screen" opacity="0.3" d="M26.1835 68.5469L16.4464 73.5725C14.2128 76.2947 12.6423 81.2854 11.8047 87.1137L160.967 129.133C162.189 125.434 163.829 121.979 165.888 119.047L176.184 113.428L26.1835 68.5469Z" fill="url(#paint21_linear_331_3412)"/>
<path style="mix-blend-mode:multiply" opacity="0.3" d="M16.4443 120.367L165.886 165.842C165.025 165.074 164.234 164.201 163.513 163.224C160.686 159.385 159.116 154.045 158.662 148.252L11.5234 105.43C12.2214 111.886 13.8617 117.505 16.4443 120.367Z" fill="url(#paint22_linear_331_3412)"/>
<g style="mix-blend-mode:multiply" opacity="0.8">
<mask id="mask0_331_3412" style="mask-type:luminance" maskUnits="userSpaceOnUse" x="185" y="120" width="23" height="23">
<path d="M207.119 130.68C206.979 126.234 204.477 122.454 200.942 120.664C200.893 120.908 200.753 121.125 200.502 121.24C198.924 121.969 197.41 122.817 195.902 123.679C196.22 124.175 196.129 124.918 195.393 125.054C194.51 125.215 193.602 125.344 192.691 125.48C192.165 125.764 191.634 126.039 191.096 126.304C189.439 127.117 187.697 127.86 185.9 128.283C185.676 129.263 185.572 130.293 185.603 131.354C185.802 137.674 190.779 142.655 196.719 142.47C202.662 142.288 207.318 137.008 207.119 130.68Z" fill="white"/>
</mask>
<g mask="url(#mask0_331_3412)">
<path d="M185.57 120.68H207.313V142.667H185.57V120.68Z" fill="white"/>
<path d="M207.522 131.429C207.522 137.362 202.706 142.178 196.773 142.178C190.84 142.178 186.023 137.362 186.023 131.429C186.023 125.496 190.84 120.68 196.773 120.68C202.706 120.68 207.522 125.496 207.522 131.429Z" fill="white"/>
<path d="M207.418 131.429C207.418 137.327 202.671 142.109 196.773 142.109C190.875 142.109 186.094 137.327 186.094 131.429C186.094 125.531 190.875 120.75 196.773 120.75C202.671 120.75 207.418 125.531 207.418 131.429Z" fill="white"/>
<path d="M207.349 131.426C207.349 137.255 202.602 142.001 196.774 142.001C190.911 142.001 186.199 137.255 186.199 131.426C186.199 125.598 190.911 120.852 196.774 120.852C202.602 120.852 207.349 125.598 207.349 131.426Z" fill="white"/>
<path d="M207.244 131.435C207.244 137.228 202.568 141.939 196.774 141.939C190.981 141.939 186.27 137.228 186.27 131.435C186.27 125.641 190.981 120.93 196.774 120.93C202.568 120.93 207.244 125.641 207.244 131.435Z" fill="white"/>
<path d="M207.171 131.431C207.171 137.19 202.495 141.832 196.771 141.832C191.013 141.832 186.371 137.19 186.371 131.431C186.371 125.673 191.013 121.031 196.771 121.031C202.495 121.031 207.171 125.673 207.171 131.431Z" fill="#FEFEFE"/>
<path d="M207.067 131.432C207.067 137.121 202.46 141.727 196.772 141.727C191.083 141.727 186.441 137.121 186.441 131.432C186.441 125.743 191.083 121.102 196.772 121.102C202.46 121.102 207.067 125.743 207.067 131.432Z" fill="#FEFEFE"/>
<path d="M206.998 131.421C206.998 137.075 202.426 141.647 196.773 141.647C191.119 141.647 186.547 137.075 186.547 131.421C186.547 125.767 191.119 121.195 196.773 121.195C202.426 121.195 206.998 125.767 206.998 131.421Z" fill="#FEFEFE"/>
<path d="M206.894 131.429C206.894 137.013 202.357 141.55 196.773 141.55C191.154 141.55 186.617 137.013 186.617 131.429C186.617 125.845 191.154 121.273 196.773 121.273C202.357 121.273 206.894 125.845 206.894 131.429Z" fill="#FEFDFD"/>
<path d="M206.825 131.434C206.825 136.983 202.323 141.485 196.774 141.485C191.225 141.485 186.723 136.983 186.723 131.434C186.723 125.885 191.225 121.383 196.774 121.383C202.323 121.383 206.825 125.885 206.825 131.434Z" fill="#FDFDFD"/>
<path d="M206.721 131.423C206.721 136.937 202.254 141.37 196.774 141.37C191.26 141.37 186.793 136.937 186.793 131.423C186.793 125.909 191.26 121.477 196.774 121.477C202.254 121.477 206.721 125.909 206.721 131.423Z" fill="#FDFDFD"/>
<path d="M206.652 131.431C206.652 136.876 202.22 141.308 196.775 141.308C191.331 141.308 186.898 136.876 186.898 131.431C186.898 125.987 191.331 121.555 196.775 121.555C202.22 121.555 206.652 125.987 206.652 131.431Z" fill="#FDFCFC"/>
<path d="M206.544 131.428C206.544 136.838 202.182 141.2 196.772 141.2C191.363 141.2 187 136.838 187 131.428C187 126.019 191.363 121.656 196.772 121.656C202.182 121.656 206.544 126.019 206.544 131.428Z" fill="#FCFCFC"/>
<path d="M206.475 131.429C206.475 136.768 202.112 141.131 196.773 141.131C191.398 141.131 187.07 136.768 187.07 131.429C187.07 126.089 191.398 121.727 196.773 121.727C202.112 121.727 206.475 126.089 206.475 131.429Z" fill="#FCFBFB"/>
<path d="M206.371 131.433C206.371 136.738 202.078 141.031 196.773 141.031C191.468 141.031 187.176 136.738 187.176 131.433C187.176 126.129 191.468 121.836 196.773 121.836C202.078 121.836 206.371 126.129 206.371 131.433Z" fill="#FBFBFB"/>
<path d="M206.301 131.434C206.301 136.704 202.009 140.962 196.774 140.962C191.504 140.962 187.246 136.704 187.246 131.434C187.246 126.164 191.504 121.906 196.774 121.906C202.009 121.906 206.301 126.164 206.301 131.434Z" fill="#FBFAFB"/>
<path d="M206.198 131.431C206.198 136.631 201.975 140.854 196.775 140.854C191.574 140.854 187.352 136.631 187.352 131.431C187.352 126.231 191.574 122.008 196.775 122.008C201.975 122.008 206.198 126.231 206.198 131.431Z" fill="#FBFAFA"/>
<path d="M206.093 131.424C206.093 136.589 201.94 140.777 196.775 140.777C191.61 140.777 187.422 136.589 187.422 131.424C187.422 126.258 191.61 122.07 196.775 122.07C201.94 122.07 206.093 126.258 206.093 131.424Z" fill="#FAF9F9"/>
<path d="M206.02 131.428C206.02 136.524 201.867 140.677 196.772 140.677C191.642 140.677 187.523 136.524 187.523 131.428C187.523 126.333 191.642 122.18 196.772 122.18C201.867 122.18 206.02 126.333 206.02 131.428Z" fill="#FAF9F9"/>
<path d="M205.916 131.421C205.916 136.481 201.833 140.6 196.772 140.6C191.712 140.6 187.594 136.481 187.594 131.421C187.594 126.36 191.712 122.242 196.772 122.242C201.833 122.242 205.916 126.36 205.916 131.421Z" fill="#F9F8F8"/>
<path d="M205.847 131.426C205.847 136.451 201.764 140.5 196.773 140.5C191.748 140.5 187.699 136.451 187.699 131.426C187.699 126.4 191.748 122.352 196.773 122.352C201.764 122.352 205.847 126.4 205.847 131.426Z" fill="#F9F7F8"/>
<path d="M205.743 131.434C205.743 136.39 201.73 140.438 196.774 140.438C191.818 140.438 187.77 136.39 187.77 131.434C187.77 126.478 191.818 122.43 196.774 122.43C201.73 122.43 205.743 126.478 205.743 131.434Z" fill="#F8F7F7"/>
<path d="M205.674 131.423C205.674 136.344 201.695 140.322 196.774 140.322C191.854 140.322 187.875 136.344 187.875 131.423C187.875 126.502 191.854 122.523 196.774 122.523C201.695 122.523 205.674 126.502 205.674 131.423Z" fill="#F8F6F7"/>
<path d="M205.57 131.431C205.57 136.282 201.626 140.226 196.775 140.226C191.889 140.226 187.945 136.282 187.945 131.431C187.945 126.58 191.889 122.602 196.775 122.602C201.626 122.602 205.57 126.58 205.57 131.431Z" fill="#F7F5F6"/>
<path d="M205.497 131.428C205.497 136.244 201.588 140.153 196.772 140.153C191.956 140.153 188.047 136.244 188.047 131.428C188.047 126.612 191.956 122.703 196.772 122.703C201.588 122.703 205.497 126.612 205.497 131.428Z" fill="#F7F5F5"/>
<path d="M205.393 131.425C205.393 136.207 201.519 140.046 196.772 140.046C191.991 140.046 188.117 136.207 188.117 131.425C188.117 126.644 191.991 122.805 196.772 122.805C201.519 122.805 205.393 126.644 205.393 131.425Z" fill="#F6F4F5"/>
<path d="M205.324 131.433C205.324 136.145 201.485 139.984 196.773 139.984C192.062 139.984 188.223 136.145 188.223 131.433C188.223 126.722 192.062 122.883 196.773 122.883C201.485 122.883 205.324 126.722 205.324 131.433Z" fill="#F6F3F4"/>
<path d="M205.219 131.43C205.219 136.107 201.45 139.876 196.774 139.876C192.097 139.876 188.293 136.107 188.293 131.43C188.293 126.754 192.097 122.984 196.774 122.984C201.45 122.984 205.219 126.754 205.219 131.43Z" fill="#F5F3F4"/>
<path d="M205.15 131.431C205.15 136.037 201.381 139.807 196.774 139.807C192.133 139.807 188.398 136.037 188.398 131.431C188.398 126.789 192.133 123.055 196.774 123.055C201.381 123.055 205.15 126.824 205.15 131.431Z" fill="#F4F2F3"/>
<path d="M205.043 131.428C205.043 135.999 201.343 139.699 196.771 139.699C192.199 139.699 188.5 135.999 188.5 131.428C188.5 126.856 192.199 123.156 196.771 123.156C201.343 123.156 205.043 126.856 205.043 131.428Z" fill="#F4F1F2"/>
<path d="M204.973 131.428C204.973 135.965 201.274 139.63 196.772 139.63C192.235 139.63 188.57 135.965 188.57 131.428C188.57 126.891 192.235 123.227 196.772 123.227C201.274 123.227 204.973 126.891 204.973 131.428Z" fill="#F3F0F1"/>
<path d="M204.869 131.433C204.869 135.9 201.24 139.53 196.773 139.53C192.305 139.53 188.676 135.9 188.676 131.433C188.676 126.966 192.305 123.336 196.773 123.336C201.24 123.336 204.869 126.966 204.869 131.433Z" fill="#F2F0F1"/>
<path d="M204.8 131.425C204.8 135.858 201.205 139.452 196.773 139.452C192.341 139.452 188.746 135.858 188.746 131.425C188.746 126.993 192.341 123.398 196.773 123.398C201.205 123.398 204.8 126.993 204.8 131.425Z" fill="#F2EFF0"/>
<path d="M204.696 131.43C204.696 135.793 201.136 139.352 196.774 139.352C192.376 139.352 188.852 135.793 188.852 131.43C188.852 127.033 192.376 123.508 196.774 123.508C201.136 123.508 204.696 127.033 204.696 131.43Z" fill="#F1EEEF"/>
<path d="M204.592 131.431C204.592 135.758 201.102 139.283 196.774 139.283C192.447 139.283 188.922 135.758 188.922 131.431C188.922 127.103 192.447 123.578 196.774 123.578C201.102 123.578 204.592 127.103 204.592 131.431Z" fill="#F1EDEF"/>
<path d="M204.519 131.427C204.519 135.72 201.029 139.175 196.771 139.175C192.479 139.175 189.023 135.72 189.023 131.427C189.023 127.135 192.479 123.68 196.771 123.68C201.029 123.68 204.519 127.135 204.519 131.427Z" fill="#F0ECEE"/>
<path d="M204.415 131.428C204.415 135.651 200.995 139.106 196.772 139.106C192.549 139.106 189.094 135.651 189.094 131.428C189.094 127.205 192.549 123.75 196.772 123.75C200.995 123.75 204.415 127.205 204.415 131.428Z" fill="#EFECED"/>
<path d="M204.346 131.433C204.346 135.621 200.961 139.006 196.773 139.006C192.585 139.006 189.199 135.621 189.199 131.433C189.199 127.245 192.585 123.859 196.773 123.859C200.961 123.859 204.346 127.245 204.346 131.433Z" fill="#EFEBEC"/>
<path d="M204.242 131.425C204.242 135.544 200.891 138.894 196.773 138.894C192.62 138.894 189.27 135.544 189.27 131.425C189.27 127.272 192.62 123.922 196.773 123.922C200.891 123.922 204.242 127.272 204.242 131.425Z" fill="#EEEAEB"/>
<path d="M204.173 131.43C204.173 135.513 200.857 138.829 196.774 138.829C192.691 138.829 189.375 135.513 189.375 131.43C189.375 127.347 192.691 124.031 196.774 124.031C200.857 124.031 204.173 127.347 204.173 131.43Z" fill="#EDE9EB"/>
<path d="M204.068 131.431C204.068 135.479 200.788 138.725 196.774 138.725C192.726 138.725 189.445 135.479 189.445 131.431C189.445 127.382 192.726 124.102 196.774 124.102C200.788 124.102 204.068 127.382 204.068 131.431Z" fill="#ECE8EA"/>
<path d="M203.999 131.427C203.999 135.406 200.754 138.652 196.775 138.652C192.796 138.652 189.551 135.406 189.551 131.427C189.551 127.449 192.796 124.203 196.775 124.203C200.754 124.203 203.999 127.449 203.999 131.427Z" fill="#ECE7E9"/>
<path d="M203.891 131.432C203.891 135.376 200.715 138.551 196.772 138.551C192.828 138.551 189.617 135.376 189.617 131.432C189.617 127.488 192.828 124.312 196.772 124.312C200.715 124.312 203.891 127.488 203.891 131.432Z" fill="#EBE6E8"/>
<path d="M203.822 131.425C203.822 135.299 200.646 138.475 196.772 138.475C192.864 138.475 189.723 135.299 189.723 131.425C189.723 127.516 192.864 124.375 196.772 124.375C200.646 124.375 203.822 127.516 203.822 131.425Z" fill="#EAE5E7"/>
<path d="M203.718 131.429C203.718 135.268 200.612 138.375 196.773 138.375C192.934 138.375 189.793 135.268 189.793 131.429C189.793 127.59 192.934 124.484 196.773 124.484C200.612 124.484 203.718 127.59 203.718 131.429Z" fill="#E9E5E6"/>
<path d="M203.649 131.43C203.649 135.234 200.578 138.305 196.774 138.305C192.97 138.305 189.898 135.234 189.898 131.43C189.898 127.626 192.97 124.555 196.774 124.555C200.578 124.555 203.649 127.626 203.649 131.43Z" fill="#E9E4E6"/>
<path d="M203.545 131.427C203.545 135.161 200.509 138.197 196.774 138.197C193.04 138.197 190.004 135.161 190.004 131.427C190.004 127.693 193.04 124.656 196.774 124.656C200.509 124.656 203.545 127.693 203.545 131.427Z" fill="#E8E3E5"/>
<path d="M203.476 131.435C203.476 135.135 200.474 138.136 196.775 138.136C193.076 138.136 190.074 135.135 190.074 131.435C190.074 127.736 193.076 124.734 196.775 124.734C200.474 124.734 203.476 127.736 203.476 131.435Z" fill="#E7E2E4"/>
<path d="M203.368 131.424C203.368 135.054 200.401 138.02 196.772 138.02C193.107 138.02 190.176 135.054 190.176 131.424C190.176 127.76 193.107 124.828 196.772 124.828C200.401 124.828 203.368 127.76 203.368 131.424Z" fill="#E6E1E3"/>
<path d="M203.264 131.433C203.264 135.027 200.367 137.959 196.772 137.959C193.178 137.959 190.246 135.027 190.246 131.433C190.246 127.838 193.178 124.906 196.772 124.906C200.367 124.906 203.264 127.838 203.264 131.433Z" fill="#E6E0E2"/>
<path d="M203.195 131.429C203.195 134.989 200.333 137.851 196.773 137.851C193.213 137.851 190.352 134.989 190.352 131.429C190.352 127.87 193.213 125.008 196.773 125.008C200.333 125.008 203.195 127.87 203.195 131.429Z" fill="#E5DFE1"/>
<path d="M203.091 131.43C203.091 134.92 200.264 137.782 196.774 137.782C193.284 137.782 190.422 134.92 190.422 131.43C190.422 127.94 193.284 125.078 196.774 125.078C200.264 125.078 203.091 127.94 203.091 131.43Z" fill="#E4DEE0"/>
<path d="M203.022 131.435C203.022 134.89 200.23 137.682 196.774 137.682C193.319 137.682 190.527 134.89 190.527 131.435C190.527 127.98 193.319 125.188 196.774 125.188C200.23 125.188 203.022 127.98 203.022 131.435Z" fill="#E3DDDF"/>
<path d="M202.917 131.427C202.917 134.813 200.16 137.605 196.775 137.605C193.355 137.605 190.598 134.813 190.598 131.427C190.598 128.007 193.355 125.25 196.775 125.25C200.16 125.25 202.917 128.007 202.917 131.427Z" fill="#E2DCDE"/>
<path d="M202.844 131.424C202.844 134.775 200.122 137.497 196.772 137.497C193.421 137.497 190.699 134.775 190.699 131.424C190.699 128.074 193.421 125.352 196.772 125.352C200.122 125.352 202.844 128.074 202.844 131.424Z" fill="#E1DBDD"/>
<path d="M202.74 131.425C202.74 134.74 200.088 137.393 196.772 137.393C193.457 137.393 190.77 134.74 190.77 131.425C190.77 128.109 193.457 125.422 196.772 125.422C200.088 125.422 202.74 128.109 202.74 131.425Z" fill="#E1DADC"/>
<path d="M202.671 131.43C202.671 134.675 200.019 137.328 196.773 137.328C193.492 137.328 190.875 134.675 190.875 131.43C190.875 128.184 193.492 125.531 196.773 125.531C200.019 125.531 202.671 128.184 202.671 131.43Z" fill="#E0D9DB"/>
<path d="M202.567 131.422C202.567 134.633 199.984 137.215 196.774 137.215C193.563 137.215 190.945 134.633 190.945 131.422C190.945 128.211 193.563 125.594 196.774 125.594C199.984 125.594 202.567 128.211 202.567 131.422Z" fill="#DFD7DA"/>
<path d="M202.498 131.427C202.498 134.568 199.915 137.15 196.774 137.15C193.598 137.15 191.051 134.568 191.051 131.427C191.051 128.251 193.598 125.703 196.774 125.703C199.915 125.703 202.498 128.251 202.498 131.427Z" fill="#DED6D9"/>
<path d="M202.394 131.431C202.394 134.537 199.881 137.05 196.775 137.05C193.669 137.05 191.121 134.537 191.121 131.431C191.121 128.325 193.669 125.812 196.775 125.812C199.881 125.812 202.394 128.325 202.394 131.431Z" fill="#DDD5D8"/>
<path d="M202.321 131.424C202.321 134.495 199.843 136.973 196.772 136.973C193.701 136.973 191.223 134.495 191.223 131.424C191.223 128.353 193.701 125.875 196.772 125.875C199.843 125.875 202.321 128.353 202.321 131.424Z" fill="#DCD4D7"/>
<path d="M202.217 131.429C202.217 134.43 199.774 136.873 196.772 136.873C193.736 136.873 191.293 134.43 191.293 131.429C191.293 128.428 193.736 125.985 196.772 125.985C199.774 125.985 202.217 128.428 202.217 131.429Z" fill="#DBD3D6"/>
<path d="M202.148 131.437C202.148 134.404 199.74 136.812 196.773 136.812C193.807 136.812 191.398 134.404 191.398 131.437C191.398 128.471 193.807 126.062 196.773 126.062C199.74 126.062 202.148 128.471 202.148 131.437Z" fill="#DAD2D5"/>
<path d="M202.044 131.426C202.044 134.358 199.67 136.696 196.774 136.696C193.842 136.696 191.504 134.358 191.504 131.426C191.504 128.495 193.842 126.156 196.774 126.156C199.67 126.156 202.044 128.495 202.044 131.426Z" fill="#D9D1D4"/>
<path d="M201.974 131.427C201.974 134.288 199.636 136.627 196.774 136.627C193.913 136.627 191.574 134.288 191.574 131.427C191.574 128.565 193.913 126.227 196.774 126.227C199.636 126.227 201.974 128.565 201.974 131.427Z" fill="#D9D0D3"/>
<path d="M201.87 131.431C201.87 134.258 199.602 136.527 196.775 136.527C193.948 136.527 191.68 134.258 191.68 131.431C191.68 128.604 193.948 126.336 196.775 126.336C199.602 126.336 201.87 128.604 201.87 131.431Z" fill="#D8CFD2"/>
<path d="M201.762 131.432C201.762 134.189 199.529 136.457 196.772 136.457C193.98 136.457 191.746 134.189 191.746 131.432C191.746 128.675 193.98 126.406 196.772 126.406C199.529 126.406 201.762 128.675 201.762 131.432Z" fill="#D7CDD1"/>
<path d="M201.693 131.437C201.693 134.159 199.495 136.357 196.772 136.357C194.05 136.357 191.852 134.159 191.852 131.437C191.852 128.714 194.05 126.516 196.772 126.516C199.495 126.516 201.693 128.714 201.693 131.437Z" fill="#D6CCD0"/>
<path d="M201.589 131.429C201.589 134.117 199.425 136.28 196.773 136.28C194.086 136.28 191.922 134.117 191.922 131.429C191.922 128.742 194.086 126.578 196.773 126.578C199.425 126.578 201.589 128.742 201.589 131.429Z" fill="#D5CBCF"/>
<path d="M201.52 131.434C201.52 134.051 199.391 136.18 196.774 136.18C194.156 136.18 192.027 134.051 192.027 131.434C192.027 128.816 194.156 126.688 196.774 126.688C199.391 126.688 201.52 128.816 201.52 131.434Z" fill="#D4CACE"/>
<path d="M201.416 131.427C201.416 134.009 199.357 136.103 196.774 136.103C194.192 136.103 192.098 134.009 192.098 131.427C192.098 128.844 194.192 126.75 196.774 126.75C199.357 126.75 201.416 128.844 201.416 131.427Z" fill="#D3C9CD"/>
<path d="M201.347 131.431C201.347 133.944 199.288 136.003 196.775 136.003C194.227 136.003 192.203 133.944 192.203 131.431C192.203 128.918 194.227 126.859 196.775 126.859C199.288 126.859 201.347 128.918 201.347 131.431Z" fill="#D2C8CB"/>
<path d="M201.239 131.432C201.239 133.91 199.25 135.899 196.772 135.899C194.294 135.899 192.27 133.91 192.27 131.432C192.27 128.954 194.294 126.93 196.772 126.93C199.25 126.93 201.239 128.954 201.239 131.432Z" fill="#D1C6CA"/>
<path d="M201.17 131.429C201.17 133.872 199.18 135.826 196.772 135.826C194.329 135.826 192.375 133.872 192.375 131.429C192.375 128.986 194.329 127.031 196.772 127.031C199.18 127.031 201.17 128.986 201.17 131.429Z" fill="#D0C5C9"/>
<path d="M201.066 131.433C201.066 133.807 199.146 135.726 196.773 135.726C194.4 135.726 192.445 133.807 192.445 131.433C192.445 129.06 194.4 127.141 196.773 127.141C199.146 127.141 201.066 129.06 201.066 131.433Z" fill="#CFC4C8"/>
<path d="M200.997 131.434C200.997 133.772 199.112 135.657 196.774 135.657C194.435 135.657 192.551 133.772 192.551 131.434C192.551 129.096 194.435 127.211 196.774 127.211C199.112 127.211 200.997 129.096 200.997 131.434Z" fill="#CEC3C7"/>
<path d="M200.892 131.431C200.892 133.699 199.043 135.549 196.774 135.549C194.471 135.549 192.621 133.699 192.621 131.431C192.621 129.162 194.471 127.312 196.774 127.312C199.043 127.312 200.892 129.162 200.892 131.431Z" fill="#CDC1C6"/>
<path d="M200.823 131.431C200.823 133.665 199.009 135.48 196.775 135.48C194.541 135.48 192.727 133.665 192.727 131.431C192.727 129.198 194.541 127.383 196.775 127.383C199.009 127.383 200.823 129.198 200.823 131.431Z" fill="#CCC0C5"/>
<path d="M200.715 131.436C200.715 133.634 198.935 135.379 196.772 135.379C194.573 135.379 192.793 133.634 192.793 131.436C192.793 129.237 194.573 127.492 196.772 127.492C198.935 127.492 200.715 129.237 200.715 131.436Z" fill="#CBBFC3"/>
<path d="M200.646 131.421C200.646 133.55 198.901 135.295 196.772 135.295C194.643 135.295 192.898 133.55 192.898 131.421C192.898 129.292 194.643 127.547 196.772 127.547C198.901 127.547 200.646 129.292 200.646 131.421Z" fill="#CABEC2"/>
<path d="M200.542 131.425C200.542 133.519 198.867 135.195 196.773 135.195C194.679 135.195 193.004 133.519 193.004 131.425C193.004 129.331 194.679 127.656 196.773 127.656C198.867 127.656 200.542 129.331 200.542 131.425Z" fill="#C9BCC1"/>
<path d="M200.473 131.434C200.473 133.458 198.798 135.133 196.774 135.133C194.715 135.133 193.074 133.458 193.074 131.434C193.074 129.41 194.715 127.734 196.774 127.734C198.798 127.734 200.473 129.41 200.473 131.434Z" fill="#C8BBC0"/>
<path d="M200.369 131.423C200.369 133.412 198.764 135.018 196.774 135.018C194.785 135.018 193.18 133.412 193.18 131.423C193.18 129.434 194.785 127.828 196.774 127.828C198.764 127.828 200.369 129.434 200.369 131.423Z" fill="#C7BABF"/>
<path d="M200.265 131.431C200.265 133.386 198.694 134.956 196.775 134.956C194.82 134.956 193.25 133.386 193.25 131.431C193.25 129.477 194.82 127.906 196.775 127.906C198.694 127.906 200.265 129.477 200.265 131.431Z" fill="#C6B9BE"/>
<path d="M200.192 131.428C200.192 133.313 198.656 134.848 196.772 134.848C194.887 134.848 193.352 133.313 193.352 131.428C193.352 129.543 194.887 128.008 196.772 128.008C198.656 128.008 200.192 129.543 200.192 131.428Z" fill="#C5B7BC"/>
<path d="M200.088 131.429C200.088 133.278 198.622 134.779 196.772 134.779C194.923 134.779 193.422 133.278 193.422 131.429C193.422 129.579 194.923 128.078 196.772 128.078C198.622 128.078 200.088 129.579 200.088 131.429Z" fill="#C4B6BB"/>
<path d="M200.019 131.433C200.019 133.213 198.553 134.679 196.773 134.679C194.958 134.679 193.527 133.213 193.527 131.433C193.527 129.653 194.958 128.188 196.773 128.188C198.553 128.188 200.019 129.653 200.019 131.433Z" fill="#C2B5BA"/>
<path d="M199.915 131.434C199.915 133.179 198.519 134.61 196.774 134.61C195.029 134.61 193.598 133.179 193.598 131.434C193.598 129.689 195.029 128.258 196.774 128.258C198.519 128.258 199.915 129.689 199.915 131.434Z" fill="#C1B3B9"/>
<path d="M199.846 131.431C199.846 133.141 198.45 134.502 196.774 134.502C195.064 134.502 193.703 133.141 193.703 131.431C193.703 129.72 195.064 128.359 196.774 128.359C198.45 128.359 199.846 129.72 199.846 131.431Z" fill="#C0B2B7"/>
<path d="M199.741 131.423C199.741 133.064 198.415 134.39 196.775 134.39C195.135 134.39 193.773 133.064 193.773 131.423C193.773 129.783 195.135 128.422 196.775 128.422C198.415 128.422 199.741 129.783 199.741 131.423Z" fill="#BFB1B6"/>
<path d="M199.668 131.428C199.668 133.033 198.377 134.325 196.772 134.325C195.166 134.325 193.875 133.033 193.875 131.428C193.875 129.823 195.166 128.531 196.772 128.531C198.377 128.531 199.668 129.823 199.668 131.428Z" fill="#BEAFB5"/>
<path d="M199.564 131.433C199.564 132.968 198.308 134.225 196.772 134.225C195.202 134.225 193.945 132.968 193.945 131.433C193.945 129.897 195.202 128.641 196.772 128.641C198.308 128.641 199.564 129.897 199.564 131.433Z" fill="#BDAEB4"/>
<path d="M199.495 131.425C199.495 132.926 198.274 134.148 196.773 134.148C195.272 134.148 194.051 132.926 194.051 131.425C194.051 129.925 195.272 128.703 196.773 128.703C198.274 128.703 199.495 129.925 199.495 131.425Z" fill="#BCACB2"/>
<path d="M199.391 131.43C199.391 132.896 198.204 134.048 196.773 134.048C195.308 134.048 194.121 132.896 194.121 131.43C194.121 129.964 195.308 128.812 196.773 128.812C198.204 128.812 199.391 129.964 199.391 131.43Z" fill="#BBABB1"/>
<path d="M199.322 131.431C199.322 132.827 198.17 133.978 196.774 133.978C195.378 133.978 194.227 132.827 194.227 131.431C194.227 130.035 195.378 128.883 196.774 128.883C198.17 128.883 199.322 130.035 199.322 131.431Z" fill="#BAAAB0"/>
<path d="M199.218 131.427C199.218 132.788 198.136 133.87 196.775 133.87C195.414 133.87 194.332 132.788 194.332 131.427C194.332 130.066 195.414 128.984 196.775 128.984C198.136 128.984 199.218 130.066 199.218 131.427Z" fill="#B8A8AE"/>
<path d="M199.145 131.428C199.145 132.719 198.063 133.801 196.772 133.801C195.445 133.801 194.398 132.719 194.398 131.428C194.398 130.137 195.445 129.055 196.772 129.055C198.063 129.055 199.145 130.137 199.145 131.428Z" fill="#B7A7AD"/>
<path d="M199.041 131.433C199.041 132.689 198.029 133.701 196.772 133.701C195.516 133.701 194.504 132.689 194.504 131.433C194.504 130.176 195.516 129.164 196.772 129.164C198.029 129.164 199.041 130.176 199.041 131.433Z" fill="#B6A6AC"/>
<path d="M198.972 131.425C198.972 132.647 197.96 133.624 196.773 133.624C195.551 133.624 194.574 132.647 194.574 131.425C194.574 130.204 195.551 129.227 196.773 129.227C197.96 129.227 198.972 130.204 198.972 131.425Z" fill="#B5A4AB"/>
<path d="M198.868 131.422C198.868 132.574 197.925 133.516 196.774 133.516C195.622 133.516 194.68 132.574 194.68 131.422C194.68 130.27 195.622 129.328 196.774 129.328C197.925 129.328 198.868 130.27 198.868 131.422Z" fill="#B4A3A9"/>
<path d="M198.763 131.43C198.763 132.547 197.891 133.455 196.774 133.455C195.657 133.455 194.75 132.547 194.75 131.43C194.75 130.314 195.657 129.406 196.774 129.406C197.891 129.406 198.763 130.314 198.763 131.43Z" fill="#B3A1A8"/>
<path d="M198.694 131.427C198.694 132.474 197.822 133.347 196.775 133.347C195.693 133.347 194.855 132.474 194.855 131.427C194.855 130.38 195.693 129.508 196.775 129.508C197.822 129.508 198.694 130.38 198.694 131.427Z" fill="#B2A0A7"/>
<path d="M198.586 131.428C198.586 132.44 197.784 133.278 196.772 133.278C195.759 133.278 194.922 132.44 194.922 131.428C194.922 130.416 195.759 129.578 196.772 129.578C197.784 129.578 198.586 130.416 198.586 131.428Z" fill="#B09EA5"/>
<path d="M198.517 131.425C198.517 132.402 197.715 133.17 196.772 133.17C195.795 133.17 195.027 132.402 195.027 131.425C195.027 130.447 195.795 129.68 196.772 129.68C197.715 129.68 198.517 130.447 198.517 131.425Z" fill="#AF9DA4"/>
<path d="M198.413 131.433C198.413 132.34 197.68 133.073 196.773 133.073C195.865 133.073 195.098 132.34 195.098 131.433C195.098 130.526 195.865 129.758 196.773 129.758C197.68 129.758 198.413 130.526 198.413 131.433Z" fill="#AE9BA3"/>
<path d="M198.344 131.43C198.344 132.302 197.646 133 196.774 133C195.901 133 195.203 132.302 195.203 131.43C195.203 130.557 195.901 129.859 196.774 129.859C197.646 129.859 198.344 130.557 198.344 131.43Z" fill="#AD9AA1"/>
<path d="M198.24 131.43C198.24 132.233 197.577 132.896 196.774 132.896C195.937 132.896 195.273 132.233 195.273 131.43C195.273 130.628 195.937 129.93 196.774 129.93C197.577 129.93 198.24 130.628 198.24 131.43Z" fill="#AC99A0"/>
<path d="M198.171 131.435C198.171 132.203 197.543 132.831 196.775 132.831C196.007 132.831 195.379 132.203 195.379 131.435C195.379 130.667 196.007 130.039 196.775 130.039C197.543 130.039 198.171 130.667 198.171 131.435Z" fill="#AA979E"/>
<path d="M198.063 131.424C198.063 132.157 197.47 132.715 196.772 132.715C196.039 132.715 195.445 132.157 195.445 131.424C195.445 130.691 196.039 130.133 196.772 130.133C197.47 130.133 198.063 130.691 198.063 131.424Z" fill="#A9969D"/>
<path d="M197.994 131.432C197.994 132.096 197.435 132.654 196.772 132.654C196.109 132.654 195.551 132.096 195.551 131.432C195.551 130.769 196.109 130.211 196.772 130.211C197.435 130.211 197.994 130.769 197.994 131.432Z" fill="#A8949C"/>
<path d="M197.89 131.429C197.89 132.058 197.401 132.546 196.773 132.546C196.145 132.546 195.621 132.058 195.621 131.429C195.621 130.801 196.145 130.312 196.773 130.312C197.401 130.312 197.89 130.801 197.89 131.429Z" fill="#A7939A"/>
<path d="M197.821 131.422C197.821 131.98 197.332 132.469 196.774 132.469C196.18 132.469 195.727 131.98 195.727 131.422C195.727 130.829 196.18 130.375 196.774 130.375C197.332 130.375 197.821 130.829 197.821 131.422Z" fill="#A59199"/>
<path d="M197.717 131.434C197.717 131.958 197.298 132.377 196.774 132.377C196.251 132.377 195.832 131.958 195.832 131.434C195.832 130.911 196.251 130.492 196.774 130.492C197.298 130.492 197.717 130.911 197.717 131.434Z" fill="#A49097"/>
<path d="M197.647 131.427C197.647 131.916 197.229 132.3 196.775 132.3C196.286 132.3 195.902 131.916 195.902 131.427C195.902 130.939 196.286 130.555 196.775 130.555C197.229 130.555 197.647 130.939 197.647 131.427Z" fill="#A38E96"/>
</g>
</g>
<path d="M184.699 128.536L200.125 120.195C200.125 120.195 206.093 121.975 207.454 128.536C208.85 135.063 207.454 141.17 207.454 141.17L201.73 135.656L195.972 146.335C195.972 146.335 194.087 134.086 191.47 131.712C188.852 129.304 184.699 128.536 184.699 128.536Z" fill="url(#paint23_linear_331_3412)"/>
<path style="mix-blend-mode:multiply" opacity="0.9" d="M254.813 47.9842C260.571 70.2853 219.703 100.125 163.514 114.573C107.325 129.057 57.1041 122.705 51.3805 100.439C45.622 78.1378 86.5248 48.3332 142.679 33.8497C198.868 19.3662 249.089 25.718 254.813 47.9842Z" fill="url(#paint24_radial_331_3412)"/>
<path style="mix-blend-mode:multiply" opacity="0.9" d="M233.872 27.2937C242.737 42.1262 210.454 77.7243 161.769 106.796C113.083 135.868 66.4221 147.385 57.5575 132.552C48.6929 117.72 81.0103 82.1216 129.661 53.0499C178.381 23.9782 225.008 12.4612 233.872 27.2937Z" fill="url(#paint25_radial_331_3412)"/>
<path style="mix-blend-mode:multiply" opacity="0.9" d="M163.338 59.081C167.596 89.8977 140.618 119.109 103.066 124.274C65.5135 129.439 31.6256 108.639 27.3678 77.8572C23.11 47.0405 50.0877 17.8292 87.6401 12.664C125.193 7.46387 159.08 28.2643 163.338 59.081Z" fill="url(#paint26_radial_331_3412)"/>
<path d="M25.7645 73.5743L172.868 35.8125L260.886 64.6748L93.0168 119.573L25.3457 76.9247C24.0195 76.0871 24.2638 73.9582 25.7645 73.5743Z" fill="#22DD3B"/>
<path d="M23.982 72.6526C24.1216 73.4553 24.1216 74.0486 26.6344 75.5493L88.8262 114.847C89.1054 114.951 93.0142 116.941 93.2934 116.836C100.204 110.275 94.2357 91.6033 87.0812 85.6703L55.6712 65.882L52.1114 63.6484L25.2384 70.5586C24.2612 70.8029 23.8075 71.7452 23.982 72.6526Z" fill="url(#paint27_linear_331_3412)"/>
<path d="M26.079 72.6231L94.0991 115.76C94.2852 115.387 94.4597 114.98 94.6226 114.538C97.1005 107.488 93.5756 91.7832 87.6077 86.1643C87.5379 86.0945 87.4797 86.0364 87.4332 85.9898C87.3867 85.9433 87.3285 85.8968 87.2587 85.8502C87.2122 85.7804 87.154 85.7223 87.0842 85.6757L52.8822 62.9558L25.1367 44.7031C28.1381 54.4751 26.6374 63.8632 26.079 72.6231Z" fill="url(#paint28_linear_331_3412)"/>
<path d="M24.4727 75.4157C24.5425 76.0788 24.8566 76.6372 25.3452 76.9164L91.7948 118.796L93.0163 119.564C93.6794 119.39 94.3076 119.041 94.8311 118.552C95.1452 118.203 95.4593 117.819 95.7385 117.366C100.066 110.42 95.913 89.8294 86.6994 83.4427L24.019 41.9815L22.6928 41.1439C22.5067 41.0275 22.3554 40.888 22.2391 40.7251C22.0297 40.5157 21.8901 40.2714 21.8203 39.9922L22.2042 42.2956C22.3787 42.7144 22.6579 43.1332 23.0767 43.4124L87.0833 85.6763C94.168 91.5395 98.1117 111.712 93.2955 116.842C91.8995 117.435 26.5667 75.0667 26.6016 75.0318L24.9962 74.0197L24.8217 73.915C24.3331 73.6009 24.0539 73.1472 23.9841 72.6586L24.4727 75.4157Z" fill="url(#paint29_linear_331_3412)"/>
<path style="mix-blend-mode:screen" opacity="0.3" d="M24.4727 75.4157C24.5425 76.0788 24.8566 76.6372 25.3452 76.9164L91.7948 118.796L93.0163 119.564C93.6794 119.39 94.3076 119.041 94.8311 118.552C95.1452 118.203 95.4593 117.819 95.7385 117.366C100.066 110.42 95.913 89.8294 86.6994 83.4427L24.019 41.9815L22.6928 41.1439C22.5067 41.0275 22.3554 40.888 22.2391 40.7251C22.0297 40.5157 21.8901 40.2714 21.8203 39.9922L22.2042 42.2956C22.3787 42.7144 22.6579 43.1332 23.0767 43.4124L87.0833 85.6763C94.168 91.5395 98.1117 111.712 93.2955 116.842C91.8995 117.435 26.5667 75.0667 26.6016 75.0318L24.9962 74.0197L24.8217 73.915C24.3331 73.6009 24.0539 73.1472 23.9841 72.6586L24.4727 75.4157Z" fill="url(#paint30_linear_331_3412)"/>
<path style="mix-blend-mode:screen" opacity="0.3" d="M23.9841 72.6586L24.4727 75.4157C24.5425 76.0788 24.8566 76.6372 25.3452 76.9164L91.7948 118.796L93.0163 119.564C93.691 119.378 94.296 119.041 94.8311 118.552C95.1452 118.203 95.4593 117.819 95.7385 117.366C96.041 116.877 96.3085 116.33 96.5412 115.725C97.309 113.561 97.5882 110.734 97.4137 107.593C97.309 105.604 97.0298 103.475 96.5412 101.346C95.0056 94.157 91.5505 86.828 86.6994 83.4427L24.3331 42.1909L24.019 41.9815L22.6928 41.1439C22.5067 41.0275 22.3554 40.888 22.2391 40.7251C22.0297 40.5157 21.8901 40.2714 21.8203 39.9922L22.2042 42.2956C22.3787 42.7144 22.6579 43.1332 23.0767 43.4124L25.1707 44.7735L87.0833 85.6763C93.3653 90.8764 97.1694 107.279 94.6217 114.539C94.3076 115.481 93.8539 116.249 93.2955 116.842C91.8995 117.435 26.5667 75.0667 26.6016 75.0318L24.9962 74.0197L24.8217 73.915C24.3331 73.6009 24.0539 73.1472 23.9841 72.6586Z" fill="url(#paint31_linear_331_3412)"/>
<path style="mix-blend-mode:screen" opacity="0.3" d="M23.9841 72.6586L24.4727 75.3808C24.5425 76.0788 24.8566 76.6372 25.3452 76.9164L91.7948 118.796L93.0163 119.564C94.8311 119.076 95.913 117.505 96.5412 115.725C97.309 113.561 97.5882 110.7 97.4137 107.593C97.309 105.604 96.9949 103.475 96.5412 101.346C96.4249 100.741 96.2853 100.148 96.1224 99.5665C94.4472 92.9704 91.1317 86.5139 86.6645 83.4078L24.3331 42.156L24.019 41.9466L22.6928 41.109C22.5067 41.0159 22.3438 40.888 22.2042 40.7251C22.0297 40.5157 21.8901 40.2714 21.8203 39.9922L22.2042 42.2607C22.3438 42.7144 22.623 43.0983 23.0767 43.3775L25.1707 44.7735L87.0833 85.6763C87.1298 85.7228 87.188 85.7694 87.2578 85.8159C87.3043 85.8624 87.3625 85.9206 87.4323 85.9904C87.4788 86.0369 87.537 86.0835 87.6068 86.13C93.5398 91.7838 97.0996 107.489 94.6217 114.539C94.4589 114.981 94.2843 115.388 94.0982 115.76C93.8655 116.179 93.598 116.54 93.2955 116.842C91.8995 117.435 26.5318 75.0318 26.5667 74.9969L24.9613 73.9848L24.7868 73.8801C24.3331 73.6009 24.0539 73.1472 23.9841 72.6586Z" fill="#007867"/>
<path d="M172.238 1.49689L254.567 28.5095C263.187 32.4532 266.084 61.4202 260.884 64.6659L93.0148 119.564C101.286 117.365 97.3773 90.8758 86.6979 83.4421L22.6564 41.1433C21.1208 40.1661 21.4349 37.6882 23.1799 37.2345L160.86 1.11299C164.595 0.135792 168.503 0.275389 172.238 1.49689Z" fill="#00A76F"/>
<path style="mix-blend-mode:multiply" opacity="0.4" d="M97.1687 104.911L263.432 53.3984C263.572 58.9126 262.769 63.4845 260.885 64.6711L93.0156 119.569C96.8895 118.522 98.0761 112.17 97.1687 104.911Z" fill="url(#paint32_linear_331_3412)"/>
<path style="mix-blend-mode:screen" opacity="0.4" d="M250.414 27.1562L254.567 28.5173C257.15 29.7039 259.244 33.1939 260.745 37.5215L91.7587 89.0688C90.3278 86.7305 88.6177 84.7761 86.6982 83.4499L79.6484 78.9827L250.414 27.1562Z" fill="url(#paint33_linear_331_3412)"/>
</g>
<defs>
<linearGradient id="paint0_linear_331_3412" x1="49698.2" y1="37477" x2="65124.4" y2="37477" gradientUnits="userSpaceOnUse">
<stop stop-color="#4F7BDD"/>
<stop offset="1" stop-color="#4267B8"/>
</linearGradient>
<linearGradient id="paint1_linear_331_3412" x1="54435.2" y1="32831.5" x2="163740" y2="-54935" gradientUnits="userSpaceOnUse">
<stop stop-color="#4F7BDD"/>
<stop offset="1" stop-color="#4267B8"/>
</linearGradient>
<linearGradient id="paint2_linear_331_3412" x1="605480" y1="70266.4" x2="609749" y2="36826.3" gradientUnits="userSpaceOnUse">
<stop offset="0.07"/>
<stop offset="1" stop-color="white"/>
</linearGradient>
<linearGradient id="paint3_linear_331_3412" x1="-499129" y1="-48223.5" x2="-502939" y2="-13931.9" gradientUnits="userSpaceOnUse">
<stop offset="0.07"/>
<stop offset="0.52" stop-color="white"/>
<stop offset="1"/>
</linearGradient>
<linearGradient id="paint4_linear_331_3412" x1="-6961.43" y1="326905" x2="36538.1" y2="352504" gradientUnits="userSpaceOnUse">
<stop offset="0.07" stop-color="#829EDD"/>
<stop offset="1" stop-color="#4F7BDD"/>
</linearGradient>
<linearGradient id="paint5_linear_331_3412" x1="-6961.43" y1="326905" x2="36538.1" y2="352504" gradientUnits="userSpaceOnUse">
<stop offset="0.07" stop-color="#829EDD"/>
<stop offset="1" stop-color="#4F7BDD"/>
</linearGradient>
<linearGradient id="paint6_linear_331_3412" x1="-6947.65" y1="326873" x2="36553.5" y2="352473" gradientUnits="userSpaceOnUse">
<stop offset="0.07" stop-color="#829EDD"/>
<stop offset="1" stop-color="#4F7BDD"/>
</linearGradient>
<linearGradient id="paint7_linear_331_3412" x1="-6947.83" y1="326873" x2="36553.3" y2="352473" gradientUnits="userSpaceOnUse">
<stop offset="0.07" stop-color="#829EDD"/>
<stop offset="1" stop-color="#4F7BDD"/>
</linearGradient>
<linearGradient id="paint8_linear_331_3412" x1="140700" y1="-209561" x2="127502" y2="-225158" gradientUnits="userSpaceOnUse">
<stop offset="0.25" stop-color="#F7E7D0"/>
<stop offset="1" stop-color="#DDA86A"/>
</linearGradient>
<radialGradient id="paint9_radial_331_3412" cx="0" cy="0" r="1" gradientUnits="userSpaceOnUse" gradientTransform="translate(6262.8 50871.1) rotate(14.8635) scale(49724 22788.9)">
<stop offset="0.07" stop-color="#A38E96"/>
<stop offset="1" stop-color="white"/>
</radialGradient>
<radialGradient id="paint10_radial_331_3412" cx="0" cy="0" r="1" gradientUnits="userSpaceOnUse" gradientTransform="translate(4203.25 46599.4) rotate(14.8636) scale(49716 22788.9)">
<stop offset="0.07" stop-color="#A38E96"/>
<stop offset="1" stop-color="white"/>
</radialGradient>
<radialGradient id="paint11_radial_331_3412" cx="0" cy="0" r="1" gradientUnits="userSpaceOnUse" gradientTransform="translate(19834.3 47146.5) rotate(9.51822) scale(67483 30659.7)">
<stop offset="0.07" stop-color="#A38E96"/>
<stop offset="1" stop-color="white"/>
</radialGradient>
<radialGradient id="paint12_radial_331_3412" cx="0" cy="0" r="1" gradientUnits="userSpaceOnUse" gradientTransform="translate(19452 47289.2) rotate(9.51819) scale(67544.5 34503.2)">
<stop offset="0.07" stop-color="#A38E96"/>
<stop offset="1" stop-color="white"/>
</radialGradient>
<radialGradient id="paint13_radial_331_3412" cx="0" cy="0" r="1" gradientUnits="userSpaceOnUse" gradientTransform="translate(12064.8 10848.6) rotate(9.52069) scale(1710.86 1088.56)">
<stop offset="0.07" stop-color="#A38E96"/>
<stop offset="1" stop-color="white"/>
</radialGradient>
<radialGradient id="paint14_radial_331_3412" cx="0" cy="0" r="1" gradientUnits="userSpaceOnUse" gradientTransform="translate(11900.9 10983.8) rotate(9.52069) scale(1712.59 1088.84)">
<stop offset="0.07" stop-color="#A38E96"/>
<stop offset="1" stop-color="white"/>
</radialGradient>
<linearGradient id="paint15_linear_331_3412" x1="57435.6" y1="32905.5" x2="85777.4" y2="32905.5" gradientUnits="userSpaceOnUse">
<stop stop-color="#F8913E"/>
<stop offset="1" stop-color="#E67A22"/>
</linearGradient>
<linearGradient id="paint16_linear_331_3412" x1="72863.6" y1="-94167.7" x2="62593.8" y2="-116157" gradientUnits="userSpaceOnUse">
<stop offset="0.25" stop-color="#F7E7D0"/>
<stop offset="1" stop-color="#C4955E"/>
</linearGradient>
<linearGradient id="paint17_linear_331_3412" x1="326869" y1="-173580" x2="325529" y2="-176449" gradientUnits="userSpaceOnUse">
<stop offset="0.25" stop-color="#F7E7D0"/>
<stop offset="1" stop-color="#DDA86A"/>
</linearGradient>
<linearGradient id="paint18_linear_331_3412" x1="59161.8" y1="50551.4" x2="90507.3" y2="52527" gradientUnits="userSpaceOnUse">
<stop stop-color="#F8913E"/>
<stop offset="1" stop-color="#E67A22"/>
</linearGradient>
<linearGradient id="paint19_linear_331_3412" x1="59161.8" y1="50551.4" x2="90507.3" y2="52527" gradientUnits="userSpaceOnUse">
<stop stop-color="#F8913E"/>
<stop offset="1" stop-color="#E67A22"/>
</linearGradient>
<linearGradient id="paint20_linear_331_3412" x1="44167.3" y1="9741.77" x2="121693" y2="-71326.1" gradientUnits="userSpaceOnUse">
<stop stop-color="#F8913E"/>
<stop offset="1" stop-color="#E67A22"/>
</linearGradient>
<linearGradient id="paint21_linear_331_3412" x1="-284964" y1="-67524.6" x2="-297223" y2="-25089" gradientUnits="userSpaceOnUse">
<stop offset="0.07"/>
<stop offset="0.52" stop-color="white"/>
<stop offset="1"/>
</linearGradient>
<linearGradient id="paint22_linear_331_3412" x1="422754" y1="117967" x2="432883" y2="85046.9" gradientUnits="userSpaceOnUse">
<stop offset="0.07"/>
<stop offset="1" stop-color="white"/>
</linearGradient>
<linearGradient id="paint23_linear_331_3412" x1="6831.27" y1="-25985.6" x2="5916.62" y2="-27944.1" gradientUnits="userSpaceOnUse">
<stop offset="0.01" stop-color="#E90D00"/>
<stop offset="0.55" stop-color="#FF5952"/>
<stop offset="0.77" stop-color="#E90D00"/>
<stop offset="1" stop-color="#B30900"/>
</linearGradient>
<radialGradient id="paint24_radial_331_3412" cx="0" cy="0" r="1" gradientUnits="userSpaceOnUse" gradientTransform="translate(34488.2 22617.9) rotate(-14.4546) scale(61508.1 28952.6)">
<stop offset="0.07" stop-color="#A38E96"/>
<stop offset="1" stop-color="white"/>
</radialGradient>
<radialGradient id="paint25_radial_331_3412" cx="0" cy="0" r="1" gradientUnits="userSpaceOnUse" gradientTransform="translate(39088 9629.01) rotate(-30.8435) scale(52685.2 34744.2)">
<stop offset="0.07" stop-color="#A38E96"/>
<stop offset="1" stop-color="white"/>
</radialGradient>
<radialGradient id="paint26_radial_331_3412" cx="0" cy="0" r="1" gradientUnits="userSpaceOnUse" gradientTransform="translate(15650.7 15151.8) rotate(-7.86011) scale(26889.6 22240.7)">
<stop offset="0.07" stop-color="#A38E96"/>
<stop offset="1" stop-color="white"/>
</radialGradient>
<linearGradient id="paint27_linear_331_3412" x1="13498.5" y1="21205.5" x2="28521.4" y2="21205.5" gradientUnits="userSpaceOnUse">
<stop stop-color="#22DD3B"/>
<stop offset="0.0001" stop-color="#22DD3B"/>
<stop offset="1" stop-color="#1CB831"/>
</linearGradient>
<linearGradient id="paint28_linear_331_3412" x1="83783" y1="17649" x2="91768.1" y2="-128.814" gradientUnits="userSpaceOnUse">
<stop offset="0.25" stop-color="#F7E7D0"/>
<stop offset="1" stop-color="#DDA86A"/>
</linearGradient>
<linearGradient id="paint29_linear_331_3412" x1="-170288" y1="-109925" x2="-202377" y2="-76409.4" gradientUnits="userSpaceOnUse">
<stop offset="0.07" stop-color="#49DD5E"/>
<stop offset="1" stop-color="#22DD3B"/>
</linearGradient>
<linearGradient id="paint30_linear_331_3412" x1="-170288" y1="-109925" x2="-202377" y2="-76409.4" gradientUnits="userSpaceOnUse">
<stop offset="0.07" stop-color="#49DD5E"/>
<stop offset="1" stop-color="#22DD3B"/>
</linearGradient>
<linearGradient id="paint31_linear_331_3412" x1="-170274" y1="-109912" x2="-202366" y2="-76392.2" gradientUnits="userSpaceOnUse">
<stop offset="0.07" stop-color="#49DD5E"/>
<stop offset="1" stop-color="#22DD3B"/>
</linearGradient>
<linearGradient id="paint32_linear_331_3412" x1="463865" y1="-182788" x2="450090" y2="-226865" gradientUnits="userSpaceOnUse">
<stop offset="0.07"/>
<stop offset="1" stop-color="white"/>
</linearGradient>
<linearGradient id="paint33_linear_331_3412" x1="-161711" y1="64748.6" x2="-153689" y2="94722.9" gradientUnits="userSpaceOnUse">
<stop offset="0.07"/>
<stop offset="0.52" stop-color="white"/>
<stop offset="1"/>
</linearGradient>
<clipPath id="clip0_331_3412">
<rect width="268" height="197" fill="white"/>
</clipPath>
</defs>
</svg>
