<svg width="17" height="16" viewBox="0 0 17 16" fill="none" xmlns="http://www.w3.org/2000/svg">
<g id="Icons">
<path id="Vector" d="M10.5013 9.33342C8.7213 9.33342 5.16797 10.2201 5.16797 12.0001V13.3334H15.8346V12.0001C15.8346 10.2201 12.2813 9.33342 10.5013 9.33342ZM4.5013 6.66675V4.66675H3.16797V6.66675H1.16797V8.00008H3.16797V10.0001H4.5013V8.00008H6.5013V6.66675M10.5013 8.00008C11.2085 8.00008 11.8868 7.71913 12.3869 7.21903C12.887 6.71894 13.168 6.04066 13.168 5.33341C13.168 4.62617 12.887 3.94789 12.3869 3.4478C11.8868 2.9477 11.2085 2.66675 10.5013 2.66675C9.79406 2.66675 9.11578 2.9477 8.61568 3.4478C8.11559 3.94789 7.83464 4.62617 7.83464 5.33341C7.83464 6.04066 8.11559 6.71894 8.61568 7.21903C9.11578 7.71913 9.79406 8.00008 10.5013 8.00008Z" fill="white"/>
</g>
</svg>
