<svg width="126" height="18" viewBox="0 0 126 18" fill="none" xmlns="http://www.w3.org/2000/svg">
<path d="M16.2106 7.62859L16.1631 7.67013L12.992 10.4376L12.7662 10.6347L12.8335 10.9267L13.7834 15.047L13.7837 15.0483C13.8117 15.1679 13.8037 15.2932 13.7608 15.4084C13.718 15.5235 13.6421 15.6235 13.5427 15.6958C13.4433 15.768 13.3249 15.8094 13.2021 15.8147C13.0795 15.82 12.9581 15.7892 12.853 15.7259C12.8528 15.7258 12.8526 15.7257 12.8525 15.7256L9.26002 13.5467L9.00044 13.3892L8.74101 13.5469L5.1567 15.7256C5.15648 15.7258 5.15626 15.7259 5.15604 15.726C5.05095 15.7892 4.92959 15.82 4.80708 15.8147C4.68431 15.8094 4.56584 15.768 4.46646 15.6958C4.36709 15.6235 4.29123 15.5235 4.24836 15.4084C4.20549 15.2932 4.19752 15.1679 4.22545 15.0483L4.22576 15.0469L5.17428 10.9308L5.24151 10.6391L5.01606 10.4421L1.84426 7.67034L1.84427 7.67033L1.84181 7.66821C1.74861 7.58783 1.68121 7.48172 1.64808 7.36319C1.61494 7.24466 1.61754 7.11899 1.65554 7.00193C1.69355 6.88487 1.76527 6.78163 1.86171 6.70517C1.95815 6.62871 2.07502 6.58242 2.19767 6.57212L2.19894 6.57201L6.37973 6.2099L6.68083 6.18382L6.79769 5.90509L8.42965 2.01259L8.42998 2.0118C8.4772 1.89862 8.55686 1.80194 8.65893 1.73393C8.76099 1.66593 8.88089 1.62964 9.00353 1.62964C9.12618 1.62964 9.24608 1.66593 9.34814 1.73393C9.45021 1.80194 9.52987 1.89862 9.57709 2.0118L9.57763 2.01308L11.2145 5.90558L11.3315 6.18384L11.6323 6.2099L15.8116 6.57201L15.8129 6.57212C15.9356 6.58242 16.0524 6.62871 16.1489 6.70517C16.2453 6.78163 16.317 6.88487 16.355 7.00193C16.393 7.11899 16.3956 7.24466 16.3625 7.36319C16.3346 7.46315 16.2823 7.55428 16.2106 7.62859Z" fill="#FFB81C" stroke="#DC8633"/>
<path d="M36.2106 7.62859L36.1631 7.67013L32.992 10.4376L32.7662 10.6347L32.8335 10.9267L33.7834 15.047L33.7837 15.0483C33.8117 15.1679 33.8037 15.2932 33.7608 15.4084C33.718 15.5235 33.6421 15.6235 33.5427 15.6958C33.4433 15.768 33.3249 15.8094 33.2021 15.8147C33.0795 15.82 32.9581 15.7892 32.853 15.7259C32.8528 15.7258 32.8526 15.7257 32.8525 15.7256L29.26 13.5467L29.0004 13.3892L28.741 13.5469L25.1567 15.7256C25.1565 15.7258 25.1563 15.7259 25.156 15.726C25.0509 15.7892 24.9296 15.82 24.8071 15.8147C24.6843 15.8094 24.5658 15.768 24.4665 15.6958C24.3671 15.6235 24.2912 15.5235 24.2484 15.4084C24.2055 15.2932 24.1975 15.1679 24.2255 15.0483L24.2258 15.0469L25.1743 10.9308L25.2415 10.6391L25.0161 10.4421L21.8443 7.67034L21.8443 7.67033L21.8418 7.66821C21.7486 7.58783 21.6812 7.48172 21.6481 7.36319C21.6149 7.24466 21.6175 7.11899 21.6555 7.00193C21.6935 6.88487 21.7653 6.78163 21.8617 6.70517C21.9582 6.62871 22.075 6.58242 22.1977 6.57212L22.1989 6.57201L26.3797 6.2099L26.6808 6.18382L26.7977 5.90509L28.4296 2.01259L28.43 2.0118C28.4772 1.89862 28.5569 1.80194 28.6589 1.73393C28.761 1.66593 28.8809 1.62964 29.0035 1.62964C29.1262 1.62964 29.2461 1.66593 29.3481 1.73393C29.4502 1.80194 29.5299 1.89862 29.5771 2.0118L29.5776 2.01308L31.2145 5.90558L31.3315 6.18384L31.6323 6.2099L35.8116 6.57201L35.8129 6.57212C35.9356 6.58242 36.0524 6.62871 36.1489 6.70517C36.2453 6.78163 36.317 6.88487 36.355 7.00193C36.393 7.11899 36.3956 7.24466 36.3625 7.36319C36.3346 7.46315 36.2823 7.55428 36.2106 7.62859Z" fill="#FFB81C" stroke="#DC8633"/>
<path d="M56.2106 7.62859L56.1631 7.67013L52.992 10.4376L52.7662 10.6347L52.8335 10.9267L53.7834 15.047L53.7837 15.0483C53.8117 15.1679 53.8037 15.2932 53.7608 15.4084C53.718 15.5235 53.6421 15.6235 53.5427 15.6958C53.4433 15.768 53.3249 15.8094 53.2021 15.8147C53.0795 15.82 52.9581 15.7892 52.853 15.7259C52.8528 15.7258 52.8526 15.7257 52.8525 15.7256L49.26 13.5467L49.0004 13.3892L48.741 13.5469L45.1567 15.7256C45.1565 15.7258 45.1563 15.7259 45.156 15.726C45.0509 15.7892 44.9296 15.82 44.8071 15.8147C44.6843 15.8094 44.5658 15.768 44.4665 15.6958C44.3671 15.6235 44.2912 15.5235 44.2484 15.4084C44.2055 15.2932 44.1975 15.1679 44.2255 15.0483L44.2258 15.0469L45.1743 10.9308L45.2415 10.6391L45.0161 10.4421L41.8443 7.67034L41.8443 7.67033L41.8418 7.66821C41.7486 7.58783 41.6812 7.48172 41.6481 7.36319C41.6149 7.24466 41.6175 7.11899 41.6555 7.00193C41.6935 6.88487 41.7653 6.78163 41.8617 6.70517C41.9582 6.62871 42.075 6.58242 42.1977 6.57212L42.1989 6.57201L46.3797 6.2099L46.6808 6.18382L46.7977 5.90509L48.4296 2.01259L48.43 2.0118C48.4772 1.89862 48.5569 1.80194 48.6589 1.73393C48.761 1.66593 48.8809 1.62964 49.0035 1.62964C49.1262 1.62964 49.2461 1.66593 49.3481 1.73393C49.4502 1.80194 49.5299 1.89862 49.5771 2.0118L49.5776 2.01308L51.2145 5.90558L51.3315 6.18384L51.6323 6.2099L55.8116 6.57201L55.8129 6.57212C55.9356 6.58242 56.0524 6.62871 56.1489 6.70517C56.2453 6.78163 56.317 6.88487 56.355 7.00193C56.393 7.11899 56.3956 7.24466 56.3625 7.36319C56.3346 7.46315 56.2823 7.55428 56.2106 7.62859Z" fill="#FFB81C" stroke="#DC8633"/>
<path d="M76.8223 6.8452C76.7542 6.63524 76.6258 6.44995 76.4531 6.31243C76.2804 6.1749 76.0711 6.0912 75.8513 6.07176L71.6754 5.71176L70.0385 1.81926C69.9533 1.61502 69.8096 1.44055 69.6254 1.31784C69.4412 1.19512 69.2248 1.12964 69.0035 1.12964C68.7822 1.12964 68.5659 1.19512 68.3817 1.31784C68.1975 1.44055 68.0538 1.61502 67.9685 1.81926L66.3366 5.71176L62.1558 6.07387C61.935 6.09242 61.7247 6.17574 61.5511 6.31337C61.3775 6.451 61.2484 6.63682 61.18 6.84753C61.1116 7.05824 61.1069 7.28445 61.1665 7.4978C61.2262 7.71116 61.3475 7.90216 61.5152 8.04684L64.687 10.8186L63.7364 14.9347C63.6862 15.1501 63.7005 15.3755 63.7777 15.5828C63.8548 15.7901 63.9914 15.97 64.1702 16.1001C64.3491 16.2302 64.5624 16.3047 64.7834 16.3143C65.0043 16.3238 65.2232 16.268 65.4127 16.1539L68.9986 13.9742L72.5923 16.1539C72.7817 16.268 73.0006 16.3238 73.2216 16.3143C73.4426 16.3047 73.6558 16.2302 73.8347 16.1001C74.0136 15.97 74.1501 15.7901 74.2273 15.5828C74.3045 15.3755 74.3188 15.1501 74.2685 14.9347L73.3186 10.8143L76.4897 8.04684C76.6574 7.90166 76.7785 7.71012 76.8377 7.49631C76.8969 7.2825 76.8915 7.05597 76.8223 6.8452ZM75.7521 7.19676L72.581 9.96426C72.4267 10.0985 72.3119 10.2723 72.2489 10.4669C72.186 10.6616 72.1773 10.8697 72.2238 11.0689L73.1766 15.192L69.5857 13.0123C69.4105 12.9056 69.2094 12.8492 69.0042 12.8492C68.7991 12.8492 68.5979 12.9056 68.4227 13.0123L64.8368 15.192L65.7832 11.0717C65.8297 10.8725 65.8211 10.6644 65.7581 10.4697C65.6952 10.2751 65.5804 10.1013 65.426 9.96708L62.2535 7.20098C62.2533 7.19888 62.2533 7.19676 62.2535 7.19466L66.4329 6.83325C66.637 6.81526 66.8322 6.74191 66.9976 6.6211C67.1631 6.50028 67.2924 6.3366 67.3716 6.1477L69.0035 2.26012L70.6348 6.1477C70.714 6.3366 70.8433 6.50028 71.0087 6.6211C71.1741 6.74191 71.3694 6.81526 71.5735 6.83325L75.7535 7.19466C75.7535 7.19466 75.7535 7.19887 75.7535 7.19958L75.7521 7.19676Z" fill="#B2B2B3"/>
<path d="M96.8223 6.8452C96.7542 6.63524 96.6258 6.44995 96.4531 6.31243C96.2804 6.1749 96.0711 6.0912 95.8513 6.07176L91.6754 5.71176L90.0385 1.81926C89.9533 1.61502 89.8096 1.44055 89.6254 1.31784C89.4412 1.19512 89.2248 1.12964 89.0035 1.12964C88.7822 1.12964 88.5659 1.19512 88.3817 1.31784C88.1975 1.44055 88.0538 1.61502 87.9685 1.81926L86.3366 5.71176L82.1558 6.07387C81.935 6.09242 81.7247 6.17574 81.5511 6.31337C81.3775 6.451 81.2484 6.63682 81.18 6.84753C81.1116 7.05824 81.1069 7.28445 81.1665 7.4978C81.2262 7.71116 81.3475 7.90216 81.5152 8.04684L84.687 10.8186L83.7364 14.9347C83.6862 15.1501 83.7005 15.3755 83.7777 15.5828C83.8548 15.7901 83.9914 15.97 84.1702 16.1001C84.3491 16.2302 84.5624 16.3047 84.7834 16.3143C85.0043 16.3238 85.2232 16.268 85.4127 16.1539L88.9986 13.9742L92.5923 16.1539C92.7817 16.268 93.0006 16.3238 93.2216 16.3143C93.4426 16.3047 93.6558 16.2302 93.8347 16.1001C94.0136 15.97 94.1501 15.7901 94.2273 15.5828C94.3045 15.3755 94.3188 15.1501 94.2685 14.9347L93.3186 10.8143L96.4897 8.04684C96.6574 7.90166 96.7785 7.71012 96.8377 7.49631C96.8969 7.2825 96.8915 7.05597 96.8223 6.8452ZM95.7521 7.19676L92.581 9.96426C92.4267 10.0985 92.3119 10.2723 92.2489 10.4669C92.186 10.6616 92.1773 10.8697 92.2238 11.0689L93.1766 15.192L89.5857 13.0123C89.4105 12.9056 89.2094 12.8492 89.0042 12.8492C88.7991 12.8492 88.5979 12.9056 88.4227 13.0123L84.8368 15.192L85.7832 11.0717C85.8297 10.8725 85.8211 10.6644 85.7581 10.4697C85.6952 10.2751 85.5804 10.1013 85.426 9.96708L82.2535 7.20098C82.2533 7.19888 82.2533 7.19676 82.2535 7.19466L86.4329 6.83325C86.637 6.81526 86.8322 6.74191 86.9976 6.6211C87.1631 6.50028 87.2924 6.3366 87.3716 6.1477L89.0035 2.26012L90.6348 6.1477C90.714 6.3366 90.8433 6.50028 91.0087 6.6211C91.1741 6.74191 91.3694 6.81526 91.5735 6.83325L95.7535 7.19466C95.7535 7.19466 95.7535 7.19887 95.7535 7.19958L95.7521 7.19676Z" fill="#B2B2B3"/>
<path d="M103.715 10.097C103.715 11.0957 103.841 12.0663 104.093 13.009C104.35 13.9517 104.723 14.8477 105.213 15.697C105.288 15.8417 105.306 15.9513 105.269 16.026C105.232 16.1053 105.178 16.1683 105.108 16.215L104.555 16.551C104.205 16.0143 103.906 15.4823 103.659 14.955C103.416 14.4277 103.218 13.898 103.064 13.366C102.915 12.834 102.805 12.2997 102.735 11.763C102.665 11.2217 102.63 10.6663 102.63 10.097C102.63 9.53233 102.665 8.97933 102.735 8.438C102.805 7.89667 102.915 7.36233 103.064 6.835C103.218 6.303 103.416 5.77333 103.659 5.246C103.906 4.71867 104.205 4.18433 104.555 3.643L105.108 3.986C105.178 4.03267 105.232 4.09567 105.269 4.175C105.306 4.24967 105.288 4.357 105.213 4.497C104.723 5.34633 104.35 6.24233 104.093 7.185C103.841 8.12767 103.715 9.09833 103.715 10.097ZM112.641 13.317C112.777 13.317 112.884 13.3567 112.963 13.436C113.043 13.5153 113.082 13.618 113.082 13.744V14.5H106.39V14.073C106.39 13.9843 106.409 13.8933 106.446 13.8C106.484 13.7067 106.542 13.6203 106.621 13.541L109.834 10.314C110.1 10.0433 110.343 9.78433 110.562 9.537C110.782 9.285 110.968 9.033 111.122 8.781C111.276 8.529 111.395 8.27467 111.479 8.018C111.563 7.75667 111.605 7.479 111.605 7.185C111.605 6.891 111.559 6.63433 111.465 6.415C111.372 6.191 111.244 6.00667 111.08 5.862C110.922 5.71733 110.733 5.61 110.513 5.54C110.294 5.46533 110.058 5.428 109.806 5.428C109.55 5.428 109.314 5.46533 109.099 5.54C108.885 5.61467 108.693 5.71967 108.525 5.855C108.362 5.98567 108.224 6.142 108.112 6.324C108 6.506 107.921 6.70667 107.874 6.926C107.818 7.08933 107.741 7.199 107.643 7.255C107.55 7.30633 107.417 7.32033 107.244 7.297L106.593 7.185C106.659 6.72767 106.785 6.324 106.971 5.974C107.163 5.61933 107.401 5.323 107.685 5.085C107.975 4.847 108.304 4.66733 108.672 4.546C109.041 4.42 109.44 4.357 109.869 4.357C110.294 4.357 110.691 4.42 111.059 4.546C111.428 4.672 111.748 4.85633 112.018 5.099C112.289 5.337 112.501 5.62867 112.655 5.974C112.809 6.31933 112.886 6.71133 112.886 7.15C112.886 7.52333 112.83 7.871 112.718 8.193C112.606 8.51033 112.455 8.81367 112.263 9.103C112.072 9.39233 111.85 9.67467 111.598 9.95C111.351 10.2253 111.087 10.503 110.807 10.783L108.161 13.485C108.348 13.4337 108.537 13.394 108.728 13.366C108.92 13.3333 109.104 13.317 109.281 13.317H112.641ZM117.914 13.618C118.24 13.618 118.532 13.5737 118.789 13.485C119.05 13.3917 119.269 13.2633 119.447 13.1C119.629 12.932 119.766 12.7337 119.86 12.505C119.958 12.2717 120.007 12.015 120.007 11.735C120.007 11.3897 119.948 11.0957 119.832 10.853C119.72 10.6057 119.566 10.405 119.37 10.251C119.178 10.097 118.957 9.985 118.705 9.915C118.453 9.84033 118.189 9.803 117.914 9.803C117.638 9.803 117.375 9.84033 117.123 9.915C116.871 9.985 116.647 10.097 116.451 10.251C116.259 10.405 116.105 10.6057 115.989 10.853C115.877 11.0957 115.821 11.3897 115.821 11.735C115.821 12.015 115.867 12.2717 115.961 12.505C116.059 12.7337 116.196 12.932 116.374 13.1C116.556 13.2633 116.775 13.3917 117.032 13.485C117.293 13.5737 117.587 13.618 117.914 13.618ZM117.914 5.323C117.615 5.323 117.351 5.36733 117.123 5.456C116.899 5.54467 116.71 5.666 116.556 5.82C116.406 5.974 116.292 6.15367 116.213 6.359C116.138 6.56433 116.101 6.78367 116.101 7.017C116.101 7.24567 116.133 7.46733 116.199 7.682C116.264 7.89667 116.369 8.088 116.514 8.256C116.658 8.41933 116.845 8.55233 117.074 8.655C117.307 8.753 117.587 8.802 117.914 8.802C118.24 8.802 118.518 8.753 118.747 8.655C118.98 8.55233 119.169 8.41933 119.314 8.256C119.458 8.088 119.563 7.89667 119.629 7.682C119.694 7.46733 119.727 7.24567 119.727 7.017C119.727 6.78367 119.687 6.56433 119.608 6.359C119.533 6.15367 119.419 5.974 119.265 5.82C119.115 5.666 118.926 5.54467 118.698 5.456C118.474 5.36733 118.212 5.323 117.914 5.323ZM119.349 9.271C119.974 9.44833 120.455 9.74467 120.791 10.16C121.127 10.5753 121.295 11.1073 121.295 11.756C121.295 12.1947 121.211 12.5913 121.043 12.946C120.879 13.296 120.648 13.5947 120.35 13.842C120.056 14.0893 119.701 14.2807 119.286 14.416C118.87 14.5467 118.413 14.612 117.914 14.612C117.414 14.612 116.957 14.5467 116.542 14.416C116.126 14.2807 115.769 14.0893 115.471 13.842C115.172 13.5947 114.941 13.296 114.778 12.946C114.614 12.5913 114.533 12.1947 114.533 11.756C114.533 11.1073 114.701 10.5753 115.037 10.16C115.373 9.74467 115.853 9.44833 116.479 9.271C115.951 9.075 115.552 8.78333 115.282 8.396C115.016 8.004 114.883 7.53733 114.883 6.996C114.883 6.62733 114.955 6.282 115.1 5.96C115.244 5.638 115.45 5.358 115.716 5.12C115.982 4.882 116.299 4.69533 116.668 4.56C117.041 4.42467 117.456 4.357 117.914 4.357C118.366 4.357 118.779 4.42467 119.153 4.56C119.526 4.69533 119.846 4.882 120.112 5.12C120.378 5.358 120.583 5.638 120.728 5.96C120.872 6.282 120.945 6.62733 120.945 6.996C120.945 7.53733 120.809 8.004 120.539 8.396C120.273 8.78333 119.876 9.075 119.349 9.271ZM123.998 10.097C123.998 9.09833 123.869 8.12767 123.613 7.185C123.361 6.24233 122.99 5.34633 122.5 4.497C122.462 4.427 122.439 4.36633 122.43 4.315C122.42 4.259 122.423 4.21233 122.437 4.175C122.451 4.133 122.472 4.098 122.5 4.07C122.532 4.03733 122.567 4.00933 122.605 3.986L123.158 3.643C123.508 4.18433 123.804 4.71867 124.047 5.246C124.294 5.77333 124.492 6.303 124.642 6.835C124.796 7.36233 124.908 7.89667 124.978 8.438C125.048 8.97933 125.083 9.53233 125.083 10.097C125.083 10.6663 125.048 11.2217 124.978 11.763C124.908 12.2997 124.796 12.834 124.642 13.366C124.492 13.898 124.294 14.4277 124.047 14.955C123.804 15.4823 123.508 16.0143 123.158 16.551L122.605 16.215C122.567 16.1917 122.532 16.1637 122.5 16.131C122.472 16.103 122.451 16.068 122.437 16.026C122.423 15.9887 122.42 15.942 122.43 15.886C122.439 15.83 122.462 15.767 122.5 15.697C122.99 14.8477 123.361 13.9517 123.613 13.009C123.869 12.0663 123.998 11.0957 123.998 10.097Z" fill="#6D6D6D"/>
</svg>
