<svg width="19" height="19" viewBox="0 0 19 19" fill="none" xmlns="http://www.w3.org/2000/svg">
<g id="Star">
<path id="Vector" d="M16.7106 8.08953L16.6631 8.13107L13.492 10.8986L13.2662 11.0956L13.3335 11.3876L14.2834 15.5079L14.2837 15.5092C14.3117 15.6289 14.3037 15.7541 14.2608 15.8693C14.218 15.9845 14.1421 16.0844 14.0427 16.1567C13.9433 16.229 13.8249 16.2704 13.7021 16.2757C13.5795 16.281 13.4581 16.2501 13.353 16.1869C13.3528 16.1868 13.3526 16.1867 13.3525 16.1866L9.76002 14.0076L9.50044 13.8502L9.24101 14.0079L5.6567 16.1866C5.65648 16.1867 5.65626 16.1868 5.65604 16.187C5.55095 16.2501 5.42959 16.281 5.30708 16.2757C5.18431 16.2704 5.06584 16.229 4.96646 16.1567C4.86709 16.0844 4.79123 15.9845 4.74836 15.8693C4.70549 15.7541 4.69752 15.6289 4.72545 15.5092L4.72576 15.5079L5.67428 11.3918L5.74151 11.1L5.51606 10.903L2.34426 8.13128L2.34427 8.13127L2.34181 8.12915C2.24861 8.04877 2.18121 7.94266 2.14808 7.82413C2.11494 7.7056 2.11754 7.57992 2.15554 7.46286C2.19355 7.3458 2.26527 7.24257 2.36171 7.16611C2.45815 7.08965 2.57502 7.04336 2.69767 7.03306L2.69894 7.03295L6.87973 6.67084L7.18083 6.64476L7.29769 6.36603L8.92965 2.47353L8.92998 2.47274C8.9772 2.35956 9.05686 2.26287 9.15893 2.19487C9.26099 2.12686 9.38089 2.09058 9.50353 2.09058C9.62618 2.09058 9.74608 2.12686 9.84814 2.19487C9.95021 2.26287 10.0299 2.35955 10.0771 2.47274L10.0776 2.47402L11.7145 6.36652L11.8315 6.64478L12.1323 6.67084L16.3116 7.03295L16.3129 7.03306C16.4356 7.04336 16.5524 7.08965 16.6489 7.16611C16.7453 7.24257 16.817 7.3458 16.855 7.46286C16.893 7.57992 16.8956 7.7056 16.8625 7.82413C16.8346 7.92409 16.7823 8.01522 16.7106 8.08953Z" fill="#FFB81C" stroke="#DC8633"/>
</g>
</svg>
