<svg width="44" height="44" viewBox="0 0 44 44" fill="none" xmlns="http://www.w3.org/2000/svg">
<g id="waving-hand-sign 1">
<path id="Vector" d="M11.0688 33.3475C10.725 33.2788 10.45 33.21 10.1062 33.0725C9.7625 32.935 9.4875 32.8663 9.2125 32.7288C8.59375 32.4538 8.04375 32.11 7.49375 31.6975C6.39375 30.9413 5.5 29.91 4.8125 28.6725C4.125 27.5038 3.7125 26.1288 3.64375 24.8225C3.575 24.135 3.64375 23.5163 3.7125 22.8288C3.78125 22.485 3.85 22.21 3.91875 21.8663C3.9875 21.5225 4.125 21.2475 4.19375 20.9038L4.2625 21.8663C4.2625 22.21 4.33125 22.485 4.4 22.8288C4.46875 23.4475 4.60625 24.0663 4.74375 24.6163C5.01875 25.785 5.43125 26.885 6.05 27.9163C6.66875 28.9475 7.35625 29.91 8.25 30.8038C8.6625 31.2163 9.14375 31.6288 9.625 32.0413C9.83125 32.2475 10.1062 32.4538 10.3813 32.66L11.0688 33.3475ZM10.8625 35.8225C10.6562 35.96 10.3812 36.0288 10.1062 36.0975C9.83125 36.1663 9.625 36.235 9.35 36.235C8.86875 36.3038 8.31875 36.3725 7.76875 36.3038C6.7375 36.235 5.6375 35.96 4.74375 35.4788C3.78125 34.9975 2.95625 34.2413 2.40625 33.3475C2.13125 32.935 1.85625 32.4538 1.65 31.9725C1.58125 31.7663 1.5125 31.4913 1.44375 31.2163C1.44375 31.01 1.375 30.8038 1.375 30.5288C1.58125 30.735 1.71875 30.9413 1.85625 31.0788C2.0625 31.285 2.2 31.4913 2.3375 31.6288C2.68125 31.9725 2.95625 32.3163 3.3 32.5913C3.9875 33.21 4.675 33.76 5.5 34.1725C6.25625 34.585 7.15 34.9288 7.975 35.2038C8.3875 35.3413 8.86875 35.41 9.35 35.5475C9.55625 35.6163 9.83125 35.6163 10.0375 35.685C10.3813 35.7538 10.5875 35.7538 10.8625 35.8225ZM26.4 2.41001C26.7438 2.47876 27.0187 2.61626 27.3625 2.75376C27.7062 2.89126 27.9812 3.02876 28.2562 3.16626C28.875 3.51001 29.425 3.85376 29.975 4.26626C31.075 5.09126 31.9688 6.19126 32.5875 7.42876C33.2063 8.66626 33.55 10.0413 33.55 11.3475C33.55 12.035 33.4813 12.6538 33.3438 13.3413C33.275 13.685 33.2062 13.96 33.0687 14.3038C32.9312 14.6475 32.8625 14.9225 32.725 15.1975L32.6562 14.235C32.6562 13.8913 32.6563 13.6163 32.5875 13.2725L32.3812 11.4163C32.175 10.2475 31.7625 9.07876 31.2125 7.97876C30.6625 6.87876 29.975 5.91626 29.15 5.02251C28.7375 4.54126 28.2563 4.12876 27.8438 3.64751C27.6375 3.44126 27.3625 3.23501 27.0875 3.02876L26.4 2.41001ZM32.3812 2.13501C32.6562 2.20376 32.8625 2.27251 33.0687 2.41001C33.275 2.47876 33.55 2.61626 33.7562 2.75376C34.1688 3.02876 34.5812 3.30376 34.9938 3.64751C35.75 4.33501 36.3688 5.16001 36.7125 6.12251C37.125 7.08501 37.2625 8.11626 37.125 9.14751C37.0563 9.62876 36.9188 10.11 36.7812 10.5913C36.7125 10.7975 36.575 11.0725 36.5062 11.2788C36.3687 11.485 36.3 11.6913 36.0938 11.8975V11.21V10.5225C36.0938 10.0413 36.025 9.62876 36.025 9.21626C35.8875 8.32251 35.75 7.49751 35.4062 6.74126C35.0625 5.91626 34.65 5.22876 34.1688 4.47251C33.8937 4.12876 33.6188 3.71626 33.3438 3.37251C33.2062 3.16626 33.0688 3.02876 32.8625 2.82251C32.725 2.47876 32.5187 2.27251 32.3812 2.13501Z" fill="white"/>
<path id="Vector_2" d="M6.87441 12.3754C5.49941 12.9941 5.01816 14.6441 5.63691 16.0191L14.2994 34.1004L19.1119 31.8316L10.4494 13.6816C9.83066 12.3066 8.24941 11.6879 6.87441 12.3754ZM29.6307 26.7441L34.7182 24.3379L24.8182 3.71286C24.1307 2.33786 22.4807 1.71911 21.0369 2.40661C19.6619 3.09411 19.0432 4.74411 19.7307 6.18786L29.6307 26.7441Z" fill="#DC8633"/>
<path id="Vector_3" d="M21.1078 2.34067C20.9703 2.40942 20.8328 2.47817 20.6953 2.61567C22.0016 2.27192 23.3766 2.89067 23.9953 4.12817L33.8953 24.7532L34.7891 24.3407L24.8891 3.71567C24.2016 2.27192 22.5516 1.65317 21.1078 2.34067Z" fill="#FFDEB8"/>
<path id="Vector_4" d="M19.1137 31.7629L24.4074 29.2191L14.3012 8.18163C13.6137 6.73788 11.8262 6.05038 10.3824 6.73788C8.93867 7.42538 8.31992 9.21288 9.00742 10.6566L19.1137 31.7629Z" fill="#DC8633"/>
<path id="Vector_5" d="M10.3813 6.80798C10.2438 6.87673 10.1063 6.94548 9.96875 7.08298C11.275 6.73923 12.7875 7.35798 13.4062 8.66423L19.6625 21.7955L21.175 22.6892L14.3 8.25173C13.6125 6.73923 11.8938 6.12048 10.3813 6.80798Z" fill="#FFDEB8"/>
<path id="Vector_6" d="M23.5824 27.5739L28.8762 25.0302L18.7699 3.99266C18.0824 2.54891 16.2949 1.86141 14.8512 2.61766C13.4074 3.30516 12.7887 5.09266 13.4762 6.53641L23.5824 27.5739Z" fill="#DC8633"/>
<path id="Vector_7" d="M14.8484 2.5487C14.7109 2.61745 14.5734 2.75495 14.4359 2.8237C15.7422 2.47995 17.2547 3.0987 17.8734 4.40495L24.9547 19.2549L26.4672 20.1487L18.7672 3.99245C18.0797 2.47995 16.2922 1.8612 14.8484 2.5487ZM6.87344 12.3799C6.73594 12.4487 6.59844 12.5174 6.46094 12.6549C7.69844 12.3112 9.00469 12.9299 9.55469 14.1674L14.7109 24.9612L16.2234 25.8549L10.4484 13.7549C9.82969 12.3112 8.24844 11.6924 6.87344 12.3799Z" fill="#FFDEB8"/>
<path id="Vector_8" d="M41.798 10.3171C39.9417 8.8734 36.9167 10.4546 35.4042 15.4046C34.373 18.8421 34.2355 19.8734 32.0355 20.9046L30.798 18.3609C30.798 18.3609 11.273 27.7796 12.0292 29.2921C12.0292 29.2921 14.3667 36.5796 18.3542 39.9484C24.2667 45.0359 38.0855 39.6047 38.7042 26.4734C39.048 18.8421 43.7917 11.8984 41.798 10.3171Z" fill="#DC8633"/>
<g id="Group">
<path id="Vector_9" d="M41.7984 10.314C41.4547 10.039 41.0422 9.90151 40.6297 9.83276C40.6984 9.90151 40.8359 9.90151 40.9047 9.97026C42.9672 11.5515 40.8359 15.1953 39.6672 18.4953C38.7047 21.1078 37.8797 23.789 38.0172 26.4015C38.5672 37.814 27.0859 43.2453 20.2109 41.1828C26.9484 44.0015 39.4609 38.639 38.9109 26.7453C38.7734 24.1328 39.5297 21.589 40.5609 18.839C41.6609 15.539 43.7922 11.8953 41.7984 10.314Z" fill="#FFDEB8"/>
<path id="Vector_10" d="M32.6554 20.6287C28.3929 21.1099 22.1366 27.2287 26.5366 33.8974C23.3054 27.1599 28.5991 22.6224 31.9679 21.0412C32.3116 20.7662 32.6554 20.6287 32.6554 20.6287Z" fill="#FFDEB8"/>
</g>
</g>
</svg>
