<svg width="44" height="44" viewBox="0 0 44 44" fill="none" xmlns="http://www.w3.org/2000/svg">
<g id="waving-hand-sign 1">
<path id="Vector" d="M11.0688 33.3448C10.725 33.2761 10.45 33.2073 10.1062 33.0698C9.7625 32.9323 9.4875 32.8636 9.2125 32.7261C8.59375 32.4511 8.04375 32.1073 7.49375 31.6948C6.39375 30.9386 5.5 29.9073 4.8125 28.6698C4.125 27.5011 3.7125 26.1261 3.64375 24.8198C3.575 24.1323 3.64375 23.5136 3.7125 22.8261C3.78125 22.4823 3.85 22.2073 3.91875 21.8636C3.9875 21.5198 4.125 21.2448 4.19375 20.9011L4.2625 21.8636C4.2625 22.2073 4.33125 22.4823 4.4 22.8261C4.46875 23.4448 4.60625 24.0636 4.74375 24.6136C5.01875 25.7823 5.43125 26.8823 6.05 27.9136C6.66875 28.9448 7.35625 29.9073 8.25 30.8011C8.6625 31.2136 9.14375 31.6261 9.625 32.0386C9.83125 32.2448 10.1063 32.4511 10.3813 32.6573L11.0688 33.3448ZM10.8625 35.8198C10.6562 35.9573 10.3812 36.0261 10.1062 36.0948C9.83125 36.1636 9.625 36.2323 9.35 36.2323C8.86875 36.3011 8.31875 36.3698 7.76875 36.3011C6.7375 36.2323 5.6375 35.9573 4.74375 35.4761C3.78125 34.9948 2.95625 34.2386 2.40625 33.3448C2.13125 32.9323 1.85625 32.4511 1.65 31.9698C1.58125 31.7636 1.5125 31.4886 1.44375 31.2136C1.44375 31.0073 1.375 30.8011 1.375 30.5261C1.58125 30.7323 1.71875 30.9386 1.85625 31.0761C2.0625 31.2823 2.2 31.4886 2.3375 31.6261C2.68125 31.9698 2.95625 32.3136 3.3 32.5886C3.9875 33.2073 4.675 33.7573 5.5 34.1698C6.25625 34.5823 7.15 34.9261 7.975 35.2011C8.3875 35.3386 8.86875 35.4073 9.35 35.5448C9.55625 35.6136 9.83125 35.6136 10.0375 35.6823C10.3813 35.7511 10.5875 35.7511 10.8625 35.8198ZM26.4 2.40732C26.7438 2.47607 27.0187 2.61357 27.3625 2.75107C27.7062 2.88857 27.9812 3.02607 28.2562 3.16357C28.875 3.50732 29.425 3.85107 29.975 4.26357C31.075 5.08857 31.9688 6.18857 32.5875 7.42607C33.2063 8.66357 33.55 10.0386 33.55 11.3448C33.55 12.0323 33.4813 12.6511 33.3438 13.3386C33.275 13.6823 33.2062 13.9573 33.0687 14.3011C32.9312 14.6448 32.8625 14.9198 32.725 15.1948L32.6562 14.2323C32.6562 13.8886 32.6563 13.6136 32.5875 13.2698L32.3812 11.4136C32.175 10.2448 31.7625 9.07607 31.2125 7.97607C30.6625 6.87607 29.975 5.91357 29.15 5.01982C28.7375 4.53857 28.2563 4.12607 27.8438 3.64482C27.6375 3.43857 27.3625 3.23232 27.0875 3.02607L26.4 2.40732ZM32.3812 2.13232C32.6562 2.20107 32.8625 2.26982 33.0687 2.40732C33.275 2.47607 33.55 2.61357 33.7562 2.75107C34.1687 3.02607 34.5813 3.30107 34.9938 3.64482C35.75 4.33232 36.3688 5.15732 36.7125 6.11982C37.125 7.08232 37.2625 8.11357 37.125 9.14482C37.0563 9.62607 36.9188 10.1073 36.7812 10.5886C36.7125 10.7948 36.575 11.0698 36.5062 11.2761C36.3687 11.4823 36.3 11.6886 36.0938 11.8948V11.2073V10.5198C36.0938 10.0386 36.025 9.62607 36.025 9.21357C35.8875 8.31982 35.75 7.49482 35.4062 6.73857C35.0625 5.91357 34.65 5.22607 34.1688 4.46982C33.8937 4.12607 33.6188 3.71357 33.3438 3.36982C33.2062 3.16357 33.0687 3.02607 32.8625 2.81982C32.725 2.47607 32.5187 2.26982 32.3812 2.13232Z" fill="white"/>
<path id="Vector_2" d="M6.87441 12.3727C5.49941 12.9914 5.01816 14.6414 5.63691 16.0164L14.2994 34.0977L19.1119 31.8289L10.4494 13.6789C9.83066 12.3039 8.24941 11.6852 6.87441 12.3727ZM29.6307 26.7414L34.7182 24.3352L24.8182 3.71018C24.1307 2.33518 22.4807 1.71643 21.0369 2.40393C19.6619 3.09143 19.0432 4.74143 19.7307 6.18518L29.6307 26.7414Z" fill="#DC8633"/>
<path id="Vector_3" d="M21.1078 2.33799C20.9703 2.40674 20.8328 2.47549 20.6953 2.61299C22.0016 2.26924 23.3766 2.88799 23.9953 4.12549L33.8953 24.7505L34.7891 24.338L24.8891 3.71299C24.2016 2.26924 22.5516 1.65049 21.1078 2.33799Z" fill="#FFDEB8"/>
<path id="Vector_4" d="M19.1137 31.7602L24.4074 29.2164L14.3012 8.17895C13.6137 6.7352 11.8262 6.0477 10.3824 6.7352C8.93867 7.4227 8.31992 9.2102 9.00742 10.6539L19.1137 31.7602Z" fill="#DC8633"/>
<path id="Vector_5" d="M10.3813 6.80529C10.2438 6.87404 10.1063 6.94279 9.96875 7.08029C11.275 6.73654 12.7875 7.35529 13.4062 8.66154L19.6625 21.7928L21.175 22.6865L14.3 8.24904C13.6125 6.73654 11.8938 6.11779 10.3813 6.80529Z" fill="#FFDEB8"/>
<path id="Vector_6" d="M23.5824 27.5712L28.8762 25.0275L18.7699 3.98997C18.0824 2.54622 16.2949 1.85872 14.8512 2.61497C13.4074 3.30247 12.7887 5.08997 13.4762 6.53372L23.5824 27.5712Z" fill="#DC8633"/>
<path id="Vector_7" d="M14.8484 2.54601C14.7109 2.61476 14.5734 2.75226 14.4359 2.82101C15.7422 2.47726 17.2547 3.09601 17.8734 4.40226L24.9547 19.2523L26.4672 20.146L18.7672 3.98976C18.0797 2.47726 16.2922 1.85851 14.8484 2.54601ZM6.87344 12.3773C6.73594 12.446 6.59844 12.5148 6.46094 12.6523C7.69844 12.3085 9.00469 12.9273 9.55469 14.1648L14.7109 24.9585L16.2234 25.8523L10.4484 13.7523C9.82969 12.3085 8.24844 11.6898 6.87344 12.3773Z" fill="#FFDEB8"/>
<path id="Vector_8" d="M41.798 10.3145C39.9417 8.87071 36.9167 10.452 35.4042 15.402C34.373 18.8395 34.2355 19.8707 32.0355 20.902L30.798 18.3582C30.798 18.3582 11.273 27.777 12.0292 29.2895C12.0292 29.2895 14.3667 36.577 18.3542 39.9457C24.2667 45.0332 38.0855 39.602 38.7042 26.4707C39.048 18.8395 43.7917 11.8957 41.798 10.3145Z" fill="#DC8633"/>
<g id="Group">
<path id="Vector_9" d="M41.7984 10.3113C41.4547 10.0363 41.0422 9.89883 40.6297 9.83008C40.6984 9.89883 40.8359 9.89883 40.9047 9.96758C42.9672 11.5488 40.8359 15.1926 39.6672 18.4926C38.7047 21.1051 37.8797 23.7863 38.0172 26.3988C38.5672 37.8113 27.0859 43.2426 20.2109 41.1801C26.9484 43.9988 39.4609 38.6363 38.9109 26.7426C38.7734 24.1301 39.5297 21.5863 40.5609 18.8363C41.6609 15.5363 43.7922 11.8926 41.7984 10.3113Z" fill="#FFDEB8"/>
<path id="Vector_10" d="M32.6554 20.626C28.3929 21.1072 22.1366 27.226 26.5366 33.8947C23.3054 27.1572 28.5991 22.6197 31.9679 21.0385C32.3116 20.7635 32.6554 20.626 32.6554 20.626Z" fill="#FFDEB8"/>
</g>
</g>
</svg>
