<svg width="42" height="63" viewBox="0 0 42 63" fill="none" xmlns="http://www.w3.org/2000/svg">
<path opacity="0.22" d="M37.1652 52.3891L35.5293 62.75H0.167969L1.63611 53.4797L20.3864 33.0935C21.477 31.8071 22.5816 30.4229 23.7002 28.9408C24.8468 27.4586 25.8395 25.8926 26.6784 24.2427C27.5453 22.5648 28.0907 20.873 28.3144 19.1671C28.4262 18.2443 28.4822 17.1537 28.4822 15.8952C28.5101 14.6089 28.2864 13.4903 27.811 12.5395C27.3356 11.5607 26.4128 11.0574 25.0425 11.0294C23.3646 10.9735 22.0643 11.5328 21.1414 12.7073C20.2466 13.8538 19.6034 15.2241 19.2119 16.8181C18.8204 18.4121 18.5547 19.8243 18.4149 21.0547L6.04054 21.0967C6.26426 17.4613 7.24302 14.0915 8.97683 10.9875C10.7386 7.88338 13.0876 5.39453 16.0239 3.5209C18.9602 1.6193 22.3439 0.696468 26.1751 0.752397C29.6427 0.808326 32.537 1.57735 34.8581 3.05948C37.2071 4.54161 38.927 6.58302 40.0176 9.18373C41.1362 11.7565 41.5556 14.7207 41.276 18.0765C41.0523 20.5653 40.437 22.9144 39.4303 25.1236C38.4516 27.3048 37.2491 29.3602 35.8229 31.2898C34.3967 33.2193 32.8446 35.093 31.1668 36.9107C29.4889 38.7004 27.853 40.4622 26.259 42.196L18.2471 52.3472L37.1652 52.3891Z" fill="white"/>
</svg>
