<svg width="41" height="63" viewBox="0 0 41 63" fill="none" xmlns="http://www.w3.org/2000/svg">
<path opacity="0.25" d="M15.2526 26.1789L20.422 26.2203C21.9935 26.1927 23.2756 25.7792 24.2681 24.9796C25.2606 24.1801 26.005 23.16 26.5013 21.9193C27.0251 20.6511 27.356 19.3001 27.4938 17.8665C27.5765 16.9567 27.549 15.9641 27.4111 14.8889C27.2733 13.8136 26.9148 12.89 26.3359 12.1181C25.7845 11.3185 24.9022 10.905 23.6891 10.8774C22.5587 10.8498 21.6213 11.1807 20.8769 11.8699C20.1325 12.5316 19.5398 13.3449 19.0987 14.3099C18.6851 15.2749 18.3956 16.2123 18.2302 17.1221L5.90626 17.2048C6.09925 13.9791 7.02285 11.1255 8.67707 8.64421C10.3589 6.13531 12.5369 4.17781 15.2112 2.77173C17.8856 1.36564 20.8494 0.690168 24.1027 0.745309C27.4387 0.800449 30.3336 1.54485 32.7873 2.9785C35.2411 4.38459 37.1021 6.35587 38.3703 8.89234C39.6661 11.4012 40.2175 14.3375 40.0245 17.7011C39.8867 19.9894 39.3215 22.0847 38.329 23.9871C37.3364 25.8894 36.0268 27.5161 34.4002 28.867C32.8011 30.1904 30.9815 31.2243 28.9413 31.9687C26.9011 32.6855 24.7644 33.0439 22.5312 33.0439L14.136 33.0026L15.2526 26.1789ZM13.6811 36.0629L14.715 29.4047L21.8281 29.446C24.144 29.5287 26.2256 29.9147 28.0728 30.604C29.92 31.2932 31.4915 32.2858 32.7873 33.5816C34.1107 34.8774 35.0757 36.4489 35.6822 38.2961C36.3163 40.1433 36.5645 42.2662 36.4266 44.6648C36.2612 47.3667 35.6133 49.8481 34.4829 52.1088C33.3525 54.342 31.8499 56.2582 29.9751 57.8572C28.1279 59.4563 26.005 60.6832 23.6064 61.5379C21.2354 62.3925 18.7127 62.7923 16.0383 62.7372C13.4743 62.6545 11.2135 62.1582 9.25605 61.2484C7.32613 60.3386 5.69948 59.0979 4.3761 57.5264C3.0803 55.9273 2.10155 54.0801 1.43986 51.9848C0.805747 49.8618 0.502473 47.6011 0.530043 45.2025H12.7713C12.7713 46.1674 12.8678 47.2151 13.0608 48.3455C13.2813 49.4483 13.7087 50.3995 14.3428 51.199C14.9769 51.9985 15.9143 52.4121 17.1549 52.4397C18.6437 52.4948 19.8844 52.1226 20.8769 51.3231C21.8695 50.496 22.6552 49.4621 23.2342 48.2214C23.8408 46.9532 24.213 45.6849 24.3508 44.4167C24.5162 43.1485 24.5438 41.894 24.4335 40.6533C24.3508 39.4127 23.9648 38.365 23.2756 37.5103C22.6139 36.6557 21.5111 36.187 19.9671 36.1042L13.6811 36.0629Z" fill="white"/>
</svg>
