<svg width="45" height="63" viewBox="0 0 45 63" fill="none" xmlns="http://www.w3.org/2000/svg">
<path d="M28.152 39.0758L30.4568 19.9115C30.5707 19.1147 30.6987 18.2753 30.841 17.3932C30.9832 16.5111 31.1682 15.6006 31.3958 14.6616L12.3169 39.0758H28.152ZM44.3713 39.0758L43.5603 45.5208C43.5034 46.1184 43.2473 46.6448 42.792 47.1001C42.3367 47.5269 41.7534 47.7403 41.042 47.7403H36.9872L35.1519 62.5938H25.2923L27.0849 47.7403H3.73773C3.02636 47.7403 2.41458 47.5127 1.90239 47.0574C1.39021 46.6021 1.10566 46.033 1.04875 45.3501L0.579244 39.6307L31.9934 0.661778H42.7493L38.0543 39.0758H44.3713Z" fill="#343435" fill-opacity="0.1"/>
</svg>
