<svg width="44" height="63" viewBox="0 0 44 63" fill="none" xmlns="http://www.w3.org/2000/svg">
<path d="M43.9688 0.306024L43.3713 5.04375C43.1721 6.63722 42.5034 7.93192 41.3652 8.92784C40.227 9.92376 38.4486 10.4217 36.0299 10.4217H21.8594L18.4448 22.5008C19.6399 22.2732 20.7639 22.1024 21.8167 21.9886C22.898 21.8748 23.9366 21.8179 24.9325 21.8179C27.6642 21.8179 30.0402 22.2447 32.0605 23.0984C34.1092 23.952 35.8023 25.1186 37.1396 26.5983C38.5055 28.078 39.5298 29.8137 40.2128 31.8055C40.8957 33.7974 41.2371 35.9173 41.2371 38.1652C41.2371 41.8074 40.5969 45.1509 39.3164 48.1955C38.0644 51.2117 36.3287 53.8154 34.1092 56.0064C31.9182 58.169 29.3288 59.862 26.341 61.0856C23.3533 62.2807 20.1379 62.8782 16.6948 62.8782C14.8453 62.8782 13.1238 62.6648 11.5303 62.238C9.93681 61.8396 8.45716 61.299 7.09132 60.6161C5.72549 59.9332 4.47348 59.1506 3.33528 58.2685C2.22554 57.358 1.22962 56.4048 0.347525 55.4088L4.44502 50.6711C5.32712 49.6752 6.3515 49.1772 7.51815 49.1772C8.25797 49.1772 8.94089 49.4049 9.5669 49.8601C10.1929 50.3154 10.89 50.8134 11.6583 51.354C12.4551 51.8947 13.3941 52.3926 14.4754 52.8479C15.5566 53.3032 16.9082 53.5308 18.5302 53.5308C20.4936 53.5308 22.1866 53.1467 23.6094 52.3784C25.0321 51.6101 26.1988 50.5857 27.1093 49.3053C28.0483 48.0248 28.7312 46.5451 29.1581 44.8663C29.5849 43.1875 29.7983 41.4375 29.7983 39.6164C29.7983 36.9132 29.0727 34.7933 27.6215 33.2567C26.1988 31.7202 24.1073 30.9519 21.3472 30.9519C18.7009 30.9519 16.0404 31.4925 13.3656 32.5738L6.53645 30.6104L15.1156 0.306024H43.9688Z" fill="#343435" fill-opacity="0.1"/>
</svg>
