<svg width="42" height="64" viewBox="0 0 42 64" fill="none" xmlns="http://www.w3.org/2000/svg">
<path d="M19.1216 54.3536C20.6013 54.3536 21.9955 54.0406 23.3045 53.4146C24.6418 52.7601 25.8085 51.878 26.8044 50.7683C27.8003 49.6301 28.5828 48.2927 29.1519 46.7562C29.721 45.1911 30.0056 43.4838 30.0056 41.6343C30.0056 38.7603 29.2658 36.4982 27.7861 34.8478C26.3349 33.1974 24.3146 32.3722 21.7252 32.3722C20.274 32.3722 18.9082 32.6852 17.6277 33.3112C16.3473 33.9372 15.2233 34.8193 14.2558 35.9575C13.3168 37.0957 12.577 38.4616 12.0363 40.055C11.4957 41.6201 11.2254 43.3558 11.2254 45.2623C11.2254 46.5997 11.3819 47.8374 11.6949 48.9756C12.0363 50.0854 12.5343 51.0386 13.1888 51.8353C13.8432 52.6321 14.6542 53.2581 15.6217 53.7134C16.6176 54.1402 17.7842 54.3536 19.1216 54.3536ZM20.0606 25.287C21.0565 24.8886 22.1094 24.5756 23.2191 24.348C24.3573 24.1203 25.5382 24.0065 26.7617 24.0065C28.6682 24.0065 30.5035 24.348 32.2677 25.0309C34.0604 25.6853 35.6396 26.6813 37.0055 28.0186C38.3713 29.3276 39.4668 30.9779 40.292 32.9698C41.1172 34.9616 41.5298 37.2665 41.5298 39.8843C41.5298 43.1282 40.9322 46.1871 39.7371 49.061C38.5705 51.9065 36.9486 54.4105 34.8714 56.5731C32.7942 58.7072 30.3328 60.4003 27.4873 61.6523C24.6418 62.8758 21.5403 63.4876 18.1826 63.4876C15.3656 63.4876 12.8473 63.0323 10.6278 62.1218C8.43681 61.2112 6.58724 59.9307 5.07914 58.2804C3.57103 56.63 2.41861 54.6666 1.62187 52.3902C0.853591 50.0854 0.469451 47.5671 0.469451 44.8355C0.469451 42.929 0.654407 41.0794 1.02432 39.2868C1.42269 37.4656 1.99179 35.673 2.73161 33.9088C3.49989 32.1446 4.45313 30.3662 5.59132 28.5735C6.72952 26.7809 8.05267 24.9455 9.56077 23.0675L25.0544 3.5617C25.6804 2.82187 26.5483 2.19587 27.6581 1.68368C28.7962 1.17149 30.0483 0.915399 31.4141 0.915399H41.5298L21.8959 23.2382L20.0606 25.287Z" fill="#343435" fill-opacity="0.1"/>
</svg>
