<svg width="45" height="63" viewBox="0 0 45 63" fill="none" xmlns="http://www.w3.org/2000/svg">
<path d="M44.3834 0.516962L43.7858 5.34006C43.5866 6.79126 43.2736 7.9579 42.8468 8.84C42.42 9.7221 42.0216 10.4762 41.6517 11.1022L15.4448 58.6075C14.7903 59.6604 13.9509 60.5567 12.9266 61.2965C11.9022 62.0363 10.5933 62.4062 8.99978 62.4062H0.762106L27.3532 15.9253C28.0361 14.8724 28.719 13.9192 29.4019 13.0655C30.0848 12.1834 30.8247 11.3725 31.6214 10.6327H5.79861C5.14415 10.6327 4.57506 10.3766 4.09132 9.86438C3.63605 9.32374 3.45109 8.72619 3.53645 8.07173L4.47546 0.516962H44.3834Z" fill="#343435" fill-opacity="0.1"/>
</svg>
