<svg width="24" height="24" viewBox="0 0 24 24" fill="none" xmlns="http://www.w3.org/2000/svg">
<g clip-path="url(#clip0_1841_40689)">
<path fill-rule="evenodd" clip-rule="evenodd" d="M1.12326 5.40478H0.30468C-0.136091 5.40478 -0.450928 5.71961 -0.450928 6.16038V20.2651C-0.450928 20.7688 -0.136091 21.0207 0.367648 21.0207L9.74978 20.8318C6.16064 17.3056 2.0048 19.8873 1.12326 16.8648C0.997321 16.4241 1.12326 6.72709 1.12326 5.40478ZM21.0839 3.13795V16.487C21.0839 17.0537 20.832 17.2426 20.3283 17.1797C17.4318 16.9278 14.8501 17.8093 12.4574 19.9502V6.28632C13.6538 4.2084 15.7946 2.57125 20.4542 2.44531C20.895 2.44531 21.0839 2.69718 21.0839 3.13795ZM22.3432 5.40478H23.0989C23.5396 5.40478 23.9174 5.71961 23.9174 6.16038V20.2651C23.9174 20.7688 23.6026 21.0207 23.0359 21.0207L13.7167 20.8318C17.3059 17.3056 21.4617 19.8873 22.3432 16.8648C22.4692 16.4241 22.3432 6.72709 22.3432 5.40478ZM2.3826 3.13795V16.487C2.3826 17.0537 2.63447 17.2426 3.07524 17.1797C5.97174 16.9278 8.61637 17.8093 11.0091 19.9502V6.28632C9.81275 4.2084 7.67186 2.57125 3.01228 2.44531C2.5715 2.44531 2.3826 2.69718 2.3826 3.13795Z" fill="#6D6D6D"/>
</g>
<defs>
<clipPath id="clip0_1841_40689">
<rect width="24" height="24" fill="white"/>
</clipPath>
</defs>
</svg>
