<svg width="133" height="35" viewBox="0 0 133 35" fill="none" xmlns="http://www.w3.org/2000/svg">
<rect x="0.5" y="0.5" width="132" height="34" rx="17" stroke="#28519E"/>
<path d="M23.392 14.448C23.3333 14.544 23.272 14.616 23.208 14.664C23.144 14.7067 23.064 14.728 22.968 14.728C22.8667 14.728 22.752 14.6853 22.624 14.6C22.5013 14.5147 22.3467 14.4213 22.16 14.32C21.9787 14.2133 21.7627 14.1173 21.512 14.032C21.2613 13.9413 20.9627 13.896 20.616 13.896C20.296 13.896 20.0133 13.936 19.768 14.016C19.528 14.096 19.3253 14.208 19.16 14.352C18.9947 14.496 18.8693 14.6667 18.784 14.864C18.704 15.056 18.664 15.2667 18.664 15.496C18.664 15.7893 18.7413 16.0347 18.896 16.232C19.0507 16.424 19.2533 16.5893 19.504 16.728C19.76 16.8667 20.0507 16.9893 20.376 17.096C20.7013 17.1973 21.032 17.3067 21.368 17.424C21.7093 17.5413 22.0427 17.6747 22.368 17.824C22.6933 17.9733 22.9813 18.1627 23.232 18.392C23.488 18.6213 23.6933 18.9013 23.848 19.232C24.0027 19.5627 24.08 19.9653 24.08 20.44C24.08 20.952 23.992 21.432 23.816 21.88C23.64 22.328 23.384 22.72 23.048 23.056C22.7173 23.3867 22.3067 23.648 21.816 23.84C21.3307 24.032 20.776 24.128 20.152 24.128C19.784 24.128 19.424 24.0907 19.072 24.016C18.7253 23.9467 18.392 23.848 18.072 23.72C17.7573 23.5867 17.4613 23.4267 17.184 23.24C16.9067 23.0533 16.6587 22.8453 16.44 22.616L16.984 21.72C17.032 21.6453 17.0933 21.5867 17.168 21.544C17.2427 21.5013 17.3253 21.48 17.416 21.48C17.5387 21.48 17.6747 21.5387 17.824 21.656C17.9733 21.768 18.152 21.8933 18.36 22.032C18.5733 22.1653 18.8293 22.2907 19.128 22.408C19.4267 22.52 19.784 22.576 20.2 22.576C20.8773 22.576 21.4 22.4107 21.768 22.08C22.1413 21.7493 22.328 21.2933 22.328 20.712C22.328 20.3867 22.2507 20.1227 22.096 19.92C21.9413 19.712 21.736 19.5387 21.48 19.4C21.2293 19.2613 20.9413 19.144 20.616 19.048C20.2907 18.952 19.96 18.8507 19.624 18.744C19.288 18.632 18.9573 18.504 18.632 18.36C18.3067 18.2107 18.016 18.0187 17.76 17.784C17.5093 17.544 17.3067 17.2507 17.152 16.904C16.9973 16.552 16.92 16.1147 16.92 15.592C16.92 15.176 17 14.7733 17.16 14.384C17.3253 13.9947 17.5627 13.6507 17.872 13.352C18.1867 13.048 18.5733 12.8053 19.032 12.624C19.4907 12.4427 20.0133 12.352 20.6 12.352C21.2613 12.352 21.8667 12.456 22.416 12.664C22.9707 12.872 23.448 13.168 23.848 13.552L23.392 14.448ZM27.3774 16.808C27.7134 16.4773 28.0814 16.2133 28.4814 16.016C28.8814 15.8133 29.348 15.712 29.8814 15.712C30.3294 15.712 30.7214 15.7867 31.0574 15.936C31.3987 16.0853 31.684 16.296 31.9134 16.568C32.148 16.84 32.324 17.168 32.4414 17.552C32.5587 17.9307 32.6174 18.3493 32.6174 18.808V24H30.9054V18.808C30.9054 18.2587 30.7774 17.832 30.5214 17.528C30.2707 17.224 29.8867 17.072 29.3694 17.072C28.9854 17.072 28.628 17.16 28.2974 17.336C27.972 17.512 27.6654 17.752 27.3774 18.056V24H25.6574V12.16H27.3774V16.808ZM38.1541 15.712C38.7568 15.712 39.3008 15.8107 39.7861 16.008C40.2768 16.2053 40.6928 16.4853 41.0341 16.848C41.3808 17.2107 41.6475 17.6507 41.8341 18.168C42.0208 18.6853 42.1141 19.2667 42.1141 19.912C42.1141 20.5573 42.0208 21.1387 41.8341 21.656C41.6475 22.1733 41.3808 22.616 41.0341 22.984C40.6928 23.3467 40.2768 23.6267 39.7861 23.824C39.3008 24.0213 38.7568 24.12 38.1541 24.12C37.5461 24.12 36.9968 24.0213 36.5061 23.824C36.0208 23.6267 35.6048 23.3467 35.2581 22.984C34.9115 22.616 34.6448 22.1733 34.4581 21.656C34.2715 21.1387 34.1781 20.5573 34.1781 19.912C34.1781 19.2667 34.2715 18.6853 34.4581 18.168C34.6448 17.6507 34.9115 17.2107 35.2581 16.848C35.6048 16.4853 36.0208 16.2053 36.5061 16.008C36.9968 15.8107 37.5461 15.712 38.1541 15.712ZM38.1541 22.776C38.8901 22.776 39.4368 22.5307 39.7941 22.04C40.1568 21.544 40.3381 20.8373 40.3381 19.92C40.3381 19.0027 40.1568 18.296 39.7941 17.8C39.4368 17.2987 38.8901 17.048 38.1541 17.048C37.4075 17.048 36.8528 17.2987 36.4901 17.8C36.1275 18.296 35.9461 19.0027 35.9461 19.92C35.9461 20.8373 36.1275 21.544 36.4901 22.04C36.8528 22.5307 37.4075 22.776 38.1541 22.776ZM55.1058 15.84L52.4898 24H51.1218C50.9618 24 50.8498 23.896 50.7858 23.688L49.1618 18.608C49.1191 18.464 49.0791 18.32 49.0418 18.176C49.0098 18.032 48.9804 17.8907 48.9538 17.752C48.8951 18.04 48.8231 18.328 48.7378 18.616L47.0898 23.688C47.0311 23.896 46.9058 24 46.7138 24H45.4098L42.7938 15.84H44.1538C44.2871 15.84 44.3964 15.8747 44.4818 15.944C44.5724 16.008 44.6311 16.0853 44.6578 16.176L46.0178 20.928C46.0711 21.1467 46.1164 21.36 46.1538 21.568C46.1964 21.7707 46.2338 21.9733 46.2658 22.176C46.3191 21.9733 46.3751 21.7707 46.4338 21.568C46.4924 21.36 46.5538 21.1467 46.6178 20.928L48.1458 16.152C48.1724 16.056 48.2258 15.9787 48.3058 15.92C48.3911 15.856 48.4924 15.824 48.6098 15.824H49.3618C49.4844 15.824 49.5884 15.856 49.6738 15.92C49.7591 15.9787 49.8151 16.056 49.8418 16.152L51.3298 20.928C51.3938 21.1467 51.4524 21.36 51.5058 21.568C51.5644 21.776 51.6178 21.984 51.6658 22.192C51.7031 21.9893 51.7431 21.784 51.7858 21.576C51.8284 21.368 51.8791 21.152 51.9378 20.928L53.3218 16.176C53.3538 16.08 53.4124 16 53.4978 15.936C53.5831 15.872 53.6871 15.84 53.8098 15.84H55.1058ZM72.5928 12.48V24H70.9448V16.104C70.9448 15.976 70.9474 15.8373 70.9528 15.688C70.9634 15.5333 70.9768 15.3787 70.9928 15.224L67.2888 22.064C67.1448 22.3467 66.9234 22.488 66.6248 22.488H66.3608C66.0568 22.488 65.8354 22.3467 65.6968 22.064L61.9368 15.208C61.9528 15.3627 61.9634 15.5173 61.9688 15.672C61.9794 15.8267 61.9848 15.9707 61.9848 16.104V24H60.3368V12.48H61.7368C61.9021 12.48 62.0301 12.496 62.1208 12.528C62.2114 12.5547 62.2941 12.6427 62.3688 12.792L66.0648 19.488C66.1448 19.6427 66.2194 19.8027 66.2888 19.968C66.3634 20.128 66.4301 20.2933 66.4888 20.464C66.5528 20.2933 66.6194 20.1253 66.6888 19.96C66.7634 19.7893 66.8408 19.6267 66.9208 19.472L70.5608 12.792C70.6354 12.6427 70.7181 12.5547 70.8088 12.528C70.8994 12.496 71.0274 12.48 71.1928 12.48H72.5928ZM78.2791 15.712C78.8818 15.712 79.4258 15.8107 79.9111 16.008C80.4018 16.2053 80.8178 16.4853 81.1591 16.848C81.5058 17.2107 81.7725 17.6507 81.9591 18.168C82.1458 18.6853 82.2391 19.2667 82.2391 19.912C82.2391 20.5573 82.1458 21.1387 81.9591 21.656C81.7725 22.1733 81.5058 22.616 81.1591 22.984C80.8178 23.3467 80.4018 23.6267 79.9111 23.824C79.4258 24.0213 78.8818 24.12 78.2791 24.12C77.6711 24.12 77.1218 24.0213 76.6311 23.824C76.1458 23.6267 75.7298 23.3467 75.3831 22.984C75.0365 22.616 74.7698 22.1733 74.5831 21.656C74.3965 21.1387 74.3031 20.5573 74.3031 19.912C74.3031 19.2667 74.3965 18.6853 74.5831 18.168C74.7698 17.6507 75.0365 17.2107 75.3831 16.848C75.7298 16.4853 76.1458 16.2053 76.6311 16.008C77.1218 15.8107 77.6711 15.712 78.2791 15.712ZM78.2791 22.776C79.0151 22.776 79.5618 22.5307 79.9191 22.04C80.2818 21.544 80.4631 20.8373 80.4631 19.92C80.4631 19.0027 80.2818 18.296 79.9191 17.8C79.5618 17.2987 79.0151 17.048 78.2791 17.048C77.5325 17.048 76.9778 17.2987 76.6151 17.8C76.2525 18.296 76.0711 19.0027 76.0711 19.92C76.0711 20.8373 76.2525 21.544 76.6151 22.04C76.9778 22.5307 77.5325 22.776 78.2791 22.776ZM85.5158 17.352C85.7718 16.8347 86.0811 16.4293 86.4438 16.136C86.8064 15.8373 87.2411 15.688 87.7478 15.688C87.9238 15.688 88.0891 15.7093 88.2438 15.752C88.3984 15.7893 88.5371 15.848 88.6598 15.928L88.5398 17.224C88.5184 17.3147 88.4838 17.3787 88.4358 17.416C88.3931 17.448 88.3344 17.464 88.2598 17.464C88.1798 17.464 88.0651 17.4507 87.9158 17.424C87.7664 17.392 87.6091 17.376 87.4438 17.376C87.2038 17.376 86.9904 17.4107 86.8038 17.48C86.6224 17.5493 86.4571 17.6507 86.3078 17.784C86.1638 17.9173 86.0358 18.08 85.9238 18.272C85.8118 18.464 85.7078 18.6827 85.6118 18.928V24H83.8918V15.84H84.8918C85.0731 15.84 85.1984 15.8747 85.2678 15.944C85.3371 16.008 85.3851 16.1227 85.4118 16.288L85.5158 17.352ZM94.8688 19C94.8688 18.712 94.8261 18.4453 94.7408 18.2C94.6608 17.9493 94.5408 17.7333 94.3808 17.552C94.2208 17.3653 94.0208 17.2213 93.7808 17.12C93.5461 17.0133 93.2741 16.96 92.9648 16.96C92.3408 16.96 91.8501 17.1387 91.4928 17.496C91.1354 17.8533 90.9088 18.3547 90.8128 19H94.8688ZM90.7648 20.056C90.7861 20.52 90.8581 20.9227 90.9808 21.264C91.1034 21.6 91.2661 21.88 91.4688 22.104C91.6768 22.328 91.9221 22.496 92.2048 22.608C92.4928 22.7147 92.8128 22.768 93.1648 22.768C93.5008 22.768 93.7914 22.7307 94.0368 22.656C94.2821 22.576 94.4954 22.4907 94.6768 22.4C94.8581 22.304 95.0128 22.2187 95.1408 22.144C95.2688 22.064 95.3861 22.024 95.4928 22.024C95.6314 22.024 95.7381 22.0773 95.8128 22.184L96.3008 22.816C96.0981 23.056 95.8688 23.2587 95.6128 23.424C95.3568 23.5893 95.0848 23.7253 94.7968 23.832C94.5088 23.9333 94.2128 24.0053 93.9088 24.048C93.6048 24.096 93.3088 24.12 93.0208 24.12C92.4554 24.12 91.9301 24.0267 91.4448 23.84C90.9648 23.648 90.5461 23.368 90.1888 23C89.8368 22.632 89.5594 22.176 89.3568 21.632C89.1594 21.088 89.0608 20.4613 89.0608 19.752C89.0608 19.1867 89.1488 18.6587 89.3248 18.168C89.5061 17.6773 89.7621 17.2507 90.0928 16.888C90.4288 16.5253 90.8341 16.24 91.3088 16.032C91.7888 15.8187 92.3301 15.712 92.9328 15.712C93.4341 15.712 93.8981 15.7947 94.3248 15.96C94.7514 16.12 95.1194 16.3573 95.4288 16.672C95.7381 16.9867 95.9781 17.3733 96.1488 17.832C96.3248 18.2853 96.4128 18.8027 96.4128 19.384C96.4128 19.6507 96.3834 19.8293 96.3248 19.92C96.2661 20.0107 96.1594 20.056 96.0048 20.056H90.7648Z" fill="#28519E"/>
<path d="M111 21.2L105 15.2L106.4 13.8L111 18.4L115.6 13.8L117 15.2L111 21.2Z" fill="#28519E"/>
</svg>
