<svg width="20" height="17" viewBox="0 0 20 17" fill="none" xmlns="http://www.w3.org/2000/svg">
<g id="Icons">
<path id="Vector" fill-rule="evenodd" clip-rule="evenodd" d="M1.29199 3.30394H0.620155C0.258398 3.30394 0 3.56234 0 3.9241V15.5003C0 15.9138 0.258398 16.1205 0.671835 16.1205L8.37209 15.9654C5.42636 13.0714 2.0155 15.1902 1.29199 12.7096C1.18863 12.3479 1.29199 4.38921 1.29199 3.30394ZM17.6744 1.44348V12.3995C17.6744 12.8647 17.4677 13.0197 17.0543 12.968C14.677 12.7613 12.5581 13.4848 10.5943 15.2419V4.02745C11.5762 2.32203 13.3333 0.978359 17.1576 0.875C17.5194 0.875 17.6744 1.08172 17.6744 1.44348ZM18.708 3.30394H19.3282C19.6899 3.30394 20 3.56234 20 3.9241V15.5003C20 15.9138 19.7416 16.1205 19.2765 16.1205L11.6279 15.9654C14.5736 13.0714 17.9845 15.1902 18.708 12.7096C18.8114 12.3479 18.708 4.38921 18.708 3.30394ZM2.32558 1.44348V12.3995C2.32558 12.8647 2.5323 13.0197 2.89406 12.968C5.27132 12.7613 7.44186 13.4848 9.40568 15.2419V4.02745C8.42377 2.32203 6.66667 0.978359 2.84238 0.875C2.48062 0.875 2.32558 1.08172 2.32558 1.44348Z" fill="#4C4C4C"/>
</g>
</svg>
