<svg width="17" height="16" viewBox="0 0 17 16" fill="none" xmlns="http://www.w3.org/2000/svg">
<path d="M16.6216 5.84838C16.5535 5.63841 16.4251 5.45313 16.2524 5.3156C16.0798 5.17807 15.8705 5.09438 15.6506 5.07494L11.4747 4.71494L9.83785 0.822438C9.75262 0.618191 9.60887 0.443726 9.4247 0.32101C9.24053 0.198293 9.02416 0.132813 8.80285 0.132812C8.58153 0.132812 8.36517 0.198293 8.18099 0.32101C7.99682 0.443726 7.85307 0.618191 7.76785 0.822438L6.13589 4.71494L1.95511 5.07705C1.73436 5.0956 1.52399 5.17891 1.3504 5.31654C1.1768 5.45417 1.04771 5.63999 0.979297 5.8507C0.910888 6.06141 0.906212 6.28762 0.965856 6.50098C1.0255 6.71433 1.14681 6.90533 1.31457 7.05002L4.48636 9.82173L3.53574 13.9378C3.48547 14.1532 3.49981 14.3787 3.57697 14.586C3.65413 14.7932 3.79069 14.9732 3.96956 15.1033C4.14844 15.2334 4.36169 15.3079 4.58267 15.3174C4.80365 15.327 5.02254 15.2712 5.21199 15.157L8.79792 12.9774L12.3916 15.157C12.581 15.2712 12.7999 15.327 13.0209 15.3174C13.2419 15.3079 13.4551 15.2334 13.634 15.1033C13.8129 14.9732 13.9494 14.7932 14.0266 14.586C14.1038 14.3787 14.1181 14.1532 14.0678 13.9378L13.1179 9.81752L16.289 7.05002C16.4568 6.90483 16.5778 6.71329 16.637 6.49948C16.6962 6.28568 16.6908 6.05915 16.6216 5.84838ZM15.5514 6.19994L12.3803 8.96744C12.226 9.10169 12.1112 9.27548 12.0483 9.47011C11.9853 9.66474 11.9766 9.87285 12.0232 10.072L12.9759 14.1952L9.38503 12.0155C9.20984 11.9088 9.00867 11.8524 8.80355 11.8524C8.59843 11.8524 8.39726 11.9088 8.22206 12.0155L4.63613 14.1952L5.58253 10.0749C5.62905 9.87566 5.62037 9.66755 5.55743 9.47292C5.49449 9.27829 5.37968 9.1045 5.22535 8.97025L2.05285 6.20416C2.05259 6.20206 2.05259 6.19993 2.05285 6.19783L6.23222 5.83642C6.43627 5.81844 6.63154 5.74508 6.79695 5.62427C6.96237 5.50346 7.09167 5.33977 7.17089 5.15088L8.80285 1.2633L10.4341 5.15088C10.5133 5.33977 10.6426 5.50346 10.808 5.62427C10.9735 5.74508 11.1687 5.81844 11.3728 5.83642L15.5528 6.19783C15.5528 6.19783 15.5528 6.20205 15.5528 6.20275L15.5514 6.19994Z" fill="#B2B2B3"/>
</svg>
