<svg width="19" height="19" viewBox="0 0 19 19" fill="none" xmlns="http://www.w3.org/2000/svg">
<g id="Star">
<path id="Vector" d="M17.3223 7.30614C17.2542 7.09618 17.1258 6.91089 16.9531 6.77336C16.7804 6.63584 16.5711 6.55214 16.3513 6.5327L12.1754 6.1727L10.5385 2.2802C10.4533 2.07595 10.3096 1.90149 10.1254 1.77877C9.94121 1.65606 9.72484 1.59058 9.50353 1.59058C9.28222 1.59058 9.06585 1.65606 8.88168 1.77877C8.6975 1.90149 8.55375 2.07595 8.46853 2.2802L6.83658 6.1727L2.6558 6.53481C2.43504 6.55336 2.22467 6.63668 2.05108 6.77431C1.87749 6.91194 1.74839 7.09776 1.67998 7.30847C1.61157 7.51917 1.6069 7.74539 1.66654 7.95874C1.72618 8.1721 1.84749 8.36309 2.01525 8.50778L5.18705 11.2795L4.23642 15.3956C4.18615 15.611 4.2005 15.8364 4.27766 16.0437C4.35482 16.251 4.49137 16.431 4.67025 16.5611C4.84912 16.6912 5.06238 16.7656 5.28336 16.7752C5.50433 16.7848 5.72323 16.729 5.91267 16.6148L9.49861 14.4351L13.0923 16.6148C13.2817 16.729 13.5006 16.7848 13.7216 16.7752C13.9426 16.7656 14.1558 16.6912 14.3347 16.5611C14.5136 16.431 14.6501 16.251 14.7273 16.0437C14.8045 15.8364 14.8188 15.611 14.7685 15.3956L13.8186 11.2753L16.9897 8.50778C17.1574 8.36259 17.2785 8.17105 17.3377 7.95725C17.3969 7.74344 17.3915 7.51691 17.3223 7.30614ZM16.2521 7.6577L13.081 10.4252C12.9267 10.5595 12.8119 10.7332 12.7489 10.9279C12.686 11.1225 12.6773 11.3306 12.7238 11.5298L13.6766 15.6529L10.0857 13.4732C9.91052 13.3666 9.70935 13.3101 9.50423 13.3101C9.29911 13.3101 9.09794 13.3666 8.92275 13.4732L5.33681 15.6529L6.28322 11.5326C6.32973 11.3334 6.32105 11.1253 6.25811 10.9307C6.19518 10.7361 6.08037 10.5623 5.92603 10.428L2.75353 7.66192C2.75327 7.65982 2.75327 7.65769 2.75353 7.65559L6.93291 7.29419C7.13695 7.2762 7.33222 7.20285 7.49764 7.08203C7.66306 6.96122 7.79235 6.79754 7.87158 6.60864L9.50353 2.72106L11.1348 6.60864C11.214 6.79754 11.3433 6.96122 11.5087 7.08203C11.6741 7.20285 11.8694 7.2762 12.0735 7.29419L16.2535 7.65559C16.2535 7.65559 16.2535 7.65981 16.2535 7.66051L16.2521 7.6577Z" fill="#B2B2B3"/>
</g>
</svg>
