<svg width="17" height="16" viewBox="0 0 17 16" fill="none" xmlns="http://www.w3.org/2000/svg">
<path d="M15.7087 6.63177L15.6611 6.6733L12.49 9.4408L12.2642 9.63784L12.3316 9.92984L13.2815 14.0502L13.2818 14.0515C13.3097 14.1711 13.3017 14.2964 13.2589 14.4115C13.216 14.5267 13.1401 14.6267 13.0408 14.6989C12.9414 14.7712 12.8229 14.8126 12.7001 14.8179C12.5776 14.8232 12.4562 14.7923 12.3511 14.7292C12.3509 14.729 12.3507 14.7289 12.3505 14.7288L8.75807 12.5498L8.49849 12.3924L8.23906 12.5501L4.65475 14.7288C4.65451 14.7289 4.65428 14.7291 4.65405 14.7292C4.54896 14.7924 4.42762 14.8232 4.30513 14.8179C4.18236 14.8126 4.06388 14.7712 3.96451 14.6989L3.6704 15.1033L3.96451 14.6989C3.86514 14.6267 3.78927 14.5267 3.74641 14.4115C3.70354 14.2964 3.69557 14.1711 3.7235 14.0515L3.72381 14.0501L4.67233 9.93401L4.73956 9.64225L4.5141 9.44523L1.34231 6.67352L1.34231 6.67351L1.33985 6.67138C1.24665 6.591 1.17926 6.48489 1.14612 6.36636C1.11299 6.24783 1.11559 6.12216 1.15359 6.0051C1.1916 5.88804 1.26332 5.78481 1.35976 5.70834C1.4562 5.63188 1.57307 5.5856 1.69571 5.57529L1.69699 5.57518L5.87777 5.21307L6.17888 5.18699L6.29574 4.90826L7.92769 1.01576L7.92802 1.01498C7.97525 0.901792 8.05491 0.805109 8.15697 0.737104C8.25904 0.669099 8.37894 0.632812 8.50158 0.632812C8.62423 0.632812 8.74413 0.6691 8.84619 0.737104C8.94825 0.805109 9.02791 0.901791 9.07514 1.01498L9.07568 1.01626L10.7126 4.90876L10.8296 5.18702L11.1303 5.21307L15.3097 5.57518L15.311 5.57529C15.4336 5.5856 15.5505 5.63188 15.6469 5.70834C15.7434 5.78481 15.8151 5.88804 15.8531 6.0051C15.8911 6.12216 15.8937 6.24783 15.8606 6.36636C15.8326 6.46633 15.7803 6.55746 15.7087 6.63177Z" fill="#FFB81C" stroke="#DC8633"/>
</svg>
