<svg width="32" height="32" viewBox="0 0 32 32" fill="none" xmlns="http://www.w3.org/2000/svg">
<path d="M20.7383 15.1353C20.7383 16.0725 20.4604 16.9886 19.9397 17.7679C19.419 18.5471 18.679 19.1545 17.8131 19.5131C16.9473 19.8717 15.9945 19.9656 15.0754 19.7827C14.1562 19.5999 13.3119 19.1486 12.6492 18.4859C11.9865 17.8232 11.5352 16.9789 11.3524 16.0598C11.1696 15.1406 11.2634 14.1878 11.622 13.322C11.9807 12.4562 12.588 11.7161 13.3673 11.1954C14.1465 10.6748 15.0626 10.3969 15.9998 10.3969C17.2561 10.3983 18.4605 10.898 19.3488 11.7863C20.2372 12.6746 20.7368 13.8791 20.7383 15.1353ZM27.1998 15.9969C27.1998 18.212 26.5429 20.3774 25.3123 22.2193C24.0816 24.0611 22.3324 25.4966 20.2859 26.3443C18.2393 27.192 15.9874 27.4138 13.8148 26.9817C11.6422 26.5495 9.64656 25.4828 8.08021 23.9165C6.51387 22.3501 5.44717 20.3545 5.01501 18.1819C4.58286 16.0093 4.80466 13.7573 5.65236 11.7108C6.50006 9.66429 7.93559 7.91509 9.77742 6.68441C11.6193 5.45374 13.7847 4.79688 15.9998 4.79688C18.9693 4.80001 21.8162 5.98101 23.9159 8.08074C26.0157 10.1805 27.1967 13.0274 27.1998 15.9969ZM25.4767 15.9969C25.4753 14.7213 25.2167 13.4591 24.7164 12.2858C24.216 11.1124 23.4841 10.052 22.5645 9.16803C21.6449 8.28403 20.5565 7.59457 19.3643 7.14086C18.1722 6.68716 16.9008 6.47855 15.6261 6.52749C10.5538 6.72349 6.50889 10.9483 6.52289 16.0238C6.52775 18.3344 7.37993 20.5629 8.91796 22.2872C9.54433 21.3787 10.34 20.5995 11.2613 19.9923C11.3399 19.9404 11.4333 19.9157 11.5272 19.9219C11.6212 19.9281 11.7105 19.9649 11.7815 20.0267C12.9523 21.0394 14.4486 21.5967 15.9966 21.5967C17.5446 21.5967 19.0408 21.0394 20.2117 20.0267C20.2827 19.9649 20.372 19.9281 20.4659 19.9219C20.5599 19.9157 20.6533 19.9404 20.7318 19.9923C21.6543 20.5992 22.4511 21.3784 23.0784 22.2872C24.6241 20.5566 25.4779 18.3172 25.4767 15.9969Z" fill="#28519E"/>
</svg>
