<svg width="24" height="25" viewBox="0 0 24 25" fill="none" xmlns="http://www.w3.org/2000/svg">
<g id="Star">
<path id="Vector" d="M21.7251 10.7922L21.6564 10.8521L17.4283 14.5421L17.2025 14.7391L17.2698 15.0311L18.5364 20.5249L18.5367 20.5262C18.5814 20.7176 18.5686 20.918 18.5 21.1023C18.4315 21.2866 18.3101 21.4465 18.1511 21.5621C17.9921 21.6778 17.8025 21.744 17.6061 21.7525C17.4099 21.761 17.2156 21.7116 17.0474 21.6104C17.0472 21.6102 17.0469 21.6101 17.0467 21.6099L12.2564 18.7044L11.9968 18.547L11.7373 18.7047L6.95772 21.6099C6.95743 21.6101 6.95713 21.6103 6.95684 21.6105C6.78865 21.7116 6.59441 21.761 6.39833 21.7525C6.2019 21.744 6.01234 21.6778 5.85334 21.5621C5.69434 21.4465 5.57296 21.2865 5.50437 21.1023C5.43579 20.918 5.42304 20.7176 5.46772 20.5262L5.46803 20.5248L6.73272 15.0367L6.79996 14.7449L6.5745 14.5479L2.34544 10.8523L2.34544 10.8523L2.34298 10.8502C2.19386 10.7216 2.08603 10.5518 2.03302 10.3621C1.98 10.1725 1.98416 9.97141 2.04497 9.78411C2.10577 9.59681 2.22052 9.43164 2.37483 9.3093C2.52914 9.18696 2.71613 9.11291 2.91236 9.09642L2.91364 9.09631L8.48801 8.61349L8.78912 8.58742L8.90598 8.30868L11.0819 3.11868L11.0822 3.1179C11.1579 2.93663 11.2855 2.78179 11.4489 2.67288C11.6124 2.56397 11.8044 2.50586 12.0008 2.50586C12.1972 2.50586 12.3892 2.56397 12.5527 2.67288C12.7162 2.78179 12.8437 2.93663 12.9194 3.1179L12.9199 3.11918L15.1024 8.30918L15.2194 8.58744L15.5201 8.61349L21.0926 9.09631L21.0939 9.09642C21.2902 9.11291 21.4772 9.18696 21.6315 9.3093C21.7858 9.43164 21.9005 9.59682 21.9613 9.78411C22.0221 9.97141 22.0263 10.1725 21.9733 10.3621C21.9279 10.5245 21.8423 10.6723 21.7251 10.7922Z" fill="#6D6D6D" stroke="#6D6D6D"/>
</g>
</svg>
