<svg width="14" height="14" viewBox="0 0 14 14" fill="none" xmlns="http://www.w3.org/2000/svg">
<path id="Vector" d="M5.83314 13.4165C5.83314 13.5712 5.77169 13.7195 5.66229 13.8289C5.5529 13.9383 5.40453 13.9998 5.24983 13.9998H1.16663C0.857219 13.9998 0.560483 13.8769 0.341698 13.6581C0.122912 13.4393 0 13.1426 0 12.8332V1.16687C0 0.857463 0.122912 0.560727 0.341698 0.341942C0.560483 0.123156 0.857219 0.000244141 1.16663 0.000244141H5.24983C5.40453 0.000244141 5.5529 0.0617004 5.66229 0.171093C5.77169 0.280486 5.83314 0.428854 5.83314 0.583558C5.83314 0.738263 5.77169 0.886631 5.66229 0.996024C5.5529 1.10542 5.40453 1.16687 5.24983 1.16687H1.16663V12.8332H5.24983C5.40453 12.8332 5.5529 12.8946 5.66229 13.004C5.77169 13.1134 5.83314 13.2618 5.83314 13.4165ZM13.8289 6.58732L10.9124 3.67075C10.8308 3.58908 10.7268 3.53345 10.6136 3.5109C10.5004 3.48836 10.383 3.49991 10.2764 3.5441C10.1697 3.58829 10.0786 3.66312 10.0145 3.75913C9.95041 3.85514 9.91625 3.96801 9.91634 4.08344V6.4167H5.24983C5.09512 6.4167 4.94676 6.47816 4.83736 6.58755C4.72797 6.69694 4.66651 6.84531 4.66651 7.00002C4.66651 7.15472 4.72797 7.30309 4.83736 7.41248C4.94676 7.52187 5.09512 7.58333 5.24983 7.58333H9.91634V9.91659C9.91625 10.032 9.95041 10.1449 10.0145 10.2409C10.0786 10.3369 10.1697 10.4117 10.2764 10.4559C10.383 10.5001 10.5004 10.5117 10.6136 10.4891C10.7268 10.4666 10.8308 10.411 10.9124 10.3293L13.8289 7.41271C13.8832 7.35854 13.9262 7.2942 13.9555 7.22339C13.9849 7.15258 14 7.07667 14 7.00002C14 6.92336 13.9849 6.84745 13.9555 6.77664C13.9262 6.70583 13.8832 6.64149 13.8289 6.58732Z" fill="#E03E2D"/>
</svg>
