<svg width="24" height="16" viewBox="0 0 24 16" fill="none" xmlns="http://www.w3.org/2000/svg">
<g clip-path="url(#clip0_1520_3320)">
<path d="M1.33333 15.9922C0.955556 15.9922 0.639111 15.8642 0.384 15.6082C0.128 15.3531 0 15.0366 0 14.6589C0 14.2811 0.128 13.9646 0.384 13.7095C0.639111 13.4535 0.955556 13.3255 1.33333 13.3255H22.6667C23.0444 13.3255 23.3609 13.4535 23.616 13.7095C23.872 13.9646 24 14.2811 24 14.6589C24 15.0366 23.872 15.3531 23.616 15.6082C23.3609 15.8642 23.0444 15.9922 22.6667 15.9922H1.33333ZM1.33333 9.32552C0.955556 9.32552 0.639111 9.19752 0.384 8.94152C0.128 8.68641 0 8.36997 0 7.99219C0 7.61441 0.128 7.29752 0.384 7.04152C0.639111 6.78641 0.955556 6.65885 1.33333 6.65885H22.6667C23.0444 6.65885 23.3609 6.78641 23.616 7.04152C23.872 7.29752 24 7.61441 24 7.99219C24 8.36997 23.872 8.68641 23.616 8.94152C23.3609 9.19752 23.0444 9.32552 22.6667 9.32552H1.33333ZM1.33333 2.65885C0.955556 2.65885 0.639111 2.5313 0.384 2.27619C0.128 2.02019 0 1.7033 0 1.32552C0 0.947743 0.128 0.630854 0.384 0.374854C0.639111 0.119743 0.955556 -0.0078125 1.33333 -0.0078125H22.6667C23.0444 -0.0078125 23.3609 0.119743 23.616 0.374854C23.872 0.630854 24 0.947743 24 1.32552C24 1.7033 23.872 2.02019 23.616 2.27619C23.3609 2.5313 23.0444 2.65885 22.6667 2.65885H1.33333Z" fill="white"/>
</g>
<defs>
<clipPath id="clip0_1520_3320">
<rect width="24" height="16" fill="white"/>
</clipPath>
</defs>
</svg>
