<svg width="126" height="18" viewBox="0 0 126 18" fill="none" xmlns="http://www.w3.org/2000/svg">
<path d="M16.2087 7.63177L16.1611 7.6733L12.99 10.4408L12.7642 10.6378L12.8316 10.9298L13.7815 15.0502L13.7818 15.0515C13.8097 15.1711 13.8017 15.2964 13.7589 15.4115C13.716 15.5267 13.6401 15.6267 13.5408 15.6989C13.4414 15.7712 13.3229 15.8126 13.2001 15.8179C13.0776 15.8232 12.9562 15.7923 12.8511 15.7292C12.8509 15.729 12.8507 15.7289 12.8505 15.7288L9.25807 13.5498L8.99849 13.3924L8.73906 13.5501L5.15475 15.7288C5.15451 15.7289 5.15428 15.7291 5.15405 15.7292C5.04896 15.7924 4.92762 15.8232 4.80513 15.8179C4.68236 15.8126 4.56388 15.7712 4.46451 15.6989L4.1704 16.1033L4.46451 15.6989C4.36514 15.6267 4.28927 15.5267 4.24641 15.4115C4.20354 15.2964 4.19557 15.1711 4.2235 15.0515L4.22381 15.0501L5.17233 10.934L5.23956 10.6423L5.0141 10.4452L1.84231 7.67352L1.84231 7.67351L1.83985 7.67138C1.74665 7.591 1.67926 7.48489 1.64612 7.36636C1.61299 7.24783 1.61559 7.12216 1.65359 7.0051C1.6916 6.88804 1.76332 6.78481 1.85976 6.70834C1.9562 6.63188 2.07307 6.5856 2.19571 6.57529L2.19699 6.57518L6.37777 6.21307L6.67888 6.18699L6.79574 5.90826L8.42769 2.01576L8.42802 2.01498C8.47525 1.90179 8.55491 1.80511 8.65697 1.7371C8.75904 1.6691 8.87894 1.63281 9.00158 1.63281C9.12423 1.63281 9.24413 1.6691 9.34619 1.7371C9.44825 1.80511 9.52791 1.90179 9.57514 2.01498L9.57568 2.01626L11.2126 5.90876L11.3296 6.18702L11.6303 6.21307L15.8097 6.57518L15.811 6.57529C15.9336 6.5856 16.0505 6.63188 16.1469 6.70834C16.2434 6.78481 16.3151 6.88804 16.3531 7.0051C16.3911 7.12216 16.3937 7.24783 16.3606 7.36636C16.3326 7.46633 16.2803 7.55746 16.2087 7.63177Z" fill="#FFB81C" stroke="#DC8633"/>
<path d="M36.2087 7.63177L36.1611 7.6733L32.99 10.4408L32.7642 10.6378L32.8316 10.9298L33.7815 15.0502L33.7818 15.0515C33.8097 15.1711 33.8017 15.2964 33.7589 15.4115C33.716 15.5267 33.6401 15.6267 33.5408 15.6989C33.4414 15.7712 33.3229 15.8126 33.2001 15.8179C33.0776 15.8232 32.9562 15.7923 32.8511 15.7292C32.8509 15.729 32.8507 15.7289 32.8505 15.7288L29.2581 13.5498L28.9985 13.3924L28.7391 13.5501L25.1547 15.7288C25.1545 15.7289 25.1543 15.7291 25.154 15.7292C25.049 15.7924 24.9276 15.8232 24.8051 15.8179C24.6824 15.8126 24.5639 15.7712 24.4645 15.6989L24.1704 16.1033L24.4645 15.6989C24.3651 15.6267 24.2893 15.5267 24.2464 15.4115C24.2035 15.2964 24.1956 15.1711 24.2235 15.0515L24.2238 15.0501L25.1723 10.934L25.2396 10.6423L25.0141 10.4452L21.8423 7.67352L21.8423 7.67351L21.8399 7.67138C21.7467 7.591 21.6793 7.48489 21.6461 7.36636C21.613 7.24783 21.6156 7.12216 21.6536 7.0051C21.6916 6.88804 21.7633 6.78481 21.8598 6.70834C21.9562 6.63188 22.0731 6.5856 22.1957 6.57529L22.197 6.57518L26.3778 6.21307L26.6789 6.18699L26.7957 5.90826L28.4277 2.01576L28.428 2.01498C28.4753 1.90179 28.5549 1.80511 28.657 1.7371C28.759 1.6691 28.8789 1.63281 29.0016 1.63281C29.1242 1.63281 29.2441 1.6691 29.3462 1.7371C29.4483 1.80511 29.5279 1.90179 29.5751 2.01498L29.5757 2.01626L31.2126 5.90876L31.3296 6.18702L31.6303 6.21307L35.8097 6.57518L35.811 6.57529C35.9336 6.5856 36.0505 6.63188 36.1469 6.70834C36.2434 6.78481 36.3151 6.88804 36.3531 7.0051C36.3911 7.12216 36.3937 7.24783 36.3606 7.36636C36.3326 7.46633 36.2803 7.55746 36.2087 7.63177Z" fill="#FFB81C" stroke="#DC8633"/>
<path d="M56.2087 7.63177L56.1611 7.6733L52.99 10.4408L52.7642 10.6378L52.8316 10.9298L53.7815 15.0502L53.7818 15.0515C53.8097 15.1711 53.8017 15.2964 53.7589 15.4115C53.716 15.5267 53.6401 15.6267 53.5408 15.6989C53.4414 15.7712 53.3229 15.8126 53.2001 15.8179C53.0776 15.8232 52.9562 15.7923 52.8511 15.7292C52.8509 15.729 52.8507 15.7289 52.8505 15.7288L49.2581 13.5498L48.9985 13.3924L48.7391 13.5501L45.1547 15.7288C45.1545 15.7289 45.1543 15.7291 45.154 15.7292C45.049 15.7924 44.9276 15.8232 44.8051 15.8179C44.6824 15.8126 44.5639 15.7712 44.4645 15.6989L44.1704 16.1033L44.4645 15.6989C44.3651 15.6267 44.2893 15.5267 44.2464 15.4115C44.2035 15.2964 44.1956 15.1711 44.2235 15.0515L44.2238 15.0501L45.1723 10.934L45.2396 10.6423L45.0141 10.4452L41.8423 7.67352L41.8423 7.67351L41.8399 7.67138C41.7467 7.591 41.6793 7.48489 41.6461 7.36636C41.613 7.24783 41.6156 7.12216 41.6536 7.0051C41.6916 6.88804 41.7633 6.78481 41.8598 6.70834C41.9562 6.63188 42.0731 6.5856 42.1957 6.57529L42.197 6.57518L46.3778 6.21307L46.6789 6.18699L46.7957 5.90826L48.4277 2.01576L48.428 2.01498C48.4753 1.90179 48.5549 1.80511 48.657 1.7371C48.759 1.6691 48.8789 1.63281 49.0016 1.63281C49.1242 1.63281 49.2441 1.6691 49.3462 1.7371C49.4483 1.80511 49.5279 1.90179 49.5751 2.01498L49.5757 2.01626L51.2126 5.90876L51.3296 6.18702L51.6303 6.21307L55.8097 6.57518L55.811 6.57529C55.9336 6.5856 56.0505 6.63188 56.1469 6.70834C56.2434 6.78481 56.3151 6.88804 56.3531 7.0051C56.3911 7.12216 56.3937 7.24783 56.3606 7.36636C56.3326 7.46633 56.2803 7.55746 56.2087 7.63177Z" fill="#FFB81C" stroke="#DC8633"/>
<path d="M76.8215 6.84838C76.7534 6.63841 76.625 6.45313 76.4524 6.3156C76.2797 6.17807 76.0704 6.09438 75.8505 6.07494L71.6747 5.71494L70.0378 1.82244C69.9526 1.61819 69.8088 1.44373 69.6247 1.32101C69.4405 1.19829 69.2241 1.13281 69.0028 1.13281C68.7815 1.13281 68.5651 1.19829 68.3809 1.32101C68.1968 1.44373 68.053 1.61819 67.9678 1.82244L66.3358 5.71494L62.1551 6.07705C61.9343 6.0956 61.7239 6.17891 61.5503 6.31654C61.3768 6.45417 61.2477 6.63999 61.1792 6.8507C61.1108 7.06141 61.1062 7.28762 61.1658 7.50098C61.2255 7.71433 61.3468 7.90533 61.5145 8.05002L64.6863 10.8217L63.7357 14.9378C63.6854 15.1532 63.6998 15.3787 63.7769 15.586C63.8541 15.7932 63.9906 15.9732 64.1695 16.1033C64.3484 16.2334 64.5616 16.3079 64.7826 16.3174C65.0036 16.327 65.2225 16.2712 65.4119 16.157L68.9979 13.9774L72.5915 16.157C72.781 16.2712 72.9999 16.327 73.2209 16.3174C73.4418 16.3079 73.6551 16.2334 73.834 16.1033C74.0128 15.9732 74.1494 15.7932 74.2266 15.586C74.3037 15.3787 74.3181 15.1532 74.2678 14.9378L73.3179 10.8175L76.489 8.05002C76.6567 7.90483 76.7778 7.71329 76.8369 7.49948C76.8961 7.28568 76.8908 7.05915 76.8215 6.84838ZM75.7514 7.19994L72.5803 9.96744C72.426 10.1017 72.3111 10.2755 72.2482 10.4701C72.1853 10.6647 72.1766 10.8729 72.2231 11.072L73.1758 15.1952L69.585 13.0155C69.4098 12.9088 69.2086 12.8524 69.0035 12.8524C68.7984 12.8524 68.5972 12.9088 68.422 13.0155L64.8361 15.1952L65.7825 11.0749C65.829 10.8757 65.8203 10.6676 65.7574 10.4729C65.6944 10.2783 65.5796 10.1045 65.4253 9.97025L62.2528 7.20416C62.2525 7.20206 62.2525 7.19993 62.2528 7.19783L66.4322 6.83642C66.6362 6.81844 66.8315 6.74508 66.9969 6.62427C67.1623 6.50346 67.2916 6.33977 67.3708 6.15088L69.0028 2.2633L70.634 6.15088C70.7133 6.33977 70.8426 6.50346 71.008 6.62427C71.1734 6.74508 71.3687 6.81844 71.5727 6.83642L75.7528 7.19783C75.7528 7.19783 75.7528 7.20205 75.7528 7.20275L75.7514 7.19994Z" fill="#B2B2B3"/>
<path d="M96.8215 6.84838C96.7534 6.63841 96.625 6.45313 96.4524 6.3156C96.2797 6.17807 96.0704 6.09438 95.8505 6.07494L91.6747 5.71494L90.0378 1.82244C89.9526 1.61819 89.8088 1.44373 89.6247 1.32101C89.4405 1.19829 89.2241 1.13281 89.0028 1.13281C88.7815 1.13281 88.5651 1.19829 88.3809 1.32101C88.1968 1.44373 88.053 1.61819 87.9678 1.82244L86.3358 5.71494L82.1551 6.07705C81.9343 6.0956 81.7239 6.17891 81.5503 6.31654C81.3768 6.45417 81.2477 6.63999 81.1792 6.8507C81.1108 7.06141 81.1062 7.28762 81.1658 7.50098C81.2255 7.71433 81.3468 7.90533 81.5145 8.05002L84.6863 10.8217L83.7357 14.9378C83.6854 15.1532 83.6998 15.3787 83.7769 15.586C83.8541 15.7932 83.9906 15.9732 84.1695 16.1033C84.3484 16.2334 84.5616 16.3079 84.7826 16.3174C85.0036 16.327 85.2225 16.2712 85.4119 16.157L88.9979 13.9774L92.5915 16.157C92.781 16.2712 92.9999 16.327 93.2209 16.3174C93.4418 16.3079 93.6551 16.2334 93.834 16.1033C94.0128 15.9732 94.1494 15.7932 94.2266 15.586C94.3037 15.3787 94.3181 15.1532 94.2678 14.9378L93.3179 10.8175L96.489 8.05002C96.6567 7.90483 96.7778 7.71329 96.8369 7.49948C96.8961 7.28568 96.8908 7.05915 96.8215 6.84838ZM95.7514 7.19994L92.5803 9.96744C92.426 10.1017 92.3111 10.2755 92.2482 10.4701C92.1853 10.6647 92.1766 10.8729 92.2231 11.072L93.1758 15.1952L89.585 13.0155C89.4098 12.9088 89.2086 12.8524 89.0035 12.8524C88.7984 12.8524 88.5972 12.9088 88.422 13.0155L84.8361 15.1952L85.7825 11.0749C85.829 10.8757 85.8203 10.6676 85.7574 10.4729C85.6944 10.2783 85.5796 10.1045 85.4253 9.97025L82.2528 7.20416C82.2525 7.20206 82.2525 7.19993 82.2528 7.19783L86.4322 6.83642C86.6362 6.81844 86.8315 6.74508 86.9969 6.62427C87.1623 6.50346 87.2916 6.33977 87.3708 6.15088L89.0028 2.2633L90.634 6.15088C90.7133 6.33977 90.8426 6.50346 91.008 6.62427C91.1734 6.74508 91.3687 6.81844 91.5727 6.83642L95.7528 7.19783C95.7528 7.19783 95.7528 7.20205 95.7528 7.20275L95.7514 7.19994Z" fill="#B2B2B3"/>
<path d="M103.715 10.097C103.715 11.0957 103.841 12.0663 104.093 13.009C104.35 13.9517 104.723 14.8477 105.213 15.697C105.288 15.8417 105.306 15.9513 105.269 16.026C105.232 16.1053 105.178 16.1683 105.108 16.215L104.555 16.551C104.205 16.0143 103.906 15.4823 103.659 14.955C103.416 14.4277 103.218 13.898 103.064 13.366C102.915 12.834 102.805 12.2997 102.735 11.763C102.665 11.2217 102.63 10.6663 102.63 10.097C102.63 9.53233 102.665 8.97933 102.735 8.438C102.805 7.89667 102.915 7.36233 103.064 6.835C103.218 6.303 103.416 5.77333 103.659 5.246C103.906 4.71867 104.205 4.18433 104.555 3.643L105.108 3.986C105.178 4.03267 105.232 4.09567 105.269 4.175C105.306 4.24967 105.288 4.357 105.213 4.497C104.723 5.34633 104.35 6.24233 104.093 7.185C103.841 8.12767 103.715 9.09833 103.715 10.097ZM112.641 13.317C112.777 13.317 112.884 13.3567 112.963 13.436C113.043 13.5153 113.082 13.618 113.082 13.744V14.5H106.39V14.073C106.39 13.9843 106.409 13.8933 106.446 13.8C106.484 13.7067 106.542 13.6203 106.621 13.541L109.834 10.314C110.1 10.0433 110.343 9.78433 110.562 9.537C110.782 9.285 110.968 9.033 111.122 8.781C111.276 8.529 111.395 8.27467 111.479 8.018C111.563 7.75667 111.605 7.479 111.605 7.185C111.605 6.891 111.559 6.63433 111.465 6.415C111.372 6.191 111.244 6.00667 111.08 5.862C110.922 5.71733 110.733 5.61 110.513 5.54C110.294 5.46533 110.058 5.428 109.806 5.428C109.55 5.428 109.314 5.46533 109.099 5.54C108.885 5.61467 108.693 5.71967 108.525 5.855C108.362 5.98567 108.224 6.142 108.112 6.324C108 6.506 107.921 6.70667 107.874 6.926C107.818 7.08933 107.741 7.199 107.643 7.255C107.55 7.30633 107.417 7.32033 107.244 7.297L106.593 7.185C106.659 6.72767 106.785 6.324 106.971 5.974C107.163 5.61933 107.401 5.323 107.685 5.085C107.975 4.847 108.304 4.66733 108.672 4.546C109.041 4.42 109.44 4.357 109.869 4.357C110.294 4.357 110.691 4.42 111.059 4.546C111.428 4.672 111.748 4.85633 112.018 5.099C112.289 5.337 112.501 5.62867 112.655 5.974C112.809 6.31933 112.886 6.71133 112.886 7.15C112.886 7.52333 112.83 7.871 112.718 8.193C112.606 8.51033 112.455 8.81367 112.263 9.103C112.072 9.39233 111.85 9.67467 111.598 9.95C111.351 10.2253 111.087 10.503 110.807 10.783L108.161 13.485C108.348 13.4337 108.537 13.394 108.728 13.366C108.92 13.3333 109.104 13.317 109.281 13.317H112.641ZM117.914 13.618C118.24 13.618 118.532 13.5737 118.789 13.485C119.05 13.3917 119.269 13.2633 119.447 13.1C119.629 12.932 119.766 12.7337 119.86 12.505C119.958 12.2717 120.007 12.015 120.007 11.735C120.007 11.3897 119.948 11.0957 119.832 10.853C119.72 10.6057 119.566 10.405 119.37 10.251C119.178 10.097 118.957 9.985 118.705 9.915C118.453 9.84033 118.189 9.803 117.914 9.803C117.638 9.803 117.375 9.84033 117.123 9.915C116.871 9.985 116.647 10.097 116.451 10.251C116.259 10.405 116.105 10.6057 115.989 10.853C115.877 11.0957 115.821 11.3897 115.821 11.735C115.821 12.015 115.867 12.2717 115.961 12.505C116.059 12.7337 116.196 12.932 116.374 13.1C116.556 13.2633 116.775 13.3917 117.032 13.485C117.293 13.5737 117.587 13.618 117.914 13.618ZM117.914 5.323C117.615 5.323 117.351 5.36733 117.123 5.456C116.899 5.54467 116.71 5.666 116.556 5.82C116.406 5.974 116.292 6.15367 116.213 6.359C116.138 6.56433 116.101 6.78367 116.101 7.017C116.101 7.24567 116.133 7.46733 116.199 7.682C116.264 7.89667 116.369 8.088 116.514 8.256C116.658 8.41933 116.845 8.55233 117.074 8.655C117.307 8.753 117.587 8.802 117.914 8.802C118.24 8.802 118.518 8.753 118.747 8.655C118.98 8.55233 119.169 8.41933 119.314 8.256C119.458 8.088 119.563 7.89667 119.629 7.682C119.694 7.46733 119.727 7.24567 119.727 7.017C119.727 6.78367 119.687 6.56433 119.608 6.359C119.533 6.15367 119.419 5.974 119.265 5.82C119.115 5.666 118.926 5.54467 118.698 5.456C118.474 5.36733 118.212 5.323 117.914 5.323ZM119.349 9.271C119.974 9.44833 120.455 9.74467 120.791 10.16C121.127 10.5753 121.295 11.1073 121.295 11.756C121.295 12.1947 121.211 12.5913 121.043 12.946C120.879 13.296 120.648 13.5947 120.35 13.842C120.056 14.0893 119.701 14.2807 119.286 14.416C118.87 14.5467 118.413 14.612 117.914 14.612C117.414 14.612 116.957 14.5467 116.542 14.416C116.126 14.2807 115.769 14.0893 115.471 13.842C115.172 13.5947 114.941 13.296 114.778 12.946C114.614 12.5913 114.533 12.1947 114.533 11.756C114.533 11.1073 114.701 10.5753 115.037 10.16C115.373 9.74467 115.853 9.44833 116.479 9.271C115.951 9.075 115.552 8.78333 115.282 8.396C115.016 8.004 114.883 7.53733 114.883 6.996C114.883 6.62733 114.955 6.282 115.1 5.96C115.244 5.638 115.45 5.358 115.716 5.12C115.982 4.882 116.299 4.69533 116.668 4.56C117.041 4.42467 117.456 4.357 117.914 4.357C118.366 4.357 118.779 4.42467 119.153 4.56C119.526 4.69533 119.846 4.882 120.112 5.12C120.378 5.358 120.583 5.638 120.728 5.96C120.872 6.282 120.945 6.62733 120.945 6.996C120.945 7.53733 120.809 8.004 120.539 8.396C120.273 8.78333 119.876 9.075 119.349 9.271ZM123.998 10.097C123.998 9.09833 123.869 8.12767 123.613 7.185C123.361 6.24233 122.99 5.34633 122.5 4.497C122.462 4.427 122.439 4.36633 122.43 4.315C122.42 4.259 122.423 4.21233 122.437 4.175C122.451 4.133 122.472 4.098 122.5 4.07C122.532 4.03733 122.567 4.00933 122.605 3.986L123.158 3.643C123.508 4.18433 123.804 4.71867 124.047 5.246C124.294 5.77333 124.492 6.303 124.642 6.835C124.796 7.36233 124.908 7.89667 124.978 8.438C125.048 8.97933 125.083 9.53233 125.083 10.097C125.083 10.6663 125.048 11.2217 124.978 11.763C124.908 12.2997 124.796 12.834 124.642 13.366C124.492 13.898 124.294 14.4277 124.047 14.955C123.804 15.4823 123.508 16.0143 123.158 16.551L122.605 16.215C122.567 16.1917 122.532 16.1637 122.5 16.131C122.472 16.103 122.451 16.068 122.437 16.026C122.423 15.9887 122.42 15.942 122.43 15.886C122.439 15.83 122.462 15.767 122.5 15.697C122.99 14.8477 123.361 13.9517 123.613 13.009C123.869 12.0663 123.998 11.0957 123.998 10.097Z" fill="#6D6D6D"/>
</svg>
