<svg width="14" height="14" viewBox="0 0 14 14" fill="none" xmlns="http://www.w3.org/2000/svg">
<path d="M13.7691 12.6696L10.6948 9.59401C11.6165 8.39281 12.0469 6.88596 11.8985 5.37913C11.7502 3.8723 11.0342 2.47832 9.89582 1.47997C8.75747 0.481627 7.28198 -0.0463329 5.76867 0.00319419C4.25536 0.0527212 2.81756 0.676026 1.74691 1.74667C0.676271 2.81731 0.0529654 4.25512 0.00343833 5.76843C-0.0460887 7.28173 0.481871 8.75722 1.48022 9.89558C2.47857 11.0339 3.87254 11.7499 5.37937 11.8983C6.8862 12.0467 8.39305 11.6163 9.59425 10.6945L12.6712 13.7721C12.7434 13.8443 12.8292 13.9017 12.9236 13.9408C13.018 13.9799 13.1192 14 13.2214 14C13.3236 14 13.4248 13.9799 13.5192 13.9408C13.6136 13.9017 13.6994 13.8443 13.7717 13.7721C13.8439 13.6998 13.9013 13.614 13.9404 13.5196C13.9795 13.4252 13.9996 13.324 13.9996 13.2218C13.9996 13.1196 13.9795 13.0184 13.9404 12.924C13.9013 12.8296 13.8439 12.7438 13.7717 12.6716L13.7691 12.6696ZM1.56697 5.96878C1.56697 5.09814 1.82515 4.24705 2.30885 3.52313C2.79256 2.79922 3.48006 2.235 4.28443 1.90181C5.0888 1.56863 5.97391 1.48146 6.82783 1.65131C7.68174 1.82117 8.46611 2.24042 9.08175 2.85606C9.69739 3.4717 10.1166 4.25607 10.2865 5.10999C10.4564 5.9639 10.3692 6.84901 10.036 7.65338C9.70282 8.45775 9.13859 9.14526 8.41468 9.62896C7.69076 10.1127 6.83967 10.3708 5.96903 10.3708C4.8019 10.3696 3.68291 9.90547 2.85763 9.08018C2.03234 8.2549 1.56817 7.13591 1.56697 5.96878Z" fill="#6D6D6D"/>
</svg>
