<svg width="24" height="24" viewBox="0 0 24 24" fill="none" xmlns="http://www.w3.org/2000/svg">
<path d="M18.7688 17.6696L15.6945 14.594C16.6163 13.3928 17.0467 11.886 16.8983 10.3791C16.7499 8.8723 16.0339 7.47832 14.8956 6.47997C13.7572 5.48163 12.2817 4.95367 10.7684 5.00319C9.25512 5.05272 7.81731 5.67603 6.74667 6.74667C5.67603 7.81731 5.05272 9.25512 5.00319 10.7684C4.95367 12.2817 5.48163 13.7572 6.47997 14.8956C7.47832 16.0339 8.8723 16.7499 10.3791 16.8983C11.886 17.0467 13.3928 16.6163 14.594 15.6945L17.6709 18.7721C17.7432 18.8443 17.829 18.9017 17.9234 18.9408C18.0178 18.9799 18.119 19 18.2212 19C18.3234 19 18.4246 18.9799 18.519 18.9408C18.6134 18.9017 18.6992 18.8443 18.7714 18.7721C18.8437 18.6998 18.901 18.614 18.9401 18.5196C18.9792 18.4252 18.9994 18.324 18.9994 18.2218C18.9994 18.1196 18.9792 18.0184 18.9401 17.924C18.901 17.8296 18.8437 17.7438 18.7714 17.6716L18.7688 17.6696ZM6.56673 10.9688C6.56673 10.0981 6.8249 9.24705 7.30861 8.52313C7.79231 7.79922 8.47982 7.235 9.28419 6.90181C10.0886 6.56863 10.9737 6.48146 11.8276 6.65131C12.6815 6.82117 13.4659 7.24042 14.0815 7.85606C14.6971 8.4717 15.1164 9.25607 15.2863 10.11C15.4561 10.9639 15.3689 11.849 15.0358 12.6534C14.7026 13.4577 14.1383 14.1453 13.4144 14.629C12.6905 15.1127 11.8394 15.3708 10.9688 15.3708C9.80165 15.3696 8.68267 14.9055 7.85739 14.0802C7.0321 13.2549 6.56793 12.1359 6.56673 10.9688Z" fill="white"/>
</svg>
