<svg width="24" height="24" viewBox="0 0 24 24" fill="none" xmlns="http://www.w3.org/2000/svg">
<g id="Settings" clip-path="url(#clip0_3_64)">
<path id="Vector" d="M19.5002 11.9922C19.5002 11.7622 19.4902 11.5422 19.4702 11.3122L21.3302 9.90219C21.7302 9.60219 21.8402 9.04219 21.5902 8.60219L19.7202 5.37219C19.4702 4.93219 18.9302 4.75219 18.4702 4.95219L16.3202 5.86219C15.9502 5.60219 15.5602 5.37219 15.1502 5.18219L14.8602 2.87219C14.8002 2.37219 14.3702 1.99219 13.8702 1.99219H10.1402C9.63015 1.99219 9.20015 2.37219 9.14015 2.87219L8.85015 5.18219C8.44015 5.37219 8.05015 5.60219 7.68015 5.86219L5.53015 4.95219C5.07015 4.75219 4.53015 4.93219 4.28015 5.37219L2.41015 8.61219C2.16015 9.05219 2.27015 9.60219 2.67015 9.91219L4.53015 11.3222C4.51015 11.5422 4.50015 11.7622 4.50015 11.9922C4.50015 12.2222 4.51015 12.4422 4.53015 12.6722L2.67015 14.0822C2.27015 14.3822 2.16015 14.9422 2.41015 15.3822L4.28015 18.6122C4.53015 19.0522 5.07015 19.2322 5.53015 19.0322L7.68015 18.1222C8.05015 18.3822 8.44015 18.6122 8.85015 18.8022L9.14015 21.1122C9.20015 21.6122 9.63015 21.9922 10.1302 21.9922H13.8602C14.3602 21.9922 14.7902 21.6122 14.8502 21.1122L15.1402 18.8022C15.5502 18.6122 15.9402 18.3822 16.3102 18.1222L18.4602 19.0322C18.9202 19.2322 19.4602 19.0522 19.7102 18.6122L21.5802 15.3822C21.8302 14.9422 21.7202 14.3922 21.3202 14.0822L19.4602 12.6722C19.4902 12.4422 19.5002 12.2222 19.5002 11.9922ZM12.0402 15.4922C10.1102 15.4922 8.54015 13.9222 8.54015 11.9922C8.54015 10.0622 10.1102 8.49219 12.0402 8.49219C13.9702 8.49219 15.5402 10.0622 15.5402 11.9922C15.5402 13.9222 13.9702 15.4922 12.0402 15.4922Z" fill="white"/>
</g>
<defs>
<clipPath id="clip0_3_64">
<rect width="24" height="24" fill="white"/>
</clipPath>
</defs>
</svg>
