<svg width="24" height="23" viewBox="0 0 24 23" fill="none" xmlns="http://www.w3.org/2000/svg">
<path d="M16.6885 10.3385C16.6885 11.2756 16.4106 12.1918 15.8899 12.971C15.3692 13.7502 14.6292 14.3576 13.7633 14.7162C12.8975 15.0749 11.9447 15.1687 11.0256 14.9859C10.1064 14.803 9.26209 14.3517 8.5994 13.6891C7.93672 13.0264 7.48542 12.1821 7.30259 11.2629C7.11976 10.3437 7.21359 9.39097 7.57224 8.52513C7.93088 7.65929 8.53822 6.91924 9.31745 6.39857C10.0967 5.8779 11.0128 5.6 11.95 5.6C13.2063 5.60142 14.4107 6.10111 15.299 6.98944C16.1874 7.87776 16.687 9.08218 16.6885 10.3385ZM23.15 11.2C23.15 13.4151 22.4931 15.5806 21.2625 17.4224C20.0318 19.2642 18.2826 20.6997 16.2361 21.5474C14.1895 22.3951 11.9376 22.6169 9.76499 22.1848C7.5924 21.7526 5.59676 20.6859 4.03041 19.1196C2.46406 17.5532 1.39736 15.5576 0.96521 13.385C0.533055 11.2124 0.754853 8.96047 1.60255 6.91394C2.45026 4.86741 3.88579 3.11821 5.72762 1.88754C7.56945 0.656868 9.73485 0 11.95 0C14.9195 0.0031358 17.7664 1.18414 19.8661 3.28387C21.9659 5.38359 23.1469 8.23054 23.15 11.2ZM21.4269 11.2C21.4255 9.92442 21.1669 8.66222 20.6666 7.48888C20.1662 6.31554 19.4343 5.25516 18.5147 4.37116C17.5951 3.48716 16.5067 2.79769 15.3145 2.34399C14.1224 1.89029 12.851 1.68167 11.5763 1.73061C6.504 1.92661 2.45908 6.15138 2.47308 11.2269C2.47794 13.5375 3.33012 15.766 4.86816 17.4903C5.49452 16.5818 6.29017 15.8026 7.21154 15.1954C7.2901 15.1435 7.38349 15.1188 7.47742 15.125C7.57136 15.1312 7.66067 15.168 7.7317 15.2298C8.9025 16.2425 10.3988 16.7998 11.9468 16.7998C13.4948 16.7998 14.991 16.2425 16.1618 15.2298C16.2329 15.168 16.3222 15.1312 16.4161 15.125C16.5101 15.1188 16.6034 15.1435 16.682 15.1954C17.6045 15.8023 18.4013 16.5815 19.0286 17.4903C20.5743 15.7597 21.4281 13.5203 21.4269 11.2Z" fill="#343435"/>
</svg>
