<svg width="14" height="14" viewBox="0 0 14 14" fill="none" xmlns="http://www.w3.org/2000/svg">
<path id="Vector" d="M9.96154 6.46154C9.96154 7.04727 9.78785 7.61986 9.46243 8.10688C9.13701 8.5939 8.67448 8.97349 8.13333 9.19764C7.59218 9.42179 6.99672 9.48044 6.42223 9.36617C5.84775 9.2519 5.32006 8.96984 4.90588 8.55566C4.4917 8.14148 4.20964 7.61379 4.09537 7.0393C3.9811 6.46482 4.03975 5.86936 4.2639 5.32821C4.48805 4.78706 4.86764 4.32453 5.35466 3.99911C5.84168 3.67369 6.41426 3.5 7 3.5C7.78518 3.50089 8.53794 3.81319 9.09314 4.3684C9.64834 4.9236 9.96065 5.67636 9.96154 6.46154ZM14 7C14 8.38447 13.5895 9.73785 12.8203 10.889C12.0511 12.0401 10.9579 12.9373 9.67879 13.4672C8.3997 13.997 6.99224 14.1356 5.63437 13.8655C4.2765 13.5954 3.02922 12.9287 2.05026 11.9497C1.07129 10.9708 0.404603 9.7235 0.134506 8.36563C-0.13559 7.00776 0.00303299 5.6003 0.532846 4.32122C1.06266 3.04213 1.95987 1.94888 3.11101 1.17971C4.26215 0.410543 5.61553 0 7 0C8.85592 0.00195988 10.6353 0.740087 11.9476 2.05242C13.2599 3.36475 13.998 5.14409 14 7ZM12.9231 7C12.9222 6.20276 12.7606 5.41389 12.4478 4.68055C12.1351 3.94721 11.6777 3.28448 11.1029 2.73197C10.5282 2.17947 9.84794 1.74856 9.10284 1.46499C8.35773 1.18143 7.56309 1.05104 6.76644 1.08163C3.59625 1.20413 1.06818 3.84461 1.07693 7.01683C1.07997 8.46093 1.61258 9.85376 2.57385 10.9314C2.96533 10.3636 3.46261 9.87664 4.03846 9.49711C4.08756 9.46469 4.14593 9.44924 4.20464 9.45313C4.26335 9.45702 4.31917 9.48003 4.36356 9.51865C5.09531 10.1516 6.03048 10.4999 6.99798 10.4999C7.96549 10.4999 8.90065 10.1516 9.63241 9.51865C9.6768 9.48003 9.73261 9.45702 9.79133 9.45313C9.85004 9.44924 9.9084 9.46469 9.9575 9.49711C10.5341 9.87644 11.0321 10.3634 11.4241 10.9314C12.3902 9.84983 12.9238 8.4502 12.9231 7Z" fill="#343435"/>
</svg>
