<svg width="14" height="14" viewBox="0 0 14 14" fill="none" xmlns="http://www.w3.org/2000/svg">
<path d="M13.7688 12.6696L10.6945 9.59401C11.6163 8.39281 12.0467 6.88596 11.8983 5.37913C11.7499 3.8723 11.0339 2.47832 9.89558 1.47997C8.75722 0.481627 7.28173 -0.0463329 5.76843 0.00319419C4.25512 0.0527212 2.81731 0.676026 1.74667 1.74667C0.676026 2.81731 0.0527212 4.25512 0.00319419 5.76843C-0.0463329 7.28173 0.481627 8.75722 1.47997 9.89558C2.47832 11.0339 3.8723 11.7499 5.37913 11.8983C6.88596 12.0467 8.39281 11.6163 9.59401 10.6945L12.6709 13.7721C12.7432 13.8443 12.829 13.9017 12.9234 13.9408C13.0178 13.9799 13.119 14 13.2212 14C13.3234 14 13.4246 13.9799 13.519 13.9408C13.6134 13.9017 13.6992 13.8443 13.7714 13.7721C13.8437 13.6998 13.901 13.614 13.9401 13.5196C13.9792 13.4252 13.9994 13.324 13.9994 13.2218C13.9994 13.1196 13.9792 13.0184 13.9401 12.924C13.901 12.8296 13.8437 12.7438 13.7714 12.6716L13.7688 12.6696ZM1.56673 5.96878C1.56673 5.09814 1.8249 4.24705 2.30861 3.52313C2.79231 2.79922 3.47982 2.235 4.28419 1.90181C5.08856 1.56863 5.97367 1.48146 6.82758 1.65131C7.6815 1.82117 8.46587 2.24042 9.08151 2.85606C9.69715 3.4717 10.1164 4.25607 10.2863 5.10999C10.4561 5.9639 10.3689 6.84901 10.0358 7.65338C9.70257 8.45775 9.13835 9.14526 8.41444 9.62896C7.69052 10.1127 6.83943 10.3708 5.96878 10.3708C4.80165 10.3696 3.68267 9.90547 2.85739 9.08018C2.0321 8.2549 1.56793 7.13591 1.56673 5.96878Z" fill="white"/>
</svg>
