<svg width="24" height="25" viewBox="0 0 24 25" fill="none" xmlns="http://www.w3.org/2000/svg">
<g id="X">
<path id="Vector" d="M19.2806 18.4302C19.3503 18.4999 19.4056 18.5826 19.4433 18.6737C19.481 18.7647 19.5004 18.8623 19.5004 18.9609C19.5004 19.0594 19.481 19.157 19.4433 19.248C19.4056 19.3391 19.3503 19.4218 19.2806 19.4915C19.2109 19.5612 19.1282 19.6164 19.0372 19.6542C18.9461 19.6919 18.8485 19.7113 18.75 19.7113C18.6514 19.7113 18.5539 19.6919 18.4628 19.6542C18.3718 19.6164 18.289 19.5612 18.2194 19.4915L12 13.2712L5.78061 19.4915C5.63988 19.6322 5.44901 19.7113 5.24999 19.7113C5.05097 19.7113 4.8601 19.6322 4.71936 19.4915C4.57863 19.3508 4.49957 19.1599 4.49957 18.9609C4.49957 18.7618 4.57863 18.571 4.71936 18.4302L10.9397 12.2109L4.71936 5.99149C4.57863 5.85076 4.49957 5.65989 4.49957 5.46087C4.49957 5.26184 4.57863 5.07097 4.71936 4.93024C4.8601 4.78951 5.05097 4.71045 5.24999 4.71045C5.44901 4.71045 5.63988 4.78951 5.78061 4.93024L12 11.1506L18.2194 4.93024C18.3601 4.78951 18.551 4.71045 18.75 4.71045C18.949 4.71045 19.1399 4.78951 19.2806 4.93024C19.4213 5.07097 19.5004 5.26184 19.5004 5.46087C19.5004 5.65989 19.4213 5.85076 19.2806 5.99149L13.0603 12.2109L19.2806 18.4302Z" fill="#343435"/>
</g>
</svg>
