<svg width="25" height="24" viewBox="0 0 25 24" fill="none" xmlns="http://www.w3.org/2000/svg">
<g id="Icons">
<path id="Vector" d="M19.0188 17.6696L15.9445 14.594C16.8663 13.3928 17.2967 11.886 17.1483 10.3791C16.9999 8.8723 16.2839 7.47832 15.1456 6.47997C14.0072 5.48163 12.5317 4.95367 11.0184 5.00319C9.50512 5.05272 8.06731 5.67603 6.99667 6.74667C5.92603 7.81731 5.30272 9.25512 5.25319 10.7684C5.20367 12.2817 5.73163 13.7572 6.72997 14.8956C7.72832 16.0339 9.1223 16.7499 10.6291 16.8983C12.136 17.0467 13.6428 16.6163 14.844 15.6945L17.9209 18.7721C17.9932 18.8443 18.079 18.9017 18.1734 18.9408C18.2678 18.9799 18.369 19 18.4712 19C18.5734 19 18.6746 18.9799 18.769 18.9408C18.8634 18.9017 18.9492 18.8443 19.0214 18.7721C19.0937 18.6998 19.151 18.614 19.1901 18.5196C19.2292 18.4252 19.2494 18.324 19.2494 18.2218C19.2494 18.1196 19.2292 18.0184 19.1901 17.924C19.151 17.8296 19.0937 17.7438 19.0214 17.6716L19.0188 17.6696ZM6.81673 10.9688C6.81673 10.0981 7.0749 9.24705 7.55861 8.52313C8.04231 7.79922 8.72982 7.235 9.53419 6.90181C10.3386 6.56863 11.2237 6.48146 12.0776 6.65131C12.9315 6.82117 13.7159 7.24042 14.3315 7.85606C14.9471 8.4717 15.3664 9.25607 15.5363 10.11C15.7061 10.9639 15.6189 11.849 15.2858 12.6534C14.9526 13.4577 14.3883 14.1453 13.6644 14.629C12.9405 15.1127 12.0894 15.3708 11.2188 15.3708C10.0517 15.3696 8.93267 14.9055 8.10739 14.0802C7.2821 13.2549 6.81793 12.1359 6.81673 10.9688Z" fill="#6D6D6D"/>
</g>
</svg>
