<svg width="33" height="33" viewBox="0 0 33 33" fill="none" xmlns="http://www.w3.org/2000/svg">
<g id="Star">
<path id="Vector" d="M30.1563 12.7982C30.0352 12.4249 29.8069 12.0955 29.5 11.8511C29.193 11.6066 28.8209 11.4578 28.43 11.4232L21.0063 10.7832L18.0963 3.86321C17.9448 3.5001 17.6892 3.18994 17.3618 2.97178C17.0344 2.75362 16.6497 2.63721 16.2563 2.63721C15.8628 2.63721 15.4782 2.75362 15.1508 2.97178C14.8233 3.18994 14.5678 3.5001 14.4163 3.86321L11.515 10.7832L4.08253 11.427C3.69007 11.4599 3.31609 11.6081 3.00748 11.8527C2.69886 12.0974 2.46936 12.4278 2.34774 12.8023C2.22613 13.1769 2.21781 13.5791 2.32385 13.9584C2.42988 14.3377 2.64554 14.6772 2.94378 14.9345L8.58253 19.862L6.89253 27.1795C6.80316 27.5624 6.82866 27.9632 6.96584 28.3317C7.10301 28.7002 7.34577 29.0201 7.66377 29.2514C7.98177 29.4827 8.36089 29.6151 8.75374 29.6321C9.14659 29.6491 9.53574 29.5499 9.87253 29.347L16.2475 25.472L22.6363 29.347C22.9731 29.5499 23.3622 29.6491 23.7551 29.6321C24.1479 29.6151 24.527 29.4827 24.845 29.2514C25.163 29.0201 25.4058 28.7002 25.543 28.3317C25.6801 27.9632 25.7056 27.5624 25.6163 27.1795L23.9275 19.8545L29.565 14.9345C29.8632 14.6763 30.0785 14.3358 30.1837 13.9557C30.2889 13.5756 30.2793 13.1729 30.1563 12.7982ZM28.2538 13.4232L22.6163 18.3432C22.3419 18.5819 22.1378 18.8908 22.0259 19.2368C21.914 19.5829 21.8986 19.9528 21.9813 20.307L23.675 27.637L17.2913 23.762C16.9798 23.5723 16.6222 23.472 16.2575 23.472C15.8929 23.472 15.5352 23.5723 15.2238 23.762L8.84878 27.637L10.5313 20.312C10.614 19.9578 10.5985 19.5879 10.4866 19.2418C10.3748 18.8958 10.1707 18.5869 9.89628 18.3482L4.25628 13.4307C4.25582 13.427 4.25582 13.4232 4.25628 13.4195L11.6863 12.777C12.049 12.745 12.3962 12.6146 12.6902 12.3998C12.9843 12.185 13.2142 11.894 13.355 11.5582L16.2563 4.64696L19.1563 11.5582C19.2971 11.894 19.527 12.185 19.8211 12.3998C20.1151 12.6146 20.4623 12.745 20.825 12.777L28.2563 13.4195C28.2563 13.4195 28.2563 13.427 28.2563 13.4282L28.2538 13.4232Z" fill="#B2B2B3"/>
</g>
</svg>
