<svg width="33" height="33" viewBox="0 0 33 33" fill="none" xmlns="http://www.w3.org/2000/svg">
<g id="Star">
<path id="Vector" d="M29.2867 14.4251L29.1923 14.5075L23.5548 19.4275L23.2989 19.6508L23.3752 19.9818L25.0639 27.3068L25.0643 27.3082C25.1283 27.5827 25.1101 27.8699 25.0118 28.134C24.9134 28.3981 24.7395 28.6274 24.5116 28.7931C24.2837 28.9589 24.012 29.0538 23.7304 29.066C23.4491 29.0781 23.1705 29.0072 22.9293 28.862C22.9291 28.8619 22.9289 28.8617 22.9286 28.8616L16.5412 24.9874L16.2471 24.809L15.953 24.9877L9.57988 28.8616C9.57958 28.8618 9.57927 28.862 9.57897 28.8622C9.33781 29.0073 9.05927 29.0781 8.77808 29.066C8.49654 29.0538 8.22483 28.9589 7.99694 28.7931C7.76904 28.6274 7.59506 28.3981 7.49675 28.134C7.39844 27.8699 7.38017 27.5827 7.44421 27.3082L7.44457 27.3067L9.13082 19.9892L9.20702 19.6585L8.9515 19.4353L3.31275 14.5078L3.31276 14.5077L3.30997 14.5053C3.09623 14.321 2.94167 14.0777 2.86568 13.8058C2.78969 13.534 2.79565 13.2458 2.88281 12.9773C2.96997 12.7089 3.13445 12.4721 3.35562 12.2968C3.57679 12.1214 3.84481 12.0153 4.12607 11.9916L4.12752 11.9915L11.56 11.3478L11.9013 11.3182L12.0337 11.0023L14.935 4.08231L14.9353 4.08142C15.0438 3.82152 15.2267 3.59951 15.4611 3.44335C15.6954 3.2872 15.9708 3.20387 16.2524 3.20387C16.534 3.20387 16.8093 3.2872 17.0437 3.44335C17.278 3.59951 17.461 3.82152 17.5694 4.08142L17.57 4.08287L20.48 11.0029L20.6126 11.3182L20.9535 11.3478L28.3835 11.9915L28.3849 11.9916C28.6662 12.0153 28.9342 12.1214 29.1554 12.2968C29.3766 12.4721 29.541 12.7089 29.6282 12.9773C29.7154 13.2458 29.7213 13.534 29.6453 13.8058C29.5799 14.0399 29.4562 14.2528 29.2867 14.4251Z" fill="#FFB81C" stroke="#DC8633" stroke-width="1.13333"/>
</g>
</svg>
