<svg width="74" height="56" viewBox="0 0 74 56" fill="none" xmlns="http://www.w3.org/2000/svg">
<path d="M37.3164 5.25C35.388 5.25 33.503 5.82183 31.8996 6.89317C30.2962 7.96451 29.0465 9.48726 28.3086 11.2688C27.5706 13.0504 27.3775 15.0108 27.7538 16.9021C28.13 18.7934 29.0586 20.5307 30.4221 21.8943C31.7857 23.2579 33.523 24.1865 35.4143 24.5627C37.3056 24.9389 39.266 24.7458 41.0476 24.0078C42.8292 23.2699 44.3519 22.0202 45.4232 20.4168C46.4946 18.8134 47.0664 16.9284 47.0664 15C47.0637 12.415 46.0356 9.93661 44.2077 8.10872C42.3798 6.28084 39.9014 5.25273 37.3164 5.25ZM41.597 13.2806L36.347 18.5306C36.2774 18.6004 36.1947 18.6557 36.1036 18.6934C36.0126 18.7312 35.915 18.7506 35.8164 18.7506C35.7178 18.7506 35.6203 18.7312 35.5292 18.6934C35.4382 18.6557 35.3554 18.6004 35.2858 18.5306L33.0358 16.2806C32.8951 16.1399 32.816 15.949 32.816 15.75C32.816 15.551 32.8951 15.3601 33.0358 15.2194C33.1765 15.0786 33.3674 14.9996 33.5664 14.9996C33.7654 14.9996 33.9563 15.0786 34.097 15.2194L35.8164 16.9397L40.5358 12.2194C40.6055 12.1497 40.6882 12.0944 40.7792 12.0567C40.8703 12.019 40.9679 11.9996 41.0664 11.9996C41.165 11.9996 41.2625 12.019 41.3536 12.0567C41.4446 12.0944 41.5274 12.1497 41.597 12.2194C41.6667 12.2891 41.722 12.3718 41.7597 12.4628C41.7974 12.5539 41.8168 12.6515 41.8168 12.75C41.8168 12.8485 41.7974 12.9461 41.7597 13.0372C41.722 13.1282 41.6667 13.2109 41.597 13.2806Z" fill="#2DC26B"/>
<path d="M7.6293 46.178L6.3973 42.811C6.33663 42.6617 6.27363 42.4843 6.2083 42.279C6.14296 42.0737 6.07763 41.852 6.0123 41.614C5.95163 41.852 5.88863 42.076 5.8233 42.286C5.75796 42.4913 5.69496 42.671 5.6343 42.825L4.4093 46.178H7.6293ZM10.9543 50H9.4983C9.33496 50 9.20196 49.9603 9.0993 49.881C8.99663 49.797 8.91963 49.6943 8.8683 49.573L8.1123 47.508H3.9193L3.1633 49.573C3.12596 49.6803 3.05363 49.7783 2.9463 49.867C2.83896 49.9557 2.70596 50 2.5473 50H1.0773L5.0603 39.878H6.9783L10.9543 50ZM16.0866 44.652C15.8906 44.414 15.6759 44.246 15.4426 44.148C15.2139 44.05 14.9666 44.001 14.7006 44.001C14.4393 44.001 14.2036 44.05 13.9936 44.148C13.7836 44.246 13.6039 44.3953 13.4546 44.596C13.3053 44.792 13.1909 45.044 13.1116 45.352C13.0323 45.6553 12.9926 46.0147 12.9926 46.43C12.9926 46.85 13.0253 47.207 13.0906 47.501C13.1606 47.7903 13.2586 48.0283 13.3846 48.215C13.5106 48.397 13.6646 48.53 13.8466 48.614C14.0286 48.6933 14.2316 48.733 14.4556 48.733C14.8149 48.733 15.1206 48.6583 15.3726 48.509C15.6246 48.3597 15.8626 48.1473 16.0866 47.872V44.652ZM17.8156 39.598V50H16.7586C16.5299 50 16.3853 49.895 16.3246 49.685L16.1776 48.992C15.8883 49.3233 15.5546 49.5917 15.1766 49.797C14.8033 50.0023 14.3669 50.105 13.8676 50.105C13.4756 50.105 13.1163 50.0233 12.7896 49.86C12.4629 49.6967 12.1806 49.461 11.9426 49.153C11.7093 48.8403 11.5273 48.4553 11.3966 47.998C11.2706 47.5407 11.2076 47.018 11.2076 46.43C11.2076 45.898 11.2799 45.4033 11.4246 44.946C11.5693 44.4887 11.7769 44.092 12.0476 43.756C12.3183 43.42 12.6426 43.1587 13.0206 42.972C13.3986 42.7807 13.8233 42.685 14.2946 42.685C14.6959 42.685 15.0389 42.748 15.3236 42.874C15.6083 43 15.8626 43.1703 16.0866 43.385V39.598H17.8156ZM24.03 44.652C23.834 44.414 23.6193 44.246 23.386 44.148C23.1573 44.05 22.91 44.001 22.644 44.001C22.3826 44.001 22.147 44.05 21.937 44.148C21.727 44.246 21.5473 44.3953 21.398 44.596C21.2486 44.792 21.1343 45.044 21.055 45.352C20.9756 45.6553 20.936 46.0147 20.936 46.43C20.936 46.85 20.9686 47.207 21.034 47.501C21.104 47.7903 21.202 48.0283 21.328 48.215C21.454 48.397 21.608 48.53 21.79 48.614C21.972 48.6933 22.175 48.733 22.399 48.733C22.7583 48.733 23.064 48.6583 23.316 48.509C23.568 48.3597 23.806 48.1473 24.03 47.872V44.652ZM25.759 39.598V50H24.702C24.4733 50 24.3286 49.895 24.268 49.685L24.121 48.992C23.8316 49.3233 23.498 49.5917 23.12 49.797C22.7466 50.0023 22.3103 50.105 21.811 50.105C21.419 50.105 21.0596 50.0233 20.733 49.86C20.4063 49.6967 20.124 49.461 19.886 49.153C19.6526 48.8403 19.4706 48.4553 19.34 47.998C19.214 47.5407 19.151 47.018 19.151 46.43C19.151 45.898 19.2233 45.4033 19.368 44.946C19.5126 44.4887 19.7203 44.092 19.991 43.756C20.2616 43.42 20.586 43.1587 20.964 42.972C21.342 42.7807 21.7666 42.685 22.238 42.685C22.6393 42.685 22.9823 42.748 23.267 42.874C23.5516 43 23.806 43.1703 24.03 43.385V39.598H25.759ZM40.1306 44.939C40.1306 45.681 40.007 46.3623 39.7596 46.983C39.5123 47.6037 39.1646 48.138 38.7166 48.586C38.2686 49.034 37.7296 49.3817 37.0996 49.629C36.4696 49.8763 35.7696 50 34.9996 50H31.1426V39.878H34.9996C35.7696 39.878 36.4696 40.004 37.0996 40.256C37.7296 40.5033 38.2686 40.851 38.7166 41.299C39.1646 41.7423 39.5123 42.2743 39.7596 42.895C40.007 43.5157 40.1306 44.197 40.1306 44.939ZM38.1986 44.939C38.1986 44.3837 38.124 43.8867 37.9746 43.448C37.83 43.0047 37.6176 42.6313 37.3376 42.328C37.0623 42.02 36.7263 41.7843 36.3296 41.621C35.9376 41.4577 35.4943 41.376 34.9996 41.376H33.0326V48.502H34.9996C35.4943 48.502 35.9376 48.4203 36.3296 48.257C36.7263 48.0937 37.0623 47.8603 37.3376 47.557C37.6176 47.249 37.83 46.8757 37.9746 46.437C38.124 45.9937 38.1986 45.4943 38.1986 44.939ZM46.0513 45.583C46.0513 45.359 46.0186 45.149 45.9533 44.953C45.8926 44.7523 45.7993 44.5773 45.6733 44.428C45.5473 44.2787 45.3863 44.162 45.1903 44.078C44.999 43.9893 44.775 43.945 44.5183 43.945C44.019 43.945 43.6246 44.0873 43.3353 44.372C43.0506 44.6567 42.8686 45.0603 42.7893 45.583H46.0513ZM42.7543 46.626C42.7823 46.9947 42.8476 47.3143 42.9503 47.585C43.053 47.851 43.1883 48.0727 43.3563 48.25C43.5243 48.4227 43.7226 48.5533 43.9513 48.642C44.1846 48.726 44.4413 48.768 44.7213 48.768C45.0013 48.768 45.2416 48.7353 45.4423 48.67C45.6476 48.6047 45.825 48.5323 45.9743 48.453C46.1283 48.3737 46.2613 48.3013 46.3733 48.236C46.49 48.1707 46.602 48.138 46.7093 48.138C46.854 48.138 46.9613 48.1917 47.0313 48.299L47.5283 48.929C47.337 49.153 47.1223 49.342 46.8843 49.496C46.6463 49.6453 46.3966 49.7667 46.1353 49.86C45.8786 49.9487 45.615 50.0117 45.3443 50.049C45.0783 50.0863 44.8193 50.105 44.5673 50.105C44.068 50.105 43.6036 50.0233 43.1743 49.86C42.745 49.692 42.3716 49.447 42.0543 49.125C41.737 48.7983 41.4873 48.397 41.3053 47.921C41.1233 47.4403 41.0323 46.885 41.0323 46.255C41.0323 45.765 41.1116 45.3053 41.2703 44.876C41.429 44.442 41.6553 44.0663 41.9493 43.749C42.248 43.427 42.6096 43.1727 43.0343 42.986C43.4636 42.7993 43.9466 42.706 44.4833 42.706C44.936 42.706 45.3536 42.7783 45.7363 42.923C46.119 43.0677 46.448 43.28 46.7233 43.56C46.9986 43.8353 47.2133 44.176 47.3673 44.582C47.526 44.9833 47.6053 45.443 47.6053 45.961C47.6053 46.2223 47.5773 46.3997 47.5213 46.493C47.4653 46.5817 47.358 46.626 47.1993 46.626H42.7543ZM51.2285 50.112C50.6031 50.112 50.1225 49.937 49.7865 49.587C49.4551 49.2323 49.2895 48.7447 49.2895 48.124V44.113H48.5545C48.4611 44.113 48.3818 44.0827 48.3165 44.022C48.2511 43.9613 48.2185 43.8703 48.2185 43.749V43.063L49.3735 42.874L49.7375 40.914C49.7608 40.8207 49.8051 40.7483 49.8705 40.697C49.9358 40.6457 50.0198 40.62 50.1225 40.62H51.0185V42.881H52.9365V44.113H51.0185V48.005C51.0185 48.229 51.0721 48.404 51.1795 48.53C51.2915 48.656 51.4431 48.719 51.6345 48.719C51.7418 48.719 51.8305 48.7073 51.9005 48.684C51.9751 48.656 52.0381 48.628 52.0895 48.6C52.1455 48.572 52.1945 48.5463 52.2365 48.523C52.2785 48.495 52.3205 48.481 52.3625 48.481C52.4138 48.481 52.4558 48.495 52.4885 48.523C52.5211 48.5463 52.5561 48.5837 52.5935 48.635L53.1115 49.475C52.8595 49.685 52.5701 49.8437 52.2435 49.951C51.9168 50.0583 51.5785 50.112 51.2285 50.112ZM57.8375 46.934C57.3381 46.9573 56.9181 47.0017 56.5775 47.067C56.2368 47.1277 55.9638 47.207 55.7585 47.305C55.5531 47.403 55.4061 47.5173 55.3175 47.648C55.2288 47.7787 55.1845 47.921 55.1845 48.075C55.1845 48.3783 55.2731 48.5953 55.4505 48.726C55.6325 48.8567 55.8681 48.922 56.1575 48.922C56.5121 48.922 56.8178 48.859 57.0745 48.733C57.3358 48.6023 57.5901 48.4063 57.8375 48.145V46.934ZM53.8755 43.819C54.7015 43.063 55.6955 42.685 56.8575 42.685C57.2775 42.685 57.6531 42.755 57.9845 42.895C58.3158 43.0303 58.5958 43.2217 58.8245 43.469C59.0531 43.7117 59.2258 44.0033 59.3425 44.344C59.4638 44.6847 59.5245 45.058 59.5245 45.464V50H58.7405C58.5771 50 58.4511 49.9767 58.3625 49.93C58.2738 49.8787 58.2038 49.7783 58.1525 49.629L57.9985 49.111C57.8165 49.2743 57.6391 49.419 57.4665 49.545C57.2938 49.6663 57.1141 49.769 56.9275 49.853C56.7408 49.937 56.5401 50 56.3255 50.042C56.1155 50.0887 55.8821 50.112 55.6255 50.112C55.3221 50.112 55.0421 50.0723 54.7855 49.993C54.5288 49.909 54.3071 49.7853 54.1205 49.622C53.9338 49.4587 53.7891 49.2557 53.6865 49.013C53.5838 48.7703 53.5325 48.488 53.5325 48.166C53.5325 47.984 53.5628 47.8043 53.6235 47.627C53.6841 47.445 53.7821 47.2723 53.9175 47.109C54.0575 46.9457 54.2371 46.7917 54.4565 46.647C54.6758 46.5023 54.9441 46.3763 55.2615 46.269C55.5835 46.1617 55.9568 46.0753 56.3815 46.01C56.8061 45.94 57.2915 45.898 57.8375 45.884V45.464C57.8375 44.9833 57.7348 44.6287 57.5295 44.4C57.3241 44.1667 57.0278 44.05 56.6405 44.05C56.3605 44.05 56.1271 44.0827 55.9405 44.148C55.7585 44.2133 55.5975 44.288 55.4575 44.372C55.3175 44.4513 55.1891 44.5237 55.0725 44.589C54.9605 44.6543 54.8345 44.687 54.6945 44.687C54.5731 44.687 54.4705 44.6567 54.3865 44.596C54.3025 44.5307 54.2348 44.456 54.1835 44.372L53.8755 43.819ZM62.9448 42.818V50H61.2088V42.818H62.9448ZM63.1828 40.725C63.1828 40.8743 63.1525 41.0143 63.0918 41.145C63.0312 41.2757 62.9495 41.39 62.8468 41.488C62.7488 41.586 62.6322 41.6653 62.4968 41.726C62.3615 41.782 62.2168 41.81 62.0628 41.81C61.9135 41.81 61.7712 41.782 61.6358 41.726C61.5052 41.6653 61.3908 41.586 61.2928 41.488C61.1948 41.39 61.1155 41.2757 61.0548 41.145C60.9988 41.0143 60.9708 40.8743 60.9708 40.725C60.9708 40.571 60.9988 40.4263 61.0548 40.291C61.1155 40.1557 61.1948 40.039 61.2928 39.941C61.3908 39.843 61.5052 39.766 61.6358 39.71C61.7712 39.6493 61.9135 39.619 62.0628 39.619C62.2168 39.619 62.3615 39.6493 62.4968 39.71C62.6322 39.766 62.7488 39.843 62.8468 39.941C62.9495 40.039 63.0312 40.1557 63.0918 40.291C63.1525 40.4263 63.1828 40.571 63.1828 40.725ZM66.4575 39.598V50H64.7285V39.598H66.4575ZM72.5622 44.218C72.5155 44.2927 72.4665 44.3463 72.4152 44.379C72.3638 44.407 72.2985 44.421 72.2192 44.421C72.1352 44.421 72.0442 44.3977 71.9462 44.351C71.8528 44.3043 71.7432 44.253 71.6172 44.197C71.4912 44.1363 71.3465 44.0827 71.1832 44.036C71.0245 43.9893 70.8355 43.966 70.6162 43.966C70.2755 43.966 70.0072 44.0383 69.8112 44.183C69.6198 44.3277 69.5242 44.5167 69.5242 44.75C69.5242 44.904 69.5732 45.0347 69.6712 45.142C69.7738 45.2447 69.9068 45.3357 70.0702 45.415C70.2382 45.4943 70.4272 45.5667 70.6372 45.632C70.8472 45.6927 71.0595 45.7603 71.2742 45.835C71.4935 45.9097 71.7082 45.996 71.9182 46.094C72.1282 46.1873 72.3148 46.3087 72.4782 46.458C72.6462 46.6027 72.7792 46.7777 72.8772 46.983C72.9798 47.1883 73.0312 47.4357 73.0312 47.725C73.0312 48.0703 72.9682 48.39 72.8422 48.684C72.7208 48.9733 72.5388 49.2253 72.2962 49.44C72.0535 49.65 71.7525 49.8157 71.3932 49.937C71.0385 50.0537 70.6278 50.112 70.1612 50.112C69.9138 50.112 69.6712 50.0887 69.4332 50.042C69.1998 50 68.9735 49.9393 68.7542 49.86C68.5395 49.7807 68.3388 49.6873 68.1522 49.58C67.9702 49.4727 67.8092 49.356 67.6692 49.23L68.0682 48.572C68.1195 48.4927 68.1802 48.432 68.2502 48.39C68.3202 48.348 68.4088 48.327 68.5162 48.327C68.6235 48.327 68.7238 48.3573 68.8172 48.418C68.9152 48.4787 69.0272 48.544 69.1532 48.614C69.2792 48.684 69.4262 48.7493 69.5942 48.81C69.7668 48.8707 69.9838 48.901 70.2452 48.901C70.4505 48.901 70.6255 48.8777 70.7702 48.831C70.9195 48.7797 71.0408 48.7143 71.1342 48.635C71.2322 48.5557 71.3022 48.4647 71.3442 48.362C71.3908 48.2547 71.4142 48.145 71.4142 48.033C71.4142 47.865 71.3628 47.7273 71.2602 47.62C71.1622 47.5127 71.0292 47.4193 70.8612 47.34C70.6978 47.2607 70.5088 47.1907 70.2942 47.13C70.0842 47.0647 69.8672 46.9947 69.6432 46.92C69.4238 46.8453 69.2068 46.759 68.9922 46.661C68.7822 46.5583 68.5932 46.43 68.4252 46.276C68.2618 46.122 68.1288 45.933 68.0262 45.709C67.9282 45.485 67.8792 45.2143 67.8792 44.897C67.8792 44.603 67.9375 44.323 68.0542 44.057C68.1708 43.791 68.3412 43.56 68.5652 43.364C68.7938 43.1633 69.0762 43.0047 69.4122 42.888C69.7528 42.7667 70.1448 42.706 70.5882 42.706C71.0828 42.706 71.5332 42.7877 71.9392 42.951C72.3452 43.1143 72.6835 43.329 72.9542 43.595L72.5622 44.218Z" fill="#343435"/>
</svg>
