<svg width="74" height="56" viewBox="0 0 74 56" fill="none" xmlns="http://www.w3.org/2000/svg">
<path fill-rule="evenodd" clip-rule="evenodd" d="M25.9314 8.50786H25.0916C24.6394 8.50786 24.3164 8.83085 24.3164 9.28305V23.7533C24.3164 24.2701 24.6394 24.5285 25.1562 24.5285L34.7815 24.3347C31.0994 20.7172 26.8358 23.3657 25.9314 20.265C25.8022 19.8128 25.9314 9.86444 25.9314 8.50786ZM46.4094 6.18227V19.8774C46.4094 20.4588 46.151 20.6526 45.6342 20.588C42.6627 20.3296 40.0141 21.234 37.5593 23.4303V9.41225C38.7867 7.28047 40.9831 5.60088 45.7634 5.47168C46.2156 5.47168 46.4094 5.73008 46.4094 6.18227ZM47.7014 8.50786H48.4766C48.9288 8.50786 49.3164 8.83085 49.3164 9.28305V23.7533C49.3164 24.2701 48.9934 24.5285 48.412 24.5285L38.8513 24.3347C42.5335 20.7172 46.797 23.3657 47.7014 20.265C47.8306 19.8128 47.7014 9.86444 47.7014 8.50786ZM27.2234 6.18227V19.8774C27.2234 20.4588 27.4818 20.6526 27.934 20.588C30.9056 20.3296 33.6187 21.234 36.0735 23.4303V9.41225C34.8461 7.28047 32.6497 5.60088 27.8694 5.47168C27.4172 5.47168 27.2234 5.73008 27.2234 6.18227Z" fill="#28519E"/>
<path d="M7.1293 46.178L5.8973 42.811C5.83663 42.6617 5.77363 42.4843 5.7083 42.279C5.64296 42.0737 5.57763 41.852 5.5123 41.614C5.45163 41.852 5.38863 42.076 5.3233 42.286C5.25796 42.4913 5.19496 42.671 5.1343 42.825L3.9093 46.178H7.1293ZM10.4543 50H8.9983C8.83496 50 8.70196 49.9603 8.5993 49.881C8.49663 49.797 8.41963 49.6943 8.3683 49.573L7.6123 47.508H3.4193L2.6633 49.573C2.62596 49.6803 2.55363 49.7783 2.4463 49.867C2.33896 49.9557 2.20596 50 2.0473 50H0.577297L4.5603 39.878H6.4783L10.4543 50ZM15.5866 44.652C15.3906 44.414 15.1759 44.246 14.9426 44.148C14.7139 44.05 14.4666 44.001 14.2006 44.001C13.9393 44.001 13.7036 44.05 13.4936 44.148C13.2836 44.246 13.1039 44.3953 12.9546 44.596C12.8053 44.792 12.6909 45.044 12.6116 45.352C12.5323 45.6553 12.4926 46.0147 12.4926 46.43C12.4926 46.85 12.5253 47.207 12.5906 47.501C12.6606 47.7903 12.7586 48.0283 12.8846 48.215C13.0106 48.397 13.1646 48.53 13.3466 48.614C13.5286 48.6933 13.7316 48.733 13.9556 48.733C14.3149 48.733 14.6206 48.6583 14.8726 48.509C15.1246 48.3597 15.3626 48.1473 15.5866 47.872V44.652ZM17.3156 39.598V50H16.2586C16.0299 50 15.8853 49.895 15.8246 49.685L15.6776 48.992C15.3883 49.3233 15.0546 49.5917 14.6766 49.797C14.3033 50.0023 13.8669 50.105 13.3676 50.105C12.9756 50.105 12.6163 50.0233 12.2896 49.86C11.9629 49.6967 11.6806 49.461 11.4426 49.153C11.2093 48.8403 11.0273 48.4553 10.8966 47.998C10.7706 47.5407 10.7076 47.018 10.7076 46.43C10.7076 45.898 10.7799 45.4033 10.9246 44.946C11.0693 44.4887 11.2769 44.092 11.5476 43.756C11.8183 43.42 12.1426 43.1587 12.5206 42.972C12.8986 42.7807 13.3233 42.685 13.7946 42.685C14.1959 42.685 14.5389 42.748 14.8236 42.874C15.1083 43 15.3626 43.1703 15.5866 43.385V39.598H17.3156ZM23.53 44.652C23.334 44.414 23.1193 44.246 22.886 44.148C22.6573 44.05 22.41 44.001 22.144 44.001C21.8826 44.001 21.647 44.05 21.437 44.148C21.227 44.246 21.0473 44.3953 20.898 44.596C20.7486 44.792 20.6343 45.044 20.555 45.352C20.4756 45.6553 20.436 46.0147 20.436 46.43C20.436 46.85 20.4686 47.207 20.534 47.501C20.604 47.7903 20.702 48.0283 20.828 48.215C20.954 48.397 21.108 48.53 21.29 48.614C21.472 48.6933 21.675 48.733 21.899 48.733C22.2583 48.733 22.564 48.6583 22.816 48.509C23.068 48.3597 23.306 48.1473 23.53 47.872V44.652ZM25.259 39.598V50H24.202C23.9733 50 23.8286 49.895 23.768 49.685L23.621 48.992C23.3316 49.3233 22.998 49.5917 22.62 49.797C22.2466 50.0023 21.8103 50.105 21.311 50.105C20.919 50.105 20.5596 50.0233 20.233 49.86C19.9063 49.6967 19.624 49.461 19.386 49.153C19.1526 48.8403 18.9706 48.4553 18.84 47.998C18.714 47.5407 18.651 47.018 18.651 46.43C18.651 45.898 18.7233 45.4033 18.868 44.946C19.0126 44.4887 19.2203 44.092 19.491 43.756C19.7616 43.42 20.086 43.1587 20.464 42.972C20.842 42.7807 21.2666 42.685 21.738 42.685C22.1393 42.685 22.4823 42.748 22.767 42.874C23.0516 43 23.306 43.1703 23.53 43.385V39.598H25.259ZM39.6306 44.939C39.6306 45.681 39.507 46.3623 39.2596 46.983C39.0123 47.6037 38.6646 48.138 38.2166 48.586C37.7686 49.034 37.2296 49.3817 36.5996 49.629C35.9696 49.8763 35.2696 50 34.4996 50H30.6426V39.878H34.4996C35.2696 39.878 35.9696 40.004 36.5996 40.256C37.2296 40.5033 37.7686 40.851 38.2166 41.299C38.6646 41.7423 39.0123 42.2743 39.2596 42.895C39.507 43.5157 39.6306 44.197 39.6306 44.939ZM37.6986 44.939C37.6986 44.3837 37.624 43.8867 37.4746 43.448C37.33 43.0047 37.1176 42.6313 36.8376 42.328C36.5623 42.02 36.2263 41.7843 35.8296 41.621C35.4376 41.4577 34.9943 41.376 34.4996 41.376H32.5326V48.502H34.4996C34.9943 48.502 35.4376 48.4203 35.8296 48.257C36.2263 48.0937 36.5623 47.8603 36.8376 47.557C37.1176 47.249 37.33 46.8757 37.4746 46.437C37.624 45.9937 37.6986 45.4943 37.6986 44.939ZM45.5513 45.583C45.5513 45.359 45.5186 45.149 45.4533 44.953C45.3926 44.7523 45.2993 44.5773 45.1733 44.428C45.0473 44.2787 44.8863 44.162 44.6903 44.078C44.499 43.9893 44.275 43.945 44.0183 43.945C43.519 43.945 43.1246 44.0873 42.8353 44.372C42.5506 44.6567 42.3686 45.0603 42.2893 45.583H45.5513ZM42.2543 46.626C42.2823 46.9947 42.3476 47.3143 42.4503 47.585C42.553 47.851 42.6883 48.0727 42.8563 48.25C43.0243 48.4227 43.2226 48.5533 43.4513 48.642C43.6846 48.726 43.9413 48.768 44.2213 48.768C44.5013 48.768 44.7416 48.7353 44.9423 48.67C45.1476 48.6047 45.325 48.5323 45.4743 48.453C45.6283 48.3737 45.7613 48.3013 45.8733 48.236C45.99 48.1707 46.102 48.138 46.2093 48.138C46.354 48.138 46.4613 48.1917 46.5313 48.299L47.0283 48.929C46.837 49.153 46.6223 49.342 46.3843 49.496C46.1463 49.6453 45.8966 49.7667 45.6353 49.86C45.3786 49.9487 45.115 50.0117 44.8443 50.049C44.5783 50.0863 44.3193 50.105 44.0673 50.105C43.568 50.105 43.1036 50.0233 42.6743 49.86C42.245 49.692 41.8716 49.447 41.5543 49.125C41.237 48.7983 40.9873 48.397 40.8053 47.921C40.6233 47.4403 40.5323 46.885 40.5323 46.255C40.5323 45.765 40.6116 45.3053 40.7703 44.876C40.929 44.442 41.1553 44.0663 41.4493 43.749C41.748 43.427 42.1096 43.1727 42.5343 42.986C42.9636 42.7993 43.4466 42.706 43.9833 42.706C44.436 42.706 44.8536 42.7783 45.2363 42.923C45.619 43.0677 45.948 43.28 46.2233 43.56C46.4986 43.8353 46.7133 44.176 46.8673 44.582C47.026 44.9833 47.1053 45.443 47.1053 45.961C47.1053 46.2223 47.0773 46.3997 47.0213 46.493C46.9653 46.5817 46.858 46.626 46.6993 46.626H42.2543ZM50.7285 50.112C50.1031 50.112 49.6225 49.937 49.2865 49.587C48.9551 49.2323 48.7895 48.7447 48.7895 48.124V44.113H48.0545C47.9611 44.113 47.8818 44.0827 47.8165 44.022C47.7511 43.9613 47.7185 43.8703 47.7185 43.749V43.063L48.8735 42.874L49.2375 40.914C49.2608 40.8207 49.3051 40.7483 49.3705 40.697C49.4358 40.6457 49.5198 40.62 49.6225 40.62H50.5185V42.881H52.4365V44.113H50.5185V48.005C50.5185 48.229 50.5721 48.404 50.6795 48.53C50.7915 48.656 50.9431 48.719 51.1345 48.719C51.2418 48.719 51.3305 48.7073 51.4005 48.684C51.4751 48.656 51.5381 48.628 51.5895 48.6C51.6455 48.572 51.6945 48.5463 51.7365 48.523C51.7785 48.495 51.8205 48.481 51.8625 48.481C51.9138 48.481 51.9558 48.495 51.9885 48.523C52.0211 48.5463 52.0561 48.5837 52.0935 48.635L52.6115 49.475C52.3595 49.685 52.0701 49.8437 51.7435 49.951C51.4168 50.0583 51.0785 50.112 50.7285 50.112ZM57.3375 46.934C56.8381 46.9573 56.4181 47.0017 56.0775 47.067C55.7368 47.1277 55.4638 47.207 55.2585 47.305C55.0531 47.403 54.9061 47.5173 54.8175 47.648C54.7288 47.7787 54.6845 47.921 54.6845 48.075C54.6845 48.3783 54.7731 48.5953 54.9505 48.726C55.1325 48.8567 55.3681 48.922 55.6575 48.922C56.0121 48.922 56.3178 48.859 56.5745 48.733C56.8358 48.6023 57.0901 48.4063 57.3375 48.145V46.934ZM53.3755 43.819C54.2015 43.063 55.1955 42.685 56.3575 42.685C56.7775 42.685 57.1531 42.755 57.4845 42.895C57.8158 43.0303 58.0958 43.2217 58.3245 43.469C58.5531 43.7117 58.7258 44.0033 58.8425 44.344C58.9638 44.6847 59.0245 45.058 59.0245 45.464V50H58.2405C58.0771 50 57.9511 49.9767 57.8625 49.93C57.7738 49.8787 57.7038 49.7783 57.6525 49.629L57.4985 49.111C57.3165 49.2743 57.1391 49.419 56.9665 49.545C56.7938 49.6663 56.6141 49.769 56.4275 49.853C56.2408 49.937 56.0401 50 55.8255 50.042C55.6155 50.0887 55.3821 50.112 55.1255 50.112C54.8221 50.112 54.5421 50.0723 54.2855 49.993C54.0288 49.909 53.8071 49.7853 53.6205 49.622C53.4338 49.4587 53.2891 49.2557 53.1865 49.013C53.0838 48.7703 53.0325 48.488 53.0325 48.166C53.0325 47.984 53.0628 47.8043 53.1235 47.627C53.1841 47.445 53.2821 47.2723 53.4175 47.109C53.5575 46.9457 53.7371 46.7917 53.9565 46.647C54.1758 46.5023 54.4441 46.3763 54.7615 46.269C55.0835 46.1617 55.4568 46.0753 55.8815 46.01C56.3061 45.94 56.7915 45.898 57.3375 45.884V45.464C57.3375 44.9833 57.2348 44.6287 57.0295 44.4C56.8241 44.1667 56.5278 44.05 56.1405 44.05C55.8605 44.05 55.6271 44.0827 55.4405 44.148C55.2585 44.2133 55.0975 44.288 54.9575 44.372C54.8175 44.4513 54.6891 44.5237 54.5725 44.589C54.4605 44.6543 54.3345 44.687 54.1945 44.687C54.0731 44.687 53.9705 44.6567 53.8865 44.596C53.8025 44.5307 53.7348 44.456 53.6835 44.372L53.3755 43.819ZM62.4448 42.818V50H60.7088V42.818H62.4448ZM62.6828 40.725C62.6828 40.8743 62.6525 41.0143 62.5918 41.145C62.5312 41.2757 62.4495 41.39 62.3468 41.488C62.2488 41.586 62.1322 41.6653 61.9968 41.726C61.8615 41.782 61.7168 41.81 61.5628 41.81C61.4135 41.81 61.2712 41.782 61.1358 41.726C61.0052 41.6653 60.8908 41.586 60.7928 41.488C60.6948 41.39 60.6155 41.2757 60.5548 41.145C60.4988 41.0143 60.4708 40.8743 60.4708 40.725C60.4708 40.571 60.4988 40.4263 60.5548 40.291C60.6155 40.1557 60.6948 40.039 60.7928 39.941C60.8908 39.843 61.0052 39.766 61.1358 39.71C61.2712 39.6493 61.4135 39.619 61.5628 39.619C61.7168 39.619 61.8615 39.6493 61.9968 39.71C62.1322 39.766 62.2488 39.843 62.3468 39.941C62.4495 40.039 62.5312 40.1557 62.5918 40.291C62.6525 40.4263 62.6828 40.571 62.6828 40.725ZM65.9575 39.598V50H64.2285V39.598H65.9575ZM72.0622 44.218C72.0155 44.2927 71.9665 44.3463 71.9152 44.379C71.8638 44.407 71.7985 44.421 71.7192 44.421C71.6352 44.421 71.5442 44.3977 71.4462 44.351C71.3528 44.3043 71.2432 44.253 71.1172 44.197C70.9912 44.1363 70.8465 44.0827 70.6832 44.036C70.5245 43.9893 70.3355 43.966 70.1162 43.966C69.7755 43.966 69.5072 44.0383 69.3112 44.183C69.1198 44.3277 69.0242 44.5167 69.0242 44.75C69.0242 44.904 69.0732 45.0347 69.1712 45.142C69.2738 45.2447 69.4068 45.3357 69.5702 45.415C69.7382 45.4943 69.9272 45.5667 70.1372 45.632C70.3472 45.6927 70.5595 45.7603 70.7742 45.835C70.9935 45.9097 71.2082 45.996 71.4182 46.094C71.6282 46.1873 71.8148 46.3087 71.9782 46.458C72.1462 46.6027 72.2792 46.7777 72.3772 46.983C72.4798 47.1883 72.5312 47.4357 72.5312 47.725C72.5312 48.0703 72.4682 48.39 72.3422 48.684C72.2208 48.9733 72.0388 49.2253 71.7962 49.44C71.5535 49.65 71.2525 49.8157 70.8932 49.937C70.5385 50.0537 70.1278 50.112 69.6612 50.112C69.4138 50.112 69.1712 50.0887 68.9332 50.042C68.6998 50 68.4735 49.9393 68.2542 49.86C68.0395 49.7807 67.8388 49.6873 67.6522 49.58C67.4702 49.4727 67.3092 49.356 67.1692 49.23L67.5682 48.572C67.6195 48.4927 67.6802 48.432 67.7502 48.39C67.8202 48.348 67.9088 48.327 68.0162 48.327C68.1235 48.327 68.2238 48.3573 68.3172 48.418C68.4152 48.4787 68.5272 48.544 68.6532 48.614C68.7792 48.684 68.9262 48.7493 69.0942 48.81C69.2668 48.8707 69.4838 48.901 69.7452 48.901C69.9505 48.901 70.1255 48.8777 70.2702 48.831C70.4195 48.7797 70.5408 48.7143 70.6342 48.635C70.7322 48.5557 70.8022 48.4647 70.8442 48.362C70.8908 48.2547 70.9142 48.145 70.9142 48.033C70.9142 47.865 70.8628 47.7273 70.7602 47.62C70.6622 47.5127 70.5292 47.4193 70.3612 47.34C70.1978 47.2607 70.0088 47.1907 69.7942 47.13C69.5842 47.0647 69.3672 46.9947 69.1432 46.92C68.9238 46.8453 68.7068 46.759 68.4922 46.661C68.2822 46.5583 68.0932 46.43 67.9252 46.276C67.7618 46.122 67.6288 45.933 67.5262 45.709C67.4282 45.485 67.3792 45.2143 67.3792 44.897C67.3792 44.603 67.4375 44.323 67.5542 44.057C67.6708 43.791 67.8412 43.56 68.0652 43.364C68.2938 43.1633 68.5762 43.0047 68.9122 42.888C69.2528 42.7667 69.6448 42.706 70.0882 42.706C70.5828 42.706 71.0332 42.7877 71.4392 42.951C71.8452 43.1143 72.1835 43.329 72.4542 43.595L72.0622 44.218Z" fill="#343435"/>
</svg>
