<svg width="24" height="24" viewBox="0 0 24 24" fill="none" xmlns="http://www.w3.org/2000/svg">
<g clip-path="url(#clip0_362_460)">
<path fill-rule="evenodd" clip-rule="evenodd" d="M1.12496 5.40746H0.306389C-0.134382 5.40746 -0.449219 5.7223 -0.449219 6.16307V20.2678C-0.449219 20.7715 -0.134382 21.0234 0.369357 21.0234L9.75149 20.8345C6.16235 17.3083 2.00651 19.89 1.12496 16.8675C0.99903 16.4267 1.12496 6.72978 1.12496 5.40746ZM21.0856 3.14064V16.4897C21.0856 17.0564 20.8337 17.2453 20.33 17.1824C17.4335 16.9305 14.8518 17.812 12.4591 19.9529V6.28901C13.6555 4.21108 15.7964 2.57393 20.4559 2.448C20.8967 2.448 21.0856 2.69987 21.0856 3.14064ZM22.345 5.40746H23.1006C23.5413 5.40746 23.9191 5.7223 23.9191 6.16307V20.2678C23.9191 20.7715 23.6043 21.0234 23.0376 21.0234L13.7184 20.8345C17.3076 17.3083 21.4634 19.89 22.345 16.8675C22.4709 16.4267 22.345 6.72978 22.345 5.40746ZM2.38431 3.14064V16.4897C2.38431 17.0564 2.63618 17.2453 3.07695 17.1824C5.97345 16.9305 8.61808 17.812 11.0108 19.9529V6.28901C9.81446 4.21108 7.67357 2.57393 3.01398 2.448C2.57321 2.448 2.38431 2.69987 2.38431 3.14064Z" fill="#6D6D6D"/>
</g>
<defs>
<clipPath id="clip0_362_460">
<rect width="24" height="24" fill="white"/>
</clipPath>
</defs>
</svg>
