<svg width="32" height="32" viewBox="0 0 32 32" fill="none" xmlns="http://www.w3.org/2000/svg">
<circle cx="16" cy="16" r="16" fill="#FFE8E8"/>
<path d="M22.875 9.75H19.75V9.125C19.75 8.62772 19.5525 8.15081 19.2008 7.79917C18.8492 7.44754 18.3723 7.25 17.875 7.25H14.125C13.6277 7.25 13.1508 7.44754 12.7992 7.79917C12.4475 8.15081 12.25 8.62772 12.25 9.125V9.75H9.125C8.95924 9.75 8.80027 9.81585 8.68306 9.93306C8.56585 10.0503 8.5 10.2092 8.5 10.375C8.5 10.5408 8.56585 10.6997 8.68306 10.8169C8.80027 10.9342 8.95924 11 9.125 11H9.75V22.25C9.75 22.5815 9.8817 22.8995 10.1161 23.1339C10.3505 23.3683 10.6685 23.5 11 23.5H21C21.3315 23.5 21.6495 23.3683 21.8839 23.1339C22.1183 22.8995 22.25 22.5815 22.25 22.25V11H22.875C23.0408 11 23.1997 10.9342 23.3169 10.8169C23.4342 10.6997 23.5 10.5408 23.5 10.375C23.5 10.2092 23.4342 10.0503 23.3169 9.93306C23.1997 9.81585 23.0408 9.75 22.875 9.75ZM14.75 19.125C14.75 19.2908 14.6842 19.4497 14.5669 19.5669C14.4497 19.6842 14.2908 19.75 14.125 19.75C13.9592 19.75 13.8003 19.6842 13.6831 19.5669C13.5658 19.4497 13.5 19.2908 13.5 19.125V14.125C13.5 13.9592 13.5658 13.8003 13.6831 13.6831C13.8003 13.5658 13.9592 13.5 14.125 13.5C14.2908 13.5 14.4497 13.5658 14.5669 13.6831C14.6842 13.8003 14.75 13.9592 14.75 14.125V19.125ZM18.5 19.125C18.5 19.2908 18.4342 19.4497 18.3169 19.5669C18.1997 19.6842 18.0408 19.75 17.875 19.75C17.7092 19.75 17.5503 19.6842 17.4331 19.5669C17.3158 19.4497 17.25 19.2908 17.25 19.125V14.125C17.25 13.9592 17.3158 13.8003 17.4331 13.6831C17.5503 13.5658 17.7092 13.5 17.875 13.5C18.0408 13.5 18.1997 13.5658 18.3169 13.6831C18.4342 13.8003 18.5 13.9592 18.5 14.125V19.125ZM18.5 9.75H13.5V9.125C13.5 8.95924 13.5658 8.80027 13.6831 8.68306C13.8003 8.56585 13.9592 8.5 14.125 8.5H17.875C18.0408 8.5 18.1997 8.56585 18.3169 8.68306C18.4342 8.80027 18.5 8.95924 18.5 9.125V9.75Z" fill="#CC1A07"/>
</svg>
