<svg width="22" height="23" viewBox="0 0 22 23" fill="none" xmlns="http://www.w3.org/2000/svg">
<g clip-path="url(#clip0_377_607)">
<path d="M10.9997 17.7792C10.9997 18.5338 11.1397 19.2561 11.3766 19.9352H2.38431C1.81308 19.9352 1.26524 19.7081 0.861316 19.3038C0.457391 18.8994 0.230469 18.3511 0.230469 17.7792V2.68725C0.230469 1.50145 1.1997 0.53125 2.38431 0.53125H17.4612C18.0325 0.53125 18.1342 0.938749 18.5382 1.34308C18.9421 1.74741 18.9842 2.11544 18.9842 2.68725V11.6173C18.3058 11.3802 18.2151 11.3112 17.4612 11.3112V2.68725H2.38431V17.7792H10.9997ZM12.0335 10.5459L9.07201 14.362L6.96124 11.8179L3.9997 15.6232H11.3766C11.8074 14.4159 12.5828 13.3702 13.5843 12.6156L12.0335 10.5459ZM18.5382 16.7012V13.4672H16.3843V16.7012H13.1535V18.8572H16.3843V22.0912H18.5382V18.8572H21.7689V16.7012H18.5382Z" fill="#6D6D6D"/>
</g>
<defs>
<clipPath id="clip0_377_607">
<rect width="21.5385" height="21.56" fill="white" transform="translate(0.230469 0.53125)"/>
</clipPath>
</defs>
</svg>
