<svg width="20" height="20" viewBox="0 0 20 20" fill="none" xmlns="http://www.w3.org/2000/svg">
<path d="M14.418 9.16406C14.418 11.6641 12.3013 13.4141 10.0013 13.4141C7.7013 13.4141 5.58464 11.6641 5.58464 9.16406H4.16797C4.16797 12.0057 6.43464 14.3557 9.16797 14.7641V17.4974H10.8346V14.7641C13.568 14.3557 15.8346 12.0057 15.8346 9.16406M9.0013 4.08073C9.0013 3.53073 9.4513 3.08073 10.0013 3.08073C10.5513 3.08073 11.0013 3.53073 11.0013 4.08073L10.993 9.2474C10.993 9.7974 10.5513 10.2474 10.0013 10.2474C9.4513 10.2474 9.0013 9.7974 9.0013 9.2474M10.0013 11.6641C10.6643 11.6641 11.3002 11.4007 11.7691 10.9318C12.2379 10.463 12.5013 9.8271 12.5013 9.16406V4.16406C12.5013 3.50102 12.2379 2.86514 11.7691 2.3963C11.3002 1.92745 10.6643 1.66406 10.0013 1.66406C9.33826 1.66406 8.70238 1.92745 8.23353 2.3963C7.76469 2.86514 7.5013 3.50102 7.5013 4.16406V9.16406C7.5013 9.8271 7.76469 10.463 8.23353 10.9318C8.70238 11.4007 9.33826 11.6641 10.0013 11.6641Z" fill="#343435"/>
</svg>
