<svg width="32" height="32" viewBox="0 0 32 32" fill="none" xmlns="http://www.w3.org/2000/svg">
<circle cx="16" cy="16" r="16" fill="#E3F3FC"/>
<path d="M8 9.33333C8 8.97971 8.14048 8.64057 8.39052 8.39052C8.64057 8.14048 8.97971 8 9.33333 8H12V9.33333H9.33333V12H8V9.33333ZM24 22.6667C24 23.0203 23.8595 23.3594 23.6095 23.6095C23.3594 23.8595 23.0203 24 22.6667 24H20V22.6667H22.6667V20H24V22.6667ZM9.33333 24C8.97971 24 8.64057 23.8595 8.39052 23.6095C8.14048 23.3594 8 23.0203 8 22.6667V20H9.33333V22.6667H12V24H9.33333ZM22.6667 8C23.0203 8 23.3594 8.14048 23.6095 8.39052C23.8595 8.64057 24 8.97971 24 9.33333V12H22.6667V9.33333H20V8H22.6667Z" fill="#28519E"/>
<rect x="11.2374" y="11.2355" width="9.52381" height="9.52381" rx="2.09524" stroke="#28519E" stroke-width="1.14286"/>
</svg>
