<svg width="67" height="52" viewBox="0 0 67 52" fill="none" xmlns="http://www.w3.org/2000/svg">
<path d="M21.1836 5.36792C21.1836 4.83749 21.3943 4.32878 21.7694 3.95371C22.1445 3.57863 22.6532 3.36792 23.1836 3.36792H27.1836V5.36792H23.1836V9.36792H21.1836V5.36792ZM45.1836 25.3679C45.1836 25.8984 44.9729 26.4071 44.5978 26.7821C44.2227 27.1572 43.714 27.3679 43.1836 27.3679H39.1836V25.3679H43.1836V21.3679H45.1836V25.3679ZM23.1836 27.3679C22.6532 27.3679 22.1445 27.1572 21.7694 26.7821C21.3943 26.4071 21.1836 25.8984 21.1836 25.3679V21.3679H23.1836V25.3679H27.1836V27.3679H23.1836ZM43.1836 3.36792C43.714 3.36792 44.2227 3.57863 44.5978 3.95371C44.9729 4.32878 45.1836 4.83749 45.1836 5.36792V9.36792H43.1836V5.36792H39.1836V3.36792H43.1836Z" fill="#28519E"/>
<rect x="26.0407" y="8.22506" width="14.2857" height="14.2857" rx="3.14286" stroke="#28519E" stroke-width="1.71429"/>
<path d="M7.11937 42.0099C7.06803 42.0939 7.01437 42.1569 6.95837 42.1989C6.90237 42.2363 6.83237 42.2549 6.74837 42.2549C6.6597 42.2549 6.55937 42.2176 6.44737 42.1429C6.34003 42.0683 6.2047 41.9866 6.04137 41.8979C5.8827 41.8046 5.6937 41.7206 5.47437 41.6459C5.25503 41.5666 4.9937 41.5269 4.69037 41.5269C4.41037 41.5269 4.16303 41.5619 3.94837 41.6319C3.73837 41.7019 3.56103 41.7999 3.41637 41.9259C3.2717 42.0519 3.16203 42.2013 3.08737 42.3739C3.01737 42.5419 2.98237 42.7263 2.98237 42.9269C2.98237 43.1836 3.05003 43.3983 3.18537 43.5709C3.3207 43.7389 3.49803 43.8836 3.71737 44.0049C3.94137 44.1263 4.1957 44.2336 4.48037 44.3269C4.76503 44.4156 5.05437 44.5113 5.34837 44.6139C5.64703 44.7166 5.9387 44.8333 6.22337 44.9639C6.50803 45.0946 6.76003 45.2603 6.97937 45.4609C7.20337 45.6616 7.38303 45.9066 7.51837 46.1959C7.6537 46.4853 7.72137 46.8376 7.72137 47.2529C7.72137 47.7009 7.64437 48.1209 7.49037 48.5129C7.33637 48.9049 7.11237 49.2479 6.81837 49.5419C6.52903 49.8313 6.1697 50.0599 5.74037 50.2279C5.3157 50.3959 4.83037 50.4799 4.28437 50.4799C3.96237 50.4799 3.64737 50.4473 3.33937 50.3819C3.03603 50.3213 2.74437 50.2349 2.46437 50.1229C2.18903 50.0063 1.93003 49.8663 1.68737 49.7029C1.4447 49.5396 1.2277 49.3576 1.03637 49.1569L1.51237 48.3729C1.55437 48.3076 1.60803 48.2563 1.67337 48.2189C1.7387 48.1816 1.81103 48.1629 1.89037 48.1629C1.9977 48.1629 2.1167 48.2143 2.24737 48.3169C2.37803 48.4149 2.53437 48.5246 2.71637 48.6459C2.90303 48.7626 3.12703 48.8723 3.38837 48.9749C3.6497 49.0729 3.96237 49.1219 4.32637 49.1219C4.91903 49.1219 5.37637 48.9773 5.69837 48.6879C6.02503 48.3986 6.18837 47.9996 6.18837 47.4909C6.18837 47.2063 6.1207 46.9753 5.98537 46.7979C5.85003 46.6159 5.67037 46.4643 5.44637 46.3429C5.22703 46.2216 4.97503 46.1189 4.69037 46.0349C4.4057 45.9509 4.11637 45.8623 3.82237 45.7689C3.52837 45.6709 3.23903 45.5589 2.95437 45.4329C2.6697 45.3023 2.41537 45.1343 2.19137 44.9289C1.97203 44.7189 1.7947 44.4623 1.65937 44.1589C1.52403 43.8509 1.45637 43.4683 1.45637 43.0109C1.45637 42.6469 1.52637 42.2946 1.66637 41.9539C1.81103 41.6133 2.0187 41.3123 2.28937 41.0509C2.5647 40.7849 2.90303 40.5726 3.30437 40.4139C3.7057 40.2553 4.16303 40.1759 4.67637 40.1759C5.25503 40.1759 5.7847 40.2669 6.26537 40.4489C6.7507 40.6309 7.16837 40.8899 7.51837 41.2259L7.11937 42.0099ZM14.2306 44.6279C14.1839 44.6886 14.1396 44.7353 14.0976 44.7679C14.0556 44.8006 13.9949 44.8169 13.9156 44.8169C13.8363 44.8169 13.7523 44.7889 13.6636 44.7329C13.5796 44.6769 13.4769 44.6163 13.3556 44.5509C13.2389 44.4809 13.0966 44.4179 12.9286 44.3619C12.7606 44.3059 12.5506 44.2779 12.2986 44.2779C11.9719 44.2779 11.6849 44.3363 11.4376 44.4529C11.1949 44.5696 10.9896 44.7376 10.8216 44.9569C10.6583 45.1716 10.5346 45.4353 10.4506 45.7479C10.3713 46.0559 10.3316 46.4036 10.3316 46.7909C10.3316 47.1923 10.3759 47.5493 10.4646 47.8619C10.5533 48.1746 10.6793 48.4383 10.8426 48.6529C11.0106 48.8676 11.2113 49.0309 11.4446 49.1429C11.6826 49.2549 11.9486 49.3109 12.2426 49.3109C12.5319 49.3109 12.7676 49.2759 12.9496 49.2059C13.1316 49.1359 13.2833 49.0589 13.4046 48.9749C13.5259 48.8909 13.6286 48.8139 13.7126 48.7439C13.8013 48.6739 13.8946 48.6389 13.9926 48.6389C14.1139 48.6389 14.2073 48.6856 14.2726 48.7789L14.6996 49.3319C14.5269 49.5419 14.3356 49.7193 14.1256 49.8639C13.9156 50.0086 13.6939 50.1276 13.4606 50.2209C13.2273 50.3096 12.9846 50.3726 12.7326 50.4099C12.4806 50.4519 12.2263 50.4729 11.9696 50.4729C11.5263 50.4729 11.1109 50.3913 10.7236 50.2279C10.3409 50.0599 10.0049 49.8196 9.7156 49.5069C9.43093 49.1896 9.2046 48.8046 9.0366 48.3519C8.87327 47.8946 8.7916 47.3743 8.7916 46.7909C8.7916 46.2636 8.86627 45.7759 9.0156 45.3279C9.16493 44.8753 9.38193 44.4856 9.6666 44.1589C9.95594 43.8323 10.3129 43.5779 10.7376 43.3959C11.1623 43.2093 11.6523 43.1159 12.2076 43.1159C12.7256 43.1159 13.1806 43.1999 13.5726 43.3679C13.9693 43.5359 14.3216 43.7739 14.6296 44.0819L14.2306 44.6279ZM19.7252 47.2459C19.1885 47.2646 18.7358 47.3089 18.3672 47.3789C17.9985 47.4443 17.6998 47.5306 17.4712 47.6379C17.2425 47.7406 17.0768 47.8643 16.9742 48.0089C16.8762 48.1536 16.8272 48.3123 16.8272 48.4849C16.8272 48.6529 16.8528 48.7976 16.9042 48.9189C16.9602 49.0356 17.0348 49.1336 17.1282 49.2129C17.2262 49.2876 17.3382 49.3436 17.4642 49.3809C17.5948 49.4136 17.7372 49.4299 17.8912 49.4299C18.2832 49.4299 18.6192 49.3576 18.8992 49.2129C19.1838 49.0636 19.4592 48.8489 19.7252 48.5689V47.2459ZM15.7352 44.2219C16.5425 43.4706 17.5038 43.0949 18.6192 43.0949C19.0298 43.0949 19.3938 43.1626 19.7112 43.2979C20.0332 43.4286 20.3015 43.6153 20.5162 43.8579C20.7355 44.1006 20.9012 44.3899 21.0132 44.7259C21.1298 45.0573 21.1882 45.4259 21.1882 45.8319V50.3679H20.5162C20.3715 50.3679 20.2618 50.3469 20.1872 50.3049C20.1125 50.2583 20.0495 50.1673 19.9982 50.0319L19.8512 49.4509C19.6692 49.6143 19.4895 49.7613 19.3122 49.8919C19.1348 50.0179 18.9505 50.1253 18.7592 50.2139C18.5725 50.3026 18.3695 50.3679 18.1502 50.4099C17.9355 50.4566 17.6975 50.4799 17.4362 50.4799C17.1468 50.4799 16.8762 50.4403 16.6242 50.3609C16.3768 50.2816 16.1622 50.1626 15.9802 50.0039C15.7982 49.8406 15.6535 49.6399 15.5462 49.4019C15.4435 49.1639 15.3922 48.8839 15.3922 48.5619C15.3922 48.2866 15.4645 48.0183 15.6092 47.7569C15.7585 47.4956 16.0012 47.2623 16.3372 47.0569C16.6778 46.8469 17.1235 46.6743 17.6742 46.5389C18.2295 46.4036 18.9132 46.3266 19.7252 46.3079V45.8319C19.7252 45.3186 19.6155 44.9359 19.3962 44.6839C19.1768 44.4319 18.8548 44.3059 18.4302 44.3059C18.1408 44.3059 17.8982 44.3433 17.7022 44.4179C17.5062 44.4879 17.3358 44.5649 17.1912 44.6489C17.0465 44.7329 16.9182 44.8123 16.8062 44.8869C16.6942 44.9569 16.5752 44.9919 16.4492 44.9919C16.3465 44.9919 16.2578 44.9663 16.1832 44.9149C16.1132 44.8589 16.0548 44.7913 16.0082 44.7119L15.7352 44.2219ZM24.3582 44.1729C24.5122 44.0143 24.6708 43.8719 24.8342 43.7459C25.0022 43.6153 25.1795 43.5033 25.3662 43.4099C25.5528 43.3166 25.7512 43.2443 25.9612 43.1929C26.1712 43.1416 26.3998 43.1159 26.6472 43.1159C27.0392 43.1159 27.3822 43.1813 27.6762 43.3119C27.9748 43.4426 28.2245 43.6269 28.4252 43.8649C28.6305 44.1029 28.7845 44.3899 28.8872 44.7259C28.9898 45.0573 29.0412 45.4236 29.0412 45.8249V50.3679H27.5432V45.8249C27.5432 45.3443 27.4312 44.9709 27.2072 44.7049C26.9878 44.4389 26.6518 44.3059 26.1992 44.3059C25.8632 44.3059 25.5505 44.3829 25.2612 44.5369C24.9765 44.6909 24.7082 44.9009 24.4562 45.1669V50.3679H22.9512V43.2279H23.8612C24.0665 43.2279 24.1972 43.3236 24.2532 43.5149L24.3582 44.1729ZM38.2332 49.0729C38.6018 49.0729 38.9122 49.0309 39.1642 48.9469C39.4208 48.8583 39.6285 48.7393 39.7872 48.5899C39.9505 48.4406 40.0672 48.2656 40.1372 48.0649C40.2118 47.8596 40.2492 47.6403 40.2492 47.4069C40.2492 46.9309 40.0858 46.5576 39.7592 46.2869C39.4372 46.0116 38.9262 45.8739 38.2262 45.8739H36.2032V49.0729H38.2332ZM36.2032 41.5689V44.7189H37.8412C38.5412 44.7189 39.0638 44.5836 39.4092 44.3129C39.7545 44.0423 39.9272 43.6526 39.9272 43.1439C39.9272 42.5886 39.7638 42.1873 39.4372 41.9399C39.1152 41.6926 38.6088 41.5689 37.9182 41.5689H36.2032ZM37.9182 40.2879C38.5622 40.2879 39.1128 40.3509 39.5702 40.4769C40.0275 40.5983 40.4032 40.7733 40.6972 41.0019C40.9912 41.2306 41.2058 41.5106 41.3412 41.8419C41.4812 42.1686 41.5512 42.5373 41.5512 42.9479C41.5512 43.1859 41.5138 43.4169 41.4392 43.6409C41.3692 43.8603 41.2572 44.0679 41.1032 44.2639C40.9538 44.4553 40.7648 44.6279 40.5362 44.7819C40.3075 44.9359 40.0368 45.0643 39.7242 45.1669C41.1522 45.4703 41.8662 46.2286 41.8662 47.4419C41.8662 47.8713 41.7845 48.2656 41.6212 48.6249C41.4625 48.9796 41.2292 49.2876 40.9212 49.5489C40.6178 49.8056 40.2422 50.0063 39.7942 50.1509C39.3462 50.2956 38.8352 50.3679 38.2612 50.3679H34.5652V40.2879H37.9182ZM46.4093 43.1159C46.9366 43.1159 47.4126 43.2023 47.8373 43.3749C48.2666 43.5476 48.6306 43.7926 48.9293 44.1099C49.2326 44.4273 49.4659 44.8123 49.6293 45.2649C49.7926 45.7176 49.8743 46.2263 49.8743 46.7909C49.8743 47.3556 49.7926 47.8643 49.6293 48.3169C49.4659 48.7696 49.2326 49.1569 48.9293 49.4789C48.6306 49.7963 48.2666 50.0413 47.8373 50.2139C47.4126 50.3866 46.9366 50.4729 46.4093 50.4729C45.8773 50.4729 45.3966 50.3866 44.9673 50.2139C44.5426 50.0413 44.1786 49.7963 43.8753 49.4789C43.5719 49.1569 43.3386 48.7696 43.1753 48.3169C43.0119 47.8643 42.9303 47.3556 42.9303 46.7909C42.9303 46.2263 43.0119 45.7176 43.1753 45.2649C43.3386 44.8123 43.5719 44.4273 43.8753 44.1099C44.1786 43.7926 44.5426 43.5476 44.9673 43.3749C45.3966 43.2023 45.8773 43.1159 46.4093 43.1159ZM46.4093 49.2969C47.0533 49.2969 47.5316 49.0823 47.8443 48.6529C48.1616 48.2189 48.3203 47.6006 48.3203 46.7979C48.3203 45.9953 48.1616 45.3769 47.8443 44.9429C47.5316 44.5043 47.0533 44.2849 46.4093 44.2849C45.7559 44.2849 45.2706 44.5043 44.9533 44.9429C44.6359 45.3769 44.4773 45.9953 44.4773 46.7979C44.4773 47.6006 44.6359 48.2189 44.9533 48.6529C45.2706 49.0823 45.7559 49.2969 46.4093 49.2969ZM54.4073 43.1159C54.9347 43.1159 55.4107 43.2023 55.8353 43.3749C56.2647 43.5476 56.6287 43.7926 56.9273 44.1099C57.2307 44.4273 57.464 44.8123 57.6273 45.2649C57.7907 45.7176 57.8723 46.2263 57.8723 46.7909C57.8723 47.3556 57.7907 47.8643 57.6273 48.3169C57.464 48.7696 57.2307 49.1569 56.9273 49.4789C56.6287 49.7963 56.2647 50.0413 55.8353 50.2139C55.4107 50.3866 54.9347 50.4729 54.4073 50.4729C53.8753 50.4729 53.3947 50.3866 52.9653 50.2139C52.5407 50.0413 52.1767 49.7963 51.8733 49.4789C51.57 49.1569 51.3367 48.7696 51.1733 48.3169C51.01 47.8643 50.9283 47.3556 50.9283 46.7909C50.9283 46.2263 51.01 45.7176 51.1733 45.2649C51.3367 44.8123 51.57 44.4273 51.8733 44.1099C52.1767 43.7926 52.5407 43.5476 52.9653 43.3749C53.3947 43.2023 53.8753 43.1159 54.4073 43.1159ZM54.4073 49.2969C55.0513 49.2969 55.5297 49.0823 55.8423 48.6529C56.1597 48.2189 56.3183 47.6006 56.3183 46.7979C56.3183 45.9953 56.1597 45.3769 55.8423 44.9429C55.5297 44.5043 55.0513 44.2849 54.4073 44.2849C53.754 44.2849 53.2687 44.5043 52.9513 44.9429C52.634 45.3769 52.4753 45.9953 52.4753 46.7979C52.4753 47.6006 52.634 48.2189 52.9513 48.6529C53.2687 49.0823 53.754 49.2969 54.4073 49.2969ZM60.8234 40.0079V46.0139H61.1454C61.248 46.0139 61.332 45.9999 61.3974 45.9719C61.4627 45.9439 61.5304 45.8856 61.6004 45.7969L63.6024 43.5079C63.6724 43.4146 63.7494 43.3446 63.8334 43.2979C63.9174 43.2513 64.0247 43.2279 64.1554 43.2279H65.5204L63.1124 45.9439C62.9724 46.1259 62.8184 46.2706 62.6504 46.3779C62.7437 46.4433 62.8254 46.5179 62.8954 46.6019C62.9654 46.6813 63.033 46.7723 63.0984 46.8749L65.6674 50.3679H64.3234C64.202 50.3679 64.097 50.3493 64.0084 50.3119C63.9244 50.2699 63.8497 50.1953 63.7844 50.0879L61.7194 47.2879C61.6494 47.1806 61.5794 47.1129 61.5094 47.0849C61.4394 47.0523 61.3344 47.0359 61.1944 47.0359H60.8234V50.3679H59.3184V40.0079H60.8234Z" fill="#343435"/>
</svg>
