<svg width="68" height="56" viewBox="0 0 68 56" fill="none" xmlns="http://www.w3.org/2000/svg">
<path d="M22.1836 5C22.1836 4.46957 22.3943 3.96086 22.7694 3.58579C23.1445 3.21071 23.6532 3 24.1836 3H28.1836V5H24.1836V9H22.1836V5ZM46.1836 25C46.1836 25.5304 45.9729 26.0391 45.5978 26.4142C45.2227 26.7893 44.714 27 44.1836 27H40.1836V25H44.1836V21H46.1836V25ZM24.1836 27C23.6532 27 23.1445 26.7893 22.7694 26.4142C22.3943 26.0391 22.1836 25.5304 22.1836 25V21H24.1836V25H28.1836V27H24.1836ZM44.1836 3C44.714 3 45.2227 3.21071 45.5978 3.58579C45.9729 3.96086 46.1836 4.46957 46.1836 5V9H44.1836V5H40.1836V3H44.1836Z" fill="#B2B2B3"/>
<rect x="27.0407" y="7.85714" width="14.2857" height="14.2857" rx="3.14286" stroke="#B2B2B3" stroke-width="1.71429"/>
<path d="M7.10645 46.4365C7.10645 46.2314 7.07454 46.0492 7.01074 45.8896C6.9515 45.7301 6.8444 45.5843 6.68945 45.4521C6.53451 45.32 6.31576 45.1924 6.0332 45.0693C5.75521 44.9417 5.39974 44.8118 4.9668 44.6797C4.49284 44.5339 4.05534 44.3721 3.6543 44.1943C3.25781 44.012 2.91146 43.8024 2.61523 43.5654C2.31901 43.3239 2.08887 43.0482 1.9248 42.7383C1.76074 42.4238 1.67871 42.0615 1.67871 41.6514C1.67871 41.2458 1.76302 40.8766 1.93164 40.5439C2.10482 40.2113 2.34863 39.9242 2.66309 39.6826C2.9821 39.4365 3.35807 39.2474 3.79102 39.1152C4.22396 38.9785 4.70247 38.9102 5.22656 38.9102C5.96484 38.9102 6.60059 39.0469 7.13379 39.3203C7.67155 39.5938 8.08398 39.9606 8.37109 40.4209C8.66276 40.8812 8.80859 41.3893 8.80859 41.9453H7.10645C7.10645 41.6172 7.03581 41.3278 6.89453 41.0771C6.75781 40.8219 6.54818 40.6214 6.26562 40.4756C5.98763 40.3298 5.63444 40.2568 5.20605 40.2568C4.80046 40.2568 4.46322 40.3184 4.19434 40.4414C3.92546 40.5645 3.72493 40.7308 3.59277 40.9404C3.46061 41.1501 3.39453 41.387 3.39453 41.6514C3.39453 41.8382 3.43783 42.0091 3.52441 42.1641C3.611 42.3145 3.74316 42.4557 3.9209 42.5879C4.09863 42.7155 4.32194 42.8363 4.59082 42.9502C4.8597 43.0641 5.17643 43.1735 5.54102 43.2783C6.09245 43.4424 6.57324 43.6247 6.9834 43.8252C7.39355 44.0212 7.73535 44.2445 8.00879 44.4951C8.28223 44.7458 8.4873 45.0306 8.62402 45.3496C8.76074 45.6641 8.8291 46.0218 8.8291 46.4229C8.8291 46.8421 8.74479 47.2204 8.57617 47.5576C8.40755 47.8903 8.16602 48.1751 7.85156 48.4121C7.54167 48.6445 7.16797 48.8245 6.73047 48.9521C6.29753 49.0752 5.81445 49.1367 5.28125 49.1367C4.80273 49.1367 4.33105 49.0729 3.86621 48.9453C3.40592 48.8177 2.98665 48.624 2.6084 48.3643C2.23014 48.0999 1.92936 47.7718 1.70605 47.3799C1.48275 46.9834 1.37109 46.5208 1.37109 45.9922H3.08691C3.08691 46.3158 3.1416 46.5915 3.25098 46.8193C3.36491 47.0472 3.52214 47.234 3.72266 47.3799C3.92318 47.5212 4.1556 47.626 4.41992 47.6943C4.6888 47.7627 4.97591 47.7969 5.28125 47.7969C5.68229 47.7969 6.01725 47.7399 6.28613 47.626C6.55957 47.512 6.76465 47.3525 6.90137 47.1475C7.03809 46.9424 7.10645 46.7054 7.10645 46.4365ZM13.2041 47.8242C13.473 47.8242 13.7145 47.7718 13.9287 47.667C14.1475 47.5576 14.3229 47.4072 14.4551 47.2158C14.5918 47.0244 14.667 46.8034 14.6807 46.5527H16.2324C16.2233 47.0312 16.082 47.4665 15.8086 47.8584C15.5352 48.2503 15.1729 48.5625 14.7217 48.7949C14.2705 49.0228 13.7715 49.1367 13.2246 49.1367C12.6595 49.1367 12.1673 49.041 11.748 48.8496C11.3288 48.6536 10.9801 48.3848 10.7021 48.043C10.4242 47.7012 10.2145 47.307 10.0732 46.8604C9.93652 46.4137 9.86816 45.9352 9.86816 45.4248V45.1855C9.86816 44.6751 9.93652 44.1966 10.0732 43.75C10.2145 43.2988 10.4242 42.9023 10.7021 42.5605C10.9801 42.2188 11.3288 41.9521 11.748 41.7607C12.1673 41.5648 12.6572 41.4668 13.2178 41.4668C13.8102 41.4668 14.3298 41.5853 14.7764 41.8223C15.223 42.0547 15.5739 42.3805 15.8291 42.7998C16.0889 43.2145 16.2233 43.6976 16.2324 44.249H14.6807C14.667 43.9756 14.5986 43.7295 14.4756 43.5107C14.3571 43.2874 14.1885 43.1097 13.9697 42.9775C13.7555 42.8454 13.498 42.7793 13.1973 42.7793C12.8646 42.7793 12.5889 42.8477 12.3701 42.9844C12.1514 43.1165 11.9805 43.2988 11.8574 43.5312C11.7344 43.7591 11.6455 44.0166 11.5908 44.3037C11.5407 44.5863 11.5156 44.8802 11.5156 45.1855V45.4248C11.5156 45.7301 11.5407 46.0264 11.5908 46.3135C11.641 46.6006 11.7275 46.8581 11.8506 47.0859C11.9782 47.3092 12.1514 47.4893 12.3701 47.626C12.5889 47.7581 12.8669 47.8242 13.2041 47.8242ZM21.667 47.5166V43.9893C21.667 43.7249 21.6191 43.4971 21.5234 43.3057C21.4277 43.1143 21.2819 42.9661 21.0859 42.8613C20.8945 42.7565 20.653 42.7041 20.3613 42.7041C20.0924 42.7041 19.86 42.7497 19.6641 42.8408C19.4681 42.932 19.3154 43.055 19.2061 43.21C19.0967 43.3649 19.042 43.5404 19.042 43.7363H17.4014C17.4014 43.4447 17.472 43.1621 17.6133 42.8887C17.7546 42.6152 17.9596 42.3714 18.2285 42.1572C18.4974 41.943 18.8187 41.7744 19.1924 41.6514C19.5661 41.5283 19.9854 41.4668 20.4502 41.4668C21.0062 41.4668 21.4984 41.5602 21.9268 41.7471C22.3597 41.9339 22.6992 42.2165 22.9453 42.5947C23.196 42.9684 23.3213 43.4378 23.3213 44.0029V47.291C23.3213 47.6283 23.3441 47.9313 23.3896 48.2002C23.4398 48.4645 23.5104 48.6947 23.6016 48.8906V49H21.9131C21.8356 48.8223 21.7741 48.5967 21.7285 48.3232C21.6875 48.0452 21.667 47.7764 21.667 47.5166ZM21.9062 44.502L21.9199 45.5205H20.7373C20.432 45.5205 20.1631 45.5501 19.9307 45.6094C19.6982 45.6641 19.5046 45.7461 19.3496 45.8555C19.1947 45.9648 19.0785 46.097 19.001 46.252C18.9235 46.4069 18.8848 46.5824 18.8848 46.7783C18.8848 46.9743 18.9303 47.1543 19.0215 47.3184C19.1126 47.4779 19.2448 47.6032 19.418 47.6943C19.5957 47.7855 19.8099 47.8311 20.0605 47.8311C20.3978 47.8311 20.6917 47.7627 20.9424 47.626C21.1976 47.4847 21.3981 47.3138 21.5439 47.1133C21.6898 46.9082 21.7673 46.7145 21.7764 46.5322L22.3096 47.2637C22.2549 47.4505 22.1615 47.651 22.0293 47.8652C21.8971 48.0794 21.724 48.2845 21.5098 48.4805C21.3001 48.6719 21.0472 48.8291 20.751 48.9521C20.4593 49.0752 20.1221 49.1367 19.7393 49.1367C19.2562 49.1367 18.8255 49.041 18.4473 48.8496C18.069 48.6536 17.7728 48.3916 17.5586 48.0635C17.3444 47.7308 17.2373 47.3548 17.2373 46.9355C17.2373 46.5436 17.3102 46.1973 17.4561 45.8965C17.6064 45.5911 17.8252 45.3359 18.1123 45.1309C18.404 44.9258 18.7594 44.7708 19.1787 44.666C19.598 44.5566 20.0765 44.502 20.6143 44.502H21.9062ZM26.6777 43.1826V49H25.0303V41.6035H26.582L26.6777 43.1826ZM26.3838 45.0283L25.8506 45.0215C25.8551 44.4974 25.9281 44.0166 26.0693 43.5791C26.2152 43.1416 26.4157 42.7656 26.6709 42.4512C26.9307 42.1367 27.2406 41.8952 27.6006 41.7266C27.9606 41.5534 28.3617 41.4668 28.8037 41.4668C29.1592 41.4668 29.4805 41.5169 29.7676 41.6172C30.0592 41.7129 30.3076 41.8701 30.5127 42.0889C30.7223 42.3076 30.8818 42.5924 30.9912 42.9434C31.1006 43.2897 31.1553 43.7158 31.1553 44.2217V49H29.501V44.2148C29.501 43.8594 29.4486 43.5791 29.3438 43.374C29.2435 43.1644 29.0954 43.0163 28.8994 42.9297C28.708 42.8385 28.4688 42.793 28.1816 42.793C27.8991 42.793 27.6462 42.8522 27.4229 42.9707C27.1995 43.0892 27.0104 43.251 26.8555 43.4561C26.7051 43.6611 26.5889 43.8981 26.5068 44.167C26.4248 44.4359 26.3838 44.723 26.3838 45.0283ZM40.2197 44.502H37.6836L37.6699 43.251H39.8848C40.2585 43.251 40.5752 43.1963 40.835 43.0869C41.0993 42.973 41.2998 42.8112 41.4365 42.6016C41.5732 42.3874 41.6416 42.1299 41.6416 41.8291C41.6416 41.4964 41.5778 41.2253 41.4502 41.0156C41.3226 40.806 41.1266 40.6533 40.8623 40.5576C40.6025 40.4619 40.2699 40.4141 39.8643 40.4141H38.2031V49H36.4873V39.0469H39.8643C40.4111 39.0469 40.8988 39.0993 41.3271 39.2041C41.7601 39.3089 42.127 39.473 42.4277 39.6963C42.7331 39.915 42.9632 40.193 43.1182 40.5303C43.2777 40.8675 43.3574 41.2686 43.3574 41.7334C43.3574 42.1436 43.2594 42.5195 43.0635 42.8613C42.8675 43.1986 42.5781 43.4743 42.1953 43.6885C41.8125 43.9027 41.3363 44.0303 40.7666 44.0713L40.2197 44.502ZM40.1445 49H37.1436L37.916 47.6396H40.1445C40.5319 47.6396 40.8555 47.5758 41.1152 47.4482C41.375 47.3161 41.5687 47.1361 41.6963 46.9082C41.8285 46.6758 41.8945 46.4046 41.8945 46.0947C41.8945 45.7712 41.8376 45.4909 41.7236 45.2539C41.6097 45.0124 41.4297 44.8278 41.1836 44.7002C40.9375 44.568 40.6162 44.502 40.2197 44.502H38.292L38.3057 43.251H40.8145L41.2041 43.7227C41.751 43.7409 42.1999 43.8617 42.5508 44.085C42.9062 44.3083 43.1706 44.5977 43.3438 44.9531C43.5169 45.3086 43.6035 45.6914 43.6035 46.1016C43.6035 46.735 43.4645 47.266 43.1865 47.6943C42.9131 48.1227 42.5189 48.4486 42.0039 48.6719C41.4889 48.8906 40.8691 49 40.1445 49ZM44.8545 45.3838V45.2266C44.8545 44.6934 44.932 44.1989 45.0869 43.7432C45.2419 43.2829 45.4652 42.8841 45.7568 42.5469C46.0531 42.2051 46.4131 41.9408 46.8369 41.7539C47.2653 41.5625 47.7484 41.4668 48.2861 41.4668C48.8285 41.4668 49.3115 41.5625 49.7354 41.7539C50.1637 41.9408 50.526 42.2051 50.8223 42.5469C51.1185 42.8841 51.3441 43.2829 51.499 43.7432C51.654 44.1989 51.7314 44.6934 51.7314 45.2266V45.3838C51.7314 45.917 51.654 46.4115 51.499 46.8672C51.3441 47.3229 51.1185 47.7217 50.8223 48.0635C50.526 48.4007 50.166 48.665 49.7422 48.8564C49.3184 49.0433 48.8376 49.1367 48.2998 49.1367C47.7575 49.1367 47.2721 49.0433 46.8438 48.8564C46.4199 48.665 46.0599 48.4007 45.7637 48.0635C45.4674 47.7217 45.2419 47.3229 45.0869 46.8672C44.932 46.4115 44.8545 45.917 44.8545 45.3838ZM46.502 45.2266V45.3838C46.502 45.7165 46.5361 46.0309 46.6045 46.3271C46.6729 46.6234 46.7799 46.8831 46.9258 47.1064C47.0716 47.3298 47.2585 47.5052 47.4863 47.6328C47.7142 47.7604 47.9854 47.8242 48.2998 47.8242C48.6051 47.8242 48.8695 47.7604 49.0928 47.6328C49.3206 47.5052 49.5075 47.3298 49.6533 47.1064C49.7992 46.8831 49.9062 46.6234 49.9746 46.3271C50.0475 46.0309 50.084 45.7165 50.084 45.3838V45.2266C50.084 44.8984 50.0475 44.5885 49.9746 44.2969C49.9062 44.0007 49.7969 43.7386 49.6465 43.5107C49.5007 43.2829 49.3138 43.1051 49.0859 42.9775C48.8626 42.8454 48.596 42.7793 48.2861 42.7793C47.9762 42.7793 47.7074 42.8454 47.4795 42.9775C47.2562 43.1051 47.0716 43.2829 46.9258 43.5107C46.7799 43.7386 46.6729 44.0007 46.6045 44.2969C46.5361 44.5885 46.502 44.8984 46.502 45.2266ZM52.7979 45.3838V45.2266C52.7979 44.6934 52.8753 44.1989 53.0303 43.7432C53.1852 43.2829 53.4085 42.8841 53.7002 42.5469C53.9964 42.2051 54.3564 41.9408 54.7803 41.7539C55.2087 41.5625 55.6917 41.4668 56.2295 41.4668C56.7718 41.4668 57.2549 41.5625 57.6787 41.7539C58.1071 41.9408 58.4694 42.2051 58.7656 42.5469C59.0618 42.8841 59.2874 43.2829 59.4424 43.7432C59.5973 44.1989 59.6748 44.6934 59.6748 45.2266V45.3838C59.6748 45.917 59.5973 46.4115 59.4424 46.8672C59.2874 47.3229 59.0618 47.7217 58.7656 48.0635C58.4694 48.4007 58.1094 48.665 57.6855 48.8564C57.2617 49.0433 56.7809 49.1367 56.2432 49.1367C55.7008 49.1367 55.2155 49.0433 54.7871 48.8564C54.3633 48.665 54.0033 48.4007 53.707 48.0635C53.4108 47.7217 53.1852 47.3229 53.0303 46.8672C52.8753 46.4115 52.7979 45.917 52.7979 45.3838ZM54.4453 45.2266V45.3838C54.4453 45.7165 54.4795 46.0309 54.5479 46.3271C54.6162 46.6234 54.7233 46.8831 54.8691 47.1064C55.015 47.3298 55.2018 47.5052 55.4297 47.6328C55.6576 47.7604 55.9287 47.8242 56.2432 47.8242C56.5485 47.8242 56.8128 47.7604 57.0361 47.6328C57.264 47.5052 57.4508 47.3298 57.5967 47.1064C57.7425 46.8831 57.8496 46.6234 57.918 46.3271C57.9909 46.0309 58.0273 45.7165 58.0273 45.3838V45.2266C58.0273 44.8984 57.9909 44.5885 57.918 44.2969C57.8496 44.0007 57.7402 43.7386 57.5898 43.5107C57.444 43.2829 57.2572 43.1051 57.0293 42.9775C56.806 42.8454 56.5394 42.7793 56.2295 42.7793C55.9196 42.7793 55.6507 42.8454 55.4229 42.9775C55.1995 43.1051 55.015 43.2829 54.8691 43.5107C54.7233 43.7386 54.6162 44.0007 54.5479 44.2969C54.4795 44.5885 54.4453 44.8984 54.4453 45.2266ZM62.7168 38.5V49H61.0625V38.5H62.7168ZM67.3105 41.6035L64.0908 45.1719L62.3271 46.9766L61.8965 45.582L63.2295 43.9346L65.3213 41.6035H67.3105ZM65.6768 49L63.2773 45.5273L64.3164 44.3721L67.584 49H65.6768Z" fill="#B2B2B3"/>
</svg>
