<svg width="38" height="38" viewBox="0 0 38 38" fill="none" xmlns="http://www.w3.org/2000/svg">
<path id="Vector" d="M-0.00390625 3.16341C-0.00390625 2.32339 0.329792 1.51777 0.92378 0.92378C1.51777 0.329792 2.32339 -0.00390625 3.16341 -0.00390625L9.49805 -0.00390625V3.16341H3.16341V9.49805H-0.00390625V3.16341ZM38.0039 34.8366C38.0039 35.6766 37.6702 36.4822 37.0762 37.0762C36.4822 37.6702 35.6766 38.0039 34.8366 38.0039H28.502V34.8366H34.8366V28.502H38.0039V34.8366ZM3.16341 38.0039C2.32339 38.0039 1.51777 37.6702 0.92378 37.0762C0.329792 36.4822 -0.00390625 35.6766 -0.00390625 34.8366V28.502H3.16341V34.8366H9.49805V38.0039H3.16341ZM34.8366 -0.00390625C35.6766 -0.00390625 36.4822 0.329792 37.0762 0.92378C37.6702 1.51777 38.0039 2.32339 38.0039 3.16341V9.49805H34.8366V3.16341H28.502V-0.00390625H34.8366Z" fill="#28519E"/>
</svg>
