<svg width="18" height="18" viewBox="0 0 18 18" fill="none" xmlns="http://www.w3.org/2000/svg">
<g id="Star">
<path id="Vector" d="M16.8215 6.84532C16.7534 6.63536 16.625 6.45008 16.4524 6.31255C16.2797 6.17502 16.0704 6.09133 15.8505 6.07189L11.6747 5.71189L10.0378 1.81939C9.95257 1.61514 9.80883 1.44067 9.62465 1.31796C9.44048 1.19524 9.22411 1.12976 9.0028 1.12976C8.78148 1.12976 8.56512 1.19524 8.38094 1.31796C8.19677 1.44067 8.05302 1.61514 7.9678 1.81939L6.33584 5.71189L2.15506 6.074C1.93431 6.09255 1.72394 6.17586 1.55035 6.31349C1.37675 6.45112 1.24766 6.63694 1.17925 6.84765C1.11084 7.05836 1.10616 7.28457 1.16581 7.49793C1.22545 7.71128 1.34676 7.90228 1.51452 8.04696L4.68631 10.8187L3.73569 14.9348C3.68542 15.1502 3.69976 15.3756 3.77693 15.5829C3.85409 15.7902 3.99064 15.9701 4.16951 16.1002C4.34839 16.2303 4.56164 16.3048 4.78262 16.3144C5.0036 16.324 5.2225 16.2682 5.41194 16.154L8.99788 13.9743L12.5915 16.154C12.781 16.2682 12.9999 16.324 13.2209 16.3144C13.4418 16.3048 13.6551 16.2303 13.834 16.1002C14.0128 15.9701 14.1494 15.7902 14.2266 15.5829C14.3037 15.3756 14.3181 15.1502 14.2678 14.9348L13.3179 10.8145L16.489 8.04696C16.6567 7.90178 16.7778 7.71024 16.8369 7.49643C16.8961 7.28262 16.8908 7.05609 16.8215 6.84532ZM15.7514 7.19689L12.5803 9.96439C12.426 10.0986 12.3111 10.2724 12.2482 10.4671C12.1853 10.6617 12.1766 10.8698 12.2231 11.069L13.1758 15.1921L9.58498 13.0124C9.40979 12.9057 9.20862 12.8493 9.0035 12.8493C8.79838 12.8493 8.59721 12.9057 8.42202 13.0124L4.83608 15.1921L5.78249 11.0718C5.829 10.8726 5.82032 10.6645 5.75738 10.4699C5.69445 10.2752 5.57963 10.1014 5.4253 9.9672L2.2528 7.20111C2.25254 7.199 2.25254 7.19688 2.2528 7.19478L6.43217 6.83337C6.63622 6.81539 6.83149 6.74203 6.99691 6.62122C7.16232 6.50041 7.29162 6.33672 7.37084 6.14782L9.0028 2.26025L10.634 6.14782C10.7133 6.33672 10.8426 6.50041 11.008 6.62122C11.1734 6.74203 11.3687 6.81539 11.5727 6.83337L15.7528 7.19478C15.7528 7.19478 15.7528 7.199 15.7528 7.1997L15.7514 7.19689Z" fill="#B2B2B3"/>
</g>
</svg>
