<svg width="18" height="18" viewBox="0 0 18 18" fill="none" xmlns="http://www.w3.org/2000/svg">
<g id="Star">
<path id="Vector" d="M16.2087 7.62872L16.1611 7.67025L12.99 10.4378L12.7642 10.6348L12.8316 10.9268L13.7815 15.0471L13.7818 15.0484C13.8097 15.1681 13.8017 15.2933 13.7589 15.4085C13.716 15.5236 13.6401 15.6236 13.5408 15.6959C13.4414 15.7682 13.3229 15.8096 13.2001 15.8149C13.0776 15.8202 12.9562 15.7893 12.8511 15.7261C12.8509 15.726 12.8507 15.7259 12.8505 15.7257L9.25807 13.5468L8.99849 13.3894L8.73906 13.547L5.15475 15.7257C5.15451 15.7259 5.15428 15.726 5.15405 15.7262C5.04896 15.7893 4.92762 15.8202 4.80513 15.8149C4.68236 15.8096 4.56388 15.7682 4.46451 15.6959L4.1704 16.1002L4.46451 15.6959C4.36514 15.6236 4.28927 15.5236 4.24641 15.4085C4.20354 15.2933 4.19557 15.1681 4.2235 15.0484L4.22381 15.0471L5.17233 10.931L5.23956 10.6392L5.0141 10.4422L1.84231 7.67046L1.84231 7.67046L1.83985 7.66833C1.74665 7.58795 1.67926 7.48184 1.64612 7.36331C1.61299 7.24478 1.61559 7.11911 1.65359 7.00205C1.6916 6.88499 1.76332 6.78175 1.85976 6.70529C1.9562 6.62883 2.07307 6.58255 2.19571 6.57224L2.19699 6.57213L6.37777 6.21002L6.67888 6.18394L6.79574 5.90521L8.42769 2.01271L8.42802 2.01193C8.47525 1.89874 8.55491 1.80206 8.65697 1.73405C8.75904 1.66605 8.87894 1.62976 9.00158 1.62976C9.12423 1.62976 9.24413 1.66605 9.34619 1.73405C9.44825 1.80206 9.52791 1.89874 9.57514 2.01193L9.57568 2.01321L11.2126 5.90571L11.3296 6.18396L11.6303 6.21002L15.8097 6.57213L15.811 6.57224C15.9336 6.58255 16.0505 6.62883 16.1469 6.70529C16.2434 6.78175 16.3151 6.88499 16.3531 7.00205C16.3911 7.11911 16.3937 7.24478 16.3606 7.36331C16.3326 7.46327 16.2803 7.5544 16.2087 7.62872Z" fill="#FFB81C" stroke="#DC8633"/>
</g>
</svg>
